<?xml version="1.0" encoding="UTF-8" standalone="no"?>
<!-- Created with Inkscape (http://www.inkscape.org/) -->

<svg
   width="5000"
   height="5000"
   viewBox="0 0 1322.9166 1322.9167"
   version="1.1"
   id="svg13480"
   xml:space="preserve"
   inkscape:version="1.2.1 (9c6d41e410, 2022-07-14)"
   sodipodi:docname="Sea Colors.svg"
   xmlns:inkscape="http://www.inkscape.org/namespaces/inkscape"
   xmlns:sodipodi="http://sodipodi.sourceforge.net/DTD/sodipodi-0.dtd"
   xmlns="http://www.w3.org/2000/svg"
   xmlns:svg="http://www.w3.org/2000/svg"><sodipodi:namedview
     id="namedview13482"
     pagecolor="#ffffff"
     bordercolor="#000000"
     borderopacity="0.25"
     inkscape:showpageshadow="2"
     inkscape:pageopacity="0.0"
     inkscape:pagecheckerboard="0"
     inkscape:deskcolor="#d1d1d1"
     inkscape:document-units="px"
     showgrid="false"
     inkscape:lockguides="true"
     inkscape:zoom="0.38440306"
     inkscape:cx="6739.0203"
     inkscape:cy="4170.1021"
     inkscape:window-width="1920"
     inkscape:window-height="1017"
     inkscape:window-x="-8"
     inkscape:window-y="-8"
     inkscape:window-maximized="1"
     inkscape:current-layer="layer1" /><defs
     id="defs13477" /><g
     inkscape:label="Vrstva 1"
     inkscape:groupmode="layer"
     id="layer1"><rect
       style="fill:#0057af;fill-opacity:1;stroke:none;stroke-width:0.265378"
       id="rect13653"
       width="1322.9166"
       height="1322.9166"
       x="0"
       y="0"
       ry="0" /></g><g
     inkscape:groupmode="layer"
     id="layer5"
     inkscape:label="vlny"><path
       style="fill:#ffffff;fill-opacity:1;stroke-width:0.264583"
       d="m 129.52775,126.05231 c -1.04274,-0.47991 -1.82257,-1.35597 -1.57032,-1.76411 0.11672,-0.18887 0.0887,-0.25393 -0.0677,-0.15726 -1.84036,1.1374 -0.76617,-6.23214 1.12526,-7.71994 0.8387,-0.65972 0.58837,-0.82984 -1.22106,-0.82984 -3.24815,0 -4.70062,0.75198 -12.68377,6.56678 -4.88866,3.56082 -8.58523,4.11888 -10.69273,1.61426 -1.18502,-1.40832 -0.82211,-2.45422 0.394,-1.13549 2.18002,2.36397 5.19205,1.82496 9.90185,-1.77196 7.23553,-5.52582 9.06508,-6.43647 12.96458,-6.453 3.91405,-0.0166 6.56454,1.50314 3.88155,2.2256 -3.13628,0.84451 -4.51593,5.79584 -2.16594,7.77322 1.64547,1.38457 2.793,1.21976 8.76576,-1.25901 3.5007,-1.45283 7.64682,-2.00593 8.0067,-1.0681 0.18978,0.49455 -0.0166,0.56491 -2.2469,0.76581 -2.31003,0.2081 -4.04352,0.73357 -7.24533,2.19629 -2.97233,1.35788 -5.59421,1.73093 -7.14597,1.01675 z"
       id="path14085" /><path
       style="fill:#ffffff;fill-opacity:1;stroke-width:0.264583"
       d="m 303.40486,311.29467 c -1.04274,-0.47991 -1.82257,-1.35597 -1.57032,-1.76411 0.11672,-0.18887 0.0887,-0.25393 -0.0677,-0.15726 -1.84036,1.1374 -0.76617,-6.23214 1.12526,-7.71994 0.8387,-0.65972 0.58837,-0.82984 -1.22106,-0.82984 -3.24815,0 -4.70062,0.75198 -12.68377,6.56678 -4.88866,3.56082 -8.58523,4.11888 -10.69273,1.61426 -1.18502,-1.40832 -0.82211,-2.45422 0.394,-1.13549 2.18002,2.36397 5.19205,1.82496 9.90185,-1.77196 7.23553,-5.52582 9.06508,-6.43647 12.96458,-6.453 3.91405,-0.0166 6.56454,1.50314 3.88155,2.2256 -3.13628,0.84451 -4.51593,5.79584 -2.16594,7.77322 1.64547,1.38457 2.793,1.21976 8.76576,-1.25901 3.5007,-1.45283 7.64682,-2.00593 8.0067,-1.0681 0.18978,0.49455 -0.0166,0.56491 -2.2469,0.76581 -2.31003,0.2081 -4.04352,0.73357 -7.24533,2.19629 -2.97233,1.35788 -5.59421,1.73093 -7.14597,1.01675 z"
       id="path14085-0" /><path
       style="fill:#ffffff;fill-opacity:1;stroke-width:0.264583"
       d="m 602.23818,467.03842 c -1.04274,-0.47991 -1.82257,-1.35597 -1.57032,-1.76411 0.11672,-0.18887 0.0887,-0.25393 -0.0677,-0.15726 -1.84036,1.1374 -0.76617,-6.23214 1.12526,-7.71994 0.8387,-0.65972 0.58837,-0.82984 -1.22106,-0.82984 -3.24815,0 -4.70062,0.75198 -12.68377,6.56678 -4.88866,3.56082 -8.58523,4.11888 -10.69273,1.61426 -1.18502,-1.40832 -0.82211,-2.45422 0.394,-1.13549 2.18002,2.36397 5.19205,1.82496 9.90185,-1.77196 7.23553,-5.52582 9.06508,-6.43647 12.96458,-6.453 3.91405,-0.0166 6.56454,1.50314 3.88155,2.2256 -3.13628,0.84451 -4.51593,5.79584 -2.16594,7.77322 1.64547,1.38457 2.793,1.21976 8.76576,-1.25901 3.5007,-1.45283 7.64682,-2.00593 8.0067,-1.0681 0.18978,0.49455 -0.0166,0.56491 -2.2469,0.76581 -2.31003,0.2081 -4.04352,0.73357 -7.24533,2.19629 -2.97233,1.35788 -5.59421,1.73093 -7.14597,1.01675 z"
       id="path14085-6" /><path
       style="fill:#ffffff;fill-opacity:1;stroke-width:0.264583"
       d="m 921.51286,424.20889 c -1.04274,-0.47991 -1.82257,-1.35597 -1.57032,-1.76411 0.11672,-0.18887 0.0887,-0.25393 -0.0677,-0.15726 -1.84036,1.1374 -0.76617,-6.23214 1.12526,-7.71994 0.8387,-0.65972 0.58837,-0.82984 -1.22106,-0.82984 -3.24815,0 -4.70062,0.75198 -12.68377,6.56678 -4.88866,3.56082 -8.58523,4.11888 -10.69273,1.61426 -1.18502,-1.40832 -0.82211,-2.45422 0.394,-1.13549 2.18002,2.36397 5.19205,1.82496 9.90185,-1.77196 7.23553,-5.52582 9.06508,-6.43647 12.96458,-6.453 3.91405,-0.0166 6.56454,1.50314 3.88155,2.2256 -3.13628,0.84451 -4.51593,5.79584 -2.16594,7.77322 1.64547,1.38457 2.793,1.21976 8.76576,-1.25901 3.5007,-1.45283 7.64682,-2.00593 8.0067,-1.0681 0.18978,0.49455 -0.0166,0.56491 -2.2469,0.76581 -2.31003,0.2081 -4.04352,0.73357 -7.24533,2.19629 -2.97233,1.35788 -5.59421,1.73093 -7.14597,1.01675 z"
       id="path14085-8" /><path
       style="fill:#ffffff;fill-opacity:1;stroke-width:0.264583"
       d="m 902.0449,282.09272 c -1.04274,-0.47991 -1.82257,-1.35597 -1.57032,-1.76411 0.11672,-0.18887 0.0887,-0.25393 -0.0677,-0.15726 -1.84036,1.1374 -0.76617,-6.23214 1.12526,-7.71994 0.8387,-0.65972 0.58837,-0.82984 -1.22106,-0.82984 -3.24815,0 -4.70062,0.75198 -12.68377,6.56678 -4.88866,3.56082 -8.58523,4.11888 -10.69273,1.61426 -1.18502,-1.40832 -0.82211,-2.45422 0.394,-1.13549 2.18002,2.36397 5.19205,1.82496 9.90185,-1.77196 7.23553,-5.52582 9.06508,-6.43647 12.96458,-6.453 3.91405,-0.0166 6.56454,1.50314 3.88155,2.2256 -3.13628,0.84451 -4.51593,5.79584 -2.16594,7.77322 1.64547,1.38457 2.793,1.21976 8.76576,-1.25901 3.5007,-1.45283 7.64682,-2.00593 8.0067,-1.0681 0.18978,0.49455 -0.0166,0.56491 -2.2469,0.76581 -2.31003,0.2081 -4.04352,0.73357 -7.24533,2.19629 -2.97233,1.35788 -5.59421,1.73093 -7.14597,1.01675 z"
       id="path14085-7" /><path
       style="fill:#ffffff;fill-opacity:1;stroke-width:0.264583"
       d="m 709.31201,229.5292 c -1.04274,-0.47991 -1.82257,-1.35597 -1.57032,-1.76411 0.11672,-0.18887 0.0887,-0.25393 -0.0677,-0.15726 -1.84036,1.1374 -0.76617,-6.23214 1.12526,-7.71994 0.8387,-0.65972 0.58837,-0.82984 -1.22106,-0.82984 -3.24815,0 -4.70062,0.75198 -12.68377,6.56678 -4.88866,3.56082 -8.58523,4.11888 -10.69273,1.61426 -1.18502,-1.40832 -0.82211,-2.45422 0.394,-1.13549 2.18002,2.36397 5.19205,1.82496 9.90185,-1.77196 7.23553,-5.52582 9.06508,-6.43647 12.96458,-6.453 3.91405,-0.0166 6.56454,1.50314 3.88155,2.2256 -3.13628,0.84451 -4.51593,5.79584 -2.16594,7.77322 1.64547,1.38457 2.793,1.21976 8.76576,-1.25901 3.5007,-1.45283 7.64682,-2.00593 8.0067,-1.0681 0.18978,0.49455 -0.0166,0.56491 -2.2469,0.76581 -2.31003,0.2081 -4.04352,0.73357 -7.24533,2.19629 -2.97233,1.35788 -5.59421,1.73093 -7.14597,1.01675 z"
       id="path14085-1" /><path
       style="fill:#ffffff;fill-opacity:1;stroke-width:0.264583"
       d="m 526.3131,270.41194 c -1.04274,-0.47991 -1.82257,-1.35597 -1.57032,-1.76411 0.11672,-0.18887 0.0887,-0.25393 -0.0677,-0.15726 -1.84036,1.1374 -0.76617,-6.23214 1.12526,-7.71994 0.8387,-0.65972 0.58837,-0.82984 -1.22106,-0.82984 -3.24815,0 -4.70062,0.75198 -12.68377,6.56678 -4.88866,3.56082 -8.58523,4.11888 -10.69273,1.61426 -1.18502,-1.40832 -0.82211,-2.45422 0.394,-1.13549 2.18002,2.36397 5.19205,1.82496 9.90185,-1.77196 7.23553,-5.52582 9.06508,-6.43647 12.96458,-6.453 3.91405,-0.0166 6.56454,1.50314 3.88155,2.2256 -3.13628,0.84451 -4.51593,5.79584 -2.16594,7.77322 1.64547,1.38457 2.793,1.21976 8.76576,-1.25901 3.5007,-1.45283 7.64682,-2.00593 8.0067,-1.0681 0.18978,0.49455 -0.0166,0.56491 -2.2469,0.76581 -2.31003,0.2081 -4.04352,0.73357 -7.24533,2.19629 -2.97233,1.35788 -5.59421,1.73093 -7.14597,1.01675 z"
       id="path14085-72" /><path
       style="fill:#ffffff;fill-opacity:1;stroke-width:0.264583"
       d="m 300.48467,653.93092 c -1.04274,-0.47991 -1.82257,-1.35597 -1.57032,-1.76411 0.11672,-0.18887 0.0887,-0.25393 -0.0677,-0.15726 -1.84036,1.1374 -0.76617,-6.23214 1.12526,-7.71994 0.8387,-0.65972 0.58837,-0.82984 -1.22106,-0.82984 -3.24815,0 -4.70062,0.75198 -12.68377,6.56678 -4.88866,3.56082 -8.58523,4.11888 -10.69273,1.61426 -1.18502,-1.40832 -0.82211,-2.45422 0.394,-1.13549 2.18002,2.36397 5.19205,1.82496 9.90185,-1.77196 7.23553,-5.52582 9.06508,-6.43647 12.96458,-6.453 3.91405,-0.0166 6.56454,1.50314 3.88155,2.2256 -3.13628,0.84451 -4.51593,5.79584 -2.16594,7.77322 1.64547,1.38457 2.793,1.21976 8.76576,-1.25901 3.5007,-1.45283 7.64682,-2.00593 8.0067,-1.0681 0.18978,0.49455 -0.0166,0.56491 -2.2469,0.76581 -2.31003,0.2081 -4.04352,0.73357 -7.24533,2.19629 -2.97233,1.35788 -5.59421,1.73093 -7.14597,1.01675 z"
       id="path14085-9" /><path
       style="fill:#ffffff;fill-opacity:1;stroke-width:0.264583"
       d="m 284.91029,690.92006 c -1.04274,-0.47991 -1.82257,-1.35597 -1.57032,-1.76411 0.11672,-0.18887 0.0887,-0.25393 -0.0677,-0.15726 -1.84036,1.1374 -0.76617,-6.23214 1.12526,-7.71994 0.8387,-0.65972 0.58837,-0.82984 -1.22106,-0.82984 -3.24815,0 -4.70062,0.75198 -12.68377,6.56678 -4.88866,3.56082 -8.58523,4.11888 -10.69273,1.61426 -1.18502,-1.40832 -0.82211,-2.45422 0.394,-1.13549 2.18002,2.36397 5.19205,1.82496 9.90185,-1.77196 7.23553,-5.52582 9.06508,-6.43647 12.96458,-6.453 3.91405,-0.0166 6.56454,1.50314 3.88155,2.2256 -3.13628,0.84451 -4.51593,5.79584 -2.16594,7.77322 1.64547,1.38457 2.793,1.21976 8.76576,-1.25901 3.5007,-1.45283 7.64682,-2.00593 8.0067,-1.0681 0.18978,0.49455 -0.0166,0.56491 -2.2469,0.76581 -2.31003,0.2081 -4.04352,0.73357 -7.24533,2.19629 -2.97233,1.35788 -5.59421,1.73093 -7.14597,1.01675 z"
       id="path14085-4" /><path
       style="fill:#ffffff;fill-opacity:1;stroke-width:0.264583"
       d="m 719.04599,768.79193 c -1.04274,-0.47991 -1.82257,-1.35597 -1.57032,-1.76411 0.11672,-0.18887 0.0887,-0.25393 -0.0677,-0.15726 -1.84036,1.1374 -0.76617,-6.23214 1.12526,-7.71994 0.8387,-0.65972 0.58837,-0.82984 -1.22106,-0.82984 -3.24815,0 -4.70062,0.75198 -12.68377,6.56678 -4.88866,3.56082 -8.58523,4.11888 -10.69273,1.61426 -1.18502,-1.40832 -0.82211,-2.45422 0.394,-1.13549 2.18002,2.36397 5.19205,1.82496 9.90185,-1.77196 7.23553,-5.52582 9.06508,-6.43647 12.96458,-6.453 3.91405,-0.0166 6.56454,1.50314 3.88155,2.2256 -3.13628,0.84451 -4.51593,5.79584 -2.16594,7.77322 1.64547,1.38457 2.793,1.21976 8.76576,-1.25901 3.5007,-1.45283 7.64682,-2.00593 8.0067,-1.0681 0.18978,0.49455 -0.0166,0.56491 -2.2469,0.76581 -2.31003,0.2081 -4.04352,0.73357 -7.24533,2.19629 -2.97233,1.35788 -5.59421,1.73093 -7.14597,1.01675 z"
       id="path14085-61" /><path
       style="fill:#ffffff;fill-opacity:1;stroke-width:0.264583"
       d="m 909.83208,813.56826 c -1.04274,-0.47991 -1.82257,-1.35597 -1.57032,-1.76411 0.11672,-0.18887 0.0887,-0.25393 -0.0677,-0.15726 -1.84036,1.1374 -0.76617,-6.23214 1.12526,-7.71994 0.8387,-0.65972 0.58837,-0.82984 -1.22106,-0.82984 -3.24815,0 -4.70062,0.75198 -12.68377,6.56678 -4.88866,3.56082 -8.58523,4.11888 -10.69273,1.61426 -1.18502,-1.40832 -0.82211,-2.45422 0.394,-1.13549 2.18002,2.36397 5.19205,1.82496 9.90185,-1.77196 7.23553,-5.52582 9.06508,-6.43647 12.96458,-6.453 3.91405,-0.0166 6.56454,1.50314 3.88155,2.2256 -3.13628,0.84451 -4.51593,5.79584 -2.16594,7.77322 1.64547,1.38457 2.793,1.21976 8.76576,-1.25901 3.5007,-1.45283 7.64682,-2.00593 8.0067,-1.0681 0.18978,0.49455 -0.0166,0.56491 -2.2469,0.76581 -2.31003,0.2081 -4.04352,0.73357 -7.24533,2.19629 -2.97233,1.35788 -5.59421,1.73093 -7.14597,1.01675 z"
       id="path14085-5" /><path
       style="fill:#ffffff;fill-opacity:1;stroke-width:0.264583"
       d="m 833.90701,963.47162 c -1.04274,-0.47991 -1.82257,-1.35597 -1.57032,-1.76411 0.11672,-0.18887 0.0887,-0.25393 -0.0677,-0.15726 -1.84036,1.1374 -0.76617,-6.23214 1.12526,-7.71994 0.8387,-0.65972 0.58837,-0.82984 -1.22106,-0.82984 -3.24815,0 -4.70062,0.75198 -12.68377,6.56678 -4.88866,3.56082 -8.58523,4.11888 -10.69273,1.61426 -1.18502,-1.40832 -0.82211,-2.45422 0.394,-1.13549 2.18002,2.36397 5.19205,1.82496 9.90185,-1.77196 7.23553,-5.52582 9.06508,-6.43647 12.96458,-6.453 3.91405,-0.0166 6.56454,1.50314 3.88155,2.2256 -3.13628,0.84451 -4.51593,5.79584 -2.16594,7.77322 1.64547,1.38457 2.793,1.21976 8.76576,-1.25901 3.5007,-1.45283 7.64682,-2.00593 8.0067,-1.0681 0.18978,0.49455 -0.0166,0.56491 -2.2469,0.76581 -2.31003,0.2081 -4.04352,0.73357 -7.24533,2.19629 -2.97233,1.35788 -5.59421,1.73093 -7.14597,1.01675 z"
       id="path14085-88" /><path
       style="fill:#ffffff;fill-opacity:1;stroke-width:0.264583"
       d="m 382.25013,1066.6519 c -1.04274,-0.48 -1.82257,-1.356 -1.57032,-1.7642 0.11672,-0.1888 0.0887,-0.2539 -0.0677,-0.1572 -1.84036,1.1374 -0.76617,-6.2322 1.12526,-7.72 0.8387,-0.6597 0.58837,-0.8298 -1.22106,-0.8298 -3.24815,0 -4.70062,0.752 -12.68377,6.5668 -4.88866,3.5608 -8.58523,4.1189 -10.69273,1.6142 -1.18502,-1.4083 -0.82211,-2.4542 0.394,-1.1354 2.18002,2.3639 5.19205,1.8249 9.90185,-1.772 7.23553,-5.5258 9.06508,-6.4365 12.96458,-6.453 3.91405,-0.017 6.56454,1.5031 3.88155,2.2256 -3.13628,0.8445 -4.51593,5.7958 -2.16594,7.7732 1.64547,1.3846 2.793,1.2198 8.76576,-1.259 3.5007,-1.4528 7.64682,-2.0059 8.0067,-1.0681 0.18978,0.4946 -0.0166,0.5649 -2.2469,0.7658 -2.31003,0.2081 -4.04352,0.7336 -7.24533,2.1963 -2.97233,1.3579 -5.59421,1.7309 -7.14597,1.0168 z"
       id="path14085-883" /><path
       style="fill:#ffffff;fill-opacity:1;stroke-width:0.264583"
       d="m 267.38912,1212.6616 c -1.04274,-0.4799 -1.82257,-1.356 -1.57032,-1.7641 0.11672,-0.1889 0.0887,-0.2539 -0.0677,-0.1573 -1.84036,1.1374 -0.76617,-6.2321 1.12526,-7.7199 0.8387,-0.6597 0.58837,-0.8298 -1.22106,-0.8298 -3.24815,0 -4.70062,0.7519 -12.68377,6.5667 -4.88866,3.5609 -8.58523,4.1189 -10.69273,1.6143 -1.18502,-1.4083 -0.82211,-2.4542 0.394,-1.1355 2.18002,2.364 5.19205,1.825 9.90185,-1.7719 7.23553,-5.5259 9.06508,-6.4365 12.96458,-6.453 3.91405,-0.017 6.56454,1.5031 3.88155,2.2256 -3.13628,0.8445 -4.51593,5.7958 -2.16594,7.7732 1.64547,1.3845 2.793,1.2197 8.76576,-1.259 3.5007,-1.4529 7.64682,-2.006 8.0067,-1.0681 0.18978,0.4945 -0.0166,0.5649 -2.2469,0.7658 -2.31003,0.2081 -4.04352,0.7335 -7.24533,2.1963 -2.97233,1.3578 -5.59421,1.7309 -7.14597,1.0167 z"
       id="path14085-08" /><path
       style="fill:#ffffff;fill-opacity:1;stroke-width:0.264583"
       d="m 423.13287,1255.4911 c -1.04274,-0.4799 -1.82257,-1.356 -1.57032,-1.7641 0.11672,-0.1889 0.0887,-0.2539 -0.0677,-0.1573 -1.84036,1.1374 -0.76617,-6.2321 1.12526,-7.7199 0.8387,-0.6597 0.58837,-0.8298 -1.22106,-0.8298 -3.24815,0 -4.70062,0.7519 -12.68377,6.5667 -4.88866,3.5609 -8.58523,4.1189 -10.69273,1.6143 -1.18502,-1.4083 -0.82211,-2.4542 0.394,-1.1355 2.18002,2.364 5.19205,1.825 9.90185,-1.772 7.23553,-5.5258 9.06508,-6.4364 12.96458,-6.453 3.91405,-0.016 6.56454,1.5032 3.88155,2.2256 -3.13628,0.8446 -4.51593,5.7959 -2.16594,7.7733 1.64547,1.3845 2.793,1.2197 8.76576,-1.259 3.5007,-1.4529 7.64682,-2.006 8.0067,-1.0681 0.18978,0.4945 -0.0166,0.5649 -2.2469,0.7658 -2.31003,0.2081 -4.04352,0.7335 -7.24533,2.1963 -2.97233,1.3578 -5.59421,1.7309 -7.14597,1.0167 z"
       id="path14085-67" /><path
       style="fill:#ffffff;fill-opacity:1;stroke-width:0.264583"
       d="m 756.03513,1230.1828 c -1.04274,-0.4799 -1.82257,-1.356 -1.57032,-1.7641 0.11672,-0.1889 0.0887,-0.2539 -0.0677,-0.1573 -1.84036,1.1374 -0.76617,-6.2321 1.12526,-7.7199 0.8387,-0.6597 0.58837,-0.8298 -1.22106,-0.8298 -3.24815,0 -4.70062,0.7519 -12.68377,6.5667 -4.88866,3.5609 -8.58523,4.1189 -10.69273,1.6143 -1.18502,-1.4083 -0.82211,-2.4542 0.394,-1.1355 2.18002,2.364 5.19205,1.825 9.90185,-1.7719 7.23553,-5.5259 9.06508,-6.4365 12.96458,-6.453 3.91405,-0.017 6.56454,1.5031 3.88155,2.2256 -3.13628,0.8445 -4.51593,5.7958 -2.16594,7.7732 1.64547,1.3845 2.793,1.2197 8.76576,-1.259 3.5007,-1.4529 7.64682,-2.006 8.0067,-1.0681 0.18978,0.4945 -0.0166,0.5649 -2.2469,0.7658 -2.31003,0.2081 -4.04352,0.7335 -7.24533,2.1963 -2.97233,1.3578 -5.59421,1.7309 -7.14597,1.0167 z"
       id="path14085-93" /><path
       style="fill:#ffffff;fill-opacity:1;stroke-width:0.264583"
       d="m 1046.1079,1101.6942 c -1.0428,-0.4799 -1.8226,-1.356 -1.5704,-1.7641 0.1168,-0.1889 0.089,-0.2539 -0.068,-0.1573 -1.8403,1.1374 -0.7661,-6.2321 1.1253,-7.7199 0.8387,-0.6597 0.5884,-0.8298 -1.2211,-0.8298 -3.2481,0 -4.7006,0.7519 -12.6837,6.5667 -4.8887,3.5609 -8.5853,4.1189 -10.6928,1.6143 -1.185,-1.4083 -0.8221,-2.4542 0.394,-1.1355 2.1801,2.364 5.1921,1.825 9.9019,-1.772 7.2355,-5.5258 9.0651,-6.4364 12.9646,-6.453 3.914,-0.017 6.5645,1.5032 3.8815,2.2256 -3.1363,0.8446 -4.5159,5.7959 -2.1659,7.7733 1.6455,1.3845 2.793,1.2197 8.7657,-1.259 3.5007,-1.4529 7.6469,-2.006 8.0067,-1.0681 0.1898,0.4945 -0.017,0.5649 -2.2469,0.7658 -2.31,0.2081 -4.0435,0.7335 -7.2453,2.1963 -2.9723,1.3578 -5.5942,1.7309 -7.146,1.0167 z"
       id="path14085-89" /><path
       style="fill:#ffffff;fill-opacity:1;stroke-width:0.264583"
       d="m 1153.1817,825.24904 c -1.0428,-0.47991 -1.8226,-1.35597 -1.5704,-1.76411 0.1168,-0.18887 0.089,-0.25393 -0.068,-0.15726 -1.8403,1.1374 -0.7661,-6.23214 1.1253,-7.71994 0.8387,-0.65972 0.5884,-0.82984 -1.2211,-0.82984 -3.2481,0 -4.7006,0.75198 -12.6837,6.56678 -4.8887,3.56082 -8.5853,4.11888 -10.6928,1.61426 -1.185,-1.40832 -0.8221,-2.45422 0.394,-1.13549 2.1801,2.36397 5.1921,1.82496 9.9019,-1.77196 7.2355,-5.52582 9.0651,-6.43647 12.9646,-6.453 3.914,-0.0166 6.5645,1.50314 3.8815,2.2256 -3.1363,0.84451 -4.5159,5.79584 -2.1659,7.77322 1.6454,1.38457 2.793,1.21976 8.7657,-1.25901 3.5007,-1.45283 7.6469,-2.00593 8.0067,-1.0681 0.1898,0.49455 -0.017,0.56491 -2.2469,0.76581 -2.31,0.2081 -4.0435,0.73357 -7.2453,2.19629 -2.9723,1.35788 -5.5942,1.73093 -7.146,1.01675 z"
       id="path14085-2" /><path
       style="fill:#ffffff;fill-opacity:1;stroke-width:0.264583"
       d="m 1020.7995,708.44123 c -1.0427,-0.47991 -1.8226,-1.35597 -1.5703,-1.76411 0.1167,-0.18887 0.089,-0.25393 -0.068,-0.15726 -1.8404,1.1374 -0.7662,-6.23214 1.1252,-7.71994 0.8387,-0.65972 0.5884,-0.82984 -1.221,-0.82984 -3.2482,0 -4.7006,0.75198 -12.6838,6.56678 -4.8887,3.56082 -8.58522,4.11888 -10.69272,1.61426 -1.18502,-1.40832 -0.82211,-2.45422 0.394,-1.13549 2.18002,2.36397 5.19202,1.82496 9.90182,-1.77196 7.2356,-5.52582 9.0651,-6.43647 12.9646,-6.453 3.9141,-0.0166 6.5646,1.50314 3.8816,2.2256 -3.1363,0.84451 -4.516,5.79584 -2.166,7.77322 1.6455,1.38457 2.793,1.21976 8.7658,-1.25901 3.5007,-1.45283 7.6468,-2.00593 8.0067,-1.0681 0.1898,0.49455 -0.017,0.56491 -2.2469,0.76581 -2.31,0.2081 -4.0435,0.73357 -7.2453,2.19629 -2.9724,1.35788 -5.5943,1.73093 -7.146,1.01675 z"
       id="path14085-21" /><path
       style="fill:#ffffff;fill-opacity:1;stroke-width:0.264583"
       d="m 580.82341,755.16436 c -1.04274,-0.47991 -1.82257,-1.35597 -1.57032,-1.76411 0.11672,-0.18887 0.0887,-0.25393 -0.0677,-0.15726 -1.84036,1.1374 -0.76617,-6.23214 1.12526,-7.71994 0.8387,-0.65972 0.58837,-0.82984 -1.22106,-0.82984 -3.24815,0 -4.70062,0.75198 -12.68377,6.56678 -4.88866,3.56082 -8.58523,4.11888 -10.69273,1.61426 -1.18502,-1.40832 -0.82211,-2.45422 0.394,-1.13549 2.18002,2.36397 5.19205,1.82496 9.90185,-1.77196 7.23553,-5.52582 9.06508,-6.43647 12.96458,-6.453 3.91405,-0.0166 6.56454,1.50314 3.88155,2.2256 -3.13628,0.84451 -4.51593,5.79584 -2.16594,7.77322 1.64547,1.38457 2.793,1.21976 8.76576,-1.25901 3.5007,-1.45283 7.64682,-2.00593 8.0067,-1.0681 0.18978,0.49455 -0.0166,0.56491 -2.2469,0.76581 -2.31003,0.2081 -4.04352,0.73357 -7.24533,2.19629 -2.97233,1.35788 -5.59421,1.73093 -7.14597,1.01675 z"
       id="path14085-934" /><path
       style="fill:#ffffff;fill-opacity:1;stroke-width:0.264583"
       d="m 434.81365,866.13178 c -1.04274,-0.47991 -1.82257,-1.35597 -1.57032,-1.76411 0.11672,-0.18887 0.0887,-0.25393 -0.0677,-0.15726 -1.84036,1.1374 -0.76617,-6.23214 1.12526,-7.71994 0.8387,-0.65972 0.58837,-0.82984 -1.22106,-0.82984 -3.24815,0 -4.70062,0.75198 -12.68377,6.56678 -4.88866,3.56082 -8.58523,4.11888 -10.69273,1.61426 -1.18502,-1.40832 -0.82211,-2.45422 0.394,-1.13549 2.18002,2.36397 5.19205,1.82496 9.90185,-1.77196 7.23553,-5.52582 9.06508,-6.43647 12.96458,-6.453 3.91405,-0.0166 6.56454,1.50314 3.88155,2.2256 -3.13628,0.84451 -4.51593,5.79584 -2.16594,7.77322 1.64547,1.38457 2.793,1.21976 8.76576,-1.25901 3.5007,-1.45283 7.64682,-2.00593 8.0067,-1.0681 0.18978,0.49455 -0.0166,0.56491 -2.2469,0.76581 -2.31003,0.2081 -4.04352,0.73357 -7.24533,2.19629 -2.97233,1.35788 -5.59421,1.73093 -7.14597,1.01675 z"
       id="path14085-938" /><path
       style="fill:#ffffff;fill-opacity:1;stroke-width:0.264583"
       d="m 249.86795,875.86576 c -1.04274,-0.47991 -1.82257,-1.35597 -1.57032,-1.76411 0.11672,-0.18887 0.0887,-0.25393 -0.0677,-0.15726 -1.84036,1.1374 -0.76617,-6.23214 1.12526,-7.71994 0.8387,-0.65972 0.58837,-0.82984 -1.22106,-0.82984 -3.24815,0 -4.70062,0.75198 -12.68377,6.56678 -4.88866,3.56082 -8.58523,4.11888 -10.69273,1.61426 -1.18502,-1.40832 -0.82211,-2.45422 0.394,-1.13549 2.18002,2.36397 5.19205,1.82496 9.90185,-1.77196 7.23553,-5.52582 9.06508,-6.43647 12.96458,-6.453 3.91405,-0.0166 6.56454,1.50314 3.88155,2.2256 -3.13628,0.84451 -4.51593,5.79584 -2.16594,7.77322 1.64547,1.38457 2.793,1.21976 8.76576,-1.25901 3.5007,-1.45283 7.64682,-2.00593 8.0067,-1.0681 0.18978,0.49455 -0.0166,0.56491 -2.2469,0.76581 -2.31003,0.2081 -4.04352,0.73357 -7.24533,2.19629 -2.97233,1.35788 -5.59421,1.73093 -7.14597,1.01675 z"
       id="path14085-75" /><path
       style="fill:#ffffff;fill-opacity:1;stroke-width:0.264583"
       d="m 185.62365,722.06881 c -1.04274,-0.47991 -1.82257,-1.35597 -1.57032,-1.76411 0.11672,-0.18887 0.0887,-0.25393 -0.0677,-0.15726 -1.84036,1.1374 -0.76617,-6.23214 1.12526,-7.71994 0.8387,-0.65972 0.58837,-0.82984 -1.22106,-0.82984 -3.24815,0 -4.70062,0.75198 -12.68377,6.56678 -4.88866,3.56082 -8.58523,4.11888 -10.69273,1.61426 -1.18502,-1.40832 -0.82211,-2.45422 0.394,-1.13549 2.18002,2.36397 5.19205,1.82496 9.90185,-1.77196 7.23553,-5.52582 9.06508,-6.43647 12.96458,-6.453 3.91405,-0.0166 6.56454,1.50314 3.88155,2.2256 -3.13628,0.84451 -4.51593,5.79584 -2.16594,7.77322 1.64547,1.38457 2.793,1.21976 8.76576,-1.25901 3.5007,-1.45283 7.64682,-2.00593 8.0067,-1.0681 0.18978,0.49455 -0.0166,0.56491 -2.2469,0.76581 -2.31003,0.2081 -4.04352,0.73357 -7.24533,2.19629 -2.97233,1.35788 -5.59421,1.73093 -7.14597,1.01675 z"
       id="path14085-84" /><path
       style="fill:#ffffff;fill-opacity:1;stroke-width:0.264583"
       d="m 179.78326,507.92116 c -1.04274,-0.47991 -1.82257,-1.35597 -1.57032,-1.76411 0.11672,-0.18887 0.0887,-0.25393 -0.0677,-0.15726 -1.84036,1.1374 -0.76617,-6.23214 1.12526,-7.71994 0.8387,-0.65972 0.58837,-0.82984 -1.22106,-0.82984 -3.24815,0 -4.70062,0.75198 -12.68377,6.56678 -4.88866,3.56082 -8.58523,4.11888 -10.69273,1.61426 -1.18502,-1.40832 -0.82211,-2.45422 0.394,-1.13549 2.18002,2.36397 5.19205,1.82496 9.90185,-1.77196 7.23553,-5.52582 9.06508,-6.43647 12.96458,-6.453 3.91405,-0.0166 6.56454,1.50314 3.88155,2.2256 -3.13628,0.84451 -4.51593,5.79584 -2.16594,7.77322 1.64547,1.38457 2.793,1.21976 8.76576,-1.25901 3.5007,-1.45283 7.64682,-2.00593 8.0067,-1.0681 0.18978,0.49455 -0.0166,0.56491 -2.2469,0.76581 -2.31003,0.2081 -4.04352,0.73357 -7.24533,2.19629 -2.97233,1.35788 -5.59421,1.73093 -7.14597,1.01675 z"
       id="path14085-66" /><path
       style="fill:#ffffff;fill-opacity:1;stroke-width:0.264583"
       d="m 292.69748,457.30444 c -1.04274,-0.47991 -1.82257,-1.35597 -1.57032,-1.76411 0.11672,-0.18887 0.0887,-0.25393 -0.0677,-0.15726 -1.84036,1.1374 -0.76617,-6.23214 1.12526,-7.71994 0.8387,-0.65972 0.58837,-0.82984 -1.22106,-0.82984 -3.24815,0 -4.70062,0.75198 -12.68377,6.56678 -4.88866,3.56082 -8.58523,4.11888 -10.69273,1.61426 -1.18502,-1.40832 -0.82211,-2.45422 0.394,-1.13549 2.18002,2.36397 5.19205,1.82496 9.90185,-1.77196 7.23553,-5.52582 9.06508,-6.43647 12.96458,-6.453 3.91405,-0.0166 6.56454,1.50314 3.88155,2.2256 -3.13628,0.84451 -4.51593,5.79584 -2.16594,7.77322 1.64547,1.38457 2.793,1.21976 8.76576,-1.25901 3.5007,-1.45283 7.64682,-2.00593 8.0067,-1.0681 0.18978,0.49455 -0.0166,0.56491 -2.2469,0.76581 -2.31003,0.2081 -4.04352,0.73357 -7.24533,2.19629 -2.97233,1.35788 -5.59421,1.73093 -7.14597,1.01675 z"
       id="path14085-73" /><path
       style="fill:#ffffff;fill-opacity:1;stroke-width:0.264583"
       d="m 537.99388,548.80389 c -1.04274,-0.47991 -1.82257,-1.35597 -1.57032,-1.76411 0.11672,-0.18887 0.0887,-0.25393 -0.0677,-0.15726 -1.84036,1.1374 -0.76617,-6.23214 1.12526,-7.71994 0.8387,-0.65972 0.58837,-0.82984 -1.22106,-0.82984 -3.24815,0 -4.70062,0.75198 -12.68377,6.56678 -4.88866,3.56082 -8.58523,4.11888 -10.69273,1.61426 -1.18502,-1.40832 -0.82211,-2.45422 0.394,-1.13549 2.18002,2.36397 5.19205,1.82496 9.90185,-1.77196 7.23553,-5.52582 9.06508,-6.43647 12.96458,-6.453 3.91405,-0.0166 6.56454,1.50314 3.88155,2.2256 -3.13628,0.84451 -4.51593,5.79584 -2.16594,7.77322 1.64547,1.38457 2.793,1.21976 8.76576,-1.25901 3.5007,-1.45283 7.64682,-2.00593 8.0067,-1.0681 0.18978,0.49455 -0.0166,0.56491 -2.2469,0.76581 -2.31003,0.2081 -4.04352,0.73357 -7.24533,2.19629 -2.97233,1.35788 -5.59421,1.73093 -7.14597,1.01675 z"
       id="path14085-086" /><path
       style="fill:#ffffff;fill-opacity:1;stroke-width:0.264583"
       d="m 859.21536,570.21865 c -1.04274,-0.47991 -1.82257,-1.35597 -1.57032,-1.76411 0.11672,-0.18887 0.0887,-0.25393 -0.0677,-0.15726 -1.84036,1.1374 -0.76617,-6.23214 1.12526,-7.71994 0.8387,-0.65972 0.58837,-0.82984 -1.22106,-0.82984 -3.24815,0 -4.70062,0.75198 -12.68377,6.56678 -4.88866,3.56082 -8.58523,4.11888 -10.69273,1.61426 -1.18502,-1.40832 -0.82211,-2.45422 0.394,-1.13549 2.18002,2.36397 5.19205,1.82496 9.90185,-1.77196 7.23553,-5.52582 9.06508,-6.43647 12.96458,-6.453 3.91405,-0.0166 6.56454,1.50314 3.88155,2.2256 -3.13628,0.84451 -4.51593,5.79584 -2.16594,7.77322 1.64547,1.38457 2.793,1.21976 8.76576,-1.25901 3.5007,-1.45283 7.64682,-2.00593 8.0067,-1.0681 0.18978,0.49455 -0.0166,0.56491 -2.2469,0.76581 -2.31003,0.2081 -4.04352,0.73357 -7.24533,2.19629 -2.97233,1.35788 -5.59421,1.73093 -7.14597,1.01675 z"
       id="path14085-12" /><path
       style="fill:#ffffff;fill-opacity:1;stroke-width:0.264583"
       d="m 1160.9689,511.81475 c -1.0428,-0.47991 -1.8226,-1.35597 -1.5704,-1.76411 0.1168,-0.18887 0.089,-0.25393 -0.068,-0.15726 -1.8403,1.1374 -0.7661,-6.23214 1.1253,-7.71994 0.8387,-0.65972 0.5884,-0.82984 -1.2211,-0.82984 -3.2481,0 -4.7006,0.75198 -12.6837,6.56678 -4.8887,3.56082 -8.5853,4.11888 -10.6928,1.61426 -1.185,-1.40832 -0.8221,-2.45422 0.394,-1.13549 2.1801,2.36397 5.1921,1.82496 9.9019,-1.77196 7.2355,-5.52582 9.0651,-6.43647 12.9646,-6.453 3.914,-0.0166 6.5645,1.50314 3.8815,2.2256 -3.1363,0.84451 -4.5159,5.79584 -2.1659,7.77322 1.6454,1.38457 2.793,1.21976 8.7657,-1.25901 3.5007,-1.45283 7.6469,-2.00593 8.0067,-1.0681 0.1898,0.49455 -0.017,0.56491 -2.2469,0.76581 -2.31,0.2081 -4.0435,0.73357 -7.2453,2.19629 -2.9723,1.35788 -5.5942,1.73093 -7.146,1.01675 z"
       id="path14085-11" /><path
       style="fill:#ffffff;fill-opacity:1;stroke-width:0.264583"
       d="m 1215.4791,363.85819 c -1.0427,-0.47991 -1.8225,-1.35597 -1.5703,-1.76411 0.1167,-0.18887 0.089,-0.25393 -0.068,-0.15726 -1.8403,1.1374 -0.7661,-6.23214 1.1253,-7.71994 0.8387,-0.65972 0.5884,-0.82984 -1.2211,-0.82984 -3.2481,0 -4.7006,0.75198 -12.6837,6.56678 -4.8887,3.56082 -8.5853,4.11888 -10.6928,1.61426 -1.185,-1.40832 -0.8221,-2.45422 0.394,-1.13549 2.1801,2.36397 5.1921,1.82496 9.9019,-1.77196 7.2355,-5.52582 9.0651,-6.43647 12.9646,-6.453 3.914,-0.0166 6.5645,1.50314 3.8815,2.2256 -3.1363,0.84451 -4.5159,5.79584 -2.1659,7.77322 1.6454,1.38457 2.793,1.21976 8.7657,-1.25901 3.5007,-1.45283 7.6468,-2.00593 8.0067,-1.0681 0.1898,0.49455 -0.017,0.56491 -2.2469,0.76581 -2.31,0.2081 -4.0435,0.73357 -7.2453,2.19629 -2.9723,1.35788 -5.5942,1.73093 -7.146,1.01675 z"
       id="path14085-94" /><path
       style="fill:#ffffff;fill-opacity:1;stroke-width:0.264583"
       d="m 1160.9689,210.06124 c -1.0428,-0.47991 -1.8226,-1.35597 -1.5704,-1.76411 0.1168,-0.18887 0.089,-0.25393 -0.068,-0.15726 -1.8403,1.1374 -0.7661,-6.23214 1.1253,-7.71994 0.8387,-0.65972 0.5884,-0.82984 -1.2211,-0.82984 -3.2481,0 -4.7006,0.75198 -12.6837,6.56678 -4.8887,3.56082 -8.5853,4.11888 -10.6928,1.61426 -1.185,-1.40832 -0.8221,-2.45422 0.394,-1.13549 2.1801,2.36397 5.1921,1.82496 9.9019,-1.77196 7.2355,-5.52582 9.0651,-6.43647 12.9646,-6.453 3.914,-0.0166 6.5645,1.50314 3.8815,2.2256 -3.1363,0.84451 -4.5159,5.79584 -2.1659,7.77322 1.6454,1.38457 2.793,1.21976 8.7657,-1.25901 3.5007,-1.45283 7.6469,-2.00593 8.0067,-1.0681 0.1898,0.49455 -0.017,0.56491 -2.2469,0.76581 -2.31,0.2081 -4.0435,0.73357 -7.2453,2.19629 -2.9723,1.35788 -5.5942,1.73093 -7.146,1.01675 z"
       id="path14085-96" /><path
       style="fill:#ffffff;fill-opacity:1;stroke-width:0.264583"
       d="m 952.66161,157.49772 c -1.04274,-0.47991 -1.82257,-1.35597 -1.57032,-1.76411 0.11672,-0.18887 0.0887,-0.25393 -0.0677,-0.15726 -1.84036,1.1374 -0.76617,-6.23214 1.12526,-7.71994 0.8387,-0.65972 0.58837,-0.82984 -1.22106,-0.82984 -3.24815,0 -4.70062,0.75198 -12.68377,6.56678 -4.88866,3.56082 -8.58523,4.11888 -10.69273,1.61426 -1.18502,-1.40832 -0.82211,-2.45422 0.394,-1.13549 2.18002,2.36397 5.19205,1.82496 9.90185,-1.77196 7.23553,-5.52582 9.06508,-6.43647 12.96458,-6.453 3.91405,-0.0166 6.56454,1.50314 3.88155,2.2256 -3.13628,0.84451 -4.51593,5.79584 -2.16594,7.77322 1.64547,1.38457 2.793,1.21976 8.76576,-1.25901 3.5007,-1.45283 7.64682,-2.00593 8.0067,-1.0681 0.18978,0.49455 -0.0166,0.56491 -2.2469,0.76581 -2.31003,0.2081 -4.04352,0.73357 -7.24533,2.19629 -2.97233,1.35788 -5.59421,1.73093 -7.14597,1.01675 z"
       id="path14085-97" /><path
       style="fill:#ffffff;fill-opacity:1;stroke-width:0.264583"
       d="m 660.64209,176.96569 c -1.04274,-0.47991 -1.82257,-1.35597 -1.57032,-1.76411 0.11672,-0.18887 0.0887,-0.25393 -0.0677,-0.15726 -1.84036,1.1374 -0.76617,-6.23214 1.12526,-7.71994 0.8387,-0.65972 0.58837,-0.82984 -1.22106,-0.82984 -3.24815,0 -4.70062,0.75198 -12.68377,6.56678 -4.88866,3.56082 -8.58523,4.11888 -10.69273,1.61426 -1.18502,-1.40832 -0.82211,-2.45422 0.394,-1.13549 2.18002,2.36397 5.19205,1.82496 9.90185,-1.77196 7.23553,-5.52582 9.06508,-6.43647 12.96458,-6.453 3.91405,-0.0166 6.56454,1.50314 3.88155,2.2256 -3.13628,0.84451 -4.51593,5.79584 -2.16594,7.77322 1.64547,1.38457 2.793,1.21976 8.76576,-1.25901 3.5007,-1.45283 7.64682,-2.00593 8.0067,-1.0681 0.18978,0.49455 -0.0166,0.56491 -2.2469,0.76581 -2.31003,0.2081 -4.04352,0.73357 -7.24533,2.19629 -2.97233,1.35788 -5.59421,1.73093 -7.14597,1.01675 z"
       id="path14085-729" /><path
       style="fill:#ffffff;fill-opacity:1;stroke-width:0.264583"
       d="m 378.35654,157.49772 c -1.04274,-0.47991 -1.82257,-1.35597 -1.57032,-1.76411 0.11672,-0.18887 0.0887,-0.25393 -0.0677,-0.15726 -1.84036,1.1374 -0.76617,-6.23214 1.12526,-7.71994 0.8387,-0.65972 0.58837,-0.82984 -1.22106,-0.82984 -3.24815,0 -4.70062,0.75198 -12.68377,6.56678 -4.88866,3.56082 -8.58523,4.11888 -10.69273,1.61426 -1.18502,-1.40832 -0.82211,-2.45422 0.394,-1.13549 2.18002,2.36397 5.19205,1.82496 9.90185,-1.77196 7.23553,-5.52582 9.06508,-6.43647 12.96458,-6.453 3.91405,-0.0166 6.56454,1.50314 3.88155,2.2256 -3.13628,0.84451 -4.51593,5.79584 -2.16594,7.77322 1.64547,1.38457 2.793,1.21976 8.76576,-1.25901 3.5007,-1.45283 7.64682,-2.00593 8.0067,-1.0681 0.18978,0.49455 -0.0166,0.56491 -2.2469,0.76581 -2.31003,0.2081 -4.04352,0.73357 -7.24533,2.19629 -2.97233,1.35788 -5.59421,1.73093 -7.14597,1.01675 z"
       id="path14085-82" /><path
       style="fill:#ffffff;fill-opacity:1;stroke-width:0.264583"
       d="m 195.35764,324.92225 c -1.04274,-0.47991 -1.82257,-1.35597 -1.57032,-1.76411 0.11672,-0.18887 0.0887,-0.25393 -0.0677,-0.15726 -1.84036,1.1374 -0.76617,-6.23214 1.12526,-7.71994 0.8387,-0.65972 0.58837,-0.82984 -1.22106,-0.82984 -3.24815,0 -4.70062,0.75198 -12.68377,6.56678 -4.88866,3.56082 -8.58523,4.11888 -10.69273,1.61426 -1.18502,-1.40832 -0.82211,-2.45422 0.394,-1.13549 2.18002,2.36397 5.19205,1.82496 9.90185,-1.77196 7.23553,-5.52582 9.06508,-6.43647 12.96458,-6.453 3.91405,-0.0166 6.56454,1.50314 3.88155,2.2256 -3.13628,0.84451 -4.51593,5.79584 -2.16594,7.77322 1.64547,1.38457 2.793,1.21976 8.76576,-1.25901 3.5007,-1.45283 7.64682,-2.00593 8.0067,-1.0681 0.18978,0.49455 -0.0166,0.56491 -2.2469,0.76581 -2.31003,0.2081 -4.04352,0.73357 -7.24533,2.19629 -2.97233,1.35788 -5.59421,1.73093 -7.14597,1.01675 z"
       id="path14085-947" /><path
       style="fill:#ffffff;fill-opacity:1;stroke-width:0.264583"
       d="m 189.51725,535.17631 c -1.04274,-0.47991 -1.82257,-1.35597 -1.57032,-1.76411 0.11672,-0.18887 0.0887,-0.25393 -0.0677,-0.15726 -1.84036,1.1374 -0.76617,-6.23214 1.12526,-7.71994 0.8387,-0.65972 0.58837,-0.82984 -1.22106,-0.82984 -3.24815,0 -4.70062,0.75198 -12.68377,6.56678 -4.88866,3.56082 -8.58523,4.11888 -10.69273,1.61426 -1.18502,-1.40832 -0.82211,-2.45422 0.394,-1.13549 2.18002,2.36397 5.19205,1.82496 9.90185,-1.77196 7.23553,-5.52582 9.06508,-6.43647 12.96458,-6.453 3.91405,-0.0166 6.56454,1.50314 3.88155,2.2256 -3.13628,0.84451 -4.51593,5.79584 -2.16594,7.77322 1.64547,1.38457 2.793,1.21976 8.76576,-1.25901 3.5007,-1.45283 7.64682,-2.00593 8.0067,-1.0681 0.18978,0.49455 -0.0166,0.56491 -2.2469,0.76581 -2.31003,0.2081 -4.04352,0.73357 -7.24533,2.19629 -2.97233,1.35788 -5.59421,1.73093 -7.14597,1.01675 z"
       id="path14085-3" /><path
       style="fill:#ffffff;fill-opacity:1;stroke-width:0.264583"
       d="m 487.37717,724.01561 c -1.04274,-0.47991 -1.82257,-1.35597 -1.57032,-1.76411 0.11672,-0.18887 0.0887,-0.25393 -0.0677,-0.15726 -1.84036,1.1374 -0.76617,-6.23214 1.12526,-7.71994 0.8387,-0.65972 0.58837,-0.82984 -1.22106,-0.82984 -3.24815,0 -4.70062,0.75198 -12.68377,6.56678 -4.88866,3.56082 -8.58523,4.11888 -10.69273,1.61426 -1.18502,-1.40832 -0.82211,-2.45422 0.394,-1.13549 2.18002,2.36397 5.19205,1.82496 9.90185,-1.77196 7.23553,-5.52582 9.06508,-6.43647 12.96458,-6.453 3.91405,-0.0166 6.56454,1.50314 3.88155,2.2256 -3.13628,0.84451 -4.51593,5.79584 -2.16594,7.77322 1.64547,1.38457 2.793,1.21976 8.76576,-1.25901 3.5007,-1.45283 7.64682,-2.00593 8.0067,-1.0681 0.18978,0.49455 -0.0166,0.56491 -2.2469,0.76581 -2.31003,0.2081 -4.04352,0.73357 -7.24533,2.19629 -2.97233,1.35788 -5.59421,1.73093 -7.14597,1.01675 z"
       id="path14085-51" /><path
       style="fill:#ffffff;fill-opacity:1;stroke-width:0.264583"
       d="m 861.16216,838.87662 c -1.04274,-0.47991 -1.82257,-1.35597 -1.57032,-1.76411 0.11672,-0.18887 0.0887,-0.25393 -0.0677,-0.15726 -1.84036,1.1374 -0.76617,-6.23214 1.12526,-7.71994 0.8387,-0.65972 0.58837,-0.82984 -1.22106,-0.82984 -3.24815,0 -4.70062,0.75198 -12.68377,6.56678 -4.88866,3.56082 -8.58523,4.11888 -10.69273,1.61426 -1.18502,-1.40832 -0.82211,-2.45422 0.394,-1.13549 2.18002,2.36397 5.19205,1.82496 9.90185,-1.77196 7.23553,-5.52582 9.06508,-6.43647 12.96458,-6.453 3.91405,-0.0166 6.56454,1.50314 3.88155,2.2256 -3.13628,0.84451 -4.51593,5.79584 -2.16594,7.77322 1.64547,1.38457 2.793,1.21976 8.76576,-1.25901 3.5007,-1.45283 7.64682,-2.00593 8.0067,-1.0681 0.18978,0.49455 -0.0166,0.56491 -2.2469,0.76581 -2.31003,0.2081 -4.04352,0.73357 -7.24533,2.19629 -2.97233,1.35788 -5.59421,1.73093 -7.14597,1.01675 z"
       id="path14085-25" /><path
       style="fill:#ffffff;fill-opacity:1;stroke-width:0.264583"
       d="m 958.502,905.06771 c -1.04274,-0.47991 -1.82257,-1.35597 -1.57032,-1.76411 0.11672,-0.18887 0.0887,-0.25393 -0.0677,-0.15726 -1.84036,1.1374 -0.76617,-6.23214 1.12526,-7.71994 0.8387,-0.65972 0.58837,-0.82984 -1.22106,-0.82984 -3.24815,0 -4.70062,0.75198 -12.68377,6.56678 -4.88866,3.56082 -8.58523,4.11888 -10.69273,1.61426 -1.18502,-1.40832 -0.82211,-2.45422 0.394,-1.13549 2.18002,2.36397 5.19205,1.82496 9.90185,-1.77196 7.23553,-5.52582 9.06508,-6.43647 12.96458,-6.453 3.91405,-0.0166 6.56454,1.50314 3.88155,2.2256 -3.13628,0.84451 -4.51593,5.79584 -2.16594,7.77322 1.64547,1.38457 2.793,1.21976 8.76576,-1.25901 3.5007,-1.45283 7.64682,-2.00593 8.0067,-1.0681 0.18978,0.49455 -0.0166,0.56491 -2.2469,0.76581 -2.31003,0.2081 -4.04352,0.73357 -7.24533,2.19629 -2.97233,1.35788 -5.59421,1.73093 -7.14597,1.01675 z"
       id="path14085-17" /><path
       style="fill:#ffffff;fill-opacity:1;stroke-width:0.264583"
       d="m 756.03513,1125.0558 c -1.04274,-0.4799 -1.82257,-1.356 -1.57032,-1.7641 0.11672,-0.1889 0.0887,-0.254 -0.0677,-0.1573 -1.84036,1.1374 -0.76617,-6.2321 1.12526,-7.7199 0.8387,-0.6598 0.58837,-0.8299 -1.22106,-0.8299 -3.24815,0 -4.70062,0.752 -12.68377,6.5668 -4.88866,3.5608 -8.58523,4.1189 -10.69273,1.6143 -1.18502,-1.4084 -0.82211,-2.4543 0.394,-1.1355 2.18002,2.3639 5.19205,1.8249 9.90185,-1.772 7.23553,-5.5258 9.06508,-6.4365 12.96458,-6.453 3.91405,-0.017 6.56454,1.5031 3.88155,2.2256 -3.13628,0.8445 -4.51593,5.7958 -2.16594,7.7732 1.64547,1.3846 2.793,1.2198 8.76576,-1.259 3.5007,-1.4528 7.64682,-2.0059 8.0067,-1.0681 0.18978,0.4946 -0.0166,0.5649 -2.2469,0.7658 -2.31003,0.2081 -4.04352,0.7336 -7.24533,2.1963 -2.97233,1.3579 -5.59421,1.7309 -7.14597,1.0168 z"
       id="path14085-19" /><path
       style="fill:#ffffff;fill-opacity:1;stroke-width:0.264583"
       d="m 567.19584,1191.2468 c -1.04274,-0.4799 -1.82257,-1.356 -1.57032,-1.7641 0.11672,-0.1889 0.0887,-0.2539 -0.0677,-0.1573 -1.84036,1.1374 -0.76617,-6.2321 1.12526,-7.7199 0.8387,-0.6597 0.58837,-0.8298 -1.22106,-0.8298 -3.24815,0 -4.70062,0.7519 -12.68377,6.5667 -4.88866,3.5609 -8.58523,4.1189 -10.69273,1.6143 -1.18502,-1.4083 -0.82211,-2.4542 0.394,-1.1355 2.18002,2.364 5.19205,1.825 9.90185,-1.7719 7.23553,-5.5259 9.06508,-6.4365 12.96458,-6.453 3.91405,-0.017 6.56454,1.5031 3.88155,2.2256 -3.13628,0.8445 -4.51593,5.7958 -2.16594,7.7732 1.64547,1.3845 2.793,1.2197 8.76576,-1.259 3.5007,-1.4529 7.64682,-2.006 8.0067,-1.0681 0.18978,0.4945 -0.0166,0.5649 -2.2469,0.7658 -2.31003,0.2081 -4.04352,0.7335 -7.24533,2.1963 -2.97233,1.3578 -5.59421,1.7309 -7.14597,1.0167 z"
       id="path14085-847" /><path
       style="fill:#ffffff;fill-opacity:1;stroke-width:0.264583"
       d="m 407.55849,1140.6301 c -1.04274,-0.4799 -1.82257,-1.356 -1.57032,-1.7641 0.11672,-0.1889 0.0887,-0.2539 -0.0677,-0.1573 -1.84036,1.1374 -0.76617,-6.2321 1.12526,-7.7199 0.8387,-0.6597 0.58837,-0.8298 -1.22106,-0.8298 -3.24815,0 -4.70062,0.7519 -12.68377,6.5667 -4.88866,3.5609 -8.58523,4.1189 -10.69273,1.6143 -1.18502,-1.4083 -0.82211,-2.4542 0.394,-1.1355 2.18002,2.364 5.19205,1.825 9.90185,-1.7719 7.23553,-5.5259 9.06508,-6.4365 12.96458,-6.453 3.91405,-0.017 6.56454,1.5031 3.88155,2.2256 -3.13628,0.8445 -4.51593,5.7958 -2.16594,7.7732 1.64547,1.3845 2.793,1.2197 8.76576,-1.259 3.5007,-1.4529 7.64682,-2.006 8.0067,-1.0681 0.18978,0.4945 -0.0166,0.5649 -2.2469,0.7658 -2.31003,0.2081 -4.04352,0.7335 -7.24533,2.1963 -2.97233,1.3578 -5.59421,1.7309 -7.14597,1.0167 z"
       id="path14085-613" /><path
       style="fill:#ffffff;fill-opacity:1;stroke-width:0.264583"
       d="m 417.29248,988.77998 c -1.04274,-0.47991 -1.82257,-1.35597 -1.57032,-1.76411 0.11672,-0.18887 0.0887,-0.25393 -0.0677,-0.15726 -1.84036,1.1374 -0.76617,-6.23214 1.12526,-7.71994 0.8387,-0.65972 0.58837,-0.82984 -1.22106,-0.82984 -3.24815,0 -4.70062,0.75198 -12.68377,6.56678 -4.88866,3.56082 -8.58523,4.11888 -10.69273,1.61426 -1.18502,-1.40832 -0.82211,-2.45422 0.394,-1.13549 2.18002,2.36397 5.19205,1.82496 9.90185,-1.77196 7.23553,-5.52582 9.06508,-6.43647 12.96458,-6.453 3.91405,-0.0166 6.56454,1.50314 3.88155,2.2256 -3.13628,0.84451 -4.51593,5.79584 -2.16594,7.77322 1.64547,1.38457 2.793,1.21976 8.76576,-1.25901 3.5007,-1.45283 7.64682,-2.00593 8.0067,-1.0681 0.18978,0.49455 -0.0166,0.56491 -2.2469,0.76581 -2.31003,0.2081 -4.04352,0.73357 -7.24533,2.19629 -2.97233,1.35788 -5.59421,1.73093 -7.14597,1.01675 z"
       id="path14085-69" /><path
       style="fill:#ffffff;fill-opacity:1;stroke-width:0.264583"
       d="m 647.01451,957.63123 c -1.04274,-0.47991 -1.82257,-1.35597 -1.57032,-1.76411 0.11672,-0.18887 0.0887,-0.25393 -0.0677,-0.15726 -1.84036,1.1374 -0.76617,-6.23214 1.12526,-7.71994 0.8387,-0.65972 0.58837,-0.82984 -1.22106,-0.82984 -3.24815,0 -4.70062,0.75198 -12.68377,6.56678 -4.88866,3.56082 -8.58523,4.11888 -10.69273,1.61426 -1.18502,-1.40832 -0.82211,-2.45422 0.394,-1.13549 2.18002,2.36397 5.19205,1.82496 9.90185,-1.77196 7.23553,-5.52582 9.06508,-6.43647 12.96458,-6.453 3.91405,-0.0166 6.56454,1.50314 3.88155,2.2256 -3.13628,0.84451 -4.51593,5.79584 -2.16594,7.77322 1.64547,1.38457 2.793,1.21976 8.76576,-1.25901 3.5007,-1.45283 7.64682,-2.00593 8.0067,-1.0681 0.18978,0.49455 -0.0166,0.56491 -2.2469,0.76581 -2.31003,0.2081 -4.04352,0.73357 -7.24533,2.19629 -2.97233,1.35788 -5.59421,1.73093 -7.14597,1.01675 z"
       id="path14085-893" /><path
       style="fill:#ffffff;fill-opacity:1;stroke-width:0.264583"
       d="m 1003.2783,626.67576 c -1.0427,-0.47991 -1.8225,-1.35597 -1.5703,-1.76411 0.1167,-0.18887 0.089,-0.25393 -0.068,-0.15726 -1.84035,1.1374 -0.7662,-6.23214 1.1253,-7.71994 0.8387,-0.65972 0.5883,-0.82984 -1.2211,-0.82984 -3.24814,0 -4.70061,0.75198 -12.68376,6.56678 -4.88866,3.56082 -8.58523,4.11888 -10.69273,1.61426 -1.18502,-1.40832 -0.82211,-2.45422 0.394,-1.13549 2.18002,2.36397 5.19205,1.82496 9.90185,-1.77196 7.23553,-5.52582 9.06508,-6.43647 12.96454,-6.453 3.9141,-0.0166 6.5646,1.50314 3.8816,2.2256 -3.1363,0.84451 -4.5159,5.79584 -2.166,7.77322 1.6455,1.38457 2.793,1.21976 8.7658,-1.25901 3.5007,-1.45283 7.6468,-2.00593 8.0067,-1.0681 0.1898,0.49455 -0.017,0.56491 -2.2469,0.76581 -2.31,0.2081 -4.0435,0.73357 -7.2453,2.19629 -2.9724,1.35788 -5.5942,1.73093 -7.146,1.01675 z"
       id="path14085-68" /><path
       style="fill:#ffffff;fill-opacity:1;stroke-width:0.264583"
       d="m 722.93958,482.6128 c -1.04274,-0.47991 -1.82257,-1.35597 -1.57032,-1.76411 0.11672,-0.18887 0.0887,-0.25393 -0.0677,-0.15726 -1.84036,1.1374 -0.76617,-6.23214 1.12526,-7.71994 0.8387,-0.65972 0.58837,-0.82984 -1.22106,-0.82984 -3.24815,0 -4.70062,0.75198 -12.68377,6.56678 -4.88866,3.56082 -8.58523,4.11888 -10.69273,1.61426 -1.18502,-1.40832 -0.82211,-2.45422 0.394,-1.13549 2.18002,2.36397 5.19205,1.82496 9.90185,-1.77196 7.23553,-5.52582 9.06508,-6.43647 12.96458,-6.453 3.91405,-0.0166 6.56454,1.50314 3.88155,2.2256 -3.13628,0.84451 -4.51593,5.79584 -2.16594,7.77322 1.64547,1.38457 2.793,1.21976 8.76576,-1.25901 3.5007,-1.45283 7.64682,-2.00593 8.0067,-1.0681 0.18978,0.49455 -0.0166,0.56491 -2.2469,0.76581 -2.31003,0.2081 -4.04352,0.73357 -7.24533,2.19629 -2.97233,1.35788 -5.59421,1.73093 -7.14597,1.01675 z"
       id="path14085-74" /><path
       style="fill:#ffffff;fill-opacity:1;stroke-width:0.264583"
       d="m 310.21865,433.94287 c -1.04274,-0.47991 -1.82257,-1.35597 -1.57032,-1.76411 0.11672,-0.18887 0.0887,-0.25393 -0.0677,-0.15726 -1.84036,1.1374 -0.76617,-6.23214 1.12526,-7.71994 0.8387,-0.65972 0.58837,-0.82984 -1.22106,-0.82984 -3.24815,0 -4.70062,0.75198 -12.68377,6.56678 -4.88866,3.56082 -8.58523,4.11888 -10.69273,1.61426 -1.18502,-1.40832 -0.82211,-2.45422 0.394,-1.13549 2.18002,2.36397 5.19205,1.82496 9.90185,-1.77196 7.23553,-5.52582 9.06508,-6.43647 12.96458,-6.453 3.91405,-0.0166 6.56454,1.50314 3.88155,2.2256 -3.13628,0.84451 -4.51593,5.79584 -2.16594,7.77322 1.64547,1.38457 2.793,1.21976 8.76576,-1.25901 3.5007,-1.45283 7.64682,-2.00593 8.0067,-1.0681 0.18978,0.49455 -0.0166,0.56491 -2.2469,0.76581 -2.31003,0.2081 -4.04352,0.73357 -7.24533,2.19629 -2.97233,1.35788 -5.59421,1.73093 -7.14597,1.01675 z"
       id="path14085-894" /><path
       style="fill:#ffffff;fill-opacity:1;stroke-width:0.264583"
       d="m 271.28271,354.1242 c -1.04274,-0.47991 -1.82257,-1.35597 -1.57032,-1.76411 0.11672,-0.18887 0.0887,-0.25393 -0.0677,-0.15726 -1.84036,1.1374 -0.76617,-6.23214 1.12526,-7.71994 0.8387,-0.65972 0.58837,-0.82984 -1.22106,-0.82984 -3.24815,0 -4.70062,0.75198 -12.68377,6.56678 -4.88866,3.56082 -8.58523,4.11888 -10.69273,1.61426 -1.18502,-1.40832 -0.82211,-2.45422 0.394,-1.13549 2.18002,2.36397 5.19205,1.82496 9.90185,-1.77196 7.23553,-5.52582 9.06508,-6.43647 12.96458,-6.453 3.91405,-0.0166 6.56454,1.50314 3.88155,2.2256 -3.13628,0.84451 -4.51593,5.79584 -2.16594,7.77322 1.64547,1.38457 2.793,1.21976 8.76576,-1.25901 3.5007,-1.45283 7.64682,-2.00593 8.0067,-1.0681 0.18978,0.49455 -0.0166,0.56491 -2.2469,0.76581 -2.31003,0.2081 -4.04352,0.73357 -7.24533,2.19629 -2.97233,1.35788 -5.59421,1.73093 -7.14597,1.01675 z"
       id="path14085-63" /><path
       style="fill:#ffffff;fill-opacity:1;stroke-width:0.264583"
       d="m 411.45209,175.01889 c -1.04274,-0.47991 -1.82257,-1.35597 -1.57032,-1.76411 0.11672,-0.18887 0.0887,-0.25393 -0.0677,-0.15726 -1.84036,1.1374 -0.76617,-6.23214 1.12526,-7.71994 0.8387,-0.65972 0.58837,-0.82984 -1.22106,-0.82984 -3.24815,0 -4.70062,0.75198 -12.68377,6.56678 -4.88866,3.56082 -8.58523,4.11888 -10.69273,1.61426 -1.18502,-1.40832 -0.82211,-2.45422 0.394,-1.13549 2.18002,2.36397 5.19205,1.82496 9.90185,-1.77196 7.23553,-5.52582 9.06508,-6.43647 12.96458,-6.453 3.91405,-0.0166 6.56454,1.50314 3.88155,2.2256 -3.13628,0.84451 -4.51593,5.79584 -2.16594,7.77322 1.64547,1.38457 2.793,1.21976 8.76576,-1.25901 3.5007,-1.45283 7.64682,-2.00593 8.0067,-1.0681 0.18978,0.49455 -0.0166,0.56491 -2.2469,0.76581 -2.31003,0.2081 -4.04352,0.73357 -7.24533,2.19629 -2.97233,1.35788 -5.59421,1.73093 -7.14597,1.01675 z"
       id="path14085-55" /><path
       style="fill:#ffffff;fill-opacity:1;stroke-width:0.264583"
       d="m 571.08943,134.13616 c -1.04274,-0.47991 -1.82257,-1.35597 -1.57032,-1.76411 0.11672,-0.18887 0.0887,-0.25393 -0.0677,-0.15726 -1.84036,1.1374 -0.76617,-6.23214 1.12526,-7.71994 0.8387,-0.65972 0.58837,-0.82984 -1.22106,-0.82984 -3.24815,0 -4.70062,0.75198 -12.68377,6.56678 -4.88866,3.56082 -8.58523,4.11888 -10.69273,1.61426 -1.18502,-1.40832 -0.82211,-2.45422 0.394,-1.13549 2.18002,2.36397 5.19205,1.82496 9.90185,-1.77196 7.23553,-5.52582 9.06508,-6.43647 12.96458,-6.453 3.91405,-0.0166 6.56454,1.50314 3.88155,2.2256 -3.13628,0.84451 -4.51593,5.79584 -2.16594,7.77322 1.64547,1.38457 2.793,1.21976 8.76576,-1.25901 3.5007,-1.45283 7.64682,-2.00593 8.0067,-1.0681 0.18978,0.49455 -0.0166,0.56491 -2.2469,0.76581 -2.31003,0.2081 -4.04352,0.73357 -7.24533,2.19629 -2.97233,1.35788 -5.59421,1.73093 -7.14597,1.01675 z"
       id="path14085-03" /><path
       style="fill:#ffffff;fill-opacity:1;stroke-width:0.264583"
       d="m 833.90701,67.945065 c -1.04274,-0.47991 -1.82257,-1.35597 -1.57032,-1.76411 0.11672,-0.18887 0.0887,-0.25393 -0.0677,-0.15726 -1.84036,1.1374 -0.76617,-6.23214 1.12526,-7.71994 0.8387,-0.65972 0.58837,-0.82984 -1.22106,-0.82984 -3.24815,0 -4.70062,0.75198 -12.68377,6.56678 -4.88866,3.56082 -8.58523,4.11888 -10.69273,1.61426 -1.18502,-1.40832 -0.82211,-2.45422 0.394,-1.13549 2.18002,2.36397 5.19205,1.82496 9.90185,-1.77196 7.23553,-5.52582 9.06508,-6.43647 12.96458,-6.453 3.91405,-0.0166 6.56454,1.50314 3.88155,2.2256 -3.13628,0.84451 -4.51593,5.79584 -2.16594,7.77322 1.64547,1.38457 2.793,1.21976 8.76576,-1.25901 3.5007,-1.45283 7.64682,-2.00593 8.0067,-1.0681 0.18978,0.49455 -0.0166,0.56491 -2.2469,0.76581 -2.31003,0.2081 -4.04352,0.73357 -7.24533,2.19629 -2.97233,1.35788 -5.59421,1.73093 -7.14597,1.01675 z"
       id="path14085-122" /><path
       style="fill:#ffffff;fill-opacity:1;stroke-width:0.264583"
       d="m 976.02318,110.7746 c -1.04274,-0.47991 -1.82257,-1.35597 -1.57032,-1.76411 0.11672,-0.18887 0.0887,-0.25393 -0.0677,-0.15726 -1.84036,1.1374 -0.76617,-6.23214 1.12526,-7.71994 0.8387,-0.65972 0.58837,-0.82984 -1.22106,-0.82984 -3.24815,0 -4.70062,0.75198 -12.68377,6.56678 -4.88866,3.56082 -8.58523,4.11888 -10.69273,1.61426 -1.18502,-1.40832 -0.82211,-2.45422 0.394,-1.13549 2.18002,2.36397 5.19205,1.82496 9.90185,-1.77196 7.23553,-5.52582 9.06508,-6.436474 12.96458,-6.453004 3.91405,-0.0166 6.56454,1.503144 3.88155,2.225604 -3.13628,0.84451 -4.51593,5.79584 -2.16594,7.77322 1.64547,1.38457 2.793,1.21976 8.76576,-1.25901 3.5007,-1.45283 7.64682,-2.00593 8.0067,-1.0681 0.18978,0.49455 -0.0166,0.56491 -2.2469,0.76581 -2.31003,0.2081 -4.04352,0.73357 -7.24533,2.19629 -2.97233,1.35788 -5.59421,1.73093 -7.14597,1.01675 z"
       id="path14085-09" /><path
       style="fill:#ffffff;fill-opacity:1;stroke-width:0.264583"
       d="m 1038.3207,326.86905 c -1.0428,-0.47991 -1.8226,-1.35597 -1.5703,-1.76411 0.1167,-0.18887 0.089,-0.25393 -0.068,-0.15726 -1.8404,1.1374 -0.7662,-6.23214 1.1252,-7.71994 0.8387,-0.65972 0.5884,-0.82984 -1.221,-0.82984 -3.2482,0 -4.7007,0.75198 -12.6838,6.56678 -4.8887,3.56082 -8.5852,4.11888 -10.6927,1.61426 -1.1851,-1.40832 -0.8222,-2.45422 0.394,-1.13549 2.18,2.36397 5.192,1.82496 9.9018,-1.77196 7.2355,-5.52582 9.0651,-6.43647 12.9646,-6.453 3.914,-0.0166 6.5645,1.50314 3.8815,2.2256 -3.1362,0.84451 -4.5159,5.79584 -2.1659,7.77322 1.6455,1.38457 2.793,1.21976 8.7658,-1.25901 3.5007,-1.45283 7.6468,-2.00593 8.0067,-1.0681 0.1897,0.49455 -0.017,0.56491 -2.2469,0.76581 -2.3101,0.2081 -4.0436,0.73357 -7.2454,2.19629 -2.9723,1.35788 -5.5942,1.73093 -7.1459,1.01675 z"
       id="path14085-65" /><path
       style="fill:#ffffff;fill-opacity:1;stroke-width:0.264583"
       d="m 808.59865,550.75069 c -1.04274,-0.47991 -1.82257,-1.35597 -1.57032,-1.76411 0.11672,-0.18887 0.0887,-0.25393 -0.0677,-0.15726 -1.84036,1.1374 -0.76617,-6.23214 1.12526,-7.71994 0.8387,-0.65972 0.58837,-0.82984 -1.22106,-0.82984 -3.24815,0 -4.70062,0.75198 -12.68377,6.56678 -4.88866,3.56082 -8.58523,4.11888 -10.69273,1.61426 -1.18502,-1.40832 -0.82211,-2.45422 0.394,-1.13549 2.18002,2.36397 5.19205,1.82496 9.90185,-1.77196 7.23553,-5.52582 9.06508,-6.43647 12.96458,-6.453 3.91405,-0.0166 6.56454,1.50314 3.88155,2.2256 -3.13628,0.84451 -4.51593,5.79584 -2.16594,7.77322 1.64547,1.38457 2.793,1.21976 8.76576,-1.25901 3.5007,-1.45283 7.64682,-2.00593 8.0067,-1.0681 0.18978,0.49455 -0.0166,0.56491 -2.2469,0.76581 -2.31003,0.2081 -4.04352,0.73357 -7.24533,2.19629 -2.97233,1.35788 -5.59421,1.73093 -7.14597,1.01675 z"
       id="path14085-120" /><path
       style="fill:#ffffff;fill-opacity:1;stroke-width:0.264583"
       d="m 477.64318,634.46295 c -1.04274,-0.47991 -1.82257,-1.35597 -1.57032,-1.76411 0.11672,-0.18887 0.0887,-0.25393 -0.0677,-0.15726 -1.84036,1.1374 -0.76617,-6.23214 1.12526,-7.71994 0.8387,-0.65972 0.58837,-0.82984 -1.22106,-0.82984 -3.24815,0 -4.70062,0.75198 -12.68377,6.56678 -4.88866,3.56082 -8.58523,4.11888 -10.69273,1.61426 -1.18502,-1.40832 -0.82211,-2.45422 0.394,-1.13549 2.18002,2.36397 5.19205,1.82496 9.90185,-1.77196 7.23553,-5.52582 9.06508,-6.43647 12.96458,-6.453 3.91405,-0.0166 6.56454,1.50314 3.88155,2.2256 -3.13628,0.84451 -4.51593,5.79584 -2.16594,7.77322 1.64547,1.38457 2.793,1.21976 8.76576,-1.25901 3.5007,-1.45283 7.64682,-2.00593 8.0067,-1.0681 0.18978,0.49455 -0.0166,0.56491 -2.2469,0.76581 -2.31003,0.2081 -4.04352,0.73357 -7.24533,2.19629 -2.97233,1.35788 -5.59421,1.73093 -7.14597,1.01675 z"
       id="path14085-15" /><path
       style="fill:#ffffff;fill-opacity:1;stroke-width:0.264583"
       d="m 409.50529,774.63232 c -1.04274,-0.47991 -1.82257,-1.35597 -1.57032,-1.76411 0.11672,-0.18887 0.0887,-0.25393 -0.0677,-0.15726 -1.84036,1.1374 -0.76617,-6.23214 1.12526,-7.71994 0.8387,-0.65972 0.58837,-0.82984 -1.22106,-0.82984 -3.24815,0 -4.70062,0.75198 -12.68377,6.56678 -4.88866,3.56082 -8.58523,4.11888 -10.69273,1.61426 -1.18502,-1.40832 -0.82211,-2.45422 0.394,-1.13549 2.18002,2.36397 5.19205,1.82496 9.90185,-1.77196 7.23553,-5.52582 9.06508,-6.43647 12.96458,-6.453 3.91405,-0.0166 6.56454,1.50314 3.88155,2.2256 -3.13628,0.84451 -4.51593,5.79584 -2.16594,7.77322 1.64547,1.38457 2.793,1.21976 8.76576,-1.25901 3.5007,-1.45283 7.64682,-2.00593 8.0067,-1.0681 0.18978,0.49455 -0.0166,0.56491 -2.2469,0.76581 -2.31003,0.2081 -4.04352,0.73357 -7.24533,2.19629 -2.97233,1.35788 -5.59421,1.73093 -7.14597,1.01675 z"
       id="path14085-31" /><path
       style="fill:#ffffff;fill-opacity:1;stroke-width:0.264583"
       d="m 896.20451,1111.4282 c -1.04274,-0.4799 -1.82257,-1.356 -1.57032,-1.7641 0.11672,-0.1889 0.0887,-0.254 -0.0677,-0.1573 -1.84036,1.1374 -0.76617,-6.2321 1.12526,-7.7199 0.8387,-0.6597 0.58837,-0.8299 -1.22106,-0.8299 -3.24815,0 -4.70062,0.752 -12.68377,6.5668 -4.88866,3.5608 -8.58523,4.1189 -10.69273,1.6143 -1.18502,-1.4083 -0.82211,-2.4543 0.394,-1.1355 2.18002,2.364 5.19205,1.8249 9.90185,-1.772 7.23553,-5.5258 9.06508,-6.4364 12.96458,-6.453 3.91405,-0.017 6.56454,1.5032 3.88155,2.2256 -3.13628,0.8445 -4.51593,5.7959 -2.16594,7.7732 1.64547,1.3846 2.793,1.2198 8.76576,-1.259 3.5007,-1.4528 7.64682,-2.0059 8.0067,-1.0681 0.18978,0.4946 -0.0166,0.5649 -2.2469,0.7658 -2.31003,0.2081 -4.04352,0.7336 -7.24533,2.1963 -2.97233,1.3579 -5.59421,1.731 -7.14597,1.0168 z"
       id="path14085-082" /><path
       style="fill:#ffffff;fill-opacity:1;stroke-width:0.264583"
       d="m 1085.0438,1232.1296 c -1.0427,-0.4799 -1.8226,-1.356 -1.5703,-1.7641 0.1167,-0.1889 0.089,-0.2539 -0.068,-0.1573 -1.8404,1.1374 -0.7662,-6.2321 1.1252,-7.7199 0.8387,-0.6597 0.5884,-0.8298 -1.221,-0.8298 -3.2482,0 -4.7006,0.7519 -12.6838,6.5667 -4.8886,3.5609 -8.5852,4.1189 -10.6927,1.6143 -1.185,-1.4083 -0.8221,-2.4542 0.394,-1.1355 2.18,2.364 5.192,1.825 9.9018,-1.772 7.2356,-5.5258 9.0651,-6.4364 12.9646,-6.4529 3.9141,-0.017 6.5646,1.5031 3.8816,2.2256 -3.1363,0.8445 -4.516,5.7958 -2.166,7.7732 1.6455,1.3845 2.793,1.2197 8.7658,-1.259 3.5007,-1.4529 7.6468,-2.006 8.0067,-1.0681 0.1898,0.4945 -0.017,0.5649 -2.2469,0.7658 -2.3101,0.2081 -4.0435,0.7335 -7.2453,2.1963 -2.9724,1.3578 -5.5943,1.7309 -7.146,1.0167 z"
       id="path14085-23" /><path
       style="fill:#ffffff;fill-opacity:1;stroke-width:0.264583"
       d="m 1123.9797,1224.3424 c -1.0427,-0.4799 -1.8225,-1.356 -1.5703,-1.7641 0.1167,-0.1889 0.089,-0.2539 -0.068,-0.1573 -1.8403,1.1374 -0.7661,-6.2321 1.1253,-7.7199 0.8387,-0.6597 0.5884,-0.8298 -1.2211,-0.8298 -3.2481,0 -4.7006,0.7519 -12.6837,6.5667 -4.8887,3.5609 -8.5853,4.1189 -10.6928,1.6143 -1.185,-1.4083 -0.8221,-2.4542 0.394,-1.1355 2.18,2.364 5.1921,1.825 9.9019,-1.7719 7.2355,-5.5259 9.0651,-6.4365 12.9646,-6.453 3.914,-0.017 6.5645,1.5031 3.8815,2.2256 -3.1363,0.8445 -4.5159,5.7958 -2.1659,7.7732 1.6454,1.3845 2.793,1.2197 8.7657,-1.259 3.5007,-1.4529 7.6468,-2.006 8.0067,-1.0681 0.1898,0.4945 -0.017,0.5649 -2.2469,0.7658 -2.31,0.2081 -4.0435,0.7335 -7.2453,2.1963 -2.9723,1.3578 -5.5942,1.7309 -7.146,1.0167 z"
       id="path14085-910" /><path
       style="fill:#ffffff;fill-opacity:1;stroke-width:0.264583"
       d="m 1231.0535,1111.4282 c -1.0427,-0.4799 -1.8225,-1.356 -1.5703,-1.7641 0.1167,-0.1889 0.089,-0.254 -0.068,-0.1573 -1.8403,1.1374 -0.7661,-6.2321 1.1253,-7.7199 0.8387,-0.6597 0.5884,-0.8299 -1.2211,-0.8299 -3.2481,0 -4.7006,0.752 -12.6837,6.5668 -4.8887,3.5608 -8.5853,4.1189 -10.6928,1.6143 -1.185,-1.4083 -0.8221,-2.4543 0.394,-1.1355 2.18,2.364 5.1921,1.8249 9.9019,-1.772 7.2355,-5.5258 9.0651,-6.4364 12.9646,-6.453 3.914,-0.017 6.5645,1.5032 3.8815,2.2256 -3.1363,0.8445 -4.5159,5.7959 -2.1659,7.7732 1.6454,1.3846 2.793,1.2198 8.7657,-1.259 3.5007,-1.4528 7.6468,-2.0059 8.0067,-1.0681 0.1898,0.4946 -0.017,0.5649 -2.2469,0.7658 -2.31,0.2081 -4.0435,0.7336 -7.2453,2.1963 -2.9723,1.3579 -5.5942,1.731 -7.146,1.0168 z"
       id="path14085-53" /><path
       style="fill:#ffffff;fill-opacity:1;stroke-width:0.264583"
       d="m 1242.7344,1010.1947 c -1.0428,-0.4799 -1.8226,-1.3559 -1.5704,-1.7641 0.1167,-0.1888 0.089,-0.2539 -0.068,-0.1572 -1.8403,1.1374 -0.7661,-6.2322 1.1253,-7.72 0.8387,-0.65969 0.5884,-0.82981 -1.2211,-0.82981 -3.2481,0 -4.7006,0.75201 -12.6837,6.56681 -4.8887,3.5608 -8.5853,4.1189 -10.6928,1.6142 -1.185,-1.4083 -0.8221,-2.4542 0.394,-1.1355 2.1801,2.364 5.1921,1.825 9.9019,-1.7719 7.2355,-5.52584 9.0651,-6.43649 12.9646,-6.45302 3.914,-0.0166 6.5645,1.50312 3.8815,2.22562 -3.1363,0.8445 -4.5159,5.7958 -2.1659,7.7732 1.6454,1.3846 2.793,1.2198 8.7657,-1.259 3.5007,-1.4528 7.6468,-2.0059 8.0067,-1.0681 0.1898,0.4945 -0.017,0.5649 -2.2469,0.7658 -2.31,0.2081 -4.0435,0.7336 -7.2453,2.1963 -2.9723,1.3579 -5.5942,1.7309 -7.146,1.0167 z"
       id="path14085-657" /><path
       style="fill:#ffffff;fill-opacity:1;stroke-width:0.264583"
       d="m 757.98193,967.36521 c -1.04274,-0.47991 -1.82257,-1.35597 -1.57032,-1.76411 0.11672,-0.18887 0.0887,-0.25393 -0.0677,-0.15726 -1.84036,1.1374 -0.76617,-6.23214 1.12526,-7.71994 0.8387,-0.65972 0.58837,-0.82984 -1.22106,-0.82984 -3.24815,0 -4.70062,0.75198 -12.68377,6.56678 -4.88866,3.56082 -8.58523,4.11888 -10.69273,1.61426 -1.18502,-1.40832 -0.82211,-2.45422 0.394,-1.13549 2.18002,2.36397 5.19205,1.82496 9.90185,-1.77196 7.23553,-5.52582 9.06508,-6.43647 12.96458,-6.453 3.91405,-0.0166 6.56454,1.50314 3.88155,2.2256 -3.13628,0.84451 -4.51593,5.79584 -2.16594,7.77322 1.64547,1.38457 2.793,1.21976 8.76576,-1.25901 3.5007,-1.45283 7.64682,-2.00593 8.0067,-1.0681 0.18978,0.49455 -0.0166,0.56491 -2.2469,0.76581 -2.31003,0.2081 -4.04352,0.73357 -7.24533,2.19629 -2.97233,1.35788 -5.59421,1.73093 -7.14597,1.01675 z"
       id="path14085-54" /><path
       style="fill:#ffffff;fill-opacity:1;stroke-width:0.264583"
       d="m 417.29248,616.94178 c -1.04274,-0.47991 -1.82257,-1.35597 -1.57032,-1.76411 0.11672,-0.18887 0.0887,-0.25393 -0.0677,-0.15726 -1.84036,1.1374 -0.76617,-6.23214 1.12526,-7.71994 0.8387,-0.65972 0.58837,-0.82984 -1.22106,-0.82984 -3.24815,0 -4.70062,0.75198 -12.68377,6.56678 -4.88866,3.56082 -8.58523,4.11888 -10.69273,1.61426 -1.18502,-1.40832 -0.82211,-2.45422 0.394,-1.13549 2.18002,2.36397 5.19205,1.82496 9.90185,-1.77196 7.23553,-5.52582 9.06508,-6.43647 12.96458,-6.453 3.91405,-0.0166 6.56454,1.50314 3.88155,2.2256 -3.13628,0.84451 -4.51593,5.79584 -2.16594,7.77322 1.64547,1.38457 2.793,1.21976 8.76576,-1.25901 3.5007,-1.45283 7.64682,-2.00593 8.0067,-1.0681 0.18978,0.49455 -0.0166,0.56491 -2.2469,0.76581 -2.31003,0.2081 -4.04352,0.73357 -7.24533,2.19629 -2.97233,1.35788 -5.59421,1.73093 -7.14597,1.01675 z"
       id="path14085-24" /><path
       style="fill:#ffffff;fill-opacity:1;stroke-width:0.264583"
       d="m 754.08833,624.72897 c -1.04274,-0.47991 -1.82257,-1.35597 -1.57032,-1.76411 0.11672,-0.18887 0.0887,-0.25393 -0.0677,-0.15726 -1.84036,1.1374 -0.76617,-6.23214 1.12526,-7.71994 0.8387,-0.65972 0.58837,-0.82984 -1.22106,-0.82984 -3.24815,0 -4.70062,0.75198 -12.68377,6.56678 -4.88866,3.56082 -8.58523,4.11888 -10.69273,1.61426 -1.18502,-1.40832 -0.82211,-2.45422 0.394,-1.13549 2.18002,2.36397 5.19205,1.82496 9.90185,-1.77196 7.23553,-5.52582 9.06508,-6.43647 12.96458,-6.453 3.91405,-0.0166 6.56454,1.50314 3.88155,2.2256 -3.13628,0.84451 -4.51593,5.79584 -2.16594,7.77322 1.64547,1.38457 2.793,1.21976 8.76576,-1.25901 3.5007,-1.45283 7.64682,-2.00593 8.0067,-1.0681 0.18978,0.49455 -0.0166,0.56491 -2.2469,0.76581 -2.31003,0.2081 -4.04352,0.73357 -7.24533,2.19629 -2.97233,1.35788 -5.59421,1.73093 -7.14597,1.01675 z"
       id="path14085-86" /><path
       style="fill:#ffffff;fill-opacity:1;stroke-width:0.264583"
       d="m 884.52372,611.10139 c -1.04274,-0.47991 -1.82257,-1.35597 -1.57032,-1.76411 0.11672,-0.18887 0.0887,-0.25393 -0.0677,-0.15726 -1.84036,1.1374 -0.76617,-6.23214 1.12526,-7.71994 0.8387,-0.65972 0.58837,-0.82984 -1.22106,-0.82984 -3.24815,0 -4.70062,0.75198 -12.68377,6.56678 -4.88866,3.56082 -8.58523,4.11888 -10.69273,1.61426 -1.18502,-1.40832 -0.82211,-2.45422 0.394,-1.13549 2.18002,2.36397 5.19205,1.82496 9.90185,-1.77196 7.23553,-5.52582 9.06508,-6.43647 12.96458,-6.453 3.91405,-0.0166 6.56454,1.50314 3.88155,2.2256 -3.13628,0.84451 -4.51593,5.79584 -2.16594,7.77322 1.64547,1.38457 2.793,1.21976 8.76576,-1.25901 3.5007,-1.45283 7.64682,-2.00593 8.0067,-1.0681 0.18978,0.49455 -0.0166,0.56491 -2.2469,0.76581 -2.31003,0.2081 -4.04352,0.73357 -7.24533,2.19629 -2.97233,1.35788 -5.59421,1.73093 -7.14597,1.01675 z"
       id="path14085-83" /><path
       style="fill:#ffffff;fill-opacity:1;stroke-width:0.264583"
       d="m 1201.8517,657.82451 c -1.0428,-0.47991 -1.8226,-1.35597 -1.5704,-1.76411 0.1168,-0.18887 0.089,-0.25393 -0.068,-0.15726 -1.8403,1.1374 -0.7661,-6.23214 1.1253,-7.71994 0.8387,-0.65972 0.5884,-0.82984 -1.2211,-0.82984 -3.2481,0 -4.7006,0.75198 -12.6837,6.56678 -4.8887,3.56082 -8.5853,4.11888 -10.6928,1.61426 -1.185,-1.40832 -0.8221,-2.45422 0.394,-1.13549 2.1801,2.36397 5.1921,1.82496 9.9019,-1.77196 7.2355,-5.52582 9.0651,-6.43647 12.9646,-6.453 3.914,-0.0166 6.5645,1.50314 3.8815,2.2256 -3.1363,0.84451 -4.5159,5.79584 -2.1659,7.77322 1.6454,1.38457 2.793,1.21976 8.7657,-1.25901 3.5007,-1.45283 7.6469,-2.00593 8.0067,-1.0681 0.1898,0.49455 -0.017,0.56491 -2.2469,0.76581 -2.31,0.2081 -4.0435,0.73357 -7.2453,2.19629 -2.9723,1.35788 -5.5942,1.73093 -7.146,1.01675 z"
       id="path14085-99" /><path
       style="fill:#ffffff;fill-opacity:1;stroke-width:0.264583"
       d="m 1275.8299,517.65514 c -1.0428,-0.47991 -1.8226,-1.35597 -1.5704,-1.76411 0.1168,-0.18887 0.089,-0.25393 -0.068,-0.15726 -1.8403,1.1374 -0.7661,-6.23214 1.1253,-7.71994 0.8387,-0.65972 0.5884,-0.82984 -1.2211,-0.82984 -3.2481,0 -4.7006,0.75198 -12.6837,6.56678 -4.8887,3.56082 -8.5853,4.11888 -10.6928,1.61426 -1.185,-1.40832 -0.8221,-2.45422 0.394,-1.13549 2.1801,2.36397 5.1921,1.82496 9.9019,-1.77196 7.2355,-5.52582 9.0651,-6.43647 12.9646,-6.453 3.914,-0.0166 6.5645,1.50314 3.8815,2.2256 -3.1363,0.84451 -4.5159,5.79584 -2.1659,7.77322 1.6454,1.38457 2.793,1.21976 8.7657,-1.25901 3.5007,-1.45283 7.6469,-2.00593 8.0067,-1.0681 0.1898,0.49455 -0.017,0.56491 -2.2469,0.76581 -2.31,0.2081 -4.0435,0.73357 -7.2453,2.19629 -2.9723,1.35788 -5.5942,1.73093 -7.146,1.01675 z"
       id="path14085-552" /><path
       style="fill:#ffffff;fill-opacity:1;stroke-width:0.264583"
       d="m 923.45966,504.02756 c -1.04274,-0.47991 -1.82257,-1.35597 -1.57032,-1.76411 0.11672,-0.18887 0.0887,-0.25393 -0.0677,-0.15726 -1.84036,1.1374 -0.76617,-6.23214 1.12526,-7.71994 0.8387,-0.65972 0.58837,-0.82984 -1.22106,-0.82984 -3.24815,0 -4.70062,0.75198 -12.68377,6.56678 -4.88866,3.56082 -8.58523,4.11888 -10.69273,1.61426 -1.18502,-1.40832 -0.82211,-2.45422 0.394,-1.13549 2.18002,2.36397 5.19205,1.82496 9.90185,-1.77196 7.23553,-5.52582 9.06508,-6.43647 12.96458,-6.453 3.91405,-0.0166 6.56454,1.50314 3.88155,2.2256 -3.13628,0.84451 -4.51593,5.79584 -2.16594,7.77322 1.64547,1.38457 2.793,1.21976 8.76576,-1.25901 3.5007,-1.45283 7.64682,-2.00593 8.0067,-1.0681 0.18978,0.49455 -0.0166,0.56491 -2.2469,0.76581 -2.31003,0.2081 -4.04352,0.73357 -7.24533,2.19629 -2.97233,1.35788 -5.59421,1.73093 -7.14597,1.01675 z"
       id="path14085-45" /><path
       style="fill:#ffffff;fill-opacity:1;stroke-width:0.264583"
       d="m 1102.565,433.94287 c -1.0428,-0.47991 -1.8226,-1.35597 -1.5703,-1.76411 0.1167,-0.18887 0.089,-0.25393 -0.068,-0.15726 -1.8404,1.1374 -0.7662,-6.23214 1.1252,-7.71994 0.8387,-0.65972 0.5884,-0.82984 -1.221,-0.82984 -3.2482,0 -4.7007,0.75198 -12.6838,6.56678 -4.8887,3.56082 -8.5852,4.11888 -10.6927,1.61426 -1.1851,-1.40832 -0.8222,-2.45422 0.394,-1.13549 2.18,2.36397 5.192,1.82496 9.9018,-1.77196 7.2355,-5.52582 9.0651,-6.43647 12.9646,-6.453 3.914,-0.0166 6.5645,1.50314 3.8815,2.2256 -3.1362,0.84451 -4.5159,5.79584 -2.1659,7.77322 1.6455,1.38457 2.793,1.21976 8.7658,-1.25901 3.5007,-1.45283 7.6468,-2.00593 8.0067,-1.0681 0.1897,0.49455 -0.017,0.56491 -2.2469,0.76581 -2.3101,0.2081 -4.0436,0.73357 -7.2454,2.19629 -2.9723,1.35788 -5.5942,1.73093 -7.1459,1.01675 z"
       id="path14085-59" /><path
       style="fill:#ffffff;fill-opacity:1;stroke-width:0.264583"
       d="m 791.07747,381.37936 c -1.04274,-0.47991 -1.82257,-1.35597 -1.57032,-1.76411 0.11672,-0.18887 0.0887,-0.25393 -0.0677,-0.15726 -1.84036,1.1374 -0.76617,-6.23214 1.12526,-7.71994 0.8387,-0.65972 0.58837,-0.82984 -1.22106,-0.82984 -3.24815,0 -4.70062,0.75198 -12.68377,6.56678 -4.88866,3.56082 -8.58523,4.11888 -10.69273,1.61426 -1.18502,-1.40832 -0.82211,-2.45422 0.394,-1.13549 2.18002,2.36397 5.19205,1.82496 9.90185,-1.77196 7.23553,-5.52582 9.06508,-6.43647 12.96458,-6.453 3.91405,-0.0166 6.56454,1.50314 3.88155,2.2256 -3.13628,0.84451 -4.51593,5.79584 -2.16594,7.77322 1.64547,1.38457 2.793,1.21976 8.76576,-1.25901 3.5007,-1.45283 7.64682,-2.00593 8.0067,-1.0681 0.18978,0.49455 -0.0166,0.56491 -2.2469,0.76581 -2.31003,0.2081 -4.04352,0.73357 -7.24533,2.19629 -2.97233,1.35788 -5.59421,1.73093 -7.14597,1.01675 z"
       id="path14085-997" /><path
       style="fill:#ffffff;fill-opacity:1;stroke-width:0.264583"
       d="m 541.88748,317.13506 c -1.04274,-0.47991 -1.82257,-1.35597 -1.57032,-1.76411 0.11672,-0.18887 0.0887,-0.25393 -0.0677,-0.15726 -1.84036,1.1374 -0.76617,-6.23214 1.12526,-7.71994 0.8387,-0.65972 0.58837,-0.82984 -1.22106,-0.82984 -3.24815,0 -4.70062,0.75198 -12.68377,6.56678 -4.88866,3.56082 -8.58523,4.11888 -10.69273,1.61426 -1.18502,-1.40832 -0.82211,-2.45422 0.394,-1.13549 2.18002,2.36397 5.19205,1.82496 9.90185,-1.77196 7.23553,-5.52582 9.06508,-6.43647 12.96458,-6.453 3.91405,-0.0166 6.56454,1.50314 3.88155,2.2256 -3.13628,0.84451 -4.51593,5.79584 -2.16594,7.77322 1.64547,1.38457 2.793,1.21976 8.76576,-1.25901 3.5007,-1.45283 7.64682,-2.00593 8.0067,-1.0681 0.18978,0.49455 -0.0166,0.56491 -2.2469,0.76581 -2.31003,0.2081 -4.04352,0.73357 -7.24533,2.19629 -2.97233,1.35788 -5.59421,1.73093 -7.14597,1.01675 z"
       id="path14085-898" /><path
       style="fill:#ffffff;fill-opacity:1;stroke-width:0.264583"
       d="m 458.17521,468.98522 c -1.04274,-0.47991 -1.82257,-1.35597 -1.57032,-1.76411 0.11672,-0.18887 0.0887,-0.25393 -0.0677,-0.15726 -1.84036,1.1374 -0.76617,-6.23214 1.12526,-7.71994 0.8387,-0.65972 0.58837,-0.82984 -1.22106,-0.82984 -3.24815,0 -4.70062,0.75198 -12.68377,6.56678 -4.88866,3.56082 -8.58523,4.11888 -10.69273,1.61426 -1.18502,-1.40832 -0.82211,-2.45422 0.394,-1.13549 2.18002,2.36397 5.19205,1.82496 9.90185,-1.77196 7.23553,-5.52582 9.06508,-6.43647 12.96458,-6.453 3.91405,-0.0166 6.56454,1.50314 3.88155,2.2256 -3.13628,0.84451 -4.51593,5.79584 -2.16594,7.77322 1.64547,1.38457 2.793,1.21976 8.76576,-1.25901 3.5007,-1.45283 7.64682,-2.00593 8.0067,-1.0681 0.18978,0.49455 -0.0166,0.56491 -2.2469,0.76581 -2.31003,0.2081 -4.04352,0.73357 -7.24533,2.19629 -2.97233,1.35788 -5.59421,1.73093 -7.14597,1.01675 z"
       id="path14085-14" /><path
       style="fill:#ffffff;fill-opacity:1;stroke-width:0.264583"
       d="m 709.31201,348.28381 c -1.04274,-0.47991 -1.82257,-1.35597 -1.57032,-1.76411 0.11672,-0.18887 0.0887,-0.25393 -0.0677,-0.15726 -1.84036,1.1374 -0.76617,-6.23214 1.12526,-7.71994 0.8387,-0.65972 0.58837,-0.82984 -1.22106,-0.82984 -3.24815,0 -4.70062,0.75198 -12.68377,6.56678 -4.88866,3.56082 -8.58523,4.11888 -10.69273,1.61426 -1.18502,-1.40832 -0.82211,-2.45422 0.394,-1.13549 2.18002,2.36397 5.19205,1.82496 9.90185,-1.77196 7.23553,-5.52582 9.06508,-6.43647 12.96458,-6.453 3.91405,-0.0166 6.56454,1.50314 3.88155,2.2256 -3.13628,0.84451 -4.51593,5.79584 -2.16594,7.77322 1.64547,1.38457 2.793,1.21976 8.76576,-1.25901 3.5007,-1.45283 7.64682,-2.00593 8.0067,-1.0681 0.18978,0.49455 -0.0166,0.56491 -2.2469,0.76581 -2.31003,0.2081 -4.04352,0.73357 -7.24533,2.19629 -2.97233,1.35788 -5.59421,1.73093 -7.14597,1.01675 z"
       id="path14085-07" /><path
       style="fill:#ffffff;fill-opacity:1;stroke-width:0.264583"
       d="m 310.21865,603.3142 c -1.04274,-0.47991 -1.82257,-1.35597 -1.57032,-1.76411 0.11672,-0.18887 0.0887,-0.25393 -0.0677,-0.15726 -1.84036,1.1374 -0.76617,-6.23214 1.12526,-7.71994 0.8387,-0.65972 0.58837,-0.82984 -1.22106,-0.82984 -3.24815,0 -4.70062,0.75198 -12.68377,6.56678 -4.88866,3.56082 -8.58523,4.11888 -10.69273,1.61426 -1.18502,-1.40832 -0.82211,-2.45422 0.394,-1.13549 2.18002,2.36397 5.19205,1.82496 9.90185,-1.77196 7.23553,-5.52582 9.06508,-6.43647 12.96458,-6.453 3.91405,-0.0166 6.56454,1.50314 3.88155,2.2256 -3.13628,0.84451 -4.51593,5.79584 -2.16594,7.77322 1.64547,1.38457 2.793,1.21976 8.76576,-1.25901 3.5007,-1.45283 7.64682,-2.00593 8.0067,-1.0681 0.18978,0.49455 -0.0166,0.56491 -2.2469,0.76581 -2.31003,0.2081 -4.04352,0.73357 -7.24533,2.19629 -2.97233,1.35788 -5.59421,1.73093 -7.14597,1.01675 z"
       id="path14085-191" /><path
       style="fill:#ffffff;fill-opacity:1;stroke-width:0.264583"
       d="m 154.4749,823.30225 c -1.04274,-0.47991 -1.82257,-1.35597 -1.57032,-1.76411 0.11672,-0.18887 0.0887,-0.25393 -0.0677,-0.15726 -1.84036,1.1374 -0.76617,-6.23214 1.12526,-7.71994 0.8387,-0.65972 0.58837,-0.82984 -1.22106,-0.82984 -3.24815,0 -4.70062,0.75198 -12.68377,6.56678 -4.88866,3.56082 -8.58523,4.11888 -10.69273,1.61426 -1.18502,-1.40832 -0.82211,-2.45422 0.394,-1.13549 2.18002,2.36397 5.19205,1.82496 9.90185,-1.77196 7.23553,-5.52582 9.06508,-6.43647 12.96458,-6.453 3.91405,-0.0166 6.56454,1.50314 3.88155,2.2256 -3.13628,0.84451 -4.51593,5.79584 -2.16594,7.77322 1.64547,1.38457 2.793,1.21976 8.76576,-1.25901 3.5007,-1.45283 7.64682,-2.00593 8.0067,-1.0681 0.18978,0.49455 -0.0166,0.56491 -2.2469,0.76581 -2.31003,0.2081 -4.04352,0.73357 -7.24533,2.19629 -2.97233,1.35788 -5.59421,1.73093 -7.14597,1.01675 z"
       id="path14085-77" /><path
       style="fill:#ffffff;fill-opacity:1;stroke-width:0.264583"
       d="m 135.00693,932.32287 c -1.04274,-0.47991 -1.82257,-1.35597 -1.57032,-1.76411 0.11672,-0.18887 0.0887,-0.25393 -0.0677,-0.15726 -1.84036,1.1374 -0.76617,-6.23214 1.12526,-7.71994 0.8387,-0.65972 0.58837,-0.82984 -1.22106,-0.82984 -3.24815,0 -4.70062,0.75198 -12.68377,6.56678 -4.88866,3.56082 -8.58523,4.11888 -10.69273,1.61426 -1.18502,-1.40832 -0.82211,-2.45422 0.394,-1.13549 2.18002,2.36397 5.19205,1.82496 9.90185,-1.77196 7.23553,-5.52582 9.06508,-6.43647 12.96458,-6.453 3.91405,-0.0166 6.56454,1.50314 3.88155,2.2256 -3.13628,0.84451 -4.51593,5.79584 -2.16594,7.77322 1.64547,1.38457 2.793,1.21976 8.76576,-1.25901 3.5007,-1.45283 7.64682,-2.00593 8.0067,-1.0681 0.18978,0.49455 -0.0166,0.56491 -2.2469,0.76581 -2.31003,0.2081 -4.04352,0.73357 -7.24533,2.19629 -2.97233,1.35788 -5.59421,1.73093 -7.14597,1.01675 z"
       id="path14085-16" /><path
       style="fill:#ffffff;fill-opacity:1;stroke-width:0.264583"
       d="m 57.135059,1140.6301 c -1.04274,-0.4799 -1.82257,-1.356 -1.57032,-1.7641 0.11672,-0.1889 0.0887,-0.2539 -0.0677,-0.1573 -1.84036,1.1374 -0.76617,-6.2321 1.12526,-7.7199 0.8387,-0.6597 0.58837,-0.8298 -1.22106,-0.8298 -3.24815,0 -4.70062,0.7519 -12.68377,6.5667 -4.88866,3.5609 -8.58523,4.1189 -10.69273,1.6143 -1.18502,-1.4083 -0.82211,-2.4542 0.394,-1.1355 2.18002,2.364 5.19205,1.825 9.90185,-1.7719 7.23553,-5.5259 9.06508,-6.4365 12.96458,-6.453 3.91405,-0.017 6.56454,1.5031 3.88155,2.2256 -3.13628,0.8445 -4.51593,5.7958 -2.16594,7.7732 1.64547,1.3845 2.793,1.2197 8.76576,-1.259 3.5007,-1.4529 7.64682,-2.006 8.0067,-1.0681 0.18978,0.4945 -0.0166,0.5649 -2.2469,0.7658 -2.31003,0.2081 -4.04352,0.7335 -7.24533,2.1963 -2.97233,1.3578 -5.59421,1.7309 -7.14597,1.0167 z"
       id="path14085-932" /><path
       style="fill:#ffffff;fill-opacity:1;stroke-width:0.264583"
       d="m 183.67685,1008.248 c -1.04274,-0.48 -1.82257,-1.356 -1.57032,-1.7642 0.11672,-0.1888 0.0887,-0.2539 -0.0677,-0.1572 -1.84036,1.1374 -0.76617,-6.2322 1.12526,-7.71996 0.8387,-0.65972 0.58837,-0.82984 -1.22106,-0.82984 -3.24814,0 -4.70061,0.75198 -12.68376,6.5668 -4.88867,3.5608 -8.58523,4.1189 -10.69273,1.6142 -1.18502,-1.4083 -0.82211,-2.4542 0.394,-1.1354 2.18002,2.3639 5.19205,1.8249 9.90185,-1.772 7.23553,-5.52583 9.06507,-6.43648 12.96458,-6.45301 3.91404,-0.0166 6.56454,1.50314 3.88154,2.2256 -3.13628,0.84451 -4.51593,5.79581 -2.16594,7.77321 1.64547,1.3846 2.793,1.2198 8.76576,-1.259 3.5007,-1.4528 7.64682,-2.0059 8.0067,-1.0681 0.18978,0.4945 -0.0166,0.5649 -2.2469,0.7658 -2.31003,0.2081 -4.04352,0.7336 -7.24533,2.1963 -2.97233,1.3579 -5.59421,1.7309 -7.14597,1.0168 z"
       id="path14085-44" /><path
       style="fill:#ffffff;fill-opacity:1;stroke-width:0.264583"
       d="m 226.50639,1132.8429 c -1.04274,-0.4799 -1.82257,-1.356 -1.57032,-1.7641 0.11672,-0.1889 0.0887,-0.2539 -0.0677,-0.1573 -1.84036,1.1374 -0.76617,-6.2321 1.12526,-7.7199 0.8387,-0.6597 0.58837,-0.8298 -1.22106,-0.8298 -3.24815,0 -4.70062,0.7519 -12.68377,6.5667 -4.88866,3.5609 -8.58523,4.1189 -10.69273,1.6143 -1.18502,-1.4083 -0.82211,-2.4542 0.394,-1.1355 2.18002,2.364 5.19205,1.825 9.90185,-1.7719 7.23553,-5.5259 9.06508,-6.4365 12.96458,-6.453 3.91405,-0.017 6.56454,1.5031 3.88155,2.2256 -3.13628,0.8445 -4.51593,5.7958 -2.16594,7.7732 1.64547,1.3845 2.793,1.2197 8.76576,-1.259 3.5007,-1.4529 7.64682,-2.006 8.0067,-1.0681 0.18978,0.4945 -0.0166,0.5649 -2.2469,0.7658 -2.31003,0.2081 -4.04352,0.7335 -7.24533,2.1963 -2.97233,1.3578 -5.59421,1.7309 -7.14597,1.0167 z"
       id="path14085-943" /><path
       style="fill:#ffffff;fill-opacity:1;stroke-width:0.264583"
       d="m 294.64428,1031.6095 c -1.04274,-0.4799 -1.82257,-1.356 -1.57032,-1.7641 0.11672,-0.1889 0.0887,-0.2539 -0.0677,-0.1573 -1.84036,1.1374 -0.76617,-6.2321 1.12526,-7.7199 0.8387,-0.6597 0.58837,-0.8298 -1.22106,-0.8298 -3.24815,0 -4.70062,0.7519 -12.68377,6.5667 -4.88866,3.5609 -8.58523,4.1189 -10.69273,1.6143 -1.18502,-1.4083 -0.82211,-2.4542 0.394,-1.1355 2.18002,2.364 5.19205,1.825 9.90185,-1.7719 7.23553,-5.5259 9.06508,-6.4365 12.96458,-6.4531 3.91405,-0.017 6.56454,1.5032 3.88155,2.2256 -3.13628,0.8446 -4.51593,5.7959 -2.16594,7.7733 1.64547,1.3845 2.793,1.2197 8.76576,-1.259 3.5007,-1.4529 7.64682,-2.006 8.0067,-1.0681 0.18978,0.4945 -0.0166,0.5649 -2.2469,0.7658 -2.31003,0.2081 -4.04352,0.7335 -7.24533,2.1963 -2.97233,1.3578 -5.59421,1.7309 -7.14597,1.0167 z"
       id="path14085-48" /><path
       style="fill:#ffffff;fill-opacity:1;stroke-width:0.264583"
       d="m 524.36631,1090.0134 c -1.04274,-0.4799 -1.82257,-1.3559 -1.57032,-1.7641 0.11672,-0.1889 0.0887,-0.2539 -0.0677,-0.1572 -1.84036,1.1374 -0.76617,-6.2322 1.12526,-7.72 0.8387,-0.6597 0.58837,-0.8298 -1.22106,-0.8298 -3.24815,0 -4.70062,0.752 -12.68377,6.5668 -4.88866,3.5608 -8.58523,4.1188 -10.69273,1.6142 -1.18502,-1.4083 -0.82211,-2.4542 0.394,-1.1355 2.18002,2.364 5.19205,1.825 9.90185,-1.7719 7.23553,-5.5259 9.06508,-6.4365 12.96458,-6.453 3.91405,-0.017 6.56454,1.5031 3.88155,2.2256 -3.13628,0.8445 -4.51593,5.7958 -2.16594,7.7732 1.64547,1.3846 2.793,1.2197 8.76576,-1.259 3.5007,-1.4529 7.64682,-2.006 8.0067,-1.0681 0.18978,0.4945 -0.0166,0.5649 -2.2469,0.7658 -2.31003,0.2081 -4.04352,0.7336 -7.24533,2.1963 -2.97233,1.3579 -5.59421,1.7309 -7.14597,1.0167 z"
       id="path14085-895" /><path
       style="fill:#ffffff;fill-opacity:1;stroke-width:0.264583"
       d="m 699.57802,1142.5769 c -1.04274,-0.4799 -1.82257,-1.356 -1.57032,-1.7641 0.11672,-0.1889 0.0887,-0.2539 -0.0677,-0.1573 -1.84036,1.1374 -0.76617,-6.2321 1.12526,-7.7199 0.8387,-0.6597 0.58837,-0.8298 -1.22106,-0.8298 -3.24815,0 -4.70062,0.7519 -12.68377,6.5667 -4.88866,3.5609 -8.58523,4.1189 -10.69273,1.6143 -1.18502,-1.4083 -0.82211,-2.4542 0.394,-1.1355 2.18002,2.364 5.19205,1.825 9.90185,-1.7719 7.23553,-5.5259 9.06508,-6.4365 12.96458,-6.453 3.91405,-0.017 6.56454,1.5031 3.88155,2.2256 -3.13628,0.8445 -4.51593,5.7958 -2.16594,7.7732 1.64547,1.3845 2.793,1.2197 8.76576,-1.259 3.5007,-1.4529 7.64682,-2.006 8.0067,-1.0681 0.18978,0.4945 -0.0166,0.5649 -2.2469,0.7658 -2.31003,0.2081 -4.04352,0.7335 -7.24533,2.1963 -2.97233,1.3578 -5.59421,1.7309 -7.14597,1.0167 z"
       id="path14085-80" /><path
       style="fill:#ffffff;fill-opacity:1;stroke-width:0.264583"
       d="m 656.74849,1045.2371 c -1.04274,-0.4799 -1.82257,-1.356 -1.57032,-1.7641 0.11672,-0.1889 0.0887,-0.2539 -0.0677,-0.1573 -1.84036,1.1374 -0.76617,-6.2321 1.12526,-7.7199 0.8387,-0.6597 0.58837,-0.8299 -1.22106,-0.8299 -3.24815,0 -4.70062,0.752 -12.68377,6.5668 -4.88866,3.5608 -8.58523,4.1189 -10.69273,1.6143 -1.18502,-1.4083 -0.82211,-2.4542 0.394,-1.1355 2.18002,2.364 5.19205,1.825 9.90185,-1.772 7.23553,-5.5258 9.06508,-6.4364 12.96458,-6.453 3.91405,-0.017 6.56454,1.5032 3.88155,2.2256 -3.13628,0.8445 -4.51593,5.7959 -2.16594,7.7733 1.64547,1.3845 2.793,1.2197 8.76576,-1.2591 3.5007,-1.4528 7.64682,-2.0059 8.0067,-1.0681 0.18978,0.4946 -0.0166,0.565 -2.2469,0.7659 -2.31003,0.2081 -4.04352,0.7335 -7.24533,2.1962 -2.97233,1.3579 -5.59421,1.731 -7.14597,1.0168 z"
       id="path14085-60" /><path
       style="fill:#ffffff;fill-opacity:1;stroke-width:0.264583"
       d="m 627.54654,811.62147 c -1.04274,-0.47991 -1.82257,-1.35597 -1.57032,-1.76411 0.11672,-0.18887 0.0887,-0.25393 -0.0677,-0.15726 -1.84036,1.1374 -0.76617,-6.23214 1.12526,-7.71994 0.8387,-0.65972 0.58837,-0.82984 -1.22106,-0.82984 -3.24815,0 -4.70062,0.75198 -12.68377,6.56678 -4.88866,3.56082 -8.58523,4.11888 -10.69273,1.61426 -1.18502,-1.40832 -0.82211,-2.45422 0.394,-1.13549 2.18002,2.36397 5.19205,1.82496 9.90185,-1.77196 7.23553,-5.52582 9.06508,-6.43647 12.96458,-6.453 3.91405,-0.0166 6.56454,1.50314 3.88155,2.2256 -3.13628,0.84451 -4.51593,5.79584 -2.16594,7.77322 1.64547,1.38457 2.793,1.21976 8.76576,-1.25901 3.5007,-1.45283 7.64682,-2.00593 8.0067,-1.0681 0.18978,0.49455 -0.0166,0.56491 -2.2469,0.76581 -2.31003,0.2081 -4.04352,0.73357 -7.24533,2.19629 -2.97233,1.35788 -5.59421,1.73093 -7.14597,1.01675 z"
       id="path14085-13" /><path
       style="fill:#ffffff;fill-opacity:1;stroke-width:0.264583"
       d="m 713.2056,871.97217 c -1.04274,-0.47991 -1.82257,-1.35597 -1.57032,-1.76411 0.11672,-0.18887 0.0887,-0.25393 -0.0677,-0.15726 -1.84036,1.1374 -0.76617,-6.23214 1.12526,-7.71994 0.8387,-0.65972 0.58837,-0.82984 -1.22106,-0.82984 -3.24815,0 -4.70062,0.75198 -12.68377,6.56678 -4.88866,3.56082 -8.58523,4.11888 -10.69273,1.61426 -1.18502,-1.40832 -0.82211,-2.45422 0.394,-1.13549 2.18002,2.36397 5.19205,1.82496 9.90185,-1.77196 7.23553,-5.52582 9.06508,-6.43647 12.96458,-6.453 3.91405,-0.0166 6.56454,1.50314 3.88155,2.2256 -3.13628,0.84451 -4.51593,5.79584 -2.16594,7.77322 1.64547,1.38457 2.793,1.21976 8.76576,-1.25901 3.5007,-1.45283 7.64682,-2.00593 8.0067,-1.0681 0.18978,0.49455 -0.0166,0.56491 -2.2469,0.76581 -2.31003,0.2081 -4.04352,0.73357 -7.24533,2.19629 -2.97233,1.35788 -5.59421,1.73093 -7.14597,1.01675 z"
       id="path14085-78" /><path
       style="fill:#ffffff;fill-opacity:1;stroke-width:0.264583"
       d="m 950.71482,1000.4608 c -1.04274,-0.47995 -1.82257,-1.35601 -1.57032,-1.76415 0.11672,-0.18887 0.0887,-0.25393 -0.0677,-0.15726 -1.84036,1.1374 -0.76617,-6.23214 1.12526,-7.71994 0.8387,-0.65972 0.58837,-0.82984 -1.22106,-0.82984 -3.24815,0 -4.70062,0.75198 -12.68377,6.56678 -4.88866,3.56081 -8.58523,4.11891 -10.69273,1.61426 -1.18502,-1.40832 -0.82211,-2.45422 0.394,-1.13549 2.18002,2.36397 5.19205,1.82496 9.90185,-1.77196 7.23553,-5.52582 9.06508,-6.43647 12.96458,-6.453 3.91405,-0.0166 6.56454,1.50314 3.88155,2.2256 -3.13628,0.84451 -4.51593,5.79584 -2.16594,7.77322 1.64547,1.38458 2.793,1.21978 8.76576,-1.25901 3.5007,-1.45283 7.64682,-2.00593 8.0067,-1.0681 0.18978,0.49455 -0.0166,0.56491 -2.2469,0.76581 -2.31003,0.2081 -4.04352,0.73357 -7.24533,2.19629 -2.97233,1.35789 -5.59421,1.73089 -7.14597,1.01679 z"
       id="path14085-941" /><path
       style="fill:#ffffff;fill-opacity:1;stroke-width:0.264583"
       d="m 1014.9591,1084.173 c -1.0427,-0.4799 -1.8226,-1.3559 -1.5703,-1.7641 0.1167,-0.1888 0.089,-0.2539 -0.068,-0.1572 -1.8404,1.1374 -0.7662,-6.2322 1.1253,-7.72 0.8387,-0.6597 0.5883,-0.8298 -1.2211,-0.8298 -3.2482,0 -4.7006,0.752 -12.6838,6.5668 -4.88864,3.5608 -8.58521,4.1188 -10.69271,1.6142 -1.18502,-1.4083 -0.82211,-2.4542 0.394,-1.1355 2.18002,2.364 5.19205,1.825 9.90181,-1.7719 7.2356,-5.5258 9.0651,-6.4365 12.9646,-6.453 3.9141,-0.017 6.5646,1.5031 3.8816,2.2256 -3.1363,0.8445 -4.516,5.7958 -2.166,7.7732 1.6455,1.3846 2.793,1.2198 8.7658,-1.259 3.5007,-1.4528 7.6468,-2.006 8.0067,-1.0681 0.1898,0.4945 -0.017,0.5649 -2.2469,0.7658 -2.31,0.2081 -4.0435,0.7336 -7.2453,2.1963 -2.9724,1.3579 -5.5943,1.7309 -7.146,1.0167 z"
       id="path14085-915" /><path
       style="fill:#ffffff;fill-opacity:1;stroke-width:0.264583"
       d="m 1127.8733,957.63123 c -1.0427,-0.47991 -1.8225,-1.35597 -1.5703,-1.76411 0.1167,-0.18887 0.089,-0.25393 -0.068,-0.15726 -1.8403,1.1374 -0.7662,-6.23214 1.1253,-7.71994 0.8387,-0.65972 0.5883,-0.82984 -1.2211,-0.82984 -3.2481,0 -4.7006,0.75198 -12.6838,6.56678 -4.8886,3.56082 -8.5852,4.11888 -10.6927,1.61426 -1.185,-1.40832 -0.8221,-2.45422 0.394,-1.13549 2.18,2.36397 5.1921,1.82496 9.9019,-1.77196 7.2355,-5.52582 9.065,-6.43647 12.9645,-6.453 3.9141,-0.0166 6.5646,1.50314 3.8816,2.2256 -3.1363,0.84451 -4.5159,5.79584 -2.1659,7.77322 1.6454,1.38457 2.793,1.21976 8.7657,-1.25901 3.5007,-1.45283 7.6468,-2.00593 8.0067,-1.0681 0.1898,0.49455 -0.017,0.56491 -2.2469,0.76581 -2.31,0.2081 -4.0435,0.73357 -7.2453,2.19629 -2.9723,1.35788 -5.5942,1.73093 -7.146,1.01675 z"
       id="path14085-62" /><path
       style="fill:#ffffff;fill-opacity:1;stroke-width:0.264583"
       d="m 1003.2783,973.2056 c -1.0427,-0.47991 -1.8225,-1.35597 -1.5703,-1.76411 0.1167,-0.18887 0.089,-0.25393 -0.068,-0.15726 -1.84035,1.1374 -0.7662,-6.23214 1.1253,-7.71994 0.8387,-0.65972 0.5883,-0.82984 -1.2211,-0.82984 -3.24814,0 -4.70061,0.75198 -12.68376,6.56678 -4.88866,3.56082 -8.58523,4.11888 -10.69273,1.61426 -1.18502,-1.40832 -0.82211,-2.45422 0.394,-1.13549 2.18002,2.36397 5.19205,1.82496 9.90185,-1.77196 7.23553,-5.52582 9.06508,-6.43647 12.96454,-6.453 3.9141,-0.0166 6.5646,1.50314 3.8816,2.2256 -3.1363,0.84451 -4.5159,5.79584 -2.166,7.77322 1.6455,1.38457 2.793,1.21976 8.7658,-1.25901 3.5007,-1.45283 7.6468,-2.00593 8.0067,-1.0681 0.1898,0.49455 -0.017,0.56491 -2.2469,0.76581 -2.31,0.2081 -4.0435,0.73357 -7.2453,2.19629 -2.9724,1.35788 -5.5942,1.73093 -7.146,1.01675 z"
       id="path14085-34" /><path
       style="fill:#ffffff;fill-opacity:1;stroke-width:0.264583"
       d="m 1046.1079,1060.8115 c -1.0428,-0.48 -1.8226,-1.356 -1.5704,-1.7641 0.1168,-0.1889 0.089,-0.254 -0.068,-0.1573 -1.8403,1.1374 -0.7661,-6.2321 1.1253,-7.7199 0.8387,-0.6598 0.5884,-0.8299 -1.2211,-0.8299 -3.2481,0 -4.7006,0.752 -12.6837,6.5668 -4.8887,3.5608 -8.5853,4.1189 -10.6928,1.6143 -1.185,-1.4084 -0.8221,-2.4543 0.394,-1.1355 2.1801,2.3639 5.1921,1.8249 9.9019,-1.772 7.2355,-5.5258 9.0651,-6.4365 12.9646,-6.453 3.914,-0.017 6.5645,1.5031 3.8815,2.2256 -3.1363,0.8445 -4.5159,5.7958 -2.1659,7.7732 1.6455,1.3846 2.793,1.2198 8.7657,-1.259 3.5007,-1.4528 7.6469,-2.0059 8.0067,-1.0681 0.1898,0.4946 -0.017,0.5649 -2.2469,0.7658 -2.31,0.2081 -4.0435,0.7336 -7.2453,2.1963 -2.9723,1.3579 -5.5942,1.7309 -7.146,1.0168 z"
       id="path14085-95" /><path
       style="fill:#ffffff;fill-opacity:1;stroke-width:0.264583"
       d="m 1123.9797,1136.7365 c -1.0427,-0.4799 -1.8225,-1.356 -1.5703,-1.7641 0.1167,-0.1889 0.089,-0.2539 -0.068,-0.1573 -1.8403,1.1374 -0.7661,-6.2321 1.1253,-7.7199 0.8387,-0.6597 0.5884,-0.8298 -1.2211,-0.8298 -3.2481,0 -4.7006,0.7519 -12.6837,6.5667 -4.8887,3.5609 -8.5853,4.1189 -10.6928,1.6143 -1.185,-1.4083 -0.8221,-2.4542 0.394,-1.1355 2.18,2.364 5.1921,1.825 9.9019,-1.7719 7.2355,-5.5259 9.0651,-6.4365 12.9646,-6.453 3.914,-0.017 6.5645,1.5031 3.8815,2.2256 -3.1363,0.8445 -4.5159,5.7958 -2.1659,7.7732 1.6454,1.3845 2.793,1.2197 8.7657,-1.259 3.5007,-1.4529 7.6468,-2.006 8.0067,-1.0681 0.1898,0.4945 -0.017,0.5649 -2.2469,0.7658 -2.31,0.2081 -4.0435,0.7335 -7.2453,2.1963 -2.9723,1.3578 -5.5942,1.7309 -7.146,1.0167 z"
       id="path14085-36" /><path
       style="fill:#ffffff;fill-opacity:1;stroke-width:0.264583"
       d="m 976.02318,1185.4065 c -1.04274,-0.4799 -1.82257,-1.356 -1.57032,-1.7641 0.11672,-0.1889 0.0887,-0.2539 -0.0677,-0.1573 -1.84036,1.1374 -0.76617,-6.2321 1.12526,-7.7199 0.8387,-0.6597 0.58837,-0.8298 -1.22106,-0.8298 -3.24815,0 -4.70062,0.7519 -12.68377,6.5667 -4.88866,3.5609 -8.58523,4.1189 -10.69273,1.6143 -1.18502,-1.4083 -0.82211,-2.4542 0.394,-1.1355 2.18002,2.364 5.19205,1.825 9.90185,-1.7719 7.23553,-5.5259 9.06508,-6.4365 12.96458,-6.453 3.91405,-0.017 6.56454,1.5031 3.88155,2.2256 -3.13628,0.8445 -4.51593,5.7958 -2.16594,7.7732 1.64547,1.3845 2.793,1.2197 8.76576,-1.259 3.5007,-1.4529 7.64682,-2.006 8.0067,-1.0681 0.18978,0.4945 -0.0166,0.5649 -2.2469,0.7658 -2.31003,0.2081 -4.04352,0.7335 -7.24533,2.1963 -2.97233,1.3578 -5.59421,1.7309 -7.14597,1.0167 z"
       id="path14085-142" /><path
       style="fill:#ffffff;fill-opacity:1;stroke-width:0.264583"
       d="m 933.19365,1267.1719 c -1.04274,-0.4799 -1.82257,-1.356 -1.57032,-1.7641 0.11672,-0.1889 0.0887,-0.2539 -0.0677,-0.1573 -1.84036,1.1374 -0.76617,-6.2321 1.12526,-7.7199 0.8387,-0.6597 0.58837,-0.8298 -1.22106,-0.8298 -3.24815,0 -4.70062,0.7519 -12.68377,6.5667 -4.88866,3.5609 -8.58523,4.1189 -10.69273,1.6143 -1.18502,-1.4083 -0.82211,-2.4542 0.394,-1.1355 2.18002,2.364 5.19205,1.825 9.90185,-1.7719 7.23553,-5.5259 9.06508,-6.4365 12.96458,-6.453 3.91405,-0.017 6.56454,1.5031 3.88155,2.2256 -3.13628,0.8445 -4.51593,5.7958 -2.16594,7.7732 1.64547,1.3845 2.793,1.2197 8.76576,-1.259 3.5007,-1.4529 7.64682,-2.006 8.0067,-1.0681 0.18978,0.4945 -0.0166,0.5649 -2.2469,0.7658 -2.31003,0.2081 -4.04352,0.7335 -7.24533,2.1963 -2.97233,1.3578 -5.59421,1.7309 -7.14597,1.0167 z"
       id="path14085-18" /><path
       style="fill:#ffffff;fill-opacity:1;stroke-width:0.264583"
       d="m 870.89615,1286.6399 c -1.04274,-0.4799 -1.82257,-1.356 -1.57032,-1.7641 0.11672,-0.1889 0.0887,-0.2539 -0.0677,-0.1573 -1.84036,1.1374 -0.76617,-6.2321 1.12526,-7.7199 0.8387,-0.6597 0.58837,-0.8298 -1.22106,-0.8298 -3.24815,0 -4.70062,0.7519 -12.68377,6.5667 -4.88866,3.5609 -8.58523,4.1189 -10.69273,1.6143 -1.18502,-1.4083 -0.82211,-2.4542 0.394,-1.1355 2.18002,2.364 5.19205,1.825 9.90185,-1.7719 7.23553,-5.5259 9.06508,-6.4365 12.96458,-6.453 3.91405,-0.017 6.56454,1.5031 3.88155,2.2256 -3.13628,0.8445 -4.51593,5.7958 -2.16594,7.7732 1.64547,1.3845 2.793,1.2197 8.76576,-1.259 3.5007,-1.4529 7.64682,-2.006 8.0067,-1.0681 0.18978,0.4945 -0.0166,0.5649 -2.2469,0.7658 -2.31003,0.2081 -4.04352,0.7335 -7.24533,2.1963 -2.97233,1.3578 -5.59421,1.7309 -7.14597,1.0167 z"
       id="path14085-671" /><path
       style="fill:#ffffff;fill-opacity:1;stroke-width:0.264583"
       d="m 841.69419,735.69639 c -1.04274,-0.47991 -1.82257,-1.35597 -1.57032,-1.76411 0.11672,-0.18887 0.0887,-0.25393 -0.0677,-0.15726 -1.84036,1.1374 -0.76617,-6.23214 1.12526,-7.71994 0.8387,-0.65972 0.58837,-0.82984 -1.22106,-0.82984 -3.24815,0 -4.70062,0.75198 -12.68377,6.56678 -4.88866,3.56082 -8.58523,4.11888 -10.69273,1.61426 -1.18502,-1.40832 -0.82211,-2.45422 0.394,-1.13549 2.18002,2.36397 5.19205,1.82496 9.90185,-1.77196 7.23553,-5.52582 9.06508,-6.43647 12.96458,-6.453 3.91405,-0.0166 6.56454,1.50314 3.88155,2.2256 -3.13628,0.84451 -4.51593,5.79584 -2.16594,7.77322 1.64547,1.38457 2.793,1.21976 8.76576,-1.25901 3.5007,-1.45283 7.64682,-2.00593 8.0067,-1.0681 0.18978,0.49455 -0.0166,0.56491 -2.2469,0.76581 -2.31003,0.2081 -4.04352,0.73357 -7.24533,2.19629 -2.97233,1.35788 -5.59421,1.73093 -7.14597,1.01675 z"
       id="path14085-211" /><path
       style="fill:#ffffff;fill-opacity:1;stroke-width:0.264583"
       d="m 639.22732,646.14373 c -1.04274,-0.47991 -1.82257,-1.35597 -1.57032,-1.76411 0.11672,-0.18887 0.0887,-0.25393 -0.0677,-0.15726 -1.84036,1.1374 -0.76617,-6.23214 1.12526,-7.71994 0.8387,-0.65972 0.58837,-0.82984 -1.22106,-0.82984 -3.24815,0 -4.70062,0.75198 -12.68377,6.56678 -4.88866,3.56082 -8.58523,4.11888 -10.69273,1.61426 -1.18502,-1.40832 -0.82211,-2.45422 0.394,-1.13549 2.18002,2.36397 5.19205,1.82496 9.90185,-1.77196 7.23553,-5.52582 9.06508,-6.43647 12.96458,-6.453 3.91405,-0.0166 6.56454,1.50314 3.88155,2.2256 -3.13628,0.84451 -4.51593,5.79584 -2.16594,7.77322 1.64547,1.38457 2.793,1.21976 8.76576,-1.25901 3.5007,-1.45283 7.64682,-2.00593 8.0067,-1.0681 0.18978,0.49455 -0.0166,0.56491 -2.2469,0.76581 -2.31003,0.2081 -4.04352,0.73357 -7.24533,2.19629 -2.97233,1.35788 -5.59421,1.73093 -7.14597,1.01675 z"
       id="path14085-091" /><path
       style="fill:#ffffff;fill-opacity:1;stroke-width:0.264583"
       d="m 125.27295,268.46514 c -1.04274,-0.47991 -1.82257,-1.35597 -1.57032,-1.76411 0.11672,-0.18887 0.0887,-0.25393 -0.0677,-0.15726 -1.84036,1.1374 -0.76617,-6.23214 1.12526,-7.71994 0.8387,-0.65972 0.58837,-0.82984 -1.22106,-0.82984 -3.24815,0 -4.70062,0.75198 -12.68377,6.56678 -4.88866,3.56082 -8.58523,4.11888 -10.69273,1.61426 -1.185021,-1.40832 -0.822111,-2.45422 0.394,-1.13549 2.18002,2.36397 5.19205,1.82496 9.90185,-1.77196 7.23553,-5.52582 9.06508,-6.43647 12.96458,-6.453 3.91405,-0.0166 6.56454,1.50314 3.88155,2.2256 -3.13628,0.84451 -4.51593,5.79584 -2.16594,7.77322 1.64547,1.38457 2.793,1.21976 8.76576,-1.25901 3.5007,-1.45283 7.64682,-2.00593 8.0067,-1.0681 0.18978,0.49455 -0.0166,0.56491 -2.2469,0.76581 -2.31003,0.2081 -4.04352,0.73357 -7.24533,2.19629 -2.97233,1.35788 -5.59421,1.73093 -7.14597,1.01675 z"
       id="path14085-558" /><path
       style="fill:#ffffff;fill-opacity:1;stroke-width:0.264583"
       d="m 273.22951,176.96569 c -1.04274,-0.47991 -1.82257,-1.35597 -1.57032,-1.76411 0.11672,-0.18887 0.0887,-0.25393 -0.0677,-0.15726 -1.84036,1.1374 -0.76617,-6.23214 1.12526,-7.71994 0.8387,-0.65972 0.58837,-0.82984 -1.22106,-0.82984 -3.24815,0 -4.70062,0.75198 -12.68377,6.56678 -4.88866,3.56082 -8.58523,4.11888 -10.69273,1.61426 -1.18502,-1.40832 -0.82211,-2.45422 0.394,-1.13549 2.18002,2.36397 5.19205,1.82496 9.90185,-1.77196 7.23553,-5.52582 9.06508,-6.43647 12.96458,-6.453 3.91405,-0.0166 6.56454,1.50314 3.88155,2.2256 -3.13628,0.84451 -4.51593,5.79584 -2.16594,7.77322 1.64547,1.38457 2.793,1.21976 8.76576,-1.25901 3.5007,-1.45283 7.64682,-2.00593 8.0067,-1.0681 0.18978,0.49455 -0.0166,0.56491 -2.2469,0.76581 -2.31003,0.2081 -4.04352,0.73357 -7.24533,2.19629 -2.97233,1.35788 -5.59421,1.73093 -7.14597,1.01675 z"
       id="path14085-965" /></g></svg>
