<?xml version="1.0" encoding="UTF-8" standalone="no"?>
<!-- Created with Inkscape (http://www.inkscape.org/) -->

<svg
   width="102.69355mm"
   height="32.285175mm"
   viewBox="0 0 102.69355 32.285175"
   version="1.1"
   id="svg19094"
   xml:space="preserve"
   sodipodi:docname="Nový dokument 3.2023_04_02_13_50_54.0.svg"
   inkscape:version="1.2.1 (9c6d41e410, 2022-07-14)"
   xmlns:inkscape="http://www.inkscape.org/namespaces/inkscape"
   xmlns:sodipodi="http://sodipodi.sourceforge.net/DTD/sodipodi-0.dtd"
   xmlns="http://www.w3.org/2000/svg"
   xmlns:svg="http://www.w3.org/2000/svg"><sodipodi:namedview
     id="namedview19096"
     pagecolor="#ffffff"
     bordercolor="#000000"
     borderopacity="0.25"
     inkscape:showpageshadow="2"
     inkscape:pageopacity="0.0"
     inkscape:pagecheckerboard="0"
     inkscape:deskcolor="#d1d1d1"
     inkscape:document-units="mm"
     showgrid="false"
     inkscape:lockguides="true"
     inkscape:zoom="1.087256"
     inkscape:cx="396.41078"
     inkscape:cy="349.5037"
     inkscape:window-width="1920"
     inkscape:window-height="1017"
     inkscape:window-x="-8"
     inkscape:window-y="-8"
     inkscape:window-maximized="1"
     inkscape:current-layer="layer1" /><defs
     id="defs19091" /><g
     inkscape:label="Vrstva 1"
     inkscape:groupmode="layer"
     id="layer1"
     transform="translate(-78.690515,-22.871681)"><g
       id="g6821"
       inkscape:export-filename="Desktop\PirateRPG_Mockup\King_Island_Map.svg"
       inkscape:export-xdpi="96"
       inkscape:export-ydpi="96"><ellipse
         style="fill:#ffff82;fill-opacity:1;stroke:none;stroke-width:0.132292;stroke-dasharray:none;stroke-opacity:1"
         id="path5099"
         cx="130.03728"
         cy="51.628288"
         rx="51.346767"
         ry="3.5285692" /><g
         id="g24175"
         transform="translate(215.0927,130.43221)"
         style="stroke:none"><path
           style="fill:#586254;fill-opacity:1;stroke:none;stroke-width:0.264583;stroke-dasharray:none;stroke-opacity:1"
           d="m -132.38219,-78.601924 87.849212,0.243351 -16.061073,-14.600978 c 0,0 -1.299038,-1.745884 -2.604306,-2.00331 -1.814784,-0.357912 -3.814612,0.434047 -5.35369,1.460098 -0.769539,0.513027 -1.307165,1.759962 -2.262689,1.759962 -0.355485,0 -2.736325,-3.73693 -4.380294,-5.353693 -3.17037,-3.117906 -7.065721,-5.406126 -10.464032,-8.273886 -0.834027,-0.70382 -2.433495,-2.19015 -2.433495,-2.19015 0,0 -4.550359,3.38097 -6.57044,5.59704 -1.031057,1.13109 -2.920195,2.190151 -3.893595,2.433501 -0.973397,0.243348 -6.816598,0.385457 -9.733988,1.946797 -1.82056,0.974335 -4.38029,4.380293 -4.38029,4.380293 l -3.16354,4.380293 -3.16355,-0.730049 c 0,0 -2.14473,3.528479 -3.77191,5.049505 -1.69794,1.587166 -2.82754,3.022189 -4.867,4.136943 -1.21002,0.661388 -4.74532,1.764283 -4.74532,1.764283 z"
           id="path22063"
           sodipodi:nodetypes="cccssssscssscccssc" /><path
           style="fill:#166d3d;fill-opacity:1;stroke:none;stroke-width:0.264583;stroke-dasharray:none;stroke-opacity:1"
           d="m -115.83441,-88.822606 c 0,0 5.8591,0.84942 8.57807,1.946797 1.78025,0.718511 3.32106,1.930389 4.92783,2.981031 1.6199,1.059224 3.037305,2.435725 4.745318,3.346058 1.302848,0.694389 2.724355,1.152602 4.136942,1.581772 0.696633,0.21165 2.129309,0.486698 2.129309,0.486698 h 15.939399 c 0,0 2.556691,-1.903712 3.224382,-3.285217 0.71145,-1.472047 0.120722,-3.306457 0.608375,-4.866995 0.457219,-1.463145 2.384339,-2.564548 2.129308,-4.076104 -0.07876,-0.466823 -0.910144,-0.77955 -1.444887,-1.034237 -2.408411,-1.147076 -5.315894,-0.956422 -7.71775,-2.11716 -2.137003,-1.032743 -5.499176,-4.088254 -5.742524,-4.209928 -0.243351,-0.121676 -1.459592,-1.581774 -5.110343,-1.581774 -0.490486,0 -3.009661,1.179165 -5.049504,0.669213 -0.243351,-0.06084 -3.650244,-0.669213 -3.650244,-0.669213 0,0 -4.197781,0.669213 -4.441131,0.669213 -0.24335,0 -2.78713,0.246856 -4.80615,1.034235 -0.74527,0.290641 -1.45413,0.70443 -2.06848,1.216747 -0.90546,0.755076 -1.74306,1.725471 -2.49465,2.633826 -0.87423,1.05657 -2.37234,3.267404 -2.37234,3.267404 z"
           id="path22119"
           sodipodi:nodetypes="cssssccsssssssscsssscc" /></g></g><g
       id="g4477"
       transform="matrix(0.53869548,0,0,0.53869548,88.604568,-22.948641)"><rect
         style="fill:#000000;fill-opacity:1;stroke:none;stroke-width:0.264583;stroke-dasharray:none;stroke-opacity:1"
         id="rect1664"
         width="29.596758"
         height="26.49942"
         x="59.881805"
         y="112.5365" /><rect
         style="fill:#f7e4c3;fill-opacity:1;stroke:#000000;stroke-width:0.258314;stroke-dasharray:none;stroke-opacity:1"
         id="rect1800"
         width="2.9515121"
         height="23.494392"
         x="59.964706"
         y="115.41561" /><rect
         style="fill:#f7e4c3;fill-opacity:1;stroke:#000000;stroke-width:0.258314;stroke-dasharray:none;stroke-opacity:1"
         id="rect1800-3"
         width="2.9515121"
         height="23.494392"
         x="-89.276596"
         y="115.37259"
         transform="scale(-1,1)" /><path
         style="fill:#f7e4c3;fill-opacity:1;stroke:#000000;stroke-width:0.264583;stroke-dasharray:none;stroke-opacity:1"
         d="m 62.807069,115.37572 c 0,0 0.696245,1.51556 0.647885,2.04059 -0.05326,0.57826 -0.501476,0.90174 -1.078071,0.97071 -1.215334,-0.0909 -2.326942,-1.33957 -2.38753,-2.40904 -0.06576,-1.34666 -0.04302,-3.39846 -0.04302,-3.39846 l 29.446192,0.043 c 0,0 -0.0052,1.87081 0,3.01129 0.0055,1.20075 -1.124863,2.67392 -2.323002,2.75319 -0.425414,0.0281 -1.212956,-0.42703 -1.296224,-0.84516 -0.105237,-0.52845 0.651579,-2.14813 0.651579,-2.14813 z"
         id="path1720"
         sodipodi:nodetypes="csccccssscc" /><path
         style="fill:#f7e4c3;fill-opacity:1;stroke:#000000;stroke-width:0.132292;stroke-dasharray:none;stroke-opacity:1"
         d="M 88.714217,138.73479 V 117.31156"
         id="path1930-0" /><path
         style="fill:none;fill-opacity:1;stroke:#000000;stroke-width:0.264583;stroke-dasharray:none;stroke-opacity:1"
         d="m 86.442568,115.45526 c 0,0 1.332196,-0.95851 1.707137,-0.65761 0.397466,0.31897 0.447979,1.52396 -0.166963,1.92917 -0.700693,0.46172 -0.818717,-0.54747 -0.818717,-0.54747"
         id="path1724"
         sodipodi:nodetypes="cssc" /><path
         style="fill:none;fill-opacity:0;stroke:#000000;stroke-width:0.264583;stroke-dasharray:none;stroke-opacity:1"
         d="m 62.938508,115.44217 c 0,0 -0.967172,-0.98893 -1.342113,-0.68803 -0.397466,0.31897 -0.447979,1.52396 0.166963,1.92917 0.700693,0.46172 0.818717,-0.54747 0.818717,-0.54747"
         id="path1724-8"
         sodipodi:nodetypes="cssc" /><path
         style="fill:#f7e4c3;fill-opacity:1;stroke:#000000;stroke-width:0.132292;stroke-dasharray:none;stroke-opacity:1"
         d="M 60.527085,138.77781 V 117.35458"
         id="path1930" /><path
         style="fill:#f7e4c3;fill-opacity:1;stroke:#000000;stroke-width:0.132292;stroke-dasharray:none;stroke-opacity:1"
         d="m 61.21538,117.8493 v 21.10058"
         id="path1932" /><path
         style="fill:#f7e4c3;fill-opacity:1;stroke:#000000;stroke-width:0.132292;stroke-dasharray:none;stroke-opacity:1"
         d="m 61.88217,118.2042 v 20.75643"
         id="path1932-5" /><path
         style="fill:#f7e4c3;fill-opacity:1;stroke:#000000;stroke-width:0.13188;stroke-dasharray:none;stroke-opacity:1"
         d="m 62.441411,118.37628 v 20.62737"
         id="path1932-5-3" /><path
         style="fill:#f7e4c3;fill-opacity:1;stroke:#000000;stroke-width:0.132292;stroke-dasharray:none;stroke-opacity:1"
         d="m 88.025922,117.80628 v 21.10058"
         id="path1932-6" /><path
         style="fill:#f7e4c3;fill-opacity:1;stroke:#000000;stroke-width:0.132292;stroke-dasharray:none;stroke-opacity:1"
         d="m 87.359132,118.16118 v 20.75643"
         id="path1932-5-35" /><path
         style="fill:#f7e4c3;fill-opacity:1;stroke:#000000;stroke-width:0.13188;stroke-dasharray:none;stroke-opacity:1"
         d="m 86.799891,118.33326 v 20.62737"
         id="path1932-5-3-3" /><rect
         style="fill:#f7e4c3;fill-opacity:1;stroke:#000000;stroke-width:0.132292;stroke-dasharray:none;stroke-opacity:1"
         id="rect2141"
         width="16.390064"
         height="1.3765932"
         x="66.485153"
         y="137.6163" /><rect
         style="fill:#f7e4c3;fill-opacity:1;stroke:#000000;stroke-width:0.115414;stroke-dasharray:none;stroke-opacity:1"
         id="rect2141-3"
         width="14.299033"
         height="1.2009686"
         x="67.53067"
         y="136.405" /><rect
         style="fill:#f7e4c3;fill-opacity:1;stroke:#000000;stroke-width:0.0968141;stroke-dasharray:none;stroke-opacity:1"
         id="rect2141-3-8"
         width="11.994632"
         height="1.0074232"
         x="68.682869"
         y="135.3811" /></g><g
       id="g4995"
       transform="translate(53.902231,-77.261298)"><g
         id="g4999"
         transform="matrix(0.56376702,0,0,0.56376702,35.072671,28.126538)"><path
           style="fill:#f7e45b;fill-opacity:1;stroke:#000000;stroke-width:0.132292;stroke-dasharray:none;stroke-opacity:1"
           d="M 59.537657,147.59661 V 135.0352 l 6.001089,6.00108 5.441844,-6.0441 5.355807,5.95806 5.506373,-5.8075 v 12.49689 z"
           id="path4481"
           sodipodi:nodetypes="cccccccc" /><path
           style="fill:#23e45b;fill-opacity:1;stroke:#000000;stroke-width:0.0488771;stroke-dasharray:none;stroke-opacity:1"
           d="m 70.97814,138.48336 -1.665209,1.4718 v 2.76517 l 1.721849,1.6948 1.529273,-1.68364 v -2.77634 z"
           id="path4591"
           sodipodi:nodetypes="ccccccc" /></g></g></g></svg>
