<?xml version="1.0" encoding="UTF-8" standalone="no"?>
<!-- Created with Inkscape (http://www.inkscape.org/) -->

<svg
   width="1920"
   height="1080"
   viewBox="0 0 507.99999 285.75"
   version="1.1"
   id="svg33278"
   xml:space="preserve"
   inkscape:version="1.2.1 (9c6d41e410, 2022-07-14)"
   sodipodi:docname="Pirate_Island.svg"
   xmlns:inkscape="http://www.inkscape.org/namespaces/inkscape"
   xmlns:sodipodi="http://sodipodi.sourceforge.net/DTD/sodipodi-0.dtd"
   xmlns:xlink="http://www.w3.org/1999/xlink"
   xmlns="http://www.w3.org/2000/svg"
   xmlns:svg="http://www.w3.org/2000/svg"><sodipodi:namedview
     id="namedview33280"
     pagecolor="#ffffff"
     bordercolor="#000000"
     borderopacity="0.25"
     inkscape:showpageshadow="2"
     inkscape:pageopacity="0.0"
     inkscape:pagecheckerboard="0"
     inkscape:deskcolor="#d1d1d1"
     inkscape:document-units="px"
     showgrid="false"
     inkscape:zoom="0.38440306"
     inkscape:cx="754.41647"
     inkscape:cy="301.76659"
     inkscape:window-width="1920"
     inkscape:window-height="1017"
     inkscape:window-x="-8"
     inkscape:window-y="-8"
     inkscape:window-maximized="1"
     inkscape:current-layer="g48195" /><defs
     id="defs33275"><linearGradient
       inkscape:collect="always"
       id="linearGradient46460"><stop
         style="stop-color:#9a8e70;stop-opacity:1;"
         offset="0"
         id="stop46456" /><stop
         style="stop-color:#857766;stop-opacity:1;"
         offset="1"
         id="stop46458" /></linearGradient><inkscape:path-effect
       effect="powermask"
       id="path-effect42593"
       is_visible="true"
       lpeversion="1"
       uri="#mask-powermask-path-effect42593"
       invert="false"
       hide_mask="false"
       background="true"
       background_color="#ffffffff" /><mask
       maskUnits="userSpaceOnUse"
       id="mask-powermask-path-effect42593"><path
         id="mask-powermask-path-effect42593_box"
         style="fill:#ffffff;fill-opacity:1"
         d="M 182.52649,-0.15889308 H 417.09534 V 210.93509 H 182.52649 Z" /><g
         id="g42591"
         style=""><path
           style="fill:#000000;fill-opacity:1;stroke:#000000;stroke-width:0.264583"
           d="m 256.24714,68.137891 c -3.4069,0 -10.46404,0 -14.60098,3.406894 -4.13694,3.406894 -9.97733,8.760584 -9.73398,15.574375 0.24335,6.813788 -1.21675,10.220682 4.13694,15.81772 5.35369,5.59705 18.98127,11.92414 29.68864,6.3271 10.7074,-5.59705 16.6734,-15.199375 12.89754,-24.091616 -1.65293,-3.892702 -4.37045,-7.578347 -7.93088,-10.247838 -6.42857,-4.819937 -14.45728,-6.786635 -14.45728,-6.786635 z"
           id="path42585"
           sodipodi:nodetypes="cssssssc" /><path
           style="fill:#000000;fill-opacity:1;stroke:#000000;stroke-width:0.264583"
           d="m 328.15694,90.039356 c 0,0 4.50196,11.559104 8.27389,14.844324 3.77192,3.28522 15.81771,8.03054 23.48325,5.96207 7.66551,-2.06848 18.25122,-2.55517 18.37288,-9.73399 0.12168,-7.178812 0.60838,-16.182747 -3.7719,-19.589641 -4.38031,-3.406894 -13.99262,-15.20935 -19.10295,-15.20935 -5.11034,0 -19.3463,2.555171 -22.99655,7.178812 -3.65024,4.623644 -4.25862,16.547775 -4.25862,16.547775 z"
           id="path42587" /><path
           id="path42589"
           style="fill:#000000;fill-opacity:1;stroke:#000000;stroke-width:0.264583"
           d="m 299.66714,112.19235 h 12.38935 l 3.9577,25.2949 -17.98175,-0.86037 z"
           sodipodi:nodetypes="ccccc" /></g></mask><filter
       id="mask-powermask-path-effect42593_inverse"
       inkscape:label="filtermask-powermask-path-effect42593"
       style="color-interpolation-filters:sRGB"
       height="100"
       width="100"
       x="-50"
       y="-50"><feColorMatrix
         id="mask-powermask-path-effect42593_primitive1"
         values="1"
         type="saturate"
         result="fbSourceGraphic" /><feColorMatrix
         id="mask-powermask-path-effect42593_primitive2"
         values="-1 0 0 0 1 0 -1 0 0 1 0 0 -1 0 1 0 0 0 1 0 "
         in="fbSourceGraphic" /></filter><linearGradient
       inkscape:collect="always"
       xlink:href="#linearGradient46460"
       id="linearGradient46462"
       x1="287.12208"
       y1="197.25469"
       x2="336.39595"
       y2="197.25469"
       gradientUnits="userSpaceOnUse"
       gradientTransform="matrix(-1,0,0,1,623.51802,0)" /></defs><g
     inkscape:groupmode="layer"
     id="layer7"
     inkscape:label="Sea sky"><rect
       style="fill:#87ceeb;fill-opacity:1;stroke:none;stroke-width:0.191779"
       id="rect49711"
       width="508.86569"
       height="228.39989"
       x="4.6579457e-06"
       y="0.11461635" /><path
       id="rect49499"
       style="fill:#0077af;stroke-width:0.141705"
       d="M -0.14429047,217.07828 H 28.411067 c 0,0 1.590674,-2.33821 2.699989,-3.76028 0.666973,-0.85501 2.836214,-2.44514 2.836214,-2.44514 0,0 -1.053989,3.82574 -0.273349,5.40819 0.397392,0.80556 3.193544,0.79723 3.193544,0.79723 H 467.9613 c 0,0 1.10139,-2.07046 1.03245,-3.1841 -0.12124,-1.95854 -2.49255,-5.33314 -2.49255,-5.33314 0,0 5.71771,0.0643 8.09438,1.4273 2.68944,1.54233 6.0199,7.08994 6.0199,7.08994 h 8.39556 c 0,0 1.45113,-1.7842 1.64407,-2.86958 0.23341,-1.31302 -0.67067,-3.94421 -0.67067,-3.94421 0,0 3.41223,1.13542 4.72503,2.29379 1.34777,1.18924 2.94048,4.52 2.94048,4.52 h 12.04387 v 70.89457 H -0.14429047 Z"
       sodipodi:nodetypes="ccscsccscsccscsccccc" /><path
       style="fill:#ffffff;fill-opacity:1;stroke-width:0.154055"
       d="m 101.82627,317.31282 c -0.60712,-0.27943 -1.06122,-0.78954 -0.91432,-1.02716 0.0679,-0.10999 0.0518,-0.14784 -0.0396,-0.0916 -1.071587,0.66226 -0.44613,-3.62868 0.65515,-4.49497 0.48834,-0.38411 0.3426,-0.48315 -0.71093,-0.48315 -1.891288,0 -2.737017,0.4378 -7.385233,3.8235 -2.84648,2.07336 -4.998793,2.39826 -6.2259,0.93994 -0.689974,-0.81999 -0.478673,-1.42897 0.22941,-0.66115 1.26932,1.37645 3.023078,1.06262 5.765392,-1.0317 4.212979,-3.2175 5.278218,-3.7477 7.548731,-3.75731 2.27901,-0.01 3.82223,0.87519 2.26009,1.29587 -1.82614,0.49172 -2.62948,3.37465 -1.26117,4.526 0.9581,0.80614 1.62624,0.71018 5.10395,-0.73306 2.0383,-0.84596 4.4524,-1.168 4.66195,-0.62191 0.11052,0.28793 -0.01,0.32892 -1.30827,0.4459 -1.34507,0.12116 -2.35435,0.42708 -4.21868,1.27881 -1.73065,0.79059 -4.25968,-0.80544 -4.16075,0.59198 0,6e-5 1.7e-4,0 1.7e-4,0 z"
       id="path14085-613-1-20"
       sodipodi:nodetypes="sscsssssssssssssas" /><path
       style="fill:#ffffff;fill-opacity:1;stroke-width:0.264583"
       d="m 251.815,153.29516 c -1.0427,-0.4799 -1.8226,-1.356 -1.5703,-1.7641 0.1167,-0.1889 0.089,-0.2539 -0.068,-0.1573 -1.8404,1.1374 -0.7662,-6.2321 1.1252,-7.7199 0.8387,-0.6597 0.5884,-0.8298 -1.221,-0.8298 -3.2482,0 -4.7007,0.7519 -12.6838,6.5667 -4.8887,3.5609 -8.5852,4.1189 -10.6927,1.6143 -1.185,-1.4083 -0.8221,-2.4542 0.394,-1.1355 2.18,2.364 5.192,1.825 9.9018,-1.7719 7.2356,-5.5259 9.0651,-6.4365 12.9646,-6.453 3.9141,-0.017 6.5645,1.5031 3.8816,2.2256 -3.1363,0.8445 -4.516,5.7958 -2.166,7.7732 1.6455,1.3845 2.793,1.2197 8.7658,-1.259 3.5007,-1.4529 7.6468,-2.006 8.0067,-1.0681 0.1898,0.4945 -0.017,0.5649 -2.2469,0.7658 -2.3101,0.2081 -4.0435,0.7335 -7.2454,2.1963 -2.9723,1.3578 -7.3158,-1.3833 -7.1459,1.0167 0,1e-4 3e-4,0 3e-4,0 z"
       id="path14085-613-1-6"
       sodipodi:nodetypes="sscsssssssssssssas" /><path
       style="fill:#ffffff;fill-opacity:1;stroke-width:0.264583"
       d="m 251.815,153.29516 c -1.0427,-0.4799 -1.8226,-1.356 -1.5703,-1.7641 0.1167,-0.1889 0.089,-0.2539 -0.068,-0.1573 -1.8404,1.1374 -0.7662,-6.2321 1.1252,-7.7199 0.8387,-0.6597 0.5884,-0.8298 -1.221,-0.8298 -3.2482,0 -4.7007,0.7519 -12.6838,6.5667 -4.8887,3.5609 -8.5852,4.1189 -10.6927,1.6143 -1.185,-1.4083 -0.8221,-2.4542 0.394,-1.1355 2.18,2.364 5.192,1.825 9.9018,-1.7719 7.2356,-5.5259 9.0651,-6.4365 12.9646,-6.453 3.9141,-0.017 6.5645,1.5031 3.8816,2.2256 -3.1363,0.8445 -4.516,5.7958 -2.166,7.7732 1.6455,1.3845 2.793,1.2197 8.7658,-1.259 3.5007,-1.4529 7.6468,-2.006 8.0067,-1.0681 0.1898,0.4945 -0.017,0.5649 -2.2469,0.7658 -2.3101,0.2081 -4.0435,0.7335 -7.2454,2.1963 -2.9723,1.3578 -7.3158,-1.3833 -7.1459,1.0167 0,1e-4 3e-4,0 3e-4,0 z"
       id="path14085-613-1-94"
       sodipodi:nodetypes="sscsssssssssssssas" /><path
       style="fill:#ffffff;fill-opacity:1;stroke-width:0.264583"
       d="m 251.815,153.29516 c -1.0427,-0.4799 -1.8226,-1.356 -1.5703,-1.7641 0.1167,-0.1889 0.089,-0.2539 -0.068,-0.1573 -1.8404,1.1374 -0.7662,-6.2321 1.1252,-7.7199 0.8387,-0.6597 0.5884,-0.8298 -1.221,-0.8298 -3.2482,0 -4.7007,0.7519 -12.6838,6.5667 -4.8887,3.5609 -8.5852,4.1189 -10.6927,1.6143 -1.185,-1.4083 -0.8221,-2.4542 0.394,-1.1355 2.18,2.364 5.192,1.825 9.9018,-1.7719 7.2356,-5.5259 9.0651,-6.4365 12.9646,-6.453 3.9141,-0.017 6.5645,1.5031 3.8816,2.2256 -3.1363,0.8445 -4.516,5.7958 -2.166,7.7732 1.6455,1.3845 2.793,1.2197 8.7658,-1.259 3.5007,-1.4529 7.6468,-2.006 8.0067,-1.0681 0.1898,0.4945 -0.017,0.5649 -2.2469,0.7658 -2.3101,0.2081 -4.0435,0.7335 -7.2454,2.1963 -2.9723,1.3578 -7.3158,-1.3833 -7.1459,1.0167 0,1e-4 3e-4,0 3e-4,0 z"
       id="path14085-613-1-22"
       sodipodi:nodetypes="sscsssssssssssssas" /><path
       style="fill:#ffffff;fill-opacity:1;stroke-width:0.154055"
       d="m 94.161447,270.5897 c -0.60712,-0.27943 -1.06122,-0.78954 -0.91432,-1.02716 0.0679,-0.10999 0.0518,-0.14784 -0.0396,-0.0916 -1.071587,0.66226 -0.44613,-3.62868 0.65515,-4.49497 0.48834,-0.38411 0.3426,-0.48315 -0.71093,-0.48315 -1.891288,0 -2.737017,0.4378 -7.385233,3.8235 -2.84648,2.07336 -4.998793,2.39826 -6.2259,0.93994 -0.689974,-0.81999 -0.478673,-1.42897 0.22941,-0.66115 1.26932,1.37645 3.023078,1.06262 5.765392,-1.0317 4.212979,-3.2175 5.278218,-3.7477 7.548731,-3.75731 2.27901,-0.01 3.82223,0.87519 2.26009,1.29587 -1.82614,0.49172 -2.62948,3.37465 -1.26117,4.526 0.9581,0.80614 1.62624,0.71018 5.10395,-0.73306 2.038303,-0.84596 4.452403,-1.168 4.661953,-0.62191 0.11052,0.28793 -0.01,0.32892 -1.30827,0.4459 -1.34507,0.12116 -2.35435,0.42708 -4.218683,1.27881 -1.73065,0.79059 -4.25968,-0.80544 -4.16075,0.59198 0,6e-5 1.7e-4,0 1.7e-4,0 z"
       id="path14085-613-1-20-5"
       sodipodi:nodetypes="sscsssssssssssssas" /><path
       style="fill:#ffffff;fill-opacity:1;stroke-width:0.154055"
       d="m 217.78305,272.0498 c -0.60712,-0.27943 -1.06122,-0.78954 -0.91432,-1.02716 0.0679,-0.10999 0.0518,-0.14784 -0.0396,-0.0916 -1.07159,0.66226 -0.44613,-3.62868 0.65515,-4.49497 0.48834,-0.38411 0.3426,-0.48315 -0.71093,-0.48315 -1.89129,0 -2.73702,0.4378 -7.38523,3.8235 -2.84648,2.07336 -4.9988,2.39826 -6.2259,0.93994 -0.68998,-0.81999 -0.47868,-1.42897 0.22941,-0.66115 1.26932,1.37645 3.02307,1.06262 5.76539,-1.0317 4.21298,-3.2175 5.27822,-3.7477 7.54873,-3.75731 2.27901,-0.01 3.82223,0.87519 2.26009,1.29587 -1.82614,0.49172 -2.62948,3.37465 -1.26117,4.526 0.9581,0.80614 1.62624,0.71018 5.10395,-0.73306 2.0383,-0.84596 4.4524,-1.168 4.66195,-0.62191 0.11052,0.28793 -0.01,0.32892 -1.30827,0.4459 -1.34507,0.12116 -2.35435,0.42708 -4.21868,1.27881 -1.73065,0.79059 -4.25968,-0.80544 -4.16075,0.59198 0,6e-5 1.7e-4,0 1.7e-4,0 z"
       id="path14085-613-1-20-1"
       sodipodi:nodetypes="sscsssssssssssssas" /><path
       style="fill:#ffffff;fill-opacity:1;stroke-width:0.154055"
       d="m 252.82539,273.5099 c -0.60712,-0.27943 -1.06122,-0.78954 -0.91432,-1.02716 0.0679,-0.10999 0.0518,-0.14784 -0.0396,-0.0916 -1.07159,0.66226 -0.44613,-3.62868 0.65515,-4.49497 0.48834,-0.38411 0.3426,-0.48315 -0.71093,-0.48315 -1.89129,0 -2.73702,0.4378 -7.38523,3.8235 -2.84648,2.07336 -4.9988,2.39826 -6.2259,0.93994 -0.68998,-0.81999 -0.47868,-1.42897 0.22941,-0.66115 1.26932,1.37645 3.02307,1.06262 5.76539,-1.0317 4.21298,-3.2175 5.27822,-3.7477 7.54873,-3.75731 2.27901,-0.01 3.82223,0.87519 2.26009,1.29587 -1.82614,0.49172 -2.62948,3.37465 -1.26117,4.526 0.9581,0.80614 1.62624,0.71018 5.10395,-0.73306 2.0383,-0.84596 4.4524,-1.168 4.66195,-0.62191 0.11052,0.28793 -0.01,0.32892 -1.30827,0.4459 -1.34507,0.12116 -2.35435,0.42708 -4.21868,1.27881 -1.73065,0.79059 -4.25968,-0.80544 -4.16075,0.59198 0,6e-5 1.7e-4,0 1.7e-4,0 z"
       id="path14085-613-1-20-2"
       sodipodi:nodetypes="sscsssssssssssssas" /><path
       style="fill:#ffffff;fill-opacity:1;stroke-width:0.154055"
       d="m 397.86176,273.9966 c -0.60712,-0.27943 -1.06122,-0.78954 -0.91432,-1.02716 0.0679,-0.10999 0.0518,-0.14784 -0.0396,-0.0916 -1.07159,0.66226 -0.44613,-3.62868 0.65515,-4.49497 0.48834,-0.38411 0.3426,-0.48315 -0.71093,-0.48315 -1.89129,0 -2.73702,0.4378 -7.38523,3.8235 -2.84648,2.07336 -4.9988,2.39826 -6.2259,0.93994 -0.68998,-0.81999 -0.47868,-1.42897 0.22941,-0.66115 1.26932,1.37645 3.02307,1.06262 5.76539,-1.0317 4.21298,-3.2175 5.27822,-3.7477 7.54873,-3.75731 2.27901,-0.01 3.82223,0.87519 2.26009,1.29587 -1.82614,0.49172 -2.62948,3.37465 -1.26117,4.526 0.9581,0.80614 1.62624,0.71018 5.10395,-0.73306 2.0383,-0.84596 4.4524,-1.168 4.66195,-0.62191 0.11052,0.28793 -0.01,0.32892 -1.30827,0.4459 -1.34507,0.12116 -2.35435,0.42708 -4.21868,1.27881 -1.73065,0.79059 -4.25968,-0.80544 -4.16075,0.59198 0,6e-5 1.7e-4,0 1.7e-4,0 z"
       id="path14085-613-1-20-6"
       sodipodi:nodetypes="sscsssssssssssssas" /><path
       style="fill:#ffffff;fill-opacity:1;stroke-width:0.154055"
       d="m 415.86963,273.0232 c -0.60712,-0.27943 -1.06122,-0.78954 -0.91432,-1.02716 0.0679,-0.10999 0.0518,-0.14784 -0.0396,-0.0916 -1.07159,0.66226 -0.44613,-3.62868 0.65515,-4.49497 0.48834,-0.38411 0.3426,-0.48315 -0.71093,-0.48315 -1.89129,0 -2.73702,0.4378 -7.38523,3.8235 -2.84648,2.07336 -4.9988,2.39826 -6.2259,0.93994 -0.68998,-0.81999 -0.47868,-1.42897 0.22941,-0.66115 1.26932,1.37645 3.02307,1.06262 5.76539,-1.0317 4.21298,-3.2175 5.27822,-3.7477 7.54873,-3.75731 2.27901,-0.01 3.82223,0.87519 2.26009,1.29587 -1.82614,0.49172 -2.62948,3.37465 -1.26117,4.526 0.9581,0.80614 1.62624,0.71018 5.10395,-0.73306 2.0383,-0.84596 4.4524,-1.168 4.66195,-0.62191 0.11052,0.28793 -0.01,0.32892 -1.30827,0.4459 -1.34507,0.12116 -2.35435,0.42708 -4.21868,1.27881 -1.73065,0.79059 -4.25968,-0.80544 -4.16075,0.59198 0,6e-5 1.7e-4,0 1.7e-4,0 z"
       id="path14085-613-1-20-8"
       sodipodi:nodetypes="sscsssssssssssssas" /><path
       style="fill:#ffffff;fill-opacity:1;stroke-width:0.154055"
       d="m 450.42527,260.85572 c -0.60712,-0.27943 -1.06122,-0.78954 -0.91432,-1.02716 0.0679,-0.10999 0.0518,-0.14784 -0.0396,-0.0916 -1.07159,0.66226 -0.44613,-3.62868 0.65515,-4.49497 0.48834,-0.38411 0.3426,-0.48315 -0.71093,-0.48315 -1.89129,0 -2.73702,0.4378 -7.38523,3.8235 -2.84648,2.07336 -4.9988,2.39826 -6.2259,0.93994 -0.68998,-0.81999 -0.47868,-1.42897 0.22941,-0.66115 1.26932,1.37645 3.02307,1.06262 5.76539,-1.0317 4.21298,-3.2175 5.27822,-3.7477 7.54873,-3.75731 2.27901,-0.01 3.82223,0.87519 2.26009,1.29587 -1.82614,0.49172 -2.62948,3.37465 -1.26117,4.526 0.9581,0.80614 1.62624,0.71018 5.10395,-0.73306 2.0383,-0.84596 4.4524,-1.168 4.66195,-0.62191 0.11052,0.28793 -0.01,0.32892 -1.30827,0.4459 -1.34507,0.12116 -2.35435,0.42708 -4.21868,1.27881 -1.73065,0.79059 -4.25968,-0.80544 -4.16075,0.59198 0,6e-5 1.7e-4,0 1.7e-4,0 z"
       id="path14085-613-1-20-0"
       sodipodi:nodetypes="sscsssssssssssssas" /><path
       style="fill:#ffffff;fill-opacity:1;stroke-width:0.154055"
       d="m 473.30014,264.26261 c -0.60712,-0.27943 -1.06122,-0.78954 -0.91432,-1.02716 0.0679,-0.10999 0.0518,-0.14784 -0.0396,-0.0916 -1.07159,0.66226 -0.44613,-3.62868 0.65515,-4.49497 0.48834,-0.38411 0.3426,-0.48315 -0.71093,-0.48315 -1.89129,0 -2.73702,0.4378 -7.38523,3.8235 -2.84648,2.07336 -4.9988,2.39826 -6.2259,0.93994 -0.68998,-0.81999 -0.47868,-1.42897 0.22941,-0.66115 1.26932,1.37645 3.02307,1.06262 5.76539,-1.0317 4.21298,-3.2175 5.27822,-3.7477 7.54873,-3.75731 2.27901,-0.01 3.82223,0.87519 2.26009,1.29587 -1.82614,0.49172 -2.62948,3.37465 -1.26117,4.526 0.9581,0.80614 1.62624,0.71018 5.10395,-0.73306 2.0383,-0.84596 4.4524,-1.168 4.66195,-0.62191 0.11052,0.28793 -0.01,0.32892 -1.30827,0.4459 -1.34507,0.12116 -2.35435,0.42708 -4.21868,1.27881 -1.73065,0.79059 -4.25968,-0.80544 -4.16075,0.59198 0,6e-5 1.7e-4,0 1.7e-4,0 z"
       id="path14085-613-1-20-4"
       sodipodi:nodetypes="sscsssssssssssssas" /><path
       style="fill:#ffffff;fill-opacity:1;stroke-width:0.154055"
       d="m 475.73363,271.0764 c -0.60712,-0.27943 -1.06122,-0.78954 -0.91432,-1.02716 0.0679,-0.10999 0.0518,-0.14784 -0.0396,-0.0916 -1.07159,0.66226 -0.44613,-3.62868 0.65515,-4.49497 0.48834,-0.38411 0.3426,-0.48315 -0.71093,-0.48315 -1.89129,0 -2.73702,0.4378 -7.38523,3.8235 -2.84648,2.07336 -4.9988,2.39826 -6.2259,0.93994 -0.68998,-0.81999 -0.47868,-1.42897 0.22941,-0.66115 1.26932,1.37645 3.02307,1.06262 5.76539,-1.0317 4.21298,-3.2175 5.27822,-3.7477 7.54873,-3.75731 2.27901,-0.01 3.82223,0.87519 2.26009,1.29587 -1.82614,0.49172 -2.62948,3.37465 -1.26117,4.526 0.9581,0.80614 1.62624,0.71018 5.10395,-0.73306 2.0383,-0.84596 4.4524,-1.168 4.66195,-0.62191 0.11052,0.28793 -0.01,0.32892 -1.30827,0.4459 -1.34507,0.12116 -2.35435,0.42708 -4.21868,1.27881 -1.73065,0.79059 -4.25968,-0.80544 -4.16075,0.59198 0,6e-5 1.7e-4,0 1.7e-4,0 z"
       id="path14085-613-1-20-62"
       sodipodi:nodetypes="sscsssssssssssssas" /><path
       style="fill:#ffffff;fill-opacity:1;stroke-width:0.154055"
       d="m 349.67854,256.96213 c -0.60712,-0.27944 -1.06122,-0.78954 -0.91432,-1.02717 0.0679,-0.10998 0.0518,-0.14783 -0.0396,-0.0916 -1.07159,0.66226 -0.44613,-3.62868 0.65515,-4.49497 0.48834,-0.38411 0.3426,-0.48315 -0.71093,-0.48315 -1.89129,0 -2.73702,0.4378 -7.38523,3.8235 -2.84648,2.07336 -4.9988,2.39826 -6.2259,0.93994 -0.68998,-0.81999 -0.47868,-1.42897 0.22941,-0.66115 1.26932,1.37645 3.02308,1.06262 5.76539,-1.0317 4.21298,-3.2175 5.27822,-3.7477 7.54873,-3.75731 2.27901,-0.01 3.82223,0.87519 2.26009,1.29587 -1.82614,0.49172 -2.62948,3.37465 -1.26117,4.526 0.9581,0.80614 1.62624,0.71018 5.10395,-0.73306 2.0383,-0.84596 4.4524,-1.168 4.66195,-0.62191 0.11052,0.28793 -0.01,0.32892 -1.30827,0.4459 -1.34507,0.12116 -2.35435,0.42708 -4.21868,1.27881 -1.73065,0.79059 -4.25968,-0.80544 -4.16075,0.59198 0,6e-5 1.7e-4,0 1.7e-4,0 z"
       id="path14085-613-1-20-63"
       sodipodi:nodetypes="sscsssssssssssssas" /><path
       style="fill:#ffffff;fill-opacity:1;stroke-width:0.154055"
       d="m 280.56725,255.01533 c -0.60712,-0.27943 -1.06122,-0.78954 -0.91432,-1.02716 0.0679,-0.10999 0.0518,-0.14784 -0.0396,-0.0916 -1.07159,0.66226 -0.44613,-3.62868 0.65515,-4.49497 0.48834,-0.38411 0.3426,-0.48315 -0.71093,-0.48315 -1.89129,0 -2.73702,0.4378 -7.38523,3.8235 -2.84648,2.07336 -4.9988,2.39826 -6.2259,0.93994 -0.68998,-0.81999 -0.47868,-1.42897 0.22941,-0.66115 1.26932,1.37645 3.02308,1.06262 5.76539,-1.0317 4.21298,-3.2175 5.27822,-3.7477 7.54873,-3.75731 2.27901,-0.01 3.82223,0.87519 2.26009,1.29587 -1.82614,0.49172 -2.62948,3.37465 -1.26117,4.526 0.9581,0.80614 1.62624,0.71018 5.10395,-0.73306 2.0383,-0.84596 4.4524,-1.168 4.66195,-0.62191 0.11052,0.28793 -0.01,0.32892 -1.30827,0.4459 -1.34507,0.12116 -2.35435,0.42708 -4.21868,1.27881 -1.73065,0.79059 -4.25968,-0.80544 -4.16075,0.59198 0,6e-5 1.7e-4,0 1.7e-4,0 z"
       id="path14085-613-1-20-83"
       sodipodi:nodetypes="sscsssssssssssssas" /><path
       style="fill:#ffffff;fill-opacity:1;stroke-width:0.154055"
       d="m 215.34955,255.01533 c -0.60712,-0.27943 -1.06122,-0.78954 -0.91432,-1.02716 0.0679,-0.10999 0.0518,-0.14784 -0.0396,-0.0916 -1.07159,0.66226 -0.44613,-3.62868 0.65515,-4.49497 0.48834,-0.38411 0.3426,-0.48315 -0.71093,-0.48315 -1.89129,0 -2.73702,0.4378 -7.38523,3.8235 -2.84648,2.07336 -4.9988,2.39826 -6.2259,0.93994 -0.68998,-0.81999 -0.47868,-1.42897 0.22941,-0.66115 1.26932,1.37645 3.02307,1.06262 5.76539,-1.0317 4.21298,-3.2175 5.27822,-3.7477 7.54873,-3.75731 2.27901,-0.01 3.82223,0.87519 2.26009,1.29587 -1.82614,0.49172 -2.62948,3.37465 -1.26117,4.526 0.9581,0.80614 1.62624,0.71018 5.10395,-0.73306 2.0383,-0.84596 4.4524,-1.168 4.66195,-0.62191 0.11052,0.28793 -0.01,0.32892 -1.30827,0.4459 -1.34507,0.12116 -2.35435,0.42708 -4.21868,1.27881 -1.73065,0.79059 -4.25968,-0.80544 -4.16075,0.59198 0,6e-5 1.7e-4,0 1.7e-4,0 z"
       id="path14085-613-1-20-9"
       sodipodi:nodetypes="sscsssssssssssssas" /><path
       style="fill:#ffffff;fill-opacity:1;stroke-width:0.154055"
       d="m 145.26486,261.34242 c -0.60712,-0.27943 -1.06122,-0.78954 -0.91432,-1.02716 0.0679,-0.10999 0.0518,-0.14784 -0.0396,-0.0916 -1.07158,0.66226 -0.44613,-3.62868 0.65515,-4.49497 0.48834,-0.38411 0.3426,-0.48315 -0.71093,-0.48315 -1.89128,0 -2.73701,0.4378 -7.38523,3.8235 -2.84648,2.07336 -4.99879,2.39826 -6.2259,0.93994 -0.68997,-0.81999 -0.47867,-1.42897 0.22941,-0.66115 1.26932,1.37645 3.02308,1.06262 5.76539,-1.0317 4.21298,-3.2175 5.27822,-3.7477 7.54873,-3.75731 2.27901,-0.01 3.82224,0.87519 2.2601,1.29587 -1.82614,0.49172 -2.62948,3.37465 -1.26118,4.526 0.9581,0.80614 1.62624,0.71018 5.10395,-0.73306 2.03831,-0.84596 4.45241,-1.168 4.66196,-0.62191 0.11051,0.28793 -0.01,0.32892 -1.30827,0.4459 -1.34508,0.12116 -2.35435,0.42708 -4.21868,1.27881 -1.73065,0.79059 -4.25968,-0.80544 -4.16075,0.59198 0,6e-5 1.6e-4,0 1.6e-4,0 z"
       id="path14085-613-1-20-28"
       sodipodi:nodetypes="sscsssssssssssssas" /><path
       style="fill:#ffffff;fill-opacity:1;stroke-width:0.154055"
       d="m 107.78903,261.34242 c -0.60712,-0.27943 -1.06122,-0.78954 -0.91432,-1.02716 0.0679,-0.10999 0.0518,-0.14784 -0.0396,-0.0916 -1.07159,0.66226 -0.44613,-3.62868 0.65515,-4.49497 0.48834,-0.38411 0.3426,-0.48315 -0.71093,-0.48315 -1.89129,0 -2.73702,0.4378 -7.385238,3.8235 -2.84648,2.07336 -4.998793,2.39826 -6.2259,0.93994 -0.689974,-0.81999 -0.478673,-1.42897 0.22941,-0.66115 1.26932,1.37645 3.023078,1.06262 5.765392,-1.0317 4.212976,-3.2175 5.278216,-3.7477 7.548736,-3.75731 2.27901,-0.01 3.82223,0.87519 2.26009,1.29587 -1.82614,0.49172 -2.62948,3.37465 -1.26117,4.526 0.9581,0.80614 1.62624,0.71018 5.10395,-0.73306 2.0383,-0.84596 4.4524,-1.168 4.66195,-0.62191 0.11052,0.28793 -0.01,0.32892 -1.30827,0.4459 -1.34507,0.12116 -2.35435,0.42708 -4.21868,1.27881 -1.73065,0.79059 -4.25968,-0.80544 -4.16075,0.59198 0,6e-5 1.7e-4,0 1.7e-4,0 z"
       id="path14085-613-1-20-3"
       sodipodi:nodetypes="sscsssssssssssssas" /><path
       style="fill:#ffffff;fill-opacity:1;stroke-width:0.154055"
       d="m 25.050158,251.60843 c -0.60712,-0.27943 -1.06122,-0.78954 -0.91432,-1.02716 0.0679,-0.10999 0.0518,-0.14784 -0.0396,-0.0916 -1.071587,0.66226 -0.44613,-3.62868 0.65515,-4.49497 0.48834,-0.38411 0.3426,-0.48315 -0.71093,-0.48315 -1.891288,0 -2.737017,0.4378 -7.385233,3.8235 -2.84648,2.07336 -4.998793,2.39826 -6.2259,0.93994 -0.689974,-0.81999 -0.478673,-1.42897 0.22941,-0.66115 1.26932,1.37645 3.023078,1.06262 5.765392,-1.0317 4.212979,-3.2175 5.278218,-3.7477 7.548731,-3.75731 2.27901,-0.01 3.82223,0.87519 2.26009,1.29587 -1.82614,0.49172 -2.62948,3.37465 -1.26117,4.526 0.9581,0.80614 1.62624,0.71018 5.10395,-0.73306 2.0383,-0.84596 4.4524,-1.168 4.66195,-0.62191 0.11052,0.28793 -0.01,0.32892 -1.30827,0.4459 -1.34507,0.12116 -2.35435,0.42708 -4.21868,1.27881 -1.73065,0.79059 -4.25968,-0.80544 -4.16075,0.59198 0,6e-5 1.7e-4,0 1.7e-4,0 z"
       id="path14085-613-1-20-89"
       sodipodi:nodetypes="sscsssssssssssssas" /><path
       style="fill:#ffffff;fill-opacity:1;stroke-width:0.154055"
       d="m 1.6886,267.66951 c -0.60712,-0.27943 -1.06122,-0.78954 -0.91432,-1.02716 0.0679,-0.10999 0.0518,-0.14784 -0.0396,-0.0916 -1.071587,0.66226 -0.44613,-3.62868 0.65515,-4.49497 0.48834,-0.38411 0.3426,-0.48315 -0.71093,-0.48315 -1.891288,0 -2.737017,0.4378 -7.385233,3.8235 -2.84648,2.07336 -4.998793,2.39826 -6.2259,0.93994 -0.689974,-0.81999 -0.478673,-1.42897 0.22941,-0.66115 1.26932,1.37645 3.023078,1.06262 5.765392,-1.0317 4.212979,-3.2175 5.278218,-3.7477 7.548731,-3.75731 2.27901,-0.01 3.82223,0.87519 2.26009,1.29587 -1.82614,0.49172 -2.62948,3.37465 -1.26117,4.526 0.9581,0.80614 1.62624,0.71018 5.10395,-0.73306 2.0383,-0.84596 4.4524,-1.168 4.66195,-0.62191 0.11052,0.28793 -0.01,0.32892 -1.30827,0.4459 -1.34507,0.12116 -2.35435,0.42708 -4.21868,1.27881 -1.73065,0.79059 -4.25968,-0.80544 -4.16075,0.59198 0,6e-5 1.7e-4,0 1.7e-4,0 z"
       id="path14085-613-1-20-21"
       sodipodi:nodetypes="sscsssssssssssssas" /><path
       style="fill:#ffffff;fill-opacity:1;stroke-width:0.154055"
       d="m 0.2285,278.37689 c -0.60712,-0.27943 -1.06122,-0.78954 -0.91432,-1.02716 0.0679,-0.10999 0.0518,-0.14784 -0.0396,-0.0916 -1.071587,0.66226 -0.44613,-3.62868 0.65515,-4.49497 0.48834,-0.38411 0.3426,-0.48315 -0.71093,-0.48315 -1.891288,0 -2.737017,0.4378 -7.385233,3.8235 -2.84648,2.07336 -4.998793,2.39826 -6.2259,0.93994 -0.689974,-0.81999 -0.478673,-1.42897 0.22941,-0.66115 1.26932,1.37645 3.023078,1.06262 5.765392,-1.0317 4.212979,-3.2175 5.278218,-3.7477 7.548731,-3.75731 2.27901,-0.01 3.82223,0.87519 2.26009,1.29587 -1.82614,0.49172 -2.62948,3.37465 -1.26117,4.526 0.9581,0.80614 1.62624,0.71018 5.10395,-0.73306 2.0383,-0.84596 4.4524,-1.168 4.66195,-0.62191 0.11052,0.28793 -0.01,0.32892 -1.30827,0.4459 -1.34507,0.12116 -2.35435,0.42708 -4.21868,1.27881 -1.73065,0.79059 -4.25968,-0.80544 -4.16075,0.59198 0,6e-5 1.7e-4,0 1.7e-4,0 z"
       id="path14085-613-1-20-41"
       sodipodi:nodetypes="sscsssssssssssssas" /><path
       style="fill:#ffffff;fill-opacity:1;stroke-width:0.154055"
       d="m 63.499397,265.23601 c -0.60712,-0.27943 -1.06122,-0.78954 -0.91432,-1.02716 0.0679,-0.10999 0.0518,-0.14784 -0.0396,-0.0916 -1.071587,0.66226 -0.44613,-3.62868 0.65515,-4.49497 0.48834,-0.38411 0.3426,-0.48315 -0.71093,-0.48315 -1.891288,0 -2.737017,0.4378 -7.385233,3.8235 -2.84648,2.07336 -4.998793,2.39826 -6.2259,0.93994 -0.689974,-0.81999 -0.478673,-1.42897 0.22941,-0.66115 1.26932,1.37645 3.023078,1.06262 5.765392,-1.0317 4.212979,-3.2175 5.278218,-3.7477 7.548731,-3.75731 2.27901,-0.01 3.82223,0.87519 2.26009,1.29587 -1.82614,0.49172 -2.62948,3.37465 -1.26117,4.526 0.9581,0.80614 1.62624,0.71018 5.10395,-0.73306 2.0383,-0.84596 4.4524,-1.168 4.66195,-0.62191 0.11052,0.28793 -0.01,0.32892 -1.30827,0.4459 -1.34507,0.12116 -2.35435,0.42708 -4.21868,1.27881 -1.73065,0.79059 -4.25968,-0.80544 -4.16075,0.59198 0,6e-5 1.7e-4,0 1.7e-4,0 z"
       id="path14085-613-1-20-95"
       sodipodi:nodetypes="sscsssssssssssssas" /><path
       style="fill:#ffffff;fill-opacity:1;stroke-width:0.154055"
       d="m 88.321057,250.14834 c -0.60712,-0.27943 -1.06122,-0.78954 -0.91432,-1.02716 0.0679,-0.10999 0.0518,-0.14784 -0.0396,-0.0916 -1.071587,0.66226 -0.44613,-3.62868 0.65515,-4.49497 0.48834,-0.38411 0.3426,-0.48315 -0.71093,-0.48315 -1.891288,0 -2.737017,0.4378 -7.385233,3.8235 -2.84648,2.07336 -4.998793,2.39826 -6.2259,0.93994 -0.689974,-0.81999 -0.478673,-1.42897 0.22941,-0.66115 1.26932,1.37645 3.023078,1.06262 5.765392,-1.0317 4.212979,-3.2175 5.278218,-3.7477 7.548731,-3.75731 2.27901,-0.01 3.82223,0.87519 2.26009,1.29587 -1.82614,0.49172 -2.62948,3.37465 -1.26117,4.526 0.9581,0.80614 1.62624,0.71018 5.10395,-0.73306 2.0383,-0.84596 4.4524,-1.168 4.66195,-0.62191 0.11052,0.28793 -0.01,0.32892 -1.30827,0.4459 -1.34507,0.12116 -2.35435,0.42708 -4.21868,1.27881 -1.73065,0.79059 -4.25968,-0.80544 -4.16075,0.59198 0,6e-5 1.7e-4,0 1.7e-4,0 z"
       id="path14085-613-1-20-27"
       sodipodi:nodetypes="sscsssssssssssssas" /><path
       style="fill:#ffffff;fill-opacity:1;stroke-width:0.154055"
       d="m 172.03332,260.36902 c -0.60712,-0.27943 -1.06122,-0.78954 -0.91432,-1.02716 0.0679,-0.10999 0.0518,-0.14784 -0.0396,-0.0916 -1.07159,0.66226 -0.44613,-3.62868 0.65515,-4.49497 0.48834,-0.38411 0.3426,-0.48315 -0.71093,-0.48315 -1.89129,0 -2.73702,0.4378 -7.38523,3.8235 -2.84648,2.07336 -4.99879,2.39826 -6.2259,0.93994 -0.68998,-0.81999 -0.47867,-1.42897 0.22941,-0.66115 1.26932,1.37645 3.02308,1.06262 5.76539,-1.0317 4.21298,-3.2175 5.27822,-3.7477 7.54873,-3.75731 2.27901,-0.01 3.82223,0.87519 2.26009,1.29587 -1.82614,0.49172 -2.62948,3.37465 -1.26117,4.526 0.9581,0.80614 1.62624,0.71018 5.10395,-0.73306 2.0383,-0.84596 4.4524,-1.168 4.66195,-0.62191 0.11052,0.28793 -0.01,0.32892 -1.30827,0.4459 -1.34507,0.12116 -2.35435,0.42708 -4.21868,1.27881 -1.73065,0.79059 -4.25968,-0.80544 -4.16075,0.59198 0,6e-5 1.7e-4,0 1.7e-4,0 z"
       id="path14085-613-1-20-15"
       sodipodi:nodetypes="sscsssssssssssssas" /><path
       style="fill:#ffffff;fill-opacity:1;stroke-width:0.154055"
       d="m 185.6609,279.35029 c -0.60712,-0.27943 -1.06122,-0.78954 -0.91432,-1.02716 0.0679,-0.10999 0.0518,-0.14784 -0.0396,-0.0916 -1.07159,0.66226 -0.44613,-3.62868 0.65515,-4.49497 0.48834,-0.38411 0.3426,-0.48315 -0.71093,-0.48315 -1.89129,0 -2.73702,0.4378 -7.38523,3.8235 -2.84648,2.07336 -4.9988,2.39826 -6.2259,0.93994 -0.68998,-0.81999 -0.47868,-1.42897 0.22941,-0.66115 1.26932,1.37645 3.02307,1.06262 5.76539,-1.0317 4.21298,-3.2175 5.27822,-3.7477 7.54873,-3.75731 2.27901,-0.01 3.82223,0.87519 2.26009,1.29587 -1.82614,0.49172 -2.62948,3.37465 -1.26117,4.526 0.9581,0.80614 1.62624,0.71018 5.10395,-0.73306 2.0383,-0.84596 4.4524,-1.168 4.66195,-0.62191 0.11052,0.28793 -0.01,0.32892 -1.30827,0.4459 -1.34507,0.12116 -2.35435,0.42708 -4.21868,1.27881 -1.73065,0.79059 -4.25968,-0.80544 -4.16075,0.59198 0,6e-5 1.7e-4,0 1.7e-4,0 z"
       id="path14085-613-1-20-82"
       sodipodi:nodetypes="sscsssssssssssssas" /><path
       style="fill:#ffffff;fill-opacity:1;stroke-width:0.154055"
       d="m 269.37317,282.75718 c -0.60712,-0.27943 -1.06122,-0.78954 -0.91432,-1.02716 0.0679,-0.10999 0.0518,-0.14784 -0.0396,-0.0916 -1.07159,0.66226 -0.44613,-3.62868 0.65515,-4.49497 0.48834,-0.38411 0.3426,-0.48315 -0.71093,-0.48315 -1.89129,0 -2.73702,0.4378 -7.38523,3.8235 -2.84648,2.07336 -4.9988,2.39826 -6.2259,0.93994 -0.68998,-0.81999 -0.47868,-1.42897 0.22941,-0.66115 1.26932,1.37645 3.02307,1.06262 5.76539,-1.0317 4.21298,-3.2175 5.27822,-3.7477 7.54873,-3.75731 2.27901,-0.01 3.82223,0.87519 2.26009,1.29587 -1.82614,0.49172 -2.62948,3.37465 -1.26117,4.526 0.9581,0.80614 1.62624,0.71018 5.10395,-0.73306 2.0383,-0.84596 4.4524,-1.168 4.66195,-0.62191 0.11052,0.28793 -0.01,0.32892 -1.30827,0.4459 -1.34507,0.12116 -2.35435,0.42708 -4.21868,1.27881 -1.73065,0.79059 -4.25968,-0.80544 -4.16075,0.59198 0,6e-5 1.7e-4,0 1.7e-4,0 z"
       id="path14085-613-1-20-20"
       sodipodi:nodetypes="sscsssssssssssssas" /><path
       style="fill:#ffffff;fill-opacity:1;stroke-width:0.154055"
       d="m 314.63619,278.37689 c -0.60712,-0.27943 -1.06122,-0.78954 -0.91432,-1.02716 0.0679,-0.10999 0.0518,-0.14784 -0.0396,-0.0916 -1.07159,0.66226 -0.44613,-3.62868 0.65515,-4.49497 0.48834,-0.38411 0.3426,-0.48315 -0.71093,-0.48315 -1.89129,0 -2.73702,0.4378 -7.38523,3.8235 -2.84648,2.07336 -4.9988,2.39826 -6.2259,0.93994 -0.68998,-0.81999 -0.47868,-1.42897 0.22941,-0.66115 1.26932,1.37645 3.02308,1.06262 5.76539,-1.0317 4.21298,-3.2175 5.27822,-3.7477 7.54873,-3.75731 2.27901,-0.01 3.82223,0.87519 2.26009,1.29587 -1.82614,0.49172 -2.62948,3.37465 -1.26117,4.526 0.9581,0.80614 1.62624,0.71018 5.10395,-0.73306 2.0383,-0.84596 4.4524,-1.168 4.66195,-0.62191 0.11052,0.28793 -0.01,0.32892 -1.30827,0.4459 -1.34507,0.12116 -2.35435,0.42708 -4.21868,1.27881 -1.73065,0.79059 -4.25968,-0.80544 -4.16075,0.59198 0,6e-5 1.7e-4,0 1.7e-4,0 z"
       id="path14085-613-1-20-92"
       sodipodi:nodetypes="sscsssssssssssssas" /><path
       style="fill:#ffffff;fill-opacity:1;stroke-width:0.154055"
       d="m 327.29037,254.04193 c -0.60712,-0.27943 -1.06122,-0.78954 -0.91432,-1.02716 0.0679,-0.10999 0.0518,-0.14784 -0.0396,-0.0916 -1.07159,0.66226 -0.44613,-3.62868 0.65515,-4.49497 0.48834,-0.38411 0.3426,-0.48315 -0.71093,-0.48315 -1.89129,0 -2.73702,0.4378 -7.38523,3.8235 -2.84648,2.07336 -4.9988,2.39826 -6.2259,0.93994 -0.68998,-0.81999 -0.47868,-1.42897 0.22941,-0.66115 1.26932,1.37645 3.02308,1.06262 5.76539,-1.0317 4.21298,-3.2175 5.27822,-3.7477 7.54873,-3.75731 2.27901,-0.01 3.82223,0.87519 2.26009,1.29587 -1.82614,0.49172 -2.62948,3.37465 -1.26117,4.526 0.9581,0.80614 1.62624,0.71018 5.10395,-0.73306 2.0383,-0.84596 4.4524,-1.168 4.66195,-0.62191 0.11052,0.28793 -0.01,0.32892 -1.30827,0.4459 -1.34507,0.12116 -2.35435,0.42708 -4.21868,1.27881 -1.73065,0.79059 -4.25968,-0.80544 -4.16075,0.59198 0,6e-5 1.7e-4,0 1.7e-4,0 z"
       id="path14085-613-1-20-47"
       sodipodi:nodetypes="sscsssssssssssssas" /><path
       style="fill:#ffffff;fill-opacity:1;stroke-width:0.154055"
       d="m 393.96816,255.98873 c -0.60712,-0.27943 -1.06122,-0.78954 -0.91432,-1.02716 0.0679,-0.10999 0.0518,-0.14784 -0.0396,-0.0916 -1.07159,0.66226 -0.44613,-3.62868 0.65515,-4.49497 0.48834,-0.38411 0.3426,-0.48315 -0.71093,-0.48315 -1.89129,0 -2.73702,0.4378 -7.38523,3.8235 -2.84648,2.07336 -4.9988,2.39826 -6.2259,0.93994 -0.68998,-0.81999 -0.47868,-1.42897 0.22941,-0.66115 1.26932,1.37645 3.02307,1.06262 5.76539,-1.0317 4.21298,-3.2175 5.27822,-3.7477 7.54873,-3.75731 2.27901,-0.01 3.82223,0.87519 2.26009,1.29587 -1.82614,0.49172 -2.62948,3.37465 -1.26117,4.526 0.9581,0.80614 1.62624,0.71018 5.10395,-0.73306 2.0383,-0.84596 4.4524,-1.168 4.66195,-0.62191 0.11052,0.28793 -0.01,0.32892 -1.30827,0.4459 -1.34507,0.12116 -2.35435,0.42708 -4.21868,1.27881 -1.73065,0.79059 -4.25968,-0.80544 -4.16075,0.59198 0,6e-5 1.7e-4,0 1.7e-4,0 z"
       id="path14085-613-1-20-93"
       sodipodi:nodetypes="sscsssssssssssssas" /><path
       style="fill:#ffffff;fill-opacity:1;stroke-width:0.154055"
       d="m 455.77896,250.63504 c -0.60712,-0.27943 -1.06122,-0.78954 -0.91432,-1.02716 0.0679,-0.10999 0.0518,-0.14784 -0.0396,-0.0916 -1.07159,0.66226 -0.44613,-3.62868 0.65515,-4.49497 0.48834,-0.38411 0.3426,-0.48315 -0.71093,-0.48315 -1.89129,0 -2.73702,0.4378 -7.38523,3.8235 -2.84648,2.07336 -4.9988,2.39826 -6.2259,0.93994 -0.68998,-0.81999 -0.47868,-1.42897 0.22941,-0.66115 1.26932,1.37645 3.02307,1.06262 5.76539,-1.0317 4.21298,-3.2175 5.27822,-3.7477 7.54873,-3.75731 2.27901,-0.01 3.82223,0.87519 2.26009,1.29587 -1.82614,0.49172 -2.62948,3.37465 -1.26117,4.526 0.9581,0.80614 1.62624,0.71018 5.10395,-0.73306 2.0383,-0.84596 4.4524,-1.168 4.66195,-0.62191 0.11052,0.28793 -0.01,0.32892 -1.30827,0.4459 -1.34507,0.12116 -2.35435,0.42708 -4.21868,1.27881 -1.73065,0.79059 -4.25968,-0.80544 -4.16075,0.59198 0,6e-5 1.7e-4,0 1.7e-4,0 z"
       id="path14085-613-1-20-29"
       sodipodi:nodetypes="sscsssssssssssssas" /><path
       style="fill:#ffffff;fill-opacity:1;stroke-width:0.154055"
       d="m 487.90111,256.96213 c -0.60712,-0.27944 -1.06122,-0.78954 -0.91432,-1.02717 0.0679,-0.10998 0.0518,-0.14783 -0.0396,-0.0916 -1.07159,0.66226 -0.44613,-3.62868 0.65515,-4.49497 0.48834,-0.38411 0.3426,-0.48315 -0.71093,-0.48315 -1.89129,0 -2.73702,0.4378 -7.38523,3.8235 -2.84648,2.07336 -4.9988,2.39826 -6.2259,0.93994 -0.68998,-0.81999 -0.47868,-1.42897 0.22941,-0.66115 1.26932,1.37645 3.02307,1.06262 5.76539,-1.0317 4.21298,-3.2175 5.27822,-3.7477 7.54873,-3.75731 2.27901,-0.01 3.82223,0.87519 2.26009,1.29587 -1.82614,0.49172 -2.62948,3.37465 -1.26117,4.526 0.9581,0.80614 1.62624,0.71018 5.10395,-0.73306 2.0383,-0.84596 4.4524,-1.168 4.66195,-0.62191 0.11052,0.28793 -0.01,0.32892 -1.30827,0.4459 -1.34507,0.12116 -2.35435,0.42708 -4.21868,1.27881 -1.73065,0.79059 -4.25968,-0.80544 -4.16075,0.59198 0,6e-5 1.7e-4,0 1.7e-4,0 z"
       id="path14085-613-1-20-06"
       sodipodi:nodetypes="sscsssssssssssssas" /></g><g
     inkscape:label="Vrstva 1"
     inkscape:groupmode="layer"
     id="layer1"><g
       id="g44226"
       transform="matrix(0.82032773,0,0,0.82032773,37.033793,0.15112359)"><g
         id="g48195"><path
           style="fill:#857766;fill-opacity:1;stroke:#000000;stroke-width:0.264583"
           d="m 240.3876,72.615294 c 0,0 15.44412,-0.340756 21.56254,5.777667 6.11841,6.118423 13.82258,14.196311 12.0391,20.852323 -1.78348,6.656016 -1.76792,6.752396 -1.76792,6.752396 L 295.27926,94.640788 268.77983,59.021437 241.24797,62.97914 Z"
           id="path42601" /><path
           style="fill:#857766;fill-opacity:1;stroke:#000000;stroke-width:0.264583"
           d="m 334.68826,71.557585 c 0,0 17.39092,1.119342 23.50934,7.237765 6.11841,6.118423 16.01273,14.074636 14.22925,20.730648 -1.78348,6.656022 -1.76792,9.185892 -1.76792,9.185892 l 20.86779,-13.668713 -26.49943,-35.619351 -27.53186,3.957703 z"
           id="path42601-3"
           sodipodi:nodetypes="cssccccc" /><path
           style="fill:#857766;fill-opacity:1;stroke:#000000;stroke-width:0.264583"
           d="m 307.15238,111.8482 4.47392,23.05794 -13.59387,-0.6883 -2.40903,6.88297 31.48957,-0.6883 -12.04518,-35.10312 z"
           id="path42763" /><path
           style="fill:#f4f4dc;fill-opacity:1;stroke:#000000;stroke-width:0.264583"
           d="m 239.94271,209.80237 -3.40689,-53.57192 c 0,0 -25.79506,-10.70739 -26.76846,-12.65418 -0.9734,-1.9468 -23.84826,-20.44137 -23.84826,-24.82166 0,-4.3803 -3.89359,-25.795059 -1.4601,-30.175352 2.4335,-4.380294 9.73399,-9.733984 11.19408,-16.061076 1.4601,-6.32709 7.30049,-31.635448 7.30049,-31.635448 0,0 13.14088,-1.946797 16.06108,-5.840392 2.92019,-3.893592 12.65418,-18.494569 16.54777,-19.954666 3.89359,-1.460098 44.77632,-14.11427758 48.18323,-14.11427758 3.40688,0 40.88272,4.38029288 45.74971,5.84039068 4.86701,1.4600975 16.54778,7.3004879 26.76848,13.1408789 10.22066,5.84039 23.36154,18.494571 29.68863,23.848261 6.32711,5.353693 13.1409,10.707383 15.57438,17.521171 2.4335,6.813791 13.14087,23.848264 14.11427,30.662052 0.97341,6.813788 -0.4867,29.201958 -1.4601,31.635448 -0.97338,2.4335 -11.68077,9.73398 -11.68077,9.73398 0,0 -0.4867,9.24729 -1.4601,11.19409 -0.97341,1.94679 -12.16748,9.24728 -12.16748,9.24728 0,0 -7.78719,-1.46009 -9.24729,1.4601 -1.46008,2.92019 -5.35369,9.73398 -4.38028,15.57437 0.9734,5.84039 4.86698,11.19409 4.86698,11.19409 l 2.43351,27.29016 z"
           id="path37697"
           sodipodi:nodetypes="ccsssscssssssssscscssccc"
           mask="url(#mask-powermask-path-effect42593)"
           inkscape:path-effect="#path-effect42593"
           inkscape:original-d="m 239.94271,209.80237 -3.40689,-53.57192 c 0,0 -25.79506,-10.70739 -26.76846,-12.65418 -0.9734,-1.9468 -23.84826,-20.44137 -23.84826,-24.82166 0,-4.3803 -3.89359,-25.795059 -1.4601,-30.175352 2.4335,-4.380294 9.73399,-9.733984 11.19408,-16.061076 1.4601,-6.32709 7.30049,-31.635448 7.30049,-31.635448 0,0 13.14088,-1.946797 16.06108,-5.840392 2.92019,-3.893592 12.65418,-18.494569 16.54777,-19.954666 3.89359,-1.460098 44.77632,-14.11427758 48.18323,-14.11427758 3.40688,0 40.88272,4.38029288 45.74971,5.84039068 4.86701,1.4600975 16.54778,7.3004879 26.76848,13.1408789 10.22066,5.84039 23.36154,18.494571 29.68863,23.848261 6.32711,5.353693 13.1409,10.707383 15.57438,17.521171 2.4335,6.813791 13.14087,23.848264 14.11427,30.662052 0.97341,6.813788 -0.4867,29.201958 -1.4601,31.635448 -0.97338,2.4335 -11.68077,9.73398 -11.68077,9.73398 0,0 -0.4867,9.24729 -1.4601,11.19409 -0.97341,1.94679 -12.16748,9.24728 -12.16748,9.24728 0,0 -7.78719,-1.46009 -9.24729,1.4601 -1.46008,2.92019 -5.35369,9.73398 -4.38028,15.57437 0.9734,5.84039 4.86698,11.19409 4.86698,11.19409 l 2.43351,27.29016 z" /><path
           style="fill:#9a8e5a;fill-opacity:1;stroke:#000000;stroke-width:0.264583"
           d="m 236.6143,155.68179 3.32841,54.1676 -25.67338,-0.14287 0.36502,-14.29678 c 0,0 3.10742,-8.47607 3.8936,-12.89753 1.20914,-6.80016 1.21674,-20.68472 1.21674,-20.68472 z"
           id="path39667"
           sodipodi:nodetypes="ccccscc" /><g
           id="g28307-9-0"
           transform="matrix(0.17579369,0,0,0.17579369,300.81524,185.53977)"><path
             style="fill:#633813;fill-opacity:1;stroke:#000000;stroke-width:0.264583;stroke-dasharray:none;stroke-opacity:1"
             d="m 972.57447,-31.429631 c 0,0 -39.83518,64.519254 -49.5687,100.259294 -8.4027,30.853472 -13.87499,62.488207 -19.2723,94.296637 -4.4987,26.5126 -4.81806,80.53071 -4.81806,80.53071 l 33.60125,0.40319 c 0,0 -2.60831,-51.23533 -1.25131,-76.80412 1.49463,-28.16187 5.20919,-56.23847 10.32444,-83.972188 3.98679,-21.615446 10.15304,-42.777536 15.83081,-64.011586 4.50186,-16.8363049 15.15387,-50.701937 15.15387,-50.701937 z"
             id="path18976-2-3"
             sodipodi:nodetypes="cssccsssc" /><path
             style="fill:#4e4b0c;fill-opacity:1;stroke:#000000;stroke-width:0.264583;stroke-dasharray:none;stroke-opacity:1"
             d="m 972.42504,-31.3921 c 0,0 -7.62378,2.440254 -14.71509,8.435935 -7.15542,6.049881 -13.78637,15.6556767 -15.46026,15.6556767 -2.0149,0 -1.87871,-4.6236427 -3.89361,-4.6236427 -3.24824,0 -6.25884,18.4890748 -9.00393,19.2246193 -1.84918,0.4954874 -1.51809,-4.9358484 -3.40688,-4.6236427 -2.25062,0.3720143 -2.38047,14.7251644 -4.86701,15.3310254 -1.56037,0.380194 -1.85558,-3.822563 -3.40688,-3.406894 -2.66698,0.714615 -8.13907,20.32359 -10.46404,18.98127 -2.99104,-1.72688 0.68876,-21.671099 -0.73006,-22.388165 -1.40567,-0.71042 -2.68054,3.681404 -3.89358,2.676846 -3.12151,-2.585021 13.70749,-24.498383 11.68077,-26.525108 -1.36339,-1.363385 -4.13358,3.6831217 -5.35369,2.190147 -3.0098,-3.682912 17.25453,-17.489935 16.18277,-19.346293 -1.09808,-1.901922 -5.10735,2.510294 -6.20543,0.608372 -1.10786,-1.918865 6.47759,-5.712442 10.46403,-7.057138 9.39253,-3.168268 19.9728,-3.668063 29.68866,-1.703446 4.87141,0.985035 13.38423,6.570438 13.38423,6.570438 z"
             id="path20046-5-9"
             sodipodi:nodetypes="cssssssssssssssssc" /><path
             style="fill:#4e4b0c;fill-opacity:1;stroke:#000000;stroke-width:0.264583;stroke-dasharray:none;stroke-opacity:1"
             d="m 972.39107,-31.575607 c 0,0 -9.8993,-8.970678 -13.24972,-9.808229 -8.21911,-2.054646 -29.15657,0.511452 -29.15657,0.511452 -1.73639,-1.2955 3.88408,-2.611297 3.08733,-4.038972 -4.22626,-7.572914 -21.01361,10.000515 -25.86477,2.811875 -1.44133,-2.135813 5.11946,-4.697065 3.65025,-6.813791 -6.20773,-8.943588 -29.77916,7.30547 -32.3655,4.380294 -1.05563,-1.19393 2.32485,-3.478249 1.21674,-4.623644 -2.53143,-2.616609 -25.0596,9.00935 -27.74186,6.327092 -1.80017,-1.800166 5.69378,-4.770271 3.89361,-6.57044 -1.82692,-1.826924 -23.63129,17.482984 -27.01181,12.410829 -2.17548,-3.264108 6.94734,-14.163347 15.90005,-20.477186 5.70691,-4.024753 12.64489,-4.380435 12.3285,-5.561222 -0.41354,-1.54337 -4.38031,-0.348981 -4.38031,-1.946796 0,-2.283619 6.44537,-7.540806 13.63039,-9.112837 5.74008,-1.255889 12.43644,1.160749 13.13809,-0.377799 1.01255,-2.22026 -3.89696,-4.700473 -2.67684,-6.813788 0.94947,-1.644529 11.63628,-1.213813 21.02784,0.04718 10.05476,1.350043 16.90572,8.012313 17.90808,7.009955 0,0 -8.2371,-5.390473 -5.84039,-7.787189 2.67616,-2.676161 13.47329,4.552174 22.71919,7.981972 8.83105,3.275906 9.34091,11.224297 11.34976,10.025899 2.37262,-1.415406 -3.15529,-7.55884 -0.4867,-8.273886 6.37556,-1.708327 23.5307,18.095309 29.20195,31.14875 1.45778,3.355351 -0.12168,9.64273 -0.12168,9.64273 z"
             id="path23309-0-4"
             sodipodi:nodetypes="cssssssssssssssssssssssscc" /><path
             style="fill:#4e4b0c;fill-opacity:1;stroke:#000000;stroke-width:0.264583;stroke-dasharray:none;stroke-opacity:1"
             d="m 972.73522,-31.661646 c 0,0 9.4846,-27.165089 9.89425,-36.135573 0.36829,-8.064849 0.39589,-23.963141 -3.634,-23.945582 -2.2943,0.01 1.24274,6.219974 -0.9734,6.813788 -0.52089,0.139572 -1.11619,-5.628164 -4.18604,-10.765027 -3.66937,-6.14008 -9.98891,-11.78456 -11.87502,-10.89309 -2.41902,1.14336 3.8882,5.94605 1.94678,7.78719 -0.75627,0.717206 -5.28427,-6.73987 -9.45389,-10.44218 -6.58309,-5.84528 -15.23925,-8.1451 -17.25805,-6.04655 -2.01354,2.09311 7.16174,3.61489 5.54054,6.02469 -1.11885,1.66308 -23.11753,-9.68551 -24.82168,-6.08373 -1.57545,3.32978 20.08736,11.92328 19.46799,14.60097 -0.58952,2.548639 -7.47037,-1.62327 -7.78719,0.973401 -0.36211,2.967899 19.76834,4.363049 18.98126,7.300489 -0.54505,2.034154 -5.5387,-0.330708 -6.08375,1.703446 -0.56104,2.093821 18.23451,12.480456 17.27782,15.087676 -0.75653,2.061723 -5.47235,-1.415215 -6.57042,0.486698 -0.45317,0.784907 11.44249,10.977344 16.98071,22.78047 4.32313,9.213498 2.55409,20.752914 2.55409,20.752914 z"
             id="path24037-5-8"
             sodipodi:nodetypes="csssssssssssssssssc" /><path
             style="fill:#4e4b0c;fill-opacity:1;stroke:#000000;stroke-width:0.264583;stroke-dasharray:none;stroke-opacity:1"
             d="m 972.85089,-31.696286 c 0,0 20.41163,-50.848167 25.8559,-49.582483 2.21231,0.514308 -1.70344,7.787188 0,6.813788 1.70341,-0.973396 15.44951,-13.68224 18.49461,-11.92413 1.9187,1.107772 -3.7847,4.165025 -2.6769,6.083742 0.8254,1.429621 13.8267,-3.818798 20.6847,-2.676848 7.2284,1.203631 20.5815,6.760137 19.7113,9.733986 -0.5173,1.767848 -9.1144,-4.397399 -10.9507,-1.21675 -1.0874,1.883364 11.2331,6.476861 14.0553,9.490636 2.978,3.180286 6.9679,10.309942 5.3537,11.924131 -1.2593,1.259279 -2.332,-3.936125 -3.5913,-2.676846 -1.5406,1.540611 3.322,9.275144 3.4069,14.114278 0.064,3.642463 -0.4784,10.707383 -2.1901,10.707383 -3.8398,0 -5.5836,-8.810038 -8.8196,-13.010559 -2.2056,-2.862972 -5.41,-9.063756 -6.7548,-8.404208 -1.9785,0.970326 2.7504,5.69046 0.7301,6.570441 -3.14,1.36769 -6.9076,-6.342347 -10.039,-8.588513 -2.9865,-2.142229 -6.5708,-5.751796 -7.7255,-4.309017 -1.6028,2.002719 5.6627,4.105661 4.3802,6.327089 -0.8685,1.504288 -8.8118,-2.76491 -13.2564,-3.175774 -3.267,-0.302006 -8.6064,-1.467862 -9.3898,1.718209 -0.6237,2.536606 7.1001,0.600106 6.5852,3.161014 -0.5918,2.943199 -14.4306,2.857028 -21.41481,5.11034 -6.09279,1.965714 -22.449,13.810091 -22.449,13.810091 z"
             id="path24041-6-9"
             sodipodi:nodetypes="cssssssssssssssssssssssc" /><path
             style="fill:#4e4b0c;fill-opacity:1;stroke:#000000;stroke-width:0.264583;stroke-dasharray:none;stroke-opacity:1"
             d="m 972.56463,-32.42306 c 0,0 23.65921,-8.827379 30.64417,-9.676423 7.4524,-0.905858 21.4352,-4.333277 22.5098,0.730048 0.5799,2.732648 -8.6389,3.650245 -7.5438,3.650245 1.095,0 19.5896,1.338424 20.198,1.460098 0.6083,0.121676 19.1389,4.717662 18.2512,8.030538 -0.7592,2.833512 -13.2722,-2.355971 -13.8709,-0.121674 -1.0047,3.749516 13.8148,5.670691 19.833,9.977333 5.0379,3.605111 15.1501,9.7497209 13.2625,13.0192037 -0.8324,1.4417076 -6.8539,-3.6100603 -9.0039,-1.4600978 -1.4676,1.4675526 9.0119,4.8264137 12.4108,8.5172363 3.3226,3.6080249 9.0074,11.0735798 7.3005,12.7758548 -1.3251,1.321504 -2.9684,-5.6085634 -4.3508,-4.347188 -2.7648,2.522758 6.0332,11.930876 6.8138,14.844328 1.5029,5.608914 0.9377,18.330372 -1.3679,18.948161 -2.9693,0.795619 -11.122,-21.143026 -11.9242,-20.928065 -2.3509,0.629923 -0.5693,6.062191 -2.9202,6.692114 -3.3079,0.886336 -10.8704,-16.08548 -14.7226,-15.087675 -2.2383,0.57977 0.4083,6.093679 -1.8251,6.692114 -5.9157,1.585095 -15.4029,-27.4950016 -21.2931,-25.9167336 -2.9434,0.7886927 1.3605,8.2109381 -1.5818,9.0039355 -4.4227,1.1919855 -13.9018,-21.9304669 -17.6428,-20.9280659 -2.4013,0.643422 2.8829,6.179167 0.73,7.4221627 -3.5825,2.0683513 -11.7242,-12.9978267 -18.61326,-18.3202177 -4.59842,-3.552674 -25.29341,-4.977232 -25.29341,-4.977232 z"
             id="path24769-6-5"
             sodipodi:nodetypes="csssssssssssssssssssssssc" /><path
             style="fill:#4e4b0c;fill-opacity:1;stroke:#000000;stroke-width:0.264583;stroke-dasharray:none;stroke-opacity:1"
             d="m 972.83753,-31.505752 c 0,0 15.13373,4.158551 21.84493,7.787266 5.89364,3.186656 15.77674,11.117013 14.46454,13.9565147 -1.0902,2.3591547 -8.0308,-2.3239927 -7.4249,-2.3791027 0.6059,-0.05511 12.0343,17.8842336 8.8136,20.3349923 -1.438,1.0942418 -4.2632,-3.8884345 -4.2191,-3.4037361 0.044,0.4846985 2.034,10.6112648 1.8183,15.9619868 -0.2094,5.19373 0.2691,14.096214 -3.0067,15.301249 -3.1808,1.170156 -7.66352,-4.852293 -10.6417,-8.195362 -3.59577,-4.036309 -7.69269,-13.96156 -8.35069,-13.901711 -3.1112,0.282978 -0.77898,9.015746 -3.8662,8.537512 -4.25335,-0.658876 -0.79338,-25.6184995 -3.16277,-26.7134615 -2.29007,-1.0583038 -3.71283,6.6494885 -5.65095,5.03453221 -2.71904,-2.26565811 4.32799,-22.30292171 2.41143,-23.18861771 -1.52557,-0.705009 -3.99127,3.703535 -4.5715,2.126278 -0.9415,-2.559341 1.54171,-11.25834 1.54171,-11.25834 z"
             id="path24771-7-4"
             sodipodi:nodetypes="cssssssssssssssc" /></g><g
           id="g28307-9-0-3"
           transform="matrix(-0.17579369,0,0,0.17579369,326.38219,174.26709)"><path
             style="fill:#633813;fill-opacity:1;stroke:#000000;stroke-width:0.264583;stroke-dasharray:none;stroke-opacity:1"
             d="m 972.57447,-31.429631 c 0,0 -39.83518,64.519254 -49.5687,100.259294 -8.4027,30.853472 -13.87499,62.488207 -19.2723,94.296637 -4.4987,26.5126 -4.81806,80.53071 -4.81806,80.53071 l 33.60125,0.40319 c 0,0 -2.60831,-51.23533 -1.25131,-76.80412 1.49463,-28.16187 5.20919,-56.23847 10.32444,-83.972188 3.98679,-21.615446 10.15304,-42.777536 15.83081,-64.011586 4.50186,-16.8363049 15.15387,-50.701937 15.15387,-50.701937 z"
             id="path18976-2-3-4"
             sodipodi:nodetypes="cssccsssc" /><path
             style="fill:#4e4b0c;fill-opacity:1;stroke:#000000;stroke-width:0.264583;stroke-dasharray:none;stroke-opacity:1"
             d="m 972.42504,-31.3921 c 0,0 -7.62378,2.440254 -14.71509,8.435935 -7.15542,6.049881 -13.78637,15.6556767 -15.46026,15.6556767 -2.0149,0 -1.87871,-4.6236427 -3.89361,-4.6236427 -3.24824,0 -6.25884,18.4890748 -9.00393,19.2246193 -1.84918,0.4954874 -1.51809,-4.9358484 -3.40688,-4.6236427 -2.25062,0.3720143 -2.38047,14.7251644 -4.86701,15.3310254 -1.56037,0.380194 -1.85558,-3.822563 -3.40688,-3.406894 -2.66698,0.714615 -8.13907,20.32359 -10.46404,18.98127 -2.99104,-1.72688 0.68876,-21.671099 -0.73006,-22.388165 -1.40567,-0.71042 -2.68054,3.681404 -3.89358,2.676846 -3.12151,-2.585021 13.70749,-24.498383 11.68077,-26.525108 -1.36339,-1.363385 -4.13358,3.6831217 -5.35369,2.190147 -3.0098,-3.682912 17.25453,-17.489935 16.18277,-19.346293 -1.09808,-1.901922 -5.10735,2.510294 -6.20543,0.608372 -1.10786,-1.918865 6.47759,-5.712442 10.46403,-7.057138 9.39253,-3.168268 19.9728,-3.668063 29.68866,-1.703446 4.87141,0.985035 13.38423,6.570438 13.38423,6.570438 z"
             id="path20046-5-9-6"
             sodipodi:nodetypes="cssssssssssssssssc" /><path
             style="fill:#4e4b0c;fill-opacity:1;stroke:#000000;stroke-width:0.264583;stroke-dasharray:none;stroke-opacity:1"
             d="m 972.39107,-31.575607 c 0,0 -9.8993,-8.970678 -13.24972,-9.808229 -8.21911,-2.054646 -29.15657,0.511452 -29.15657,0.511452 -1.73639,-1.2955 3.88408,-2.611297 3.08733,-4.038972 -4.22626,-7.572914 -21.01361,10.000515 -25.86477,2.811875 -1.44133,-2.135813 5.11946,-4.697065 3.65025,-6.813791 -6.20773,-8.943588 -29.77916,7.30547 -32.3655,4.380294 -1.05563,-1.19393 2.32485,-3.478249 1.21674,-4.623644 -2.53143,-2.616609 -25.0596,9.00935 -27.74186,6.327092 -1.80017,-1.800166 5.69378,-4.770271 3.89361,-6.57044 -1.82692,-1.826924 -23.63129,17.482984 -27.01181,12.410829 -2.17548,-3.264108 6.94734,-14.163347 15.90005,-20.477186 5.70691,-4.024753 12.64489,-4.380435 12.3285,-5.561222 -0.41354,-1.54337 -4.38031,-0.348981 -4.38031,-1.946796 0,-2.283619 6.44537,-7.540806 13.63039,-9.112837 5.74008,-1.255889 12.43644,1.160749 13.13809,-0.377799 1.01255,-2.22026 -3.89696,-4.700473 -2.67684,-6.813788 0.94947,-1.644529 11.63628,-1.213813 21.02784,0.04718 10.05476,1.350043 16.90572,8.012313 17.90808,7.009955 0,0 -8.2371,-5.390473 -5.84039,-7.787189 2.67616,-2.676161 13.47329,4.552174 22.71919,7.981972 8.83105,3.275906 9.34091,11.224297 11.34976,10.025899 2.37262,-1.415406 -3.15529,-7.55884 -0.4867,-8.273886 6.37556,-1.708327 23.5307,18.095309 29.20195,31.14875 1.45778,3.355351 -0.12168,9.64273 -0.12168,9.64273 z"
             id="path23309-0-4-2"
             sodipodi:nodetypes="cssssssssssssssssssssssscc" /><path
             style="fill:#4e4b0c;fill-opacity:1;stroke:#000000;stroke-width:0.264583;stroke-dasharray:none;stroke-opacity:1"
             d="m 972.73522,-31.661646 c 0,0 9.4846,-27.165089 9.89425,-36.135573 0.36829,-8.064849 0.39589,-23.963141 -3.634,-23.945582 -2.2943,0.01 1.24274,6.219974 -0.9734,6.813788 -0.52089,0.139572 -1.11619,-5.628164 -4.18604,-10.765027 -3.66937,-6.14008 -9.98891,-11.78456 -11.87502,-10.89309 -2.41902,1.14336 3.8882,5.94605 1.94678,7.78719 -0.75627,0.717206 -5.28427,-6.73987 -9.45389,-10.44218 -6.58309,-5.84528 -15.23925,-8.1451 -17.25805,-6.04655 -2.01354,2.09311 7.16174,3.61489 5.54054,6.02469 -1.11885,1.66308 -23.11753,-9.68551 -24.82168,-6.08373 -1.57545,3.32978 20.08736,11.92328 19.46799,14.60097 -0.58952,2.548639 -7.47037,-1.62327 -7.78719,0.973401 -0.36211,2.967899 19.76834,4.363049 18.98126,7.300489 -0.54505,2.034154 -5.5387,-0.330708 -6.08375,1.703446 -0.56104,2.093821 18.23451,12.480456 17.27782,15.087676 -0.75653,2.061723 -5.47235,-1.415215 -6.57042,0.486698 -0.45317,0.784907 11.44249,10.977344 16.98071,22.78047 4.32313,9.213498 2.55409,20.752914 2.55409,20.752914 z"
             id="path24037-5-8-0"
             sodipodi:nodetypes="csssssssssssssssssc" /><path
             style="fill:#4e4b0c;fill-opacity:1;stroke:#000000;stroke-width:0.264583;stroke-dasharray:none;stroke-opacity:1"
             d="m 972.85089,-31.696286 c 0,0 20.41163,-50.848167 25.8559,-49.582483 2.21231,0.514308 -1.70344,7.787188 0,6.813788 1.70341,-0.973396 15.44951,-13.68224 18.49461,-11.92413 1.9187,1.107772 -3.7847,4.165025 -2.6769,6.083742 0.8254,1.429621 13.8267,-3.818798 20.6847,-2.676848 7.2284,1.203631 20.5815,6.760137 19.7113,9.733986 -0.5173,1.767848 -9.1144,-4.397399 -10.9507,-1.21675 -1.0874,1.883364 11.2331,6.476861 14.0553,9.490636 2.978,3.180286 6.9679,10.309942 5.3537,11.924131 -1.2593,1.259279 -2.332,-3.936125 -3.5913,-2.676846 -1.5406,1.540611 3.322,9.275144 3.4069,14.114278 0.064,3.642463 -0.4784,10.707383 -2.1901,10.707383 -3.8398,0 -5.5836,-8.810038 -8.8196,-13.010559 -2.2056,-2.862972 -5.41,-9.063756 -6.7548,-8.404208 -1.9785,0.970326 2.7504,5.69046 0.7301,6.570441 -3.14,1.36769 -6.9076,-6.342347 -10.039,-8.588513 -2.9865,-2.142229 -6.5708,-5.751796 -7.7255,-4.309017 -1.6028,2.002719 5.6627,4.105661 4.3802,6.327089 -0.8685,1.504288 -8.8118,-2.76491 -13.2564,-3.175774 -3.267,-0.302006 -8.6064,-1.467862 -9.3898,1.718209 -0.6237,2.536606 7.1001,0.600106 6.5852,3.161014 -0.5918,2.943199 -14.4306,2.857028 -21.41481,5.11034 -6.09279,1.965714 -22.449,13.810091 -22.449,13.810091 z"
             id="path24041-6-9-8"
             sodipodi:nodetypes="cssssssssssssssssssssssc" /><path
             style="fill:#4e4b0c;fill-opacity:1;stroke:#000000;stroke-width:0.264583;stroke-dasharray:none;stroke-opacity:1"
             d="m 972.56463,-32.42306 c 0,0 23.65921,-8.827379 30.64417,-9.676423 7.4524,-0.905858 21.4352,-4.333277 22.5098,0.730048 0.5799,2.732648 -8.6389,3.650245 -7.5438,3.650245 1.095,0 19.5896,1.338424 20.198,1.460098 0.6083,0.121676 19.1389,4.717662 18.2512,8.030538 -0.7592,2.833512 -13.2722,-2.355971 -13.8709,-0.121674 -1.0047,3.749516 13.8148,5.670691 19.833,9.977333 5.0379,3.605111 15.1501,9.7497209 13.2625,13.0192037 -0.8324,1.4417076 -6.8539,-3.6100603 -9.0039,-1.4600978 -1.4676,1.4675526 9.0119,4.8264137 12.4108,8.5172363 3.3226,3.6080249 9.0074,11.0735798 7.3005,12.7758548 -1.3251,1.321504 -2.9684,-5.6085634 -4.3508,-4.347188 -2.7648,2.522758 6.0332,11.930876 6.8138,14.844328 1.5029,5.608914 0.9377,18.330372 -1.3679,18.948161 -2.9693,0.795619 -11.122,-21.143026 -11.9242,-20.928065 -2.3509,0.629923 -0.5693,6.062191 -2.9202,6.692114 -3.3079,0.886336 -10.8704,-16.08548 -14.7226,-15.087675 -2.2383,0.57977 0.4083,6.093679 -1.8251,6.692114 -5.9157,1.585095 -15.4029,-27.4950016 -21.2931,-25.9167336 -2.9434,0.7886927 1.3605,8.2109381 -1.5818,9.0039355 -4.4227,1.1919855 -13.9018,-21.9304669 -17.6428,-20.9280659 -2.4013,0.643422 2.8829,6.179167 0.73,7.4221627 -3.5825,2.0683513 -11.7242,-12.9978267 -18.61326,-18.3202177 -4.59842,-3.552674 -25.29341,-4.977232 -25.29341,-4.977232 z"
             id="path24769-6-5-9"
             sodipodi:nodetypes="csssssssssssssssssssssssc" /><path
             style="fill:#4e4b0c;fill-opacity:1;stroke:#000000;stroke-width:0.264583;stroke-dasharray:none;stroke-opacity:1"
             d="m 972.83753,-31.505752 c 0,0 15.13373,4.158551 21.84493,7.787266 5.89364,3.186656 15.77674,11.117013 14.46454,13.9565147 -1.0902,2.3591547 -8.0308,-2.3239927 -7.4249,-2.3791027 0.6059,-0.05511 12.0343,17.8842336 8.8136,20.3349923 -1.438,1.0942418 -4.2632,-3.8884345 -4.2191,-3.4037361 0.044,0.4846985 2.034,10.6112648 1.8183,15.9619868 -0.2094,5.19373 0.2691,14.096214 -3.0067,15.301249 -3.1808,1.170156 -7.66352,-4.852293 -10.6417,-8.195362 -3.59577,-4.036309 -7.69269,-13.96156 -8.35069,-13.901711 -3.1112,0.282978 -0.77898,9.015746 -3.8662,8.537512 -4.25335,-0.658876 -0.79338,-25.6184995 -3.16277,-26.7134615 -2.29007,-1.0583038 -3.71283,6.6494885 -5.65095,5.03453221 -2.71904,-2.26565811 4.32799,-22.30292171 2.41143,-23.18861771 -1.52557,-0.705009 -3.99127,3.703535 -4.5715,2.126278 -0.9415,-2.559341 1.54171,-11.25834 1.54171,-11.25834 z"
             id="path24771-7-4-3"
             sodipodi:nodetypes="cssssssssssssssc" /></g><g
           id="g28307-9-0-35"
           transform="matrix(-0.17579369,0,0,0.17579369,219.58846,231.81705)"><path
             style="fill:#633813;fill-opacity:1;stroke:#000000;stroke-width:0.264583;stroke-dasharray:none;stroke-opacity:1"
             d="m 972.57447,-31.429631 c 0,0 -39.83518,64.519254 -49.5687,100.259294 -8.4027,30.853472 -13.87499,62.488207 -19.2723,94.296637 -4.4987,26.5126 -4.81806,80.53071 -4.81806,80.53071 l 33.60125,0.40319 c 0,0 -2.60831,-51.23533 -1.25131,-76.80412 1.49463,-28.16187 5.20919,-56.23847 10.32444,-83.972188 3.98679,-21.615446 10.15304,-42.777536 15.83081,-64.011586 4.50186,-16.8363049 15.15387,-50.701937 15.15387,-50.701937 z"
             id="path18976-2-3-7"
             sodipodi:nodetypes="cssccsssc" /><path
             style="fill:#4e4b0c;fill-opacity:1;stroke:#000000;stroke-width:0.264583;stroke-dasharray:none;stroke-opacity:1"
             d="m 972.42504,-31.3921 c 0,0 -7.62378,2.440254 -14.71509,8.435935 -7.15542,6.049881 -13.78637,15.6556767 -15.46026,15.6556767 -2.0149,0 -1.87871,-4.6236427 -3.89361,-4.6236427 -3.24824,0 -6.25884,18.4890748 -9.00393,19.2246193 -1.84918,0.4954874 -1.51809,-4.9358484 -3.40688,-4.6236427 -2.25062,0.3720143 -2.38047,14.7251644 -4.86701,15.3310254 -1.56037,0.380194 -1.85558,-3.822563 -3.40688,-3.406894 -2.66698,0.714615 -8.13907,20.32359 -10.46404,18.98127 -2.99104,-1.72688 0.68876,-21.671099 -0.73006,-22.388165 -1.40567,-0.71042 -2.68054,3.681404 -3.89358,2.676846 -3.12151,-2.585021 13.70749,-24.498383 11.68077,-26.525108 -1.36339,-1.363385 -4.13358,3.6831217 -5.35369,2.190147 -3.0098,-3.682912 17.25453,-17.489935 16.18277,-19.346293 -1.09808,-1.901922 -5.10735,2.510294 -6.20543,0.608372 -1.10786,-1.918865 6.47759,-5.712442 10.46403,-7.057138 9.39253,-3.168268 19.9728,-3.668063 29.68866,-1.703446 4.87141,0.985035 13.38423,6.570438 13.38423,6.570438 z"
             id="path20046-5-9-1"
             sodipodi:nodetypes="cssssssssssssssssc" /><path
             style="fill:#4e4b0c;fill-opacity:1;stroke:#000000;stroke-width:0.264583;stroke-dasharray:none;stroke-opacity:1"
             d="m 972.39107,-31.575607 c 0,0 -9.8993,-8.970678 -13.24972,-9.808229 -8.21911,-2.054646 -29.15657,0.511452 -29.15657,0.511452 -1.73639,-1.2955 3.88408,-2.611297 3.08733,-4.038972 -4.22626,-7.572914 -21.01361,10.000515 -25.86477,2.811875 -1.44133,-2.135813 5.11946,-4.697065 3.65025,-6.813791 -6.20773,-8.943588 -29.77916,7.30547 -32.3655,4.380294 -1.05563,-1.19393 2.32485,-3.478249 1.21674,-4.623644 -2.53143,-2.616609 -25.0596,9.00935 -27.74186,6.327092 -1.80017,-1.800166 5.69378,-4.770271 3.89361,-6.57044 -1.82692,-1.826924 -23.63129,17.482984 -27.01181,12.410829 -2.17548,-3.264108 6.94734,-14.163347 15.90005,-20.477186 5.70691,-4.024753 12.64489,-4.380435 12.3285,-5.561222 -0.41354,-1.54337 -4.38031,-0.348981 -4.38031,-1.946796 0,-2.283619 6.44537,-7.540806 13.63039,-9.112837 5.74008,-1.255889 12.43644,1.160749 13.13809,-0.377799 1.01255,-2.22026 -3.89696,-4.700473 -2.67684,-6.813788 0.94947,-1.644529 11.63628,-1.213813 21.02784,0.04718 10.05476,1.350043 16.90572,8.012313 17.90808,7.009955 0,0 -8.2371,-5.390473 -5.84039,-7.787189 2.67616,-2.676161 13.47329,4.552174 22.71919,7.981972 8.83105,3.275906 9.34091,11.224297 11.34976,10.025899 2.37262,-1.415406 -3.15529,-7.55884 -0.4867,-8.273886 6.37556,-1.708327 23.5307,18.095309 29.20195,31.14875 1.45778,3.355351 -0.12168,9.64273 -0.12168,9.64273 z"
             id="path23309-0-4-5"
             sodipodi:nodetypes="cssssssssssssssssssssssscc" /><path
             style="fill:#4e4b0c;fill-opacity:1;stroke:#000000;stroke-width:0.264583;stroke-dasharray:none;stroke-opacity:1"
             d="m 972.73522,-31.661646 c 0,0 9.4846,-27.165089 9.89425,-36.135573 0.36829,-8.064849 0.39589,-23.963141 -3.634,-23.945582 -2.2943,0.01 1.24274,6.219974 -0.9734,6.813788 -0.52089,0.139572 -1.11619,-5.628164 -4.18604,-10.765027 -3.66937,-6.14008 -9.98891,-11.78456 -11.87502,-10.89309 -2.41902,1.14336 3.8882,5.94605 1.94678,7.78719 -0.75627,0.717206 -5.28427,-6.73987 -9.45389,-10.44218 -6.58309,-5.84528 -15.23925,-8.1451 -17.25805,-6.04655 -2.01354,2.09311 7.16174,3.61489 5.54054,6.02469 -1.11885,1.66308 -23.11753,-9.68551 -24.82168,-6.08373 -1.57545,3.32978 20.08736,11.92328 19.46799,14.60097 -0.58952,2.548639 -7.47037,-1.62327 -7.78719,0.973401 -0.36211,2.967899 19.76834,4.363049 18.98126,7.300489 -0.54505,2.034154 -5.5387,-0.330708 -6.08375,1.703446 -0.56104,2.093821 18.23451,12.480456 17.27782,15.087676 -0.75653,2.061723 -5.47235,-1.415215 -6.57042,0.486698 -0.45317,0.784907 11.44249,10.977344 16.98071,22.78047 4.32313,9.213498 2.55409,20.752914 2.55409,20.752914 z"
             id="path24037-5-8-9"
             sodipodi:nodetypes="csssssssssssssssssc" /><path
             style="fill:#4e4b0c;fill-opacity:1;stroke:#000000;stroke-width:0.264583;stroke-dasharray:none;stroke-opacity:1"
             d="m 972.85089,-31.696286 c 0,0 20.41163,-50.848167 25.8559,-49.582483 2.21231,0.514308 -1.70344,7.787188 0,6.813788 1.70341,-0.973396 15.44951,-13.68224 18.49461,-11.92413 1.9187,1.107772 -3.7847,4.165025 -2.6769,6.083742 0.8254,1.429621 13.8267,-3.818798 20.6847,-2.676848 7.2284,1.203631 20.5815,6.760137 19.7113,9.733986 -0.5173,1.767848 -9.1144,-4.397399 -10.9507,-1.21675 -1.0874,1.883364 11.2331,6.476861 14.0553,9.490636 2.978,3.180286 6.9679,10.309942 5.3537,11.924131 -1.2593,1.259279 -2.332,-3.936125 -3.5913,-2.676846 -1.5406,1.540611 3.322,9.275144 3.4069,14.114278 0.064,3.642463 -0.4784,10.707383 -2.1901,10.707383 -3.8398,0 -5.5836,-8.810038 -8.8196,-13.010559 -2.2056,-2.862972 -5.41,-9.063756 -6.7548,-8.404208 -1.9785,0.970326 2.7504,5.69046 0.7301,6.570441 -3.14,1.36769 -6.9076,-6.342347 -10.039,-8.588513 -2.9865,-2.142229 -6.5708,-5.751796 -7.7255,-4.309017 -1.6028,2.002719 5.6627,4.105661 4.3802,6.327089 -0.8685,1.504288 -8.8118,-2.76491 -13.2564,-3.175774 -3.267,-0.302006 -8.6064,-1.467862 -9.3898,1.718209 -0.6237,2.536606 7.1001,0.600106 6.5852,3.161014 -0.5918,2.943199 -14.4306,2.857028 -21.41481,5.11034 -6.09279,1.965714 -22.449,13.810091 -22.449,13.810091 z"
             id="path24041-6-9-6"
             sodipodi:nodetypes="cssssssssssssssssssssssc" /><path
             style="fill:#4e4b0c;fill-opacity:1;stroke:#000000;stroke-width:0.264583;stroke-dasharray:none;stroke-opacity:1"
             d="m 972.56463,-32.42306 c 0,0 23.65921,-8.827379 30.64417,-9.676423 7.4524,-0.905858 21.4352,-4.333277 22.5098,0.730048 0.5799,2.732648 -8.6389,3.650245 -7.5438,3.650245 1.095,0 19.5896,1.338424 20.198,1.460098 0.6083,0.121676 19.1389,4.717662 18.2512,8.030538 -0.7592,2.833512 -13.2722,-2.355971 -13.8709,-0.121674 -1.0047,3.749516 13.8148,5.670691 19.833,9.977333 5.0379,3.605111 15.1501,9.7497209 13.2625,13.0192037 -0.8324,1.4417076 -6.8539,-3.6100603 -9.0039,-1.4600978 -1.4676,1.4675526 9.0119,4.8264137 12.4108,8.5172363 3.3226,3.6080249 9.0074,11.0735798 7.3005,12.7758548 -1.3251,1.321504 -2.9684,-5.6085634 -4.3508,-4.347188 -2.7648,2.522758 6.0332,11.930876 6.8138,14.844328 1.5029,5.608914 0.9377,18.330372 -1.3679,18.948161 -2.9693,0.795619 -11.122,-21.143026 -11.9242,-20.928065 -2.3509,0.629923 -0.5693,6.062191 -2.9202,6.692114 -3.3079,0.886336 -10.8704,-16.08548 -14.7226,-15.087675 -2.2383,0.57977 0.4083,6.093679 -1.8251,6.692114 -5.9157,1.585095 -15.4029,-27.4950016 -21.2931,-25.9167336 -2.9434,0.7886927 1.3605,8.2109381 -1.5818,9.0039355 -4.4227,1.1919855 -13.9018,-21.9304669 -17.6428,-20.9280659 -2.4013,0.643422 2.8829,6.179167 0.73,7.4221627 -3.5825,2.0683513 -11.7242,-12.9978267 -18.61326,-18.3202177 -4.59842,-3.552674 -25.29341,-4.977232 -25.29341,-4.977232 z"
             id="path24769-6-5-6"
             sodipodi:nodetypes="csssssssssssssssssssssssc" /><path
             style="fill:#4e4b0c;fill-opacity:1;stroke:#000000;stroke-width:0.264583;stroke-dasharray:none;stroke-opacity:1"
             d="m 972.83753,-31.505752 c 0,0 15.13373,4.158551 21.84493,7.787266 5.89364,3.186656 15.77674,11.117013 14.46454,13.9565147 -1.0902,2.3591547 -8.0308,-2.3239927 -7.4249,-2.3791027 0.6059,-0.05511 12.0343,17.8842336 8.8136,20.3349923 -1.438,1.0942418 -4.2632,-3.8884345 -4.2191,-3.4037361 0.044,0.4846985 2.034,10.6112648 1.8183,15.9619868 -0.2094,5.19373 0.2691,14.096214 -3.0067,15.301249 -3.1808,1.170156 -7.66352,-4.852293 -10.6417,-8.195362 -3.59577,-4.036309 -7.69269,-13.96156 -8.35069,-13.901711 -3.1112,0.282978 -0.77898,9.015746 -3.8662,8.537512 -4.25335,-0.658876 -0.79338,-25.6184995 -3.16277,-26.7134615 -2.29007,-1.0583038 -3.71283,6.6494885 -5.65095,5.03453221 -2.71904,-2.26565811 4.32799,-22.30292171 2.41143,-23.18861771 -1.52557,-0.705009 -3.99127,3.703535 -4.5715,2.126278 -0.9415,-2.559341 1.54171,-11.25834 1.54171,-11.25834 z"
             id="path24771-7-4-8"
             sodipodi:nodetypes="cssssssssssssssc" /></g><g
           id="g28307-9-0-8"
           transform="matrix(0.17579369,0,0,0.17579369,-52.38714,193.25265)"><path
             style="fill:#633813;fill-opacity:1;stroke:#000000;stroke-width:0.264583;stroke-dasharray:none;stroke-opacity:1"
             d="m 972.57447,-31.429631 c 0,0 -39.83518,64.519254 -49.5687,100.259294 -8.4027,30.853472 -13.87499,62.488207 -19.2723,94.296637 -4.4987,26.5126 -4.81806,80.53071 -4.81806,80.53071 l 33.60125,0.40319 c 0,0 -2.60831,-51.23533 -1.25131,-76.80412 1.49463,-28.16187 5.20919,-56.23847 10.32444,-83.972188 3.98679,-21.615446 10.15304,-42.777536 15.83081,-64.011586 4.50186,-16.8363049 15.15387,-50.701937 15.15387,-50.701937 z"
             id="path18976-2-3-3"
             sodipodi:nodetypes="cssccsssc" /><path
             style="fill:#4e4b0c;fill-opacity:1;stroke:#000000;stroke-width:0.264583;stroke-dasharray:none;stroke-opacity:1"
             d="m 972.42504,-31.3921 c 0,0 -7.62378,2.440254 -14.71509,8.435935 -7.15542,6.049881 -13.78637,15.6556767 -15.46026,15.6556767 -2.0149,0 -1.87871,-4.6236427 -3.89361,-4.6236427 -3.24824,0 -6.25884,18.4890748 -9.00393,19.2246193 -1.84918,0.4954874 -1.51809,-4.9358484 -3.40688,-4.6236427 -2.25062,0.3720143 -2.38047,14.7251644 -4.86701,15.3310254 -1.56037,0.380194 -1.85558,-3.822563 -3.40688,-3.406894 -2.66698,0.714615 -8.13907,20.32359 -10.46404,18.98127 -2.99104,-1.72688 0.68876,-21.671099 -0.73006,-22.388165 -1.40567,-0.71042 -2.68054,3.681404 -3.89358,2.676846 -3.12151,-2.585021 13.70749,-24.498383 11.68077,-26.525108 -1.36339,-1.363385 -4.13358,3.6831217 -5.35369,2.190147 -3.0098,-3.682912 17.25453,-17.489935 16.18277,-19.346293 -1.09808,-1.901922 -5.10735,2.510294 -6.20543,0.608372 -1.10786,-1.918865 6.47759,-5.712442 10.46403,-7.057138 9.39253,-3.168268 19.9728,-3.668063 29.68866,-1.703446 4.87141,0.985035 13.38423,6.570438 13.38423,6.570438 z"
             id="path20046-5-9-15"
             sodipodi:nodetypes="cssssssssssssssssc" /><path
             style="fill:#4e4b0c;fill-opacity:1;stroke:#000000;stroke-width:0.264583;stroke-dasharray:none;stroke-opacity:1"
             d="m 972.39107,-31.575607 c 0,0 -9.8993,-8.970678 -13.24972,-9.808229 -8.21911,-2.054646 -29.15657,0.511452 -29.15657,0.511452 -1.73639,-1.2955 3.88408,-2.611297 3.08733,-4.038972 -4.22626,-7.572914 -21.01361,10.000515 -25.86477,2.811875 -1.44133,-2.135813 5.11946,-4.697065 3.65025,-6.813791 -6.20773,-8.943588 -29.77916,7.30547 -32.3655,4.380294 -1.05563,-1.19393 2.32485,-3.478249 1.21674,-4.623644 -2.53143,-2.616609 -25.0596,9.00935 -27.74186,6.327092 -1.80017,-1.800166 5.69378,-4.770271 3.89361,-6.57044 -1.82692,-1.826924 -23.63129,17.482984 -27.01181,12.410829 -2.17548,-3.264108 6.94734,-14.163347 15.90005,-20.477186 5.70691,-4.024753 12.64489,-4.380435 12.3285,-5.561222 -0.41354,-1.54337 -4.38031,-0.348981 -4.38031,-1.946796 0,-2.283619 6.44537,-7.540806 13.63039,-9.112837 5.74008,-1.255889 12.43644,1.160749 13.13809,-0.377799 1.01255,-2.22026 -3.89696,-4.700473 -2.67684,-6.813788 0.94947,-1.644529 11.63628,-1.213813 21.02784,0.04718 10.05476,1.350043 16.90572,8.012313 17.90808,7.009955 0,0 -8.2371,-5.390473 -5.84039,-7.787189 2.67616,-2.676161 13.47329,4.552174 22.71919,7.981972 8.83105,3.275906 9.34091,11.224297 11.34976,10.025899 2.37262,-1.415406 -3.15529,-7.55884 -0.4867,-8.273886 6.37556,-1.708327 23.5307,18.095309 29.20195,31.14875 1.45778,3.355351 -0.12168,9.64273 -0.12168,9.64273 z"
             id="path23309-0-4-8"
             sodipodi:nodetypes="cssssssssssssssssssssssscc" /><path
             style="fill:#4e4b0c;fill-opacity:1;stroke:#000000;stroke-width:0.264583;stroke-dasharray:none;stroke-opacity:1"
             d="m 972.73522,-31.661646 c 0,0 9.4846,-27.165089 9.89425,-36.135573 0.36829,-8.064849 0.39589,-23.963141 -3.634,-23.945582 -2.2943,0.01 1.24274,6.219974 -0.9734,6.813788 -0.52089,0.139572 -1.11619,-5.628164 -4.18604,-10.765027 -3.66937,-6.14008 -9.98891,-11.78456 -11.87502,-10.89309 -2.41902,1.14336 3.8882,5.94605 1.94678,7.78719 -0.75627,0.717206 -5.28427,-6.73987 -9.45389,-10.44218 -6.58309,-5.84528 -15.23925,-8.1451 -17.25805,-6.04655 -2.01354,2.09311 7.16174,3.61489 5.54054,6.02469 -1.11885,1.66308 -23.11753,-9.68551 -24.82168,-6.08373 -1.57545,3.32978 20.08736,11.92328 19.46799,14.60097 -0.58952,2.548639 -7.47037,-1.62327 -7.78719,0.973401 -0.36211,2.967899 19.76834,4.363049 18.98126,7.300489 -0.54505,2.034154 -5.5387,-0.330708 -6.08375,1.703446 -0.56104,2.093821 18.23451,12.480456 17.27782,15.087676 -0.75653,2.061723 -5.47235,-1.415215 -6.57042,0.486698 -0.45317,0.784907 11.44249,10.977344 16.98071,22.78047 4.32313,9.213498 2.55409,20.752914 2.55409,20.752914 z"
             id="path24037-5-8-8"
             sodipodi:nodetypes="csssssssssssssssssc" /><path
             style="fill:#4e4b0c;fill-opacity:1;stroke:#000000;stroke-width:0.264583;stroke-dasharray:none;stroke-opacity:1"
             d="m 972.85089,-31.696286 c 0,0 20.41163,-50.848167 25.8559,-49.582483 2.21231,0.514308 -1.70344,7.787188 0,6.813788 1.70341,-0.973396 15.44951,-13.68224 18.49461,-11.92413 1.9187,1.107772 -3.7847,4.165025 -2.6769,6.083742 0.8254,1.429621 13.8267,-3.818798 20.6847,-2.676848 7.2284,1.203631 20.5815,6.760137 19.7113,9.733986 -0.5173,1.767848 -9.1144,-4.397399 -10.9507,-1.21675 -1.0874,1.883364 11.2331,6.476861 14.0553,9.490636 2.978,3.180286 6.9679,10.309942 5.3537,11.924131 -1.2593,1.259279 -2.332,-3.936125 -3.5913,-2.676846 -1.5406,1.540611 3.322,9.275144 3.4069,14.114278 0.064,3.642463 -0.4784,10.707383 -2.1901,10.707383 -3.8398,0 -5.5836,-8.810038 -8.8196,-13.010559 -2.2056,-2.862972 -5.41,-9.063756 -6.7548,-8.404208 -1.9785,0.970326 2.7504,5.69046 0.7301,6.570441 -3.14,1.36769 -6.9076,-6.342347 -10.039,-8.588513 -2.9865,-2.142229 -6.5708,-5.751796 -7.7255,-4.309017 -1.6028,2.002719 5.6627,4.105661 4.3802,6.327089 -0.8685,1.504288 -8.8118,-2.76491 -13.2564,-3.175774 -3.267,-0.302006 -8.6064,-1.467862 -9.3898,1.718209 -0.6237,2.536606 7.1001,0.600106 6.5852,3.161014 -0.5918,2.943199 -14.4306,2.857028 -21.41481,5.11034 -6.09279,1.965714 -22.449,13.810091 -22.449,13.810091 z"
             id="path24041-6-9-5"
             sodipodi:nodetypes="cssssssssssssssssssssssc" /><path
             style="fill:#4e4b0c;fill-opacity:1;stroke:#000000;stroke-width:0.264583;stroke-dasharray:none;stroke-opacity:1"
             d="m 972.56463,-32.42306 c 0,0 23.65921,-8.827379 30.64417,-9.676423 7.4524,-0.905858 21.4352,-4.333277 22.5098,0.730048 0.5799,2.732648 -8.6389,3.650245 -7.5438,3.650245 1.095,0 19.5896,1.338424 20.198,1.460098 0.6083,0.121676 19.1389,4.717662 18.2512,8.030538 -0.7592,2.833512 -13.2722,-2.355971 -13.8709,-0.121674 -1.0047,3.749516 13.8148,5.670691 19.833,9.977333 5.0379,3.605111 15.1501,9.7497209 13.2625,13.0192037 -0.8324,1.4417076 -6.8539,-3.6100603 -9.0039,-1.4600978 -1.4676,1.4675526 9.0119,4.8264137 12.4108,8.5172363 3.3226,3.6080249 9.0074,11.0735798 7.3005,12.7758548 -1.3251,1.321504 -2.9684,-5.6085634 -4.3508,-4.347188 -2.7648,2.522758 6.0332,11.930876 6.8138,14.844328 1.5029,5.608914 0.9377,18.330372 -1.3679,18.948161 -2.9693,0.795619 -11.122,-21.143026 -11.9242,-20.928065 -2.3509,0.629923 -0.5693,6.062191 -2.9202,6.692114 -3.3079,0.886336 -10.8704,-16.08548 -14.7226,-15.087675 -2.2383,0.57977 0.4083,6.093679 -1.8251,6.692114 -5.9157,1.585095 -15.4029,-27.4950016 -21.2931,-25.9167336 -2.9434,0.7886927 1.3605,8.2109381 -1.5818,9.0039355 -4.4227,1.1919855 -13.9018,-21.9304669 -17.6428,-20.9280659 -2.4013,0.643422 2.8829,6.179167 0.73,7.4221627 -3.5825,2.0683513 -11.7242,-12.9978267 -18.61326,-18.3202177 -4.59842,-3.552674 -25.29341,-4.977232 -25.29341,-4.977232 z"
             id="path24769-6-5-0"
             sodipodi:nodetypes="csssssssssssssssssssssssc" /><path
             style="fill:#4e4b0c;fill-opacity:1;stroke:#000000;stroke-width:0.264583;stroke-dasharray:none;stroke-opacity:1"
             d="m 972.83753,-31.505752 c 0,0 15.13373,4.158551 21.84493,7.787266 5.89364,3.186656 15.77674,11.117013 14.46454,13.9565147 -1.0902,2.3591547 -8.0308,-2.3239927 -7.4249,-2.3791027 0.6059,-0.05511 12.0343,17.8842336 8.8136,20.3349923 -1.438,1.0942418 -4.2632,-3.8884345 -4.2191,-3.4037361 0.044,0.4846985 2.034,10.6112648 1.8183,15.9619868 -0.2094,5.19373 0.2691,14.096214 -3.0067,15.301249 -3.1808,1.170156 -7.66352,-4.852293 -10.6417,-8.195362 -3.59577,-4.036309 -7.69269,-13.96156 -8.35069,-13.901711 -3.1112,0.282978 -0.77898,9.015746 -3.8662,8.537512 -4.25335,-0.658876 -0.79338,-25.6184995 -3.16277,-26.7134615 -2.29007,-1.0583038 -3.71283,6.6494885 -5.65095,5.03453221 -2.71904,-2.26565811 4.32799,-22.30292171 2.41143,-23.18861771 -1.52557,-0.705009 -3.99127,3.703535 -4.5715,2.126278 -0.9415,-2.559341 1.54171,-11.25834 1.54171,-11.25834 z"
             id="path24771-7-4-7"
             sodipodi:nodetypes="cssssssssssssssc" /></g><path
           style="mix-blend-mode:normal;fill:#525f68;fill-opacity:1;stroke:#000000;stroke-width:0.259874"
           d="m 129.94561,232.28138 c 2.43354,-0.46952 12.6544,-8.92089 12.6544,-8.92089 l 12.16769,-9.85994 c 0,0 3.89366,-22.537 6.81391,-24.41508 2.92024,-1.87808 20.92843,-10.32945 19.95502,-0.93903 -0.97342,9.39041 -5.35379,15.49418 -1.94684,15.49418 3.40695,0 12.16769,-7.04282 13.14111,-9.85994 0.97342,-2.81713 7.30062,-13.14658 7.30062,-13.14658 0,0 0.48671,-10.32946 4.86707,-9.85994 4.38037,0.46952 9.73415,7.51233 9.73415,7.51233 0,0 -2.02112,16.27217 2.70999,22.13438 4.56355,5.65459 20.81523,7.68019 20.81523,7.68019 l 143.90222,0.23476 -1.94683,-27.70172 5.84049,-11.26849 c 0,0 9.73416,12.20753 9.73416,15.9637 0,3.75616 0.48671,6.10377 6.3272,7.51233 5.84048,1.40856 6.81391,8.92089 10.70758,1.87808 3.89365,-7.04281 3.40694,-15.9637 6.3272,-18.78082 2.92023,-2.81713 10.22084,-5.63426 15.08794,-2.81713 4.86706,2.81713 11.68097,1.87808 13.62782,13.14658 1.9468,11.2685 2.43351,16.43322 1.46009,18.78083 -0.97339,2.3476 -1.94681,1.87809 0.48671,3.75616 2.43355,1.87809 0,2.81713 8.27403,7.51234 8.27405,4.6952 17.5215,8.45136 17.5215,8.45136 l -2.92026,8.9209 8.76074,7.51234 2.92026,5.16472 -67.2605,37.46158 H 132.37915 Z"
           id="path34653"
           sodipodi:nodetypes="cccsssscscsccccsssssssssccccccc" /><path
           style="fill:#857766;fill-opacity:1;stroke:#000000;stroke-width:0.264583"
           d="m 236.41417,155.71423 -16.66945,5.96206 c 0,0 -11.5591,-3.52857 -12.28915,-3.89359 -0.73005,-0.36502 -2.06847,-3.52857 -5.11034,-4.25862 -3.04187,-0.73005 -9.12561,-1.70344 -10.22068,-2.31182 -1.09508,-0.60837 -10.95074,-8.76059 -12.53251,-9.85566 -1.58177,-1.09507 -12.508,-18.32358 -13.1963,-22.28128 -0.68829,-3.95771 -2.06489,-18.92816 -2.06489,-20.993051 0,-2.064887 6.53882,-16.691191 7.22711,-17.723638 0.6883,-1.032444 10.15238,-14.798376 10.15238,-18.239859 0,-3.441483 5.16223,-15.830822 5.16223,-15.830822 0,0 4.81807,-4.818078 7.91541,-5.162225 3.09733,-0.344148 7.22711,-8.60371 9.292,-9.636154 2.06489,-1.032443 7.57126,-7.915411 7.57126,-7.915411 l 21.68135,-7.227115 c 0,0 -5.40148,6.170168 -7.91539,9.406335 -2.2063,2.840189 -6.28085,8.77274 -6.28085,8.77274 0,0 0.60837,0.486701 -4.74532,2.798522 -5.35369,2.311821 -11.5591,2.920196 -11.5591,2.920196 l -6.81379,31.148749 c 0,0 -0.93438,2.790475 -1.60647,4.092931 -0.74117,1.43634 -2.65215,4.059281 -2.65215,4.059281 0,0 -6.83593,6.60861 -7.66551,9.003935 -0.89864,2.594728 0.0445,14.347606 1.2156,22.678926 0.51721,3.67952 0.24534,7.13308 0.7312,8.1048 1.58178,3.16354 20.16006,21.04489 24.22067,24.01296 6.48697,4.7416 26.15269,12.36781 26.15269,12.36781 z"
           id="path39669"
           sodipodi:nodetypes="ccsssssssscssccscsccscssssc" /><path
           style="fill:#808080;fill-opacity:1;stroke:#000000;stroke-width:0.264583"
           d="M 0.68829663,279.44844 C 4.8180765,274.63035 11.701043,266.3708 11.701043,266.3708 c 0,0 -8.9478566,0.68829 -4.1297801,-6.88297 4.8180761,-7.57126 0,-11.01275 8.9478561,-11.01275 8.947856,0 11.701043,0 13.077635,4.12978 1.376596,4.12978 5.506374,9.63616 5.506374,9.63616 l 13.077637,2.06489 c 0,0 8.259558,2.06489 9.636151,-2.75319 1.376595,-4.81808 1.376595,-2.75319 0,-7.57126 -1.376593,-4.81808 -5.506373,-9.63616 0,-8.94786 5.506373,0.6883 10.324452,1.37659 14.45423,4.81808 4.12978,3.44148 2.06489,5.50637 5.506373,6.88296 3.441483,1.3766 0.688298,4.12978 8.947856,1.3766 8.259559,-2.75319 11.701042,-0.6883 12.38934,-6.19467 0.688297,-5.50638 -3.441483,-4.81808 -4.818076,-9.63616 -1.376593,-4.81807 1.376593,-2.06489 -2.753188,-6.88296 -4.129778,-4.81808 -7.571261,-3.44149 -8.259559,-8.94786 -0.688297,-5.50637 -0.688297,-7.57126 0.688298,-10.32445 1.376593,-2.75318 -2.06489,-2.75318 1.376593,-6.88296 3.441483,-4.12978 4.12978,-4.81808 8.259558,-8.25956 4.129781,-3.44149 2.064891,-3.44149 5.506374,-4.12978 3.441485,-0.6883 6.194675,-7.57127 12.389335,-7.57127 6.19467,0 19.27231,-4.12978 21.3372,7.57127 2.06489,11.70104 2.75319,9.63615 2.75319,16.51912 0,6.88296 -3.44149,6.88296 -3.44149,10.32445 0,3.44148 -1.37659,6.19466 -1.37659,9.63615 0,3.44148 -0.6883,6.88296 5.50637,5.50637 6.19467,-1.37659 7.57127,-1.37659 10.32445,-2.06489 2.75319,-0.6883 7.57127,2.06489 8.94786,5.50637 1.37659,3.44149 4.81808,11.01275 5.50637,14.45423 0.6883,3.44149 2.06489,5.50638 -1.37659,8.25956 -3.44148,2.75318 -1.37659,6.88298 1.37659,9.63615 2.75319,2.7532 -6.19467,4.81809 7.57126,4.81809 13.76594,0 15.83083,1.37658 19.96061,0 4.12978,-1.3766 4.12978,-4.1298 7.57126,-4.1298 3.44148,0 11.11651,-6.89011 15.2463,-0.69545 4.12978,6.19469 4.37782,1.80971 14.35046,-0.86245 11.38344,-3.05019 10.14996,-5.08267 13.63116,-4.63676 10.17892,1.30383 4.95284,-4.12978 7.70603,-2.06489 2.75319,2.06489 0.6883,1.3766 3.44148,2.06489 2.75319,0.68831 11.01275,5.50637 11.01275,-2.06489 0,-7.57126 1.37659,-9.63615 0,-13.76593 -1.37659,-4.12978 0.80503,-3.33685 3.6085,-4.08803 6.74149,-1.80638 17.0404,4.08803 18.417,6.84122 1.3766,2.75318 -3.44149,5.50637 2.06488,3.44148 5.50638,-2.06489 5.50638,-3.44148 6.88295,-6.88297 1.37661,-3.44148 0.68832,-2.06489 2.75321,-6.88296 2.06488,-4.81808 0.68828,-10.32445 4.12977,-13.07764 3.44149,-2.75319 0,-8.25956 5.50638,-4.12978 5.50637,4.12978 8.25955,7.57126 11.01275,7.57126 2.75317,0 3.44149,-9.63615 3.44149,-14.45422 0,-4.81808 -4.81809,-6.19468 0,-6.88297 4.81806,-0.6883 15.14252,0 17.8957,0 2.75317,0 2.06489,-1.37659 11.70104,-1.37659 9.63615,0 15.83081,-3.44149 22.0255,0 6.19467,3.44148 16.5191,6.19466 18.58399,9.63615 2.06492,3.44148 -0.68829,11.70104 -4.12977,15.14253 -3.44149,3.44148 -12.38933,5.50637 -15.14253,6.19466 -2.75318,0.6883 -6.88295,3.44149 -7.57126,6.19467 -0.68829,2.75319 -5.50638,8.94786 3.44148,8.94786 8.94787,0 14.45424,-10.32445 17.89573,-6.19467 3.44146,4.12978 3.44146,4.12978 3.44146,8.94786 0,4.81807 -2.75317,8.25956 0,9.63616 2.75321,1.37657 6.19469,9.63615 8.25958,1.37657 2.06489,-8.25955 -1.3766,-13.07762 4.12978,-14.45422 5.50637,-1.37659 6.88295,0.6883 11.70104,0.6883 4.81808,0 8.25955,1.37659 11.01275,-0.6883 2.75317,-2.06489 6.88295,-8.25956 6.88295,-8.25956 l 8.39495,-7.7484 c 17.34281,3.26434 23.2667,-2.57605 27.39648,-0.51116 4.12977,2.06489 3.44149,0 6.19466,2.06489 2.7532,2.06489 0.68831,3.44149 9.63615,4.12978 8.94787,0.6883 10.32447,2.75319 18.58402,0 8.25958,-2.75318 9.63615,-3.44148 9.63615,-3.44148 l 41.53301,40.47897 -41.53301,0.17987 H -0.97339843 Z"
           id="path33506"
           sodipodi:nodetypes="ccsssccssssssssssssssssssssssssssssssssssssssssssssssssssssssssssssccssssccccc" /><path
           id="rect44345"
           style="fill:url(#linearGradient46462);fill-opacity:1;stroke:#000000;stroke-width:0.228153"
           d="m 328.78986,186.35252 -35.75077,0.20976 -5.76847,21.59506 h 48.96582 z"
           sodipodi:nodetypes="ccccc" /></g></g></g></svg>
