<?xml version="1.0" encoding="UTF-8" standalone="no"?>
<!-- Created with Inkscape (http://www.inkscape.org/) -->

<svg
   width="5000.001"
   height="5000"
   viewBox="0 0 1322.9169 1322.9167"
   version="1.1"
   id="svg13480"
   xml:space="preserve"
   inkscape:version="1.2.1 (9c6d41e410, 2022-07-14)"
   sodipodi:docname="Sea Colors.svg"
   xmlns:inkscape="http://www.inkscape.org/namespaces/inkscape"
   xmlns:sodipodi="http://sodipodi.sourceforge.net/DTD/sodipodi-0.dtd"
   xmlns="http://www.w3.org/2000/svg"
   xmlns:svg="http://www.w3.org/2000/svg"><sodipodi:namedview
     id="namedview13482"
     pagecolor="#ffffff"
     bordercolor="#000000"
     borderopacity="0.25"
     inkscape:showpageshadow="2"
     inkscape:pageopacity="0.0"
     inkscape:pagecheckerboard="0"
     inkscape:deskcolor="#d1d1d1"
     inkscape:document-units="px"
     showgrid="false"
     inkscape:lockguides="true"
     inkscape:zoom="0.38440306"
     inkscape:cx="6739.0203"
     inkscape:cy="4170.1021"
     inkscape:window-width="1920"
     inkscape:window-height="1017"
     inkscape:window-x="-8"
     inkscape:window-y="-8"
     inkscape:window-maximized="1"
     inkscape:current-layer="layer1" /><defs
     id="defs13477" /><g
     inkscape:label="Vrstva 1"
     inkscape:groupmode="layer"
     id="layer1"
     transform="translate(-1577.3581)"><rect
       style="fill:#0077af;fill-opacity:1;stroke:none;stroke-width:0.265378"
       id="rect13653-9"
       width="1322.9166"
       height="1322.9166"
       x="1577.3582"
       y="0"
       ry="0" /><path
       style="fill:#ffffff;fill-opacity:1;stroke-width:0.264583"
       d="m 1706.8858,126.05231 c -1.0427,-0.47991 -1.8225,-1.35597 -1.5703,-1.76411 0.1167,-0.18887 0.089,-0.25393 -0.068,-0.15726 -1.8403,1.1374 -0.7661,-6.23214 1.1253,-7.71994 0.8387,-0.65972 0.5884,-0.82984 -1.2211,-0.82984 -3.2481,0 -4.7006,0.75198 -12.6837,6.56678 -4.8887,3.56082 -8.5853,4.11888 -10.6928,1.61426 -1.185,-1.40832 -0.8221,-2.45422 0.394,-1.13549 2.1801,2.36397 5.1921,1.82496 9.9019,-1.77196 7.2355,-5.52582 9.0651,-6.43647 12.9646,-6.453 3.914,-0.0166 6.5645,1.50314 3.8815,2.2256 -3.1363,0.84451 -4.5159,5.79584 -2.1659,7.77322 1.6454,1.38457 2.793,1.21976 8.7657,-1.25901 3.5007,-1.45283 7.6468,-2.00593 8.0067,-1.0681 0.1898,0.49455 -0.017,0.56491 -2.2469,0.76581 -2.31,0.2081 -4.0435,0.73357 -7.2453,2.19629 -2.9723,1.35788 -5.5942,1.73093 -7.146,1.01675 z"
       id="path14085-76" /><path
       style="fill:#ffffff;fill-opacity:1;stroke-width:0.264583"
       d="m 1880.763,311.29467 c -1.0428,-0.47991 -1.8226,-1.35597 -1.5704,-1.76411 0.1168,-0.18887 0.089,-0.25393 -0.068,-0.15726 -1.8403,1.1374 -0.7661,-6.23214 1.1253,-7.71994 0.8387,-0.65972 0.5884,-0.82984 -1.2211,-0.82984 -3.2481,0 -4.7006,0.75198 -12.6837,6.56678 -4.8887,3.56082 -8.5853,4.11888 -10.6928,1.61426 -1.185,-1.40832 -0.8221,-2.45422 0.394,-1.13549 2.1801,2.36397 5.1921,1.82496 9.9019,-1.77196 7.2355,-5.52582 9.0651,-6.43647 12.9646,-6.453 3.914,-0.0166 6.5645,1.50314 3.8815,2.2256 -3.1363,0.84451 -4.5159,5.79584 -2.1659,7.77322 1.6455,1.38457 2.793,1.21976 8.7657,-1.25901 3.5007,-1.45283 7.6469,-2.00593 8.0067,-1.0681 0.1898,0.49455 -0.017,0.56491 -2.2469,0.76581 -2.31,0.2081 -4.0435,0.73357 -7.2453,2.19629 -2.9723,1.35788 -5.5942,1.73093 -7.146,1.01675 z"
       id="path14085-0-4" /><path
       style="fill:#ffffff;fill-opacity:1;stroke-width:0.264583"
       d="m 2179.5963,467.03842 c -1.0428,-0.47991 -1.8226,-1.35597 -1.5703,-1.76411 0.1167,-0.18887 0.089,-0.25393 -0.068,-0.15726 -1.8404,1.1374 -0.7662,-6.23214 1.1252,-7.71994 0.8387,-0.65972 0.5884,-0.82984 -1.221,-0.82984 -3.2482,0 -4.7007,0.75198 -12.6838,6.56678 -4.8887,3.56082 -8.5852,4.11888 -10.6927,1.61426 -1.1851,-1.40832 -0.8221,-2.45422 0.394,-1.13549 2.18,2.36397 5.192,1.82496 9.9018,-1.77196 7.2355,-5.52582 9.0651,-6.43647 12.9646,-6.453 3.914,-0.0166 6.5645,1.50314 3.8815,2.2256 -3.1362,0.84451 -4.5159,5.79584 -2.1659,7.77322 1.6455,1.38457 2.793,1.21976 8.7658,-1.25901 3.5007,-1.45283 7.6468,-2.00593 8.0067,-1.0681 0.1897,0.49455 -0.017,0.56491 -2.2469,0.76581 -2.3101,0.2081 -4.0436,0.73357 -7.2454,2.19629 -2.9723,1.35788 -5.5942,1.73093 -7.1459,1.01675 z"
       id="path14085-6-6" /><path
       style="fill:#ffffff;fill-opacity:1;stroke-width:0.264583"
       d="m 2498.871,424.20889 c -1.0428,-0.47991 -1.8226,-1.35597 -1.5704,-1.76411 0.1168,-0.18887 0.089,-0.25393 -0.068,-0.15726 -1.8403,1.1374 -0.7661,-6.23214 1.1253,-7.71994 0.8387,-0.65972 0.5884,-0.82984 -1.2211,-0.82984 -3.2481,0 -4.7006,0.75198 -12.6837,6.56678 -4.8887,3.56082 -8.5853,4.11888 -10.6928,1.61426 -1.185,-1.40832 -0.8221,-2.45422 0.394,-1.13549 2.1801,2.36397 5.1921,1.82496 9.9019,-1.77196 7.2355,-5.52582 9.0651,-6.43647 12.9646,-6.453 3.914,-0.0166 6.5645,1.50314 3.8815,2.2256 -3.1363,0.84451 -4.5159,5.79584 -2.1659,7.77322 1.6455,1.38457 2.793,1.21976 8.7657,-1.25901 3.5007,-1.45283 7.6469,-2.00593 8.0067,-1.0681 0.1898,0.49455 -0.017,0.56491 -2.2469,0.76581 -2.31,0.2081 -4.0435,0.73357 -7.2453,2.19629 -2.9723,1.35788 -5.5942,1.73093 -7.146,1.01675 z"
       id="path14085-8-3" /><path
       style="fill:#ffffff;fill-opacity:1;stroke-width:0.264583"
       d="m 2479.403,282.09272 c -1.0427,-0.47991 -1.8226,-1.35597 -1.5703,-1.76411 0.1167,-0.18887 0.089,-0.25393 -0.068,-0.15726 -1.8404,1.1374 -0.7662,-6.23214 1.1252,-7.71994 0.8387,-0.65972 0.5884,-0.82984 -1.221,-0.82984 -3.2482,0 -4.7006,0.75198 -12.6838,6.56678 -4.8886,3.56082 -8.5852,4.11888 -10.6927,1.61426 -1.185,-1.40832 -0.8221,-2.45422 0.394,-1.13549 2.18,2.36397 5.192,1.82496 9.9018,-1.77196 7.2356,-5.52582 9.0651,-6.43647 12.9646,-6.453 3.9141,-0.0166 6.5646,1.50314 3.8816,2.2256 -3.1363,0.84451 -4.516,5.79584 -2.166,7.77322 1.6455,1.38457 2.793,1.21976 8.7658,-1.25901 3.5007,-1.45283 7.6468,-2.00593 8.0067,-1.0681 0.1898,0.49455 -0.017,0.56491 -2.2469,0.76581 -2.31,0.2081 -4.0435,0.73357 -7.2454,2.19629 -2.9723,1.35788 -5.5942,1.73093 -7.1459,1.01675 z"
       id="path14085-7-8" /><path
       style="fill:#ffffff;fill-opacity:1;stroke-width:0.264583"
       d="m 2286.6701,229.5292 c -1.0427,-0.47991 -1.8226,-1.35597 -1.5703,-1.76411 0.1167,-0.18887 0.089,-0.25393 -0.068,-0.15726 -1.8404,1.1374 -0.7662,-6.23214 1.1253,-7.71994 0.8386,-0.65972 0.5883,-0.82984 -1.2211,-0.82984 -3.2482,0 -4.7006,0.75198 -12.6838,6.56678 -4.8886,3.56082 -8.5852,4.11888 -10.6927,1.61426 -1.185,-1.40832 -0.8221,-2.45422 0.394,-1.13549 2.18,2.36397 5.192,1.82496 9.9018,-1.77196 7.2356,-5.52582 9.0651,-6.43647 12.9646,-6.453 3.9141,-0.0166 6.5646,1.50314 3.8816,2.2256 -3.1363,0.84451 -4.516,5.79584 -2.166,7.77322 1.6455,1.38457 2.793,1.21976 8.7658,-1.25901 3.5007,-1.45283 7.6468,-2.00593 8.0067,-1.0681 0.1898,0.49455 -0.017,0.56491 -2.2469,0.76581 -2.31,0.2081 -4.0435,0.73357 -7.2453,2.19629 -2.9724,1.35788 -5.5942,1.73093 -7.146,1.01675 z"
       id="path14085-1-9" /><path
       style="fill:#ffffff;fill-opacity:1;stroke-width:0.264583"
       d="m 2103.6712,270.41194 c -1.0427,-0.47991 -1.8226,-1.35597 -1.5703,-1.76411 0.1167,-0.18887 0.089,-0.25393 -0.068,-0.15726 -1.8404,1.1374 -0.7662,-6.23214 1.1252,-7.71994 0.8387,-0.65972 0.5884,-0.82984 -1.221,-0.82984 -3.2482,0 -4.7006,0.75198 -12.6838,6.56678 -4.8886,3.56082 -8.5852,4.11888 -10.6927,1.61426 -1.185,-1.40832 -0.8221,-2.45422 0.394,-1.13549 2.18,2.36397 5.192,1.82496 9.9018,-1.77196 7.2356,-5.52582 9.0651,-6.43647 12.9646,-6.453 3.9141,-0.0166 6.5646,1.50314 3.8816,2.2256 -3.1363,0.84451 -4.516,5.79584 -2.166,7.77322 1.6455,1.38457 2.793,1.21976 8.7658,-1.25901 3.5007,-1.45283 7.6468,-2.00593 8.0067,-1.0681 0.1898,0.49455 -0.017,0.56491 -2.2469,0.76581 -2.31,0.2081 -4.0435,0.73357 -7.2454,2.19629 -2.9723,1.35788 -5.5942,1.73093 -7.1459,1.01675 z"
       id="path14085-72-2" /><path
       style="fill:#ffffff;fill-opacity:1;stroke-width:0.264583"
       d="m 1877.8428,653.93092 c -1.0428,-0.47991 -1.8226,-1.35597 -1.5703,-1.76411 0.1167,-0.18887 0.089,-0.25393 -0.068,-0.15726 -1.8403,1.1374 -0.7661,-6.23214 1.1253,-7.71994 0.8387,-0.65972 0.5884,-0.82984 -1.2211,-0.82984 -3.2481,0 -4.7006,0.75198 -12.6837,6.56678 -4.8887,3.56082 -8.5852,4.11888 -10.6927,1.61426 -1.1851,-1.40832 -0.8222,-2.45422 0.394,-1.13549 2.18,2.36397 5.192,1.82496 9.9018,-1.77196 7.2355,-5.52582 9.0651,-6.43647 12.9646,-6.453 3.914,-0.0166 6.5645,1.50314 3.8815,2.2256 -3.1362,0.84451 -4.5159,5.79584 -2.1659,7.77322 1.6455,1.38457 2.793,1.21976 8.7658,-1.25901 3.5007,-1.45283 7.6468,-2.00593 8.0067,-1.0681 0.1897,0.49455 -0.017,0.56491 -2.2469,0.76581 -2.3101,0.2081 -4.0436,0.73357 -7.2454,2.19629 -2.9723,1.35788 -5.5942,1.73093 -7.1459,1.01675 z"
       id="path14085-9-4" /><path
       style="fill:#ffffff;fill-opacity:1;stroke-width:0.264583"
       d="m 1862.2684,690.92006 c -1.0428,-0.47991 -1.8226,-1.35597 -1.5703,-1.76411 0.1167,-0.18887 0.089,-0.25393 -0.068,-0.15726 -1.8404,1.1374 -0.7662,-6.23214 1.1252,-7.71994 0.8387,-0.65972 0.5884,-0.82984 -1.221,-0.82984 -3.2482,0 -4.7006,0.75198 -12.6838,6.56678 -4.8887,3.56082 -8.5852,4.11888 -10.6927,1.61426 -1.185,-1.40832 -0.8221,-2.45422 0.394,-1.13549 2.18,2.36397 5.192,1.82496 9.9018,-1.77196 7.2355,-5.52582 9.0651,-6.43647 12.9646,-6.453 3.9141,-0.0166 6.5645,1.50314 3.8816,2.2256 -3.1363,0.84451 -4.516,5.79584 -2.166,7.77322 1.6455,1.38457 2.793,1.21976 8.7658,-1.25901 3.5007,-1.45283 7.6468,-2.00593 8.0067,-1.0681 0.1898,0.49455 -0.017,0.56491 -2.2469,0.76581 -2.3101,0.2081 -4.0435,0.73357 -7.2454,2.19629 -2.9723,1.35788 -5.5942,1.73093 -7.1459,1.01675 z"
       id="path14085-4-2" /><path
       style="fill:#ffffff;fill-opacity:1;stroke-width:0.264583"
       d="m 2296.4041,768.79193 c -1.0427,-0.47991 -1.8226,-1.35597 -1.5703,-1.76411 0.1167,-0.18887 0.089,-0.25393 -0.068,-0.15726 -1.8404,1.1374 -0.7662,-6.23214 1.1252,-7.71994 0.8387,-0.65972 0.5884,-0.82984 -1.221,-0.82984 -3.2482,0 -4.7006,0.75198 -12.6838,6.56678 -4.8887,3.56082 -8.5852,4.11888 -10.6927,1.61426 -1.1851,-1.40832 -0.8221,-2.45422 0.394,-1.13549 2.18,2.36397 5.192,1.82496 9.9018,-1.77196 7.2356,-5.52582 9.0651,-6.43647 12.9646,-6.453 3.914,-0.0166 6.5645,1.50314 3.8815,2.2256 -3.1362,0.84451 -4.5159,5.79584 -2.1659,7.77322 1.6455,1.38457 2.793,1.21976 8.7658,-1.25901 3.5007,-1.45283 7.6468,-2.00593 8.0067,-1.0681 0.1898,0.49455 -0.017,0.56491 -2.2469,0.76581 -2.3101,0.2081 -4.0435,0.73357 -7.2454,2.19629 -2.9723,1.35788 -5.5942,1.73093 -7.1459,1.01675 z"
       id="path14085-61-0" /><path
       style="fill:#ffffff;fill-opacity:1;stroke-width:0.264583"
       d="m 2487.1902,813.56826 c -1.0428,-0.47991 -1.8226,-1.35597 -1.5703,-1.76411 0.1167,-0.18887 0.089,-0.25393 -0.068,-0.15726 -1.8404,1.1374 -0.7662,-6.23214 1.1252,-7.71994 0.8387,-0.65972 0.5884,-0.82984 -1.221,-0.82984 -3.2482,0 -4.7007,0.75198 -12.6838,6.56678 -4.8887,3.56082 -8.5852,4.11888 -10.6927,1.61426 -1.1851,-1.40832 -0.8221,-2.45422 0.394,-1.13549 2.18,2.36397 5.192,1.82496 9.9018,-1.77196 7.2355,-5.52582 9.0651,-6.43647 12.9646,-6.453 3.914,-0.0166 6.5645,1.50314 3.8815,2.2256 -3.1362,0.84451 -4.5159,5.79584 -2.1659,7.77322 1.6455,1.38457 2.793,1.21976 8.7658,-1.25901 3.5007,-1.45283 7.6468,-2.00593 8.0067,-1.0681 0.1897,0.49455 -0.017,0.56491 -2.2469,0.76581 -2.3101,0.2081 -4.0436,0.73357 -7.2454,2.19629 -2.9723,1.35788 -5.5942,1.73093 -7.1459,1.01675 z"
       id="path14085-5-7" /><path
       style="fill:#ffffff;fill-opacity:1;stroke-width:0.264583"
       d="m 2411.2651,963.47161 c -1.0427,-0.4799 -1.8226,-1.356 -1.5703,-1.7641 0.1167,-0.1889 0.089,-0.2539 -0.068,-0.1573 -1.8404,1.1374 -0.7662,-6.2321 1.1252,-7.7199 0.8388,-0.6597 0.5884,-0.8298 -1.221,-0.8298 -3.2482,0 -4.7006,0.7519 -12.6838,6.5667 -4.8886,3.5609 -8.5852,4.1189 -10.6927,1.6143 -1.185,-1.4083 -0.8221,-2.4542 0.394,-1.1355 2.18,2.364 5.192,1.825 9.9018,-1.7719 7.2356,-5.5259 9.0651,-6.4365 12.9646,-6.453 3.9141,-0.017 6.5646,1.5031 3.8816,2.2256 -3.1363,0.8445 -4.516,5.7958 -2.166,7.7732 1.6455,1.3845 2.793,1.2197 8.7658,-1.259 3.5007,-1.4529 7.6468,-2.006 8.0067,-1.0681 0.1898,0.4945 -0.017,0.5649 -2.2469,0.7658 -2.31,0.2081 -4.0435,0.7335 -7.2453,2.1963 -2.9724,1.3578 -5.5942,1.7309 -7.146,1.0167 z"
       id="path14085-88-7" /><path
       style="fill:#ffffff;fill-opacity:1;stroke-width:0.264583"
       d="m 1959.6082,1066.6519 c -1.0427,-0.48 -1.8225,-1.356 -1.5703,-1.7642 0.1167,-0.1888 0.089,-0.2539 -0.068,-0.1572 -1.8403,1.1374 -0.7662,-6.2322 1.1253,-7.72 0.8387,-0.6597 0.5883,-0.8298 -1.2211,-0.8298 -3.2481,0 -4.7006,0.752 -12.6838,6.5668 -4.8886,3.5608 -8.5852,4.1189 -10.6927,1.6142 -1.185,-1.4083 -0.8221,-2.4542 0.394,-1.1354 2.18,2.3639 5.1921,1.8249 9.9019,-1.772 7.2355,-5.5258 9.065,-6.4365 12.9645,-6.453 3.9141,-0.017 6.5646,1.5031 3.8816,2.2256 -3.1363,0.8445 -4.5159,5.7958 -2.1659,7.7732 1.6454,1.3846 2.793,1.2198 8.7657,-1.259 3.5007,-1.4528 7.6468,-2.0059 8.0067,-1.0681 0.1898,0.4946 -0.017,0.5649 -2.2469,0.7658 -2.31,0.2081 -4.0435,0.7336 -7.2453,2.1963 -2.9723,1.3579 -5.5942,1.7309 -7.146,1.0168 z"
       id="path14085-883-6" /><path
       style="fill:#ffffff;fill-opacity:1;stroke-width:0.264583"
       d="m 1844.7472,1212.6616 c -1.0427,-0.4799 -1.8225,-1.356 -1.5703,-1.7641 0.1167,-0.1889 0.089,-0.2539 -0.068,-0.1573 -1.8404,1.1374 -0.7662,-6.2321 1.1253,-7.7199 0.8387,-0.6597 0.5883,-0.8298 -1.2211,-0.8298 -3.2481,0 -4.7006,0.7519 -12.6838,6.5667 -4.8886,3.5609 -8.5852,4.1189 -10.6927,1.6143 -1.185,-1.4083 -0.8221,-2.4542 0.394,-1.1355 2.18,2.364 5.192,1.825 9.9019,-1.7719 7.2355,-5.5259 9.065,-6.4365 12.9645,-6.453 3.9141,-0.017 6.5646,1.5031 3.8816,2.2256 -3.1363,0.8445 -4.516,5.7958 -2.166,7.7732 1.6455,1.3845 2.793,1.2197 8.7658,-1.259 3.5007,-1.4529 7.6468,-2.006 8.0067,-1.0681 0.1898,0.4945 -0.017,0.5649 -2.2469,0.7658 -2.31,0.2081 -4.0435,0.7335 -7.2453,2.1963 -2.9724,1.3578 -5.5942,1.7309 -7.146,1.0167 z"
       id="path14085-08-5" /><path
       style="fill:#ffffff;fill-opacity:1;stroke-width:0.264583"
       d="m 2000.491,1255.4911 c -1.0428,-0.4799 -1.8226,-1.356 -1.5703,-1.7641 0.1167,-0.1889 0.089,-0.2539 -0.068,-0.1573 -1.8404,1.1374 -0.7662,-6.2321 1.1252,-7.7199 0.8387,-0.6597 0.5884,-0.8298 -1.221,-0.8298 -3.2482,0 -4.7007,0.7519 -12.6838,6.5667 -4.8887,3.5609 -8.5852,4.1189 -10.6927,1.6143 -1.1851,-1.4083 -0.8222,-2.4542 0.394,-1.1355 2.18,2.364 5.192,1.825 9.9018,-1.772 7.2355,-5.5258 9.0651,-6.4364 12.9646,-6.453 3.914,-0.016 6.5645,1.5032 3.8815,2.2256 -3.1362,0.8446 -4.5159,5.7959 -2.1659,7.7733 1.6455,1.3845 2.793,1.2197 8.7658,-1.259 3.5007,-1.4529 7.6468,-2.006 8.0067,-1.0681 0.1897,0.4945 -0.017,0.5649 -2.2469,0.7658 -2.3101,0.2081 -4.0436,0.7335 -7.2454,2.1963 -2.9723,1.3578 -5.5942,1.7309 -7.1459,1.0167 z"
       id="path14085-67-3" /><path
       style="fill:#ffffff;fill-opacity:1;stroke-width:0.264583"
       d="m 2333.3932,1230.1828 c -1.0427,-0.4799 -1.8225,-1.356 -1.5703,-1.7641 0.1167,-0.1889 0.089,-0.2539 -0.068,-0.1573 -1.8403,1.1374 -0.7662,-6.2321 1.1253,-7.7199 0.8387,-0.6597 0.5883,-0.8298 -1.2211,-0.8298 -3.2481,0 -4.7006,0.7519 -12.6838,6.5667 -4.8886,3.5609 -8.5852,4.1189 -10.6927,1.6143 -1.185,-1.4083 -0.8221,-2.4542 0.394,-1.1355 2.18,2.364 5.1921,1.825 9.9019,-1.7719 7.2355,-5.5259 9.065,-6.4365 12.9645,-6.453 3.9141,-0.017 6.5646,1.5031 3.8816,2.2256 -3.1363,0.8445 -4.5159,5.7958 -2.1659,7.7732 1.6454,1.3845 2.793,1.2197 8.7657,-1.259 3.5007,-1.4529 7.6468,-2.006 8.0067,-1.0681 0.1898,0.4945 -0.017,0.5649 -2.2469,0.7658 -2.31,0.2081 -4.0435,0.7335 -7.2453,2.1963 -2.9723,1.3578 -5.5942,1.7309 -7.146,1.0167 z"
       id="path14085-93-0" /><path
       style="fill:#ffffff;fill-opacity:1;stroke-width:0.264583"
       d="m 2623.466,1101.6942 c -1.0428,-0.4799 -1.8226,-1.356 -1.5704,-1.7641 0.1168,-0.1889 0.089,-0.2539 -0.068,-0.1573 -1.8403,1.1374 -0.7661,-6.2321 1.1253,-7.7199 0.8387,-0.6597 0.5884,-0.8298 -1.2211,-0.8298 -3.2481,0 -4.7006,0.7519 -12.6837,6.5667 -4.8887,3.5609 -8.5853,4.1189 -10.6928,1.6143 -1.185,-1.4083 -0.8221,-2.4542 0.394,-1.1355 2.1801,2.364 5.1921,1.825 9.9019,-1.772 7.2355,-5.5258 9.0651,-6.4364 12.9646,-6.453 3.914,-0.017 6.5645,1.5032 3.8815,2.2256 -3.1363,0.8446 -4.5159,5.7959 -2.1659,7.7733 1.6455,1.3845 2.793,1.2197 8.7657,-1.259 3.5007,-1.4529 7.6469,-2.006 8.0067,-1.0681 0.1898,0.4945 -0.017,0.5649 -2.2469,0.7658 -2.31,0.2081 -4.0435,0.7335 -7.2453,2.1963 -2.9723,1.3578 -5.5942,1.7309 -7.146,1.0167 z"
       id="path14085-89-3" /><path
       style="fill:#ffffff;fill-opacity:1;stroke-width:0.264583"
       d="m 2730.5398,825.24904 c -1.0428,-0.47991 -1.8226,-1.35597 -1.5704,-1.76411 0.1168,-0.18887 0.089,-0.25393 -0.068,-0.15726 -1.8403,1.1374 -0.7661,-6.23214 1.1253,-7.71994 0.8387,-0.65972 0.5884,-0.82984 -1.2211,-0.82984 -3.2481,0 -4.7006,0.75198 -12.6837,6.56678 -4.8887,3.56082 -8.5853,4.11888 -10.6928,1.61426 -1.185,-1.40832 -0.8221,-2.45422 0.394,-1.13549 2.1801,2.36397 5.1921,1.82496 9.9019,-1.77196 7.2355,-5.52582 9.0651,-6.43647 12.9646,-6.453 3.914,-0.0166 6.5645,1.50314 3.8815,2.2256 -3.1363,0.84451 -4.5159,5.79584 -2.1659,7.77322 1.6454,1.38457 2.793,1.21976 8.7657,-1.25901 3.5007,-1.45283 7.6469,-2.00593 8.0067,-1.0681 0.1898,0.49455 -0.017,0.56491 -2.2469,0.76581 -2.31,0.2081 -4.0435,0.73357 -7.2453,2.19629 -2.9723,1.35788 -5.5942,1.73093 -7.146,1.01675 z"
       id="path14085-2-5" /><path
       style="fill:#ffffff;fill-opacity:1;stroke-width:0.264583"
       d="m 2598.1576,708.44123 c -1.0427,-0.47991 -1.8226,-1.35597 -1.5703,-1.76411 0.1167,-0.18887 0.089,-0.25393 -0.068,-0.15726 -1.8404,1.1374 -0.7662,-6.23214 1.1252,-7.71994 0.8387,-0.65972 0.5884,-0.82984 -1.221,-0.82984 -3.2482,0 -4.7006,0.75198 -12.6838,6.56678 -4.8887,3.56082 -8.5852,4.11888 -10.6927,1.61426 -1.185,-1.40832 -0.8221,-2.45422 0.394,-1.13549 2.18,2.36397 5.192,1.82496 9.9018,-1.77196 7.2356,-5.52582 9.0651,-6.43647 12.9646,-6.453 3.9141,-0.0166 6.5646,1.50314 3.8816,2.2256 -3.1363,0.84451 -4.516,5.79584 -2.166,7.77322 1.6455,1.38457 2.793,1.21976 8.7658,-1.25901 3.5007,-1.45283 7.6468,-2.00593 8.0067,-1.0681 0.1898,0.49455 -0.017,0.56491 -2.2469,0.76581 -2.31,0.2081 -4.0435,0.73357 -7.2453,2.19629 -2.9724,1.35788 -5.5943,1.73093 -7.146,1.01675 z"
       id="path14085-21-3" /><path
       style="fill:#ffffff;fill-opacity:1;stroke-width:0.264583"
       d="m 2158.1815,755.16436 c -1.0427,-0.47991 -1.8226,-1.35597 -1.5703,-1.76411 0.1167,-0.18887 0.089,-0.25393 -0.068,-0.15726 -1.8404,1.1374 -0.7662,-6.23214 1.1252,-7.71994 0.8388,-0.65972 0.5884,-0.82984 -1.221,-0.82984 -3.2482,0 -4.7006,0.75198 -12.6838,6.56678 -4.8886,3.56082 -8.5852,4.11888 -10.6927,1.61426 -1.185,-1.40832 -0.8221,-2.45422 0.394,-1.13549 2.18,2.36397 5.192,1.82496 9.9018,-1.77196 7.2356,-5.52582 9.0651,-6.43647 12.9646,-6.453 3.9141,-0.0166 6.5646,1.50314 3.8816,2.2256 -3.1363,0.84451 -4.516,5.79584 -2.166,7.77322 1.6455,1.38457 2.793,1.21976 8.7658,-1.25901 3.5007,-1.45283 7.6468,-2.00593 8.0067,-1.0681 0.1898,0.49455 -0.017,0.56491 -2.2469,0.76581 -2.31,0.2081 -4.0435,0.73357 -7.2453,2.19629 -2.9724,1.35788 -5.5942,1.73093 -7.146,1.01675 z"
       id="path14085-934-1" /><path
       style="fill:#ffffff;fill-opacity:1;stroke-width:0.264583"
       d="m 2012.1718,866.13181 c -1.0428,-0.4799 -1.8226,-1.356 -1.5704,-1.7641 0.1168,-0.1889 0.089,-0.254 -0.068,-0.1573 -1.8403,1.1374 -0.7661,-6.23214 1.1253,-7.71994 0.8387,-0.65972 0.5884,-0.82984 -1.2211,-0.82984 -3.2481,0 -4.7006,0.75198 -12.6837,6.56678 -4.8887,3.5608 -8.5853,4.1189 -10.6928,1.6143 -1.185,-1.4084 -0.8221,-2.4543 0.394,-1.1355 2.1801,2.3639 5.1921,1.8249 9.9019,-1.772 7.2355,-5.52581 9.0651,-6.43646 12.9646,-6.45299 3.914,-0.0166 6.5645,1.50314 3.8815,2.2256 -3.1363,0.84451 -4.5159,5.79589 -2.1659,7.77319 1.6454,1.3846 2.793,1.2198 8.7657,-1.259 3.5007,-1.4528 7.6469,-2.0059 8.0067,-1.0681 0.1898,0.4946 -0.017,0.5649 -2.2469,0.7658 -2.31,0.2081 -4.0435,0.7336 -7.2453,2.1963 -2.9723,1.3579 -5.5942,1.731 -7.146,1.0168 z"
       id="path14085-938-8" /><path
       style="fill:#ffffff;fill-opacity:1;stroke-width:0.264583"
       d="m 1827.2261,875.86571 c -1.0428,-0.4799 -1.8226,-1.3559 -1.5704,-1.7641 0.1168,-0.1888 0.089,-0.2539 -0.068,-0.1572 -1.8403,1.1374 -0.7661,-6.2322 1.1253,-7.72 0.8387,-0.6597 0.5884,-0.8298 -1.2211,-0.8298 -3.2481,0 -4.7006,0.752 -12.6837,6.5668 -4.8887,3.5608 -8.5853,4.1189 -10.6928,1.6142 -1.185,-1.4083 -0.8221,-2.4542 0.394,-1.1354 2.1801,2.3639 5.1921,1.8249 9.9019,-1.772 7.2355,-5.5258 9.0651,-6.4365 12.9646,-6.453 3.914,-0.017 6.5645,1.5031 3.8815,2.2256 -3.1363,0.8445 -4.5159,5.7958 -2.1659,7.7732 1.6454,1.3846 2.793,1.2198 8.7657,-1.259 3.5007,-1.4528 7.6469,-2.0059 8.0067,-1.0681 0.1898,0.4946 -0.017,0.5649 -2.2469,0.7658 -2.31,0.2081 -4.0435,0.7336 -7.2453,2.1963 -2.9723,1.3579 -5.5942,1.7309 -7.146,1.0168 z"
       id="path14085-75-5" /><path
       style="fill:#ffffff;fill-opacity:1;stroke-width:0.264583"
       d="m 1762.9818,722.06881 c -1.0428,-0.47991 -1.8226,-1.35597 -1.5704,-1.76411 0.1167,-0.18887 0.089,-0.25393 -0.068,-0.15726 -1.8403,1.1374 -0.7661,-6.23214 1.1253,-7.71994 0.8387,-0.65972 0.5884,-0.82984 -1.2211,-0.82984 -3.2481,0 -4.7006,0.75198 -12.6837,6.56678 -4.8887,3.56082 -8.5853,4.11888 -10.6928,1.61426 -1.185,-1.40832 -0.8221,-2.45422 0.394,-1.13549 2.1801,2.36397 5.1921,1.82496 9.9019,-1.77196 7.2355,-5.52582 9.0651,-6.43647 12.9646,-6.453 3.914,-0.0166 6.5645,1.50314 3.8815,2.2256 -3.1363,0.84451 -4.5159,5.79584 -2.1659,7.77322 1.6454,1.38457 2.793,1.21976 8.7657,-1.25901 3.5007,-1.45283 7.6468,-2.00593 8.0067,-1.0681 0.1898,0.49455 -0.017,0.56491 -2.2469,0.76581 -2.31,0.2081 -4.0435,0.73357 -7.2453,2.19629 -2.9723,1.35788 -5.5942,1.73093 -7.146,1.01675 z"
       id="path14085-84-3" /><path
       style="fill:#ffffff;fill-opacity:1;stroke-width:0.264583"
       d="m 1757.1414,507.92116 c -1.0428,-0.47991 -1.8226,-1.35597 -1.5704,-1.76411 0.1168,-0.18887 0.089,-0.25393 -0.068,-0.15726 -1.8403,1.1374 -0.7661,-6.23214 1.1253,-7.71994 0.8387,-0.65972 0.5884,-0.82984 -1.2211,-0.82984 -3.2481,0 -4.7006,0.75198 -12.6837,6.56678 -4.8887,3.56082 -8.5853,4.11888 -10.6928,1.61426 -1.185,-1.40832 -0.8221,-2.45422 0.394,-1.13549 2.1801,2.36397 5.1921,1.82496 9.9019,-1.77196 7.2355,-5.52582 9.0651,-6.43647 12.9646,-6.453 3.914,-0.0166 6.5645,1.50314 3.8815,2.2256 -3.1363,0.84451 -4.5159,5.79584 -2.1659,7.77322 1.6454,1.38457 2.793,1.21976 8.7657,-1.25901 3.5007,-1.45283 7.6469,-2.00593 8.0067,-1.0681 0.1898,0.49455 -0.017,0.56491 -2.2469,0.76581 -2.31,0.2081 -4.0435,0.73357 -7.2453,2.19629 -2.9723,1.35788 -5.5942,1.73093 -7.146,1.01675 z"
       id="path14085-66-8" /><path
       style="fill:#ffffff;fill-opacity:1;stroke-width:0.264583"
       d="m 1870.0556,457.30444 c -1.0428,-0.47991 -1.8226,-1.35597 -1.5703,-1.76411 0.1167,-0.18887 0.089,-0.25393 -0.068,-0.15726 -1.8404,1.1374 -0.7662,-6.23214 1.1252,-7.71994 0.8387,-0.65972 0.5884,-0.82984 -1.221,-0.82984 -3.2482,0 -4.7007,0.75198 -12.6838,6.56678 -4.8887,3.56082 -8.5852,4.11888 -10.6927,1.61426 -1.1851,-1.40832 -0.8222,-2.45422 0.394,-1.13549 2.18,2.36397 5.192,1.82496 9.9018,-1.77196 7.2355,-5.52582 9.0651,-6.43647 12.9646,-6.453 3.914,-0.0166 6.5645,1.50314 3.8815,2.2256 -3.1362,0.84451 -4.5159,5.79584 -2.1659,7.77322 1.6455,1.38457 2.793,1.21976 8.7658,-1.25901 3.5007,-1.45283 7.6468,-2.00593 8.0067,-1.0681 0.1897,0.49455 -0.017,0.56491 -2.2469,0.76581 -2.3101,0.2081 -4.0436,0.73357 -7.2454,2.19629 -2.9723,1.35788 -5.5942,1.73093 -7.1459,1.01675 z"
       id="path14085-73-6" /><path
       style="fill:#ffffff;fill-opacity:1;stroke-width:0.264583"
       d="m 2115.352,548.80389 c -1.0428,-0.47991 -1.8226,-1.35597 -1.5703,-1.76411 0.1167,-0.18887 0.089,-0.25393 -0.068,-0.15726 -1.8404,1.1374 -0.7662,-6.23214 1.1252,-7.71994 0.8387,-0.65972 0.5884,-0.82984 -1.221,-0.82984 -3.2482,0 -4.7007,0.75198 -12.6838,6.56678 -4.8887,3.56082 -8.5852,4.11888 -10.6927,1.61426 -1.1851,-1.40832 -0.8221,-2.45422 0.394,-1.13549 2.18,2.36397 5.192,1.82496 9.9018,-1.77196 7.2355,-5.52582 9.0651,-6.43647 12.9646,-6.453 3.914,-0.0166 6.5645,1.50314 3.8815,2.2256 -3.1362,0.84451 -4.5159,5.79584 -2.1659,7.77322 1.6455,1.38457 2.793,1.21976 8.7658,-1.25901 3.5007,-1.45283 7.6468,-2.00593 8.0067,-1.0681 0.1897,0.49455 -0.017,0.56491 -2.2469,0.76581 -2.3101,0.2081 -4.0436,0.73357 -7.2454,2.19629 -2.9723,1.35788 -5.5942,1.73093 -7.1459,1.01675 z"
       id="path14085-086-7" /><path
       style="fill:#ffffff;fill-opacity:1;stroke-width:0.264583"
       d="m 2436.5735,570.21865 c -1.0428,-0.47991 -1.8226,-1.35597 -1.5704,-1.76411 0.1168,-0.18887 0.089,-0.25393 -0.068,-0.15726 -1.8403,1.1374 -0.7661,-6.23214 1.1253,-7.71994 0.8387,-0.65972 0.5884,-0.82984 -1.2211,-0.82984 -3.2481,0 -4.7006,0.75198 -12.6837,6.56678 -4.8887,3.56082 -8.5853,4.11888 -10.6928,1.61426 -1.185,-1.40832 -0.8221,-2.45422 0.394,-1.13549 2.1801,2.36397 5.1921,1.82496 9.9019,-1.77196 7.2355,-5.52582 9.0651,-6.43647 12.9646,-6.453 3.914,-0.0166 6.5645,1.50314 3.8815,2.2256 -3.1363,0.84451 -4.5159,5.79584 -2.1659,7.77322 1.6454,1.38457 2.793,1.21976 8.7657,-1.25901 3.5007,-1.45283 7.6469,-2.00593 8.0067,-1.0681 0.1898,0.49455 -0.017,0.56491 -2.2469,0.76581 -2.31,0.2081 -4.0435,0.73357 -7.2453,2.19629 -2.9723,1.35788 -5.5942,1.73093 -7.146,1.01675 z"
       id="path14085-12-2" /><path
       style="fill:#ffffff;fill-opacity:1;stroke-width:0.264583"
       d="m 2738.327,511.81475 c -1.0428,-0.47991 -1.8226,-1.35597 -1.5704,-1.76411 0.1168,-0.18887 0.089,-0.25393 -0.068,-0.15726 -1.8403,1.1374 -0.7661,-6.23214 1.1253,-7.71994 0.8387,-0.65972 0.5884,-0.82984 -1.2211,-0.82984 -3.2481,0 -4.7006,0.75198 -12.6837,6.56678 -4.8887,3.56082 -8.5853,4.11888 -10.6928,1.61426 -1.185,-1.40832 -0.8221,-2.45422 0.394,-1.13549 2.1801,2.36397 5.1921,1.82496 9.9019,-1.77196 7.2355,-5.52582 9.0651,-6.43647 12.9646,-6.453 3.914,-0.0166 6.5645,1.50314 3.8815,2.2256 -3.1363,0.84451 -4.5159,5.79584 -2.1659,7.77322 1.6454,1.38457 2.793,1.21976 8.7657,-1.25901 3.5007,-1.45283 7.6469,-2.00593 8.0067,-1.0681 0.1898,0.49455 -0.017,0.56491 -2.2469,0.76581 -2.31,0.2081 -4.0435,0.73357 -7.2453,2.19629 -2.9723,1.35788 -5.5942,1.73093 -7.146,1.01675 z"
       id="path14085-11-7" /><path
       style="fill:#ffffff;fill-opacity:1;stroke-width:0.264583"
       d="m 2792.8372,363.85819 c -1.0427,-0.47991 -1.8225,-1.35597 -1.5703,-1.76411 0.1167,-0.18887 0.089,-0.25393 -0.068,-0.15726 -1.8403,1.1374 -0.7661,-6.23214 1.1253,-7.71994 0.8387,-0.65972 0.5884,-0.82984 -1.2211,-0.82984 -3.2481,0 -4.7006,0.75198 -12.6837,6.56678 -4.8887,3.56082 -8.5853,4.11888 -10.6928,1.61426 -1.185,-1.40832 -0.8221,-2.45422 0.394,-1.13549 2.1801,2.36397 5.1921,1.82496 9.9019,-1.77196 7.2355,-5.52582 9.0651,-6.43647 12.9646,-6.453 3.914,-0.0166 6.5645,1.50314 3.8815,2.2256 -3.1363,0.84451 -4.5159,5.79584 -2.1659,7.77322 1.6454,1.38457 2.793,1.21976 8.7657,-1.25901 3.5007,-1.45283 7.6468,-2.00593 8.0067,-1.0681 0.1898,0.49455 -0.017,0.56491 -2.2469,0.76581 -2.31,0.2081 -4.0435,0.73357 -7.2453,2.19629 -2.9723,1.35788 -5.5942,1.73093 -7.146,1.01675 z"
       id="path14085-94-3" /><path
       style="fill:#ffffff;fill-opacity:1;stroke-width:0.264583"
       d="m 2738.327,210.06124 c -1.0428,-0.47991 -1.8226,-1.35597 -1.5704,-1.76411 0.1168,-0.18887 0.089,-0.25393 -0.068,-0.15726 -1.8403,1.1374 -0.7661,-6.23214 1.1253,-7.71994 0.8387,-0.65972 0.5884,-0.82984 -1.2211,-0.82984 -3.2481,0 -4.7006,0.75198 -12.6837,6.56678 -4.8887,3.56082 -8.5853,4.11888 -10.6928,1.61426 -1.185,-1.40832 -0.8221,-2.45422 0.394,-1.13549 2.1801,2.36397 5.1921,1.82496 9.9019,-1.77196 7.2355,-5.52582 9.0651,-6.43647 12.9646,-6.453 3.914,-0.0166 6.5645,1.50314 3.8815,2.2256 -3.1363,0.84451 -4.5159,5.79584 -2.1659,7.77322 1.6454,1.38457 2.793,1.21976 8.7657,-1.25901 3.5007,-1.45283 7.6469,-2.00593 8.0067,-1.0681 0.1898,0.49455 -0.017,0.56491 -2.2469,0.76581 -2.31,0.2081 -4.0435,0.73357 -7.2453,2.19629 -2.9723,1.35788 -5.5942,1.73093 -7.146,1.01675 z"
       id="path14085-96-4" /><path
       style="fill:#ffffff;fill-opacity:1;stroke-width:0.264583"
       d="m 2530.0197,157.49772 c -1.0427,-0.47991 -1.8226,-1.35597 -1.5703,-1.76411 0.1167,-0.18887 0.089,-0.25393 -0.068,-0.15726 -1.8404,1.1374 -0.7662,-6.23214 1.1253,-7.71994 0.8387,-0.65972 0.5883,-0.82984 -1.2211,-0.82984 -3.2482,0 -4.7006,0.75198 -12.6838,6.56678 -4.8886,3.56082 -8.5852,4.11888 -10.6927,1.61426 -1.185,-1.40832 -0.8221,-2.45422 0.394,-1.13549 2.18,2.36397 5.192,1.82496 9.9018,-1.77196 7.2356,-5.52582 9.0651,-6.43647 12.9646,-6.453 3.9141,-0.0166 6.5646,1.50314 3.8816,2.2256 -3.1363,0.84451 -4.516,5.79584 -2.166,7.77322 1.6455,1.38457 2.793,1.21976 8.7658,-1.25901 3.5007,-1.45283 7.6468,-2.00593 8.0067,-1.0681 0.1898,0.49455 -0.017,0.56491 -2.2469,0.76581 -2.31,0.2081 -4.0435,0.73357 -7.2453,2.19629 -2.9724,1.35788 -5.5942,1.73093 -7.146,1.01675 z"
       id="path14085-97-4" /><path
       style="fill:#ffffff;fill-opacity:1;stroke-width:0.264583"
       d="m 2238.0002,176.96569 c -1.0428,-0.47991 -1.8226,-1.35597 -1.5703,-1.76411 0.1167,-0.18887 0.089,-0.25393 -0.068,-0.15726 -1.8404,1.1374 -0.7662,-6.23214 1.1252,-7.71994 0.8387,-0.65972 0.5884,-0.82984 -1.221,-0.82984 -3.2482,0 -4.7006,0.75198 -12.6838,6.56678 -4.8887,3.56082 -8.5852,4.11888 -10.6927,1.61426 -1.185,-1.40832 -0.8221,-2.45422 0.394,-1.13549 2.18,2.36397 5.192,1.82496 9.9018,-1.77196 7.2356,-5.52582 9.0651,-6.43647 12.9646,-6.453 3.9141,-0.0166 6.5645,1.50314 3.8815,2.2256 -3.1362,0.84451 -4.5159,5.79584 -2.1659,7.77322 1.6455,1.38457 2.793,1.21976 8.7658,-1.25901 3.5007,-1.45283 7.6468,-2.00593 8.0067,-1.0681 0.1898,0.49455 -0.017,0.56491 -2.2469,0.76581 -2.3101,0.2081 -4.0435,0.73357 -7.2454,2.19629 -2.9723,1.35788 -5.5942,1.73093 -7.1459,1.01675 z"
       id="path14085-729-6" /><path
       style="fill:#ffffff;fill-opacity:1;stroke-width:0.264583"
       d="m 1955.7146,157.49772 c -1.0427,-0.47991 -1.8225,-1.35597 -1.5703,-1.76411 0.1167,-0.18887 0.089,-0.25393 -0.068,-0.15726 -1.8403,1.1374 -0.7661,-6.23214 1.1253,-7.71994 0.8387,-0.65972 0.5884,-0.82984 -1.2211,-0.82984 -3.2481,0 -4.7006,0.75198 -12.6837,6.56678 -4.8887,3.56082 -8.5853,4.11888 -10.6928,1.61426 -1.185,-1.40832 -0.8221,-2.45422 0.394,-1.13549 2.18,2.36397 5.1921,1.82496 9.9019,-1.77196 7.2355,-5.52582 9.0651,-6.43647 12.9646,-6.453 3.914,-0.0166 6.5645,1.50314 3.8815,2.2256 -3.1363,0.84451 -4.5159,5.79584 -2.1659,7.77322 1.6454,1.38457 2.793,1.21976 8.7657,-1.25901 3.5007,-1.45283 7.6468,-2.00593 8.0067,-1.0681 0.1898,0.49455 -0.017,0.56491 -2.2469,0.76581 -2.31,0.2081 -4.0435,0.73357 -7.2453,2.19629 -2.9723,1.35788 -5.5942,1.73093 -7.146,1.01675 z"
       id="path14085-82-6" /><path
       style="fill:#ffffff;fill-opacity:1;stroke-width:0.264583"
       d="m 1772.7157,324.92225 c -1.0427,-0.47991 -1.8225,-1.35597 -1.5703,-1.76411 0.1167,-0.18887 0.089,-0.25393 -0.068,-0.15726 -1.8403,1.1374 -0.7662,-6.23214 1.1253,-7.71994 0.8387,-0.65972 0.5884,-0.82984 -1.2211,-0.82984 -3.2481,0 -4.7006,0.75198 -12.6838,6.56678 -4.8886,3.56082 -8.5852,4.11888 -10.6927,1.61426 -1.185,-1.40832 -0.8221,-2.45422 0.394,-1.13549 2.18,2.36397 5.1921,1.82496 9.9019,-1.77196 7.2355,-5.52582 9.0651,-6.43647 12.9646,-6.453 3.914,-0.0166 6.5645,1.50314 3.8815,2.2256 -3.1363,0.84451 -4.5159,5.79584 -2.1659,7.77322 1.6454,1.38457 2.793,1.21976 8.7657,-1.25901 3.5007,-1.45283 7.6468,-2.00593 8.0067,-1.0681 0.1898,0.49455 -0.017,0.56491 -2.2469,0.76581 -2.31,0.2081 -4.0435,0.73357 -7.2453,2.19629 -2.9723,1.35788 -5.5942,1.73093 -7.146,1.01675 z"
       id="path14085-947-9" /><path
       style="fill:#ffffff;fill-opacity:1;stroke-width:0.264583"
       d="m 1766.8753,535.17631 c -1.0427,-0.47991 -1.8225,-1.35597 -1.5703,-1.76411 0.1168,-0.18887 0.089,-0.25393 -0.068,-0.15726 -1.8403,1.1374 -0.7661,-6.23214 1.1253,-7.71994 0.8387,-0.65972 0.5884,-0.82984 -1.2211,-0.82984 -3.2481,0 -4.7006,0.75198 -12.6837,6.56678 -4.8887,3.56082 -8.5853,4.11888 -10.6928,1.61426 -1.185,-1.40832 -0.8221,-2.45422 0.394,-1.13549 2.18,2.36397 5.1921,1.82496 9.9019,-1.77196 7.2355,-5.52582 9.0651,-6.43647 12.9646,-6.453 3.914,-0.0166 6.5645,1.50314 3.8815,2.2256 -3.1363,0.84451 -4.5159,5.79584 -2.1659,7.77322 1.6454,1.38457 2.793,1.21976 8.7657,-1.25901 3.5007,-1.45283 7.6469,-2.00593 8.0067,-1.0681 0.1898,0.49455 -0.017,0.56491 -2.2469,0.76581 -2.31,0.2081 -4.0435,0.73357 -7.2453,2.19629 -2.9723,1.35788 -5.5942,1.73093 -7.146,1.01675 z"
       id="path14085-3-0" /><path
       style="fill:#ffffff;fill-opacity:1;stroke-width:0.264583"
       d="m 2064.7353,724.01561 c -1.0428,-0.47991 -1.8226,-1.35597 -1.5704,-1.76411 0.1168,-0.18887 0.089,-0.25393 -0.068,-0.15726 -1.8403,1.1374 -0.7661,-6.23214 1.1253,-7.71994 0.8387,-0.65972 0.5884,-0.82984 -1.2211,-0.82984 -3.2481,0 -4.7006,0.75198 -12.6837,6.56678 -4.8887,3.56082 -8.5852,4.11888 -10.6927,1.61426 -1.1851,-1.40832 -0.8222,-2.45422 0.394,-1.13549 2.18,2.36397 5.192,1.82496 9.9018,-1.77196 7.2355,-5.52582 9.0651,-6.43647 12.9646,-6.453 3.914,-0.0166 6.5645,1.50314 3.8815,2.2256 -3.1362,0.84451 -4.5159,5.79584 -2.1659,7.77322 1.6455,1.38457 2.793,1.21976 8.7658,-1.25901 3.5007,-1.45283 7.6468,-2.00593 8.0067,-1.0681 0.1897,0.49455 -0.017,0.56491 -2.2469,0.76581 -2.3101,0.2081 -4.0436,0.73357 -7.2454,2.19629 -2.9723,1.35788 -5.5942,1.73093 -7.1459,1.01675 z"
       id="path14085-51-5" /><path
       style="fill:#ffffff;fill-opacity:1;stroke-width:0.264583"
       d="m 2438.5203,838.87662 c -1.0428,-0.47991 -1.8226,-1.35597 -1.5704,-1.76411 0.1168,-0.18887 0.089,-0.25393 -0.068,-0.15726 -1.8403,1.1374 -0.7661,-6.23214 1.1253,-7.71994 0.8387,-0.65972 0.5884,-0.82984 -1.2211,-0.82984 -3.2481,0 -4.7006,0.75198 -12.6837,6.56678 -4.8887,3.56082 -8.5853,4.11888 -10.6928,1.61426 -1.185,-1.40832 -0.8221,-2.45422 0.394,-1.13549 2.1801,2.36397 5.1921,1.82496 9.9019,-1.77196 7.2355,-5.52582 9.0651,-6.43647 12.9646,-6.453 3.914,-0.0166 6.5645,1.50314 3.8815,2.2256 -3.1363,0.84451 -4.5159,5.79584 -2.1659,7.77322 1.6455,1.38457 2.793,1.21976 8.7657,-1.25901 3.5007,-1.45283 7.6469,-2.00593 8.0067,-1.0681 0.1898,0.49455 -0.017,0.56491 -2.2469,0.76581 -2.31,0.2081 -4.0435,0.73357 -7.2453,2.19629 -2.9723,1.35788 -5.5942,1.73093 -7.146,1.01675 z"
       id="path14085-25-9" /><path
       style="fill:#ffffff;fill-opacity:1;stroke-width:0.264583"
       d="m 2535.8601,905.06771 c -1.0427,-0.4799 -1.8226,-1.356 -1.5703,-1.7641 0.1167,-0.1889 0.089,-0.2539 -0.068,-0.1573 -1.8404,1.1374 -0.7662,-6.2321 1.1252,-7.7199 0.8387,-0.6597 0.5884,-0.8298 -1.221,-0.8298 -3.2482,0 -4.7006,0.7519 -12.6838,6.5667 -4.8886,3.5609 -8.5852,4.1189 -10.6927,1.6143 -1.185,-1.4083 -0.8221,-2.4542 0.394,-1.1355 2.18,2.364 5.192,1.825 9.9018,-1.772 7.2356,-5.5258 9.0651,-6.4364 12.9646,-6.453 3.9141,-0.017 6.5645,1.5032 3.8816,2.2256 -3.1363,0.8446 -4.516,5.7959 -2.166,7.7733 1.6455,1.3845 2.793,1.2197 8.7658,-1.259 3.5007,-1.4529 7.6468,-2.006 8.0067,-1.0681 0.1898,0.4945 -0.017,0.5649 -2.2469,0.7658 -2.31,0.2081 -4.0435,0.7335 -7.2453,2.1963 -2.9724,1.3578 -5.5943,1.7309 -7.146,1.0167 z"
       id="path14085-17-4" /><path
       style="fill:#ffffff;fill-opacity:1;stroke-width:0.264583"
       d="m 2333.3932,1125.0558 c -1.0427,-0.4799 -1.8225,-1.356 -1.5703,-1.7641 0.1167,-0.1889 0.089,-0.254 -0.068,-0.1573 -1.8403,1.1374 -0.7662,-6.2321 1.1253,-7.7199 0.8387,-0.6598 0.5883,-0.8299 -1.2211,-0.8299 -3.2481,0 -4.7006,0.752 -12.6838,6.5668 -4.8886,3.5608 -8.5852,4.1189 -10.6927,1.6143 -1.185,-1.4084 -0.8221,-2.4543 0.394,-1.1355 2.18,2.3639 5.1921,1.8249 9.9019,-1.772 7.2355,-5.5258 9.065,-6.4365 12.9645,-6.453 3.9141,-0.017 6.5646,1.5031 3.8816,2.2256 -3.1363,0.8445 -4.5159,5.7958 -2.1659,7.7732 1.6454,1.3846 2.793,1.2198 8.7657,-1.259 3.5007,-1.4528 7.6468,-2.0059 8.0067,-1.0681 0.1898,0.4946 -0.017,0.5649 -2.2469,0.7658 -2.31,0.2081 -4.0435,0.7336 -7.2453,2.1963 -2.9723,1.3579 -5.5942,1.7309 -7.146,1.0168 z"
       id="path14085-19-8" /><path
       style="fill:#ffffff;fill-opacity:1;stroke-width:0.264583"
       d="m 2144.5539,1191.2468 c -1.0427,-0.4799 -1.8225,-1.356 -1.5703,-1.7641 0.1167,-0.1889 0.089,-0.2539 -0.068,-0.1573 -1.8403,1.1374 -0.7661,-6.2321 1.1253,-7.7199 0.8387,-0.6597 0.5884,-0.8298 -1.2211,-0.8298 -3.2481,0 -4.7006,0.7519 -12.6838,6.5667 -4.8886,3.5609 -8.5852,4.1189 -10.6927,1.6143 -1.185,-1.4083 -0.8221,-2.4542 0.394,-1.1355 2.18,2.364 5.1921,1.825 9.9019,-1.7719 7.2355,-5.5259 9.065,-6.4365 12.9645,-6.453 3.9141,-0.017 6.5646,1.5031 3.8816,2.2256 -3.1363,0.8445 -4.5159,5.7958 -2.1659,7.7732 1.6454,1.3845 2.793,1.2197 8.7657,-1.259 3.5007,-1.4529 7.6468,-2.006 8.0067,-1.0681 0.1898,0.4945 -0.017,0.5649 -2.2469,0.7658 -2.31,0.2081 -4.0435,0.7335 -7.2453,2.1963 -2.9723,1.3578 -5.5942,1.7309 -7.146,1.0167 z"
       id="path14085-847-9" /><path
       style="fill:#ffffff;fill-opacity:1;stroke-width:0.264583"
       d="m 1984.9166,1140.6301 c -1.0427,-0.4799 -1.8226,-1.356 -1.5703,-1.7641 0.1167,-0.1889 0.089,-0.2539 -0.068,-0.1573 -1.8404,1.1374 -0.7662,-6.2321 1.1252,-7.7199 0.8387,-0.6597 0.5884,-0.8298 -1.221,-0.8298 -3.2482,0 -4.7007,0.7519 -12.6838,6.5667 -4.8887,3.5609 -8.5852,4.1189 -10.6927,1.6143 -1.185,-1.4083 -0.8221,-2.4542 0.394,-1.1355 2.18,2.364 5.192,1.825 9.9018,-1.7719 7.2356,-5.5259 9.0651,-6.4365 12.9646,-6.453 3.9141,-0.017 6.5645,1.5031 3.8816,2.2256 -3.1363,0.8445 -4.516,5.7958 -2.166,7.7732 1.6455,1.3845 2.793,1.2197 8.7658,-1.259 3.5007,-1.4529 7.6468,-2.006 8.0067,-1.0681 0.1898,0.4945 -0.017,0.5649 -2.2469,0.7658 -2.3101,0.2081 -4.0435,0.7335 -7.2454,2.1963 -2.9723,1.3578 -7.3158,-1.3833 -7.1459,1.0167 0,10e-5 3e-4,0 3e-4,0 z"
       id="path14085-613-1"
       sodipodi:nodetypes="sscsssssssssssssas" /><path
       style="fill:#ffffff;fill-opacity:1;stroke-width:0.264583"
       d="m 1994.6506,988.78001 c -1.0428,-0.4799 -1.8226,-1.356 -1.5703,-1.7641 0.1167,-0.1889 0.089,-0.254 -0.068,-0.1573 -1.8404,1.1374 -0.7662,-6.2321 1.1252,-7.7199 0.8387,-0.6598 0.5884,-0.8299 -1.221,-0.8299 -3.2482,0 -4.7007,0.752 -12.6838,6.5668 -4.8887,3.5608 -8.5852,4.1189 -10.6927,1.6143 -1.1851,-1.4084 -0.8221,-2.4543 0.394,-1.1355 2.18,2.3639 5.192,1.8249 9.9018,-1.772 7.2355,-5.5258 9.0651,-6.4365 12.9646,-6.453 3.914,-0.017 6.5645,1.5032 3.8815,2.2256 -3.1362,0.8445 -4.5159,5.7959 -2.1659,7.7732 1.6455,1.3846 2.793,1.2198 8.7658,-1.259 3.5007,-1.4528 7.6468,-2.0059 8.0067,-1.0681 0.1897,0.4946 -0.017,0.5649 -2.2469,0.7658 -2.3101,0.2081 -4.0436,0.7336 -7.2454,2.1963 -2.9723,1.3579 -5.5942,1.731 -7.1459,1.0168 z"
       id="path14085-69-0" /><path
       style="fill:#ffffff;fill-opacity:1;stroke-width:0.264583"
       d="m 2224.3726,957.63121 c -1.0427,-0.4799 -1.8226,-1.3559 -1.5703,-1.7641 0.1167,-0.1889 0.089,-0.2539 -0.068,-0.1572 -1.8404,1.1374 -0.7662,-6.2322 1.1252,-7.72 0.8388,-0.6597 0.5884,-0.8298 -1.221,-0.8298 -3.2482,0 -4.7006,0.752 -12.6838,6.5668 -4.8886,3.5608 -8.5852,4.1188 -10.6927,1.6142 -1.185,-1.4083 -0.8221,-2.4542 0.394,-1.1355 2.18,2.364 5.192,1.825 9.9018,-1.7719 7.2356,-5.5259 9.0651,-6.4365 12.9646,-6.453 3.9141,-0.017 6.5646,1.5031 3.8816,2.2256 -3.1363,0.8445 -4.516,5.7958 -2.166,7.7732 1.6455,1.3846 2.793,1.2197 8.7658,-1.259 3.5007,-1.4529 7.6468,-2.006 8.0067,-1.0681 0.1898,0.4945 -0.017,0.5649 -2.2469,0.7658 -2.31,0.2081 -4.0435,0.7336 -7.2453,2.1963 -2.9724,1.3579 -5.5942,1.7309 -7.146,1.0167 z"
       id="path14085-893-6" /><path
       style="fill:#ffffff;fill-opacity:1;stroke-width:0.264583"
       d="m 2580.6364,626.67576 c -1.0427,-0.47991 -1.8225,-1.35597 -1.5703,-1.76411 0.1167,-0.18887 0.089,-0.25393 -0.068,-0.15726 -1.8404,1.1374 -0.7662,-6.23214 1.1253,-7.71994 0.8387,-0.65972 0.5883,-0.82984 -1.2211,-0.82984 -3.2481,0 -4.7006,0.75198 -12.6838,6.56678 -4.8886,3.56082 -8.5852,4.11888 -10.6927,1.61426 -1.185,-1.40832 -0.8221,-2.45422 0.394,-1.13549 2.18,2.36397 5.1921,1.82496 9.9019,-1.77196 7.2355,-5.52582 9.065,-6.43647 12.9645,-6.453 3.9141,-0.0166 6.5646,1.50314 3.8816,2.2256 -3.1363,0.84451 -4.5159,5.79584 -2.166,7.77322 1.6455,1.38457 2.793,1.21976 8.7658,-1.25901 3.5007,-1.45283 7.6468,-2.00593 8.0067,-1.0681 0.1898,0.49455 -0.017,0.56491 -2.2469,0.76581 -2.31,0.2081 -4.0435,0.73357 -7.2453,2.19629 -2.9724,1.35788 -5.5942,1.73093 -7.146,1.01675 z"
       id="path14085-68-1" /><path
       style="fill:#ffffff;fill-opacity:1;stroke-width:0.264583"
       d="m 2300.2977,482.6128 c -1.0428,-0.47991 -1.8226,-1.35597 -1.5703,-1.76411 0.1167,-0.18887 0.089,-0.25393 -0.068,-0.15726 -1.8404,1.1374 -0.7662,-6.23214 1.1252,-7.71994 0.8387,-0.65972 0.5884,-0.82984 -1.221,-0.82984 -3.2482,0 -4.7007,0.75198 -12.6838,6.56678 -4.8887,3.56082 -8.5852,4.11888 -10.6927,1.61426 -1.1851,-1.40832 -0.8222,-2.45422 0.394,-1.13549 2.18,2.36397 5.192,1.82496 9.9018,-1.77196 7.2355,-5.52582 9.0651,-6.43647 12.9646,-6.453 3.914,-0.0166 6.5645,1.50314 3.8815,2.2256 -3.1362,0.84451 -4.5159,5.79584 -2.1659,7.77322 1.6455,1.38457 2.793,1.21976 8.7658,-1.25901 3.5007,-1.45283 7.6468,-2.00593 8.0067,-1.0681 0.1897,0.49455 -0.017,0.56491 -2.2469,0.76581 -2.3101,0.2081 -4.0436,0.73357 -7.2454,2.19629 -2.9723,1.35788 -5.5942,1.73093 -7.1459,1.01675 z"
       id="path14085-74-3" /><path
       style="fill:#ffffff;fill-opacity:1;stroke-width:0.264583"
       d="m 1887.5768,433.94287 c -1.0428,-0.47991 -1.8226,-1.35597 -1.5704,-1.76411 0.1167,-0.18887 0.089,-0.25393 -0.068,-0.15726 -1.8403,1.1374 -0.7661,-6.23214 1.1253,-7.71994 0.8387,-0.65972 0.5884,-0.82984 -1.2211,-0.82984 -3.2481,0 -4.7006,0.75198 -12.6837,6.56678 -4.8887,3.56082 -8.5853,4.11888 -10.6928,1.61426 -1.185,-1.40832 -0.8221,-2.45422 0.394,-1.13549 2.1801,2.36397 5.1921,1.82496 9.9019,-1.77196 7.2355,-5.52582 9.0651,-6.43647 12.9646,-6.453 3.914,-0.0166 6.5645,1.50314 3.8815,2.2256 -3.1363,0.84451 -4.5159,5.79584 -2.1659,7.77322 1.6454,1.38457 2.793,1.21976 8.7657,-1.25901 3.5007,-1.45283 7.6469,-2.00593 8.0067,-1.0681 0.1898,0.49455 -0.017,0.56491 -2.2469,0.76581 -2.31,0.2081 -4.0435,0.73357 -7.2453,2.19629 -2.9723,1.35788 -5.5942,1.73093 -7.146,1.01675 z"
       id="path14085-894-9" /><path
       style="fill:#ffffff;fill-opacity:1;stroke-width:0.264583"
       d="m 1848.6408,354.1242 c -1.0427,-0.47991 -1.8226,-1.35597 -1.5703,-1.76411 0.1167,-0.18887 0.089,-0.25393 -0.068,-0.15726 -1.8404,1.1374 -0.7662,-6.23214 1.1253,-7.71994 0.8387,-0.65972 0.5883,-0.82984 -1.2211,-0.82984 -3.2482,0 -4.7006,0.75198 -12.6838,6.56678 -4.8886,3.56082 -8.5852,4.11888 -10.6927,1.61426 -1.185,-1.40832 -0.8221,-2.45422 0.394,-1.13549 2.18,2.36397 5.192,1.82496 9.9018,-1.77196 7.2356,-5.52582 9.0651,-6.43647 12.9646,-6.453 3.9141,-0.0166 6.5646,1.50314 3.8816,2.2256 -3.1363,0.84451 -4.516,5.79584 -2.166,7.77322 1.6455,1.38457 2.793,1.21976 8.7658,-1.25901 3.5007,-1.45283 7.6468,-2.00593 8.0067,-1.0681 0.1898,0.49455 -0.017,0.56491 -2.2469,0.76581 -2.31,0.2081 -4.0435,0.73357 -7.2453,2.19629 -2.9724,1.35788 -5.5942,1.73093 -7.146,1.01675 z"
       id="path14085-63-3" /><path
       style="fill:#ffffff;fill-opacity:1;stroke-width:0.264583"
       d="m 1988.8102,175.01889 c -1.0428,-0.47991 -1.8226,-1.35597 -1.5703,-1.76411 0.1167,-0.18887 0.089,-0.25393 -0.068,-0.15726 -1.8404,1.1374 -0.7662,-6.23214 1.1252,-7.71994 0.8387,-0.65972 0.5884,-0.82984 -1.221,-0.82984 -3.2482,0 -4.7006,0.75198 -12.6838,6.56678 -4.8887,3.56082 -8.5852,4.11888 -10.6927,1.61426 -1.185,-1.40832 -0.8221,-2.45422 0.394,-1.13549 2.18,2.36397 5.192,1.82496 9.9018,-1.77196 7.2356,-5.52582 9.0651,-6.43647 12.9646,-6.453 3.9141,-0.0166 6.5645,1.50314 3.8816,2.2256 -3.1363,0.84451 -4.516,5.79584 -2.166,7.77322 1.6455,1.38457 2.793,1.21976 8.7658,-1.25901 3.5007,-1.45283 7.6468,-2.00593 8.0067,-1.0681 0.1898,0.49455 -0.017,0.56491 -2.2469,0.76581 -2.3101,0.2081 -4.0435,0.73357 -7.2454,2.19629 -2.9723,1.35788 -5.5942,1.73093 -7.1459,1.01675 z"
       id="path14085-55-2" /><path
       style="fill:#ffffff;fill-opacity:1;stroke-width:0.264583"
       d="m 2148.4475,134.13616 c -1.0427,-0.47991 -1.8225,-1.35597 -1.5703,-1.76411 0.1167,-0.18887 0.089,-0.25393 -0.068,-0.15726 -1.8403,1.1374 -0.7662,-6.23214 1.1253,-7.71994 0.8387,-0.65972 0.5883,-0.82984 -1.2211,-0.82984 -3.2481,0 -4.7006,0.75198 -12.6838,6.56678 -4.8886,3.56082 -8.5852,4.11888 -10.6927,1.61426 -1.185,-1.40832 -0.8221,-2.45422 0.394,-1.13549 2.18,2.36397 5.1921,1.82496 9.9019,-1.77196 7.2355,-5.52582 9.065,-6.43647 12.9645,-6.453 3.9141,-0.0166 6.5646,1.50314 3.8816,2.2256 -3.1363,0.84451 -4.5159,5.79584 -2.1659,7.77322 1.6454,1.38457 2.7929,1.21976 8.7657,-1.25901 3.5007,-1.45283 7.6468,-2.00593 8.0067,-1.0681 0.1898,0.49455 -0.017,0.56491 -2.2469,0.76581 -2.31,0.2081 -4.0435,0.73357 -7.2453,2.19629 -2.9723,1.35788 -5.5942,1.73093 -7.146,1.01675 z"
       id="path14085-03-4" /><path
       style="fill:#ffffff;fill-opacity:1;stroke-width:0.264583"
       d="m 2411.2651,67.945056 c -1.0427,-0.4799 -1.8226,-1.35596 -1.5703,-1.7641 0.1167,-0.18887 0.089,-0.25394 -0.068,-0.15726 -1.8404,1.1374 -0.7662,-6.23215 1.1252,-7.71995 0.8388,-0.65971 0.5884,-0.82983 -1.221,-0.82983 -3.2482,0 -4.7006,0.75198 -12.6838,6.56677 -4.8886,3.56083 -8.5852,4.11888 -10.6927,1.61426 -1.185,-1.40832 -0.8221,-2.45421 0.394,-1.13549 2.18,2.36397 5.192,1.82496 9.9018,-1.77196 7.2356,-5.52581 9.0651,-6.43646 12.9646,-6.453 3.9141,-0.0166 6.5646,1.50314 3.8816,2.2256 -3.1363,0.84451 -4.516,5.79584 -2.166,7.77323 1.6455,1.38457 2.793,1.21975 8.7658,-1.25902 3.5007,-1.45283 7.6468,-2.00593 8.0067,-1.06809 0.1898,0.49455 -0.017,0.56491 -2.2469,0.7658 -2.31,0.2081 -4.0435,0.73357 -7.2453,2.19629 -2.9724,1.35788 -5.5942,1.73093 -7.146,1.01675 z"
       id="path14085-122-1" /><path
       style="fill:#ffffff;fill-opacity:1;stroke-width:0.264583"
       d="m 2553.3813,110.7746 c -1.0428,-0.47991 -1.8226,-1.35597 -1.5703,-1.76411 0.1167,-0.18887 0.089,-0.25393 -0.068,-0.15726 -1.8404,1.1374 -0.7662,-6.23214 1.1252,-7.71994 0.8387,-0.65972 0.5884,-0.82984 -1.221,-0.82984 -3.2482,0 -4.7007,0.75198 -12.6838,6.56678 -4.8887,3.56082 -8.5852,4.11888 -10.6927,1.61426 -1.1851,-1.40832 -0.8221,-2.45422 0.394,-1.13549 2.18,2.36397 5.192,1.82496 9.9018,-1.77196 7.2355,-5.52582 9.0651,-6.436474 12.9646,-6.453004 3.914,-0.0166 6.5645,1.503144 3.8815,2.225604 -3.1362,0.84451 -4.5159,5.79584 -2.1659,7.77322 1.6455,1.38457 2.793,1.21976 8.7658,-1.25901 3.5007,-1.45283 7.6468,-2.00593 8.0067,-1.0681 0.1897,0.49455 -0.017,0.56491 -2.2469,0.76581 -2.3101,0.2081 -4.0436,0.73357 -7.2454,2.19629 -2.9723,1.35788 -5.5942,1.73093 -7.1459,1.01675 z"
       id="path14085-09-3" /><path
       style="fill:#ffffff;fill-opacity:1;stroke-width:0.264583"
       d="m 2615.6788,326.86905 c -1.0428,-0.47991 -1.8226,-1.35597 -1.5703,-1.76411 0.1167,-0.18887 0.089,-0.25393 -0.068,-0.15726 -1.8404,1.1374 -0.7662,-6.23214 1.1252,-7.71994 0.8387,-0.65972 0.5884,-0.82984 -1.221,-0.82984 -3.2482,0 -4.7007,0.75198 -12.6838,6.56678 -4.8887,3.56082 -8.5852,4.11888 -10.6927,1.61426 -1.1851,-1.40832 -0.8222,-2.45422 0.394,-1.13549 2.18,2.36397 5.192,1.82496 9.9018,-1.77196 7.2355,-5.52582 9.0651,-6.43647 12.9646,-6.453 3.914,-0.0166 6.5645,1.50314 3.8815,2.2256 -3.1362,0.84451 -4.5159,5.79584 -2.1659,7.77322 1.6455,1.38457 2.793,1.21976 8.7658,-1.25901 3.5007,-1.45283 7.6468,-2.00593 8.0067,-1.0681 0.1897,0.49455 -0.017,0.56491 -2.2469,0.76581 -2.3101,0.2081 -4.0436,0.73357 -7.2454,2.19629 -2.9723,1.35788 -5.5942,1.73093 -7.1459,1.01675 z"
       id="path14085-65-2" /><path
       style="fill:#ffffff;fill-opacity:1;stroke-width:0.264583"
       d="m 2385.9567,550.75069 c -1.0427,-0.47991 -1.8225,-1.35597 -1.5703,-1.76411 0.1168,-0.18887 0.089,-0.25393 -0.068,-0.15726 -1.8403,1.1374 -0.7661,-6.23214 1.1253,-7.71994 0.8387,-0.65972 0.5884,-0.82984 -1.2211,-0.82984 -3.2481,0 -4.7006,0.75198 -12.6837,6.56678 -4.8887,3.56082 -8.5853,4.11888 -10.6928,1.61426 -1.185,-1.40832 -0.8221,-2.45422 0.394,-1.13549 2.1801,2.36397 5.1921,1.82496 9.9019,-1.77196 7.2355,-5.52582 9.0651,-6.43647 12.9646,-6.453 3.914,-0.0166 6.5645,1.50314 3.8815,2.2256 -3.1363,0.84451 -4.5159,5.79584 -2.1659,7.77322 1.6454,1.38457 2.793,1.21976 8.7657,-1.25901 3.5007,-1.45283 7.6469,-2.00593 8.0067,-1.0681 0.1898,0.49455 -0.017,0.56491 -2.2469,0.76581 -2.31,0.2081 -4.0435,0.73357 -7.2453,2.19629 -2.9723,1.35788 -5.5942,1.73093 -7.146,1.01675 z"
       id="path14085-120-0" /><path
       style="fill:#ffffff;fill-opacity:1;stroke-width:0.264583"
       d="m 2055.0013,634.46295 c -1.0428,-0.47991 -1.8226,-1.35597 -1.5703,-1.76411 0.1167,-0.18887 0.089,-0.25393 -0.068,-0.15726 -1.8404,1.1374 -0.7662,-6.23214 1.1252,-7.71994 0.8387,-0.65972 0.5884,-0.82984 -1.221,-0.82984 -3.2482,0 -4.7007,0.75198 -12.6838,6.56678 -4.8887,3.56082 -8.5852,4.11888 -10.6927,1.61426 -1.1851,-1.40832 -0.8222,-2.45422 0.394,-1.13549 2.18,2.36397 5.192,1.82496 9.9018,-1.77196 7.2355,-5.52582 9.0651,-6.43647 12.9646,-6.453 3.914,-0.0166 6.5645,1.50314 3.8815,2.2256 -3.1362,0.84451 -4.5159,5.79584 -2.1659,7.77322 1.6455,1.38457 2.793,1.21976 8.7658,-1.25901 3.5007,-1.45283 7.6468,-2.00593 8.0067,-1.0681 0.1897,0.49455 -0.017,0.56491 -2.2469,0.76581 -2.3101,0.2081 -4.0436,0.73357 -7.2454,2.19629 -2.9723,1.35788 -5.5942,1.73093 -7.1459,1.01675 z"
       id="path14085-15-2" /><path
       style="fill:#ffffff;fill-opacity:1;stroke-width:0.264583"
       d="m 1986.8634,774.63232 c -1.0428,-0.47991 -1.8226,-1.35597 -1.5703,-1.76411 0.1167,-0.18887 0.089,-0.25393 -0.068,-0.15726 -1.8404,1.1374 -0.7662,-6.23214 1.1252,-7.71994 0.8387,-0.65972 0.5884,-0.82984 -1.221,-0.82984 -3.2482,0 -4.7006,0.75198 -12.6838,6.56678 -4.8887,3.56082 -8.5852,4.11888 -10.6927,1.61426 -1.1851,-1.40832 -0.8221,-2.45422 0.394,-1.13549 2.18,2.36397 5.192,1.82496 9.9018,-1.77196 7.2356,-5.52582 9.0651,-6.43647 12.9646,-6.453 3.914,-0.0166 6.5645,1.50314 3.8816,2.2256 -3.1363,0.84451 -4.516,5.79584 -2.166,7.77322 1.6455,1.38457 2.793,1.21976 8.7658,-1.25901 3.5007,-1.45283 7.6468,-2.00593 8.0067,-1.0681 0.1898,0.49455 -0.017,0.56491 -2.2469,0.76581 -2.3101,0.2081 -4.0435,0.73357 -7.2454,2.19629 -2.9723,1.35788 -5.5942,1.73093 -7.1459,1.01675 z"
       id="path14085-31-0" /><path
       style="fill:#ffffff;fill-opacity:1;stroke-width:0.264583"
       d="m 2473.5626,1111.4282 c -1.0427,-0.4799 -1.8226,-1.356 -1.5703,-1.7641 0.1167,-0.1889 0.089,-0.254 -0.068,-0.1573 -1.8404,1.1374 -0.7662,-6.2321 1.1252,-7.7199 0.8388,-0.6597 0.5884,-0.8299 -1.221,-0.8299 -3.2482,0 -4.7006,0.752 -12.6838,6.5668 -4.8886,3.5608 -8.5852,4.1189 -10.6927,1.6143 -1.185,-1.4083 -0.8221,-2.4543 0.394,-1.1355 2.18,2.364 5.192,1.8249 9.9018,-1.772 7.2356,-5.5258 9.0651,-6.4364 12.9646,-6.453 3.9141,-0.017 6.5646,1.5032 3.8816,2.2256 -3.1363,0.8445 -4.516,5.7959 -2.166,7.7732 1.6455,1.3846 2.793,1.2198 8.7658,-1.259 3.5007,-1.4528 7.6468,-2.0059 8.0067,-1.0681 0.1898,0.4946 -0.017,0.5649 -2.2469,0.7658 -2.31,0.2081 -4.0435,0.7336 -7.2453,2.1963 -2.9724,1.3579 -5.5943,1.731 -7.146,1.0168 z"
       id="path14085-082-2" /><path
       style="fill:#ffffff;fill-opacity:1;stroke-width:0.264583"
       d="m 2662.4019,1232.1296 c -1.0427,-0.4799 -1.8226,-1.356 -1.5703,-1.7641 0.1167,-0.1889 0.089,-0.2539 -0.068,-0.1573 -1.8404,1.1374 -0.7662,-6.2321 1.1252,-7.7199 0.8387,-0.6597 0.5884,-0.8298 -1.221,-0.8298 -3.2482,0 -4.7006,0.7519 -12.6838,6.5667 -4.8886,3.5609 -8.5852,4.1189 -10.6927,1.6143 -1.185,-1.4083 -0.8221,-2.4542 0.394,-1.1355 2.18,2.364 5.192,1.825 9.9018,-1.772 7.2356,-5.5258 9.0651,-6.4364 12.9646,-6.4529 3.9141,-0.017 6.5646,1.5031 3.8816,2.2256 -3.1363,0.8445 -4.516,5.7958 -2.166,7.7732 1.6455,1.3845 2.793,1.2197 8.7658,-1.259 3.5007,-1.4529 7.6468,-2.006 8.0067,-1.0681 0.1898,0.4945 -0.017,0.5649 -2.2469,0.7658 -2.3101,0.2081 -4.0435,0.7335 -7.2453,2.1963 -2.9724,1.3578 -5.5943,1.7309 -7.146,1.0167 z"
       id="path14085-23-8" /><path
       style="fill:#ffffff;fill-opacity:1;stroke-width:0.264583"
       d="m 2701.3378,1224.3424 c -1.0427,-0.4799 -1.8225,-1.356 -1.5703,-1.7641 0.1167,-0.1889 0.089,-0.2539 -0.068,-0.1573 -1.8403,1.1374 -0.7661,-6.2321 1.1253,-7.7199 0.8387,-0.6597 0.5884,-0.8298 -1.2211,-0.8298 -3.2481,0 -4.7006,0.7519 -12.6837,6.5667 -4.8887,3.5609 -8.5853,4.1189 -10.6928,1.6143 -1.185,-1.4083 -0.8221,-2.4542 0.394,-1.1355 2.18,2.364 5.1921,1.825 9.9019,-1.7719 7.2355,-5.5259 9.0651,-6.4365 12.9646,-6.453 3.914,-0.017 6.5645,1.5031 3.8815,2.2256 -3.1363,0.8445 -4.5159,5.7958 -2.1659,7.7732 1.6454,1.3845 2.793,1.2197 8.7657,-1.259 3.5007,-1.4529 7.6468,-2.006 8.0067,-1.0681 0.1898,0.4945 -0.017,0.5649 -2.2469,0.7658 -2.31,0.2081 -4.0435,0.7335 -7.2453,2.1963 -2.9723,1.3578 -5.5942,1.7309 -7.146,1.0167 z"
       id="path14085-910-5" /><path
       style="fill:#ffffff;fill-opacity:1;stroke-width:0.264583"
       d="m 2808.4116,1111.4282 c -1.0427,-0.4799 -1.8225,-1.356 -1.5703,-1.7641 0.1167,-0.1889 0.089,-0.254 -0.068,-0.1573 -1.8403,1.1374 -0.7661,-6.2321 1.1253,-7.7199 0.8387,-0.6597 0.5884,-0.8299 -1.2211,-0.8299 -3.2481,0 -4.7006,0.752 -12.6837,6.5668 -4.8887,3.5608 -8.5853,4.1189 -10.6928,1.6143 -1.185,-1.4083 -0.8221,-2.4543 0.394,-1.1355 2.18,2.364 5.1921,1.8249 9.9019,-1.772 7.2355,-5.5258 9.0651,-6.4364 12.9646,-6.453 3.914,-0.017 6.5645,1.5032 3.8815,2.2256 -3.1363,0.8445 -4.5159,5.7959 -2.1659,7.7732 1.6454,1.3846 2.793,1.2198 8.7657,-1.259 3.5007,-1.4528 7.6468,-2.0059 8.0067,-1.0681 0.1898,0.4946 -0.017,0.5649 -2.2469,0.7658 -2.31,0.2081 -4.0435,0.7336 -7.2453,2.1963 -2.9723,1.3579 -5.5942,1.731 -7.146,1.0168 z"
       id="path14085-53-5" /><path
       style="fill:#ffffff;fill-opacity:1;stroke-width:0.264583"
       d="m 2820.0925,1010.1947 c -1.0428,-0.4799 -1.8226,-1.3559 -1.5704,-1.7641 0.1167,-0.1888 0.089,-0.2539 -0.068,-0.1572 -1.8403,1.1374 -0.7661,-6.2322 1.1253,-7.72 0.8387,-0.65969 0.5884,-0.82979 -1.2211,-0.82979 -3.2481,0 -4.7006,0.75199 -12.6837,6.56679 -4.8887,3.5608 -8.5853,4.1189 -10.6928,1.6142 -1.185,-1.4083 -0.8221,-2.4542 0.394,-1.1355 2.1801,2.364 5.1921,1.825 9.9019,-1.7719 7.2355,-5.52579 9.0651,-6.43649 12.9646,-6.45299 3.914,-0.017 6.5645,1.50309 3.8815,2.22559 -3.1363,0.8445 -4.5159,5.7958 -2.1659,7.7732 1.6454,1.3846 2.793,1.2198 8.7657,-1.259 3.5007,-1.4528 7.6468,-2.0059 8.0067,-1.0681 0.1898,0.4945 -0.017,0.5649 -2.2469,0.7658 -2.31,0.2081 -4.0435,0.7336 -7.2453,2.1963 -2.9723,1.3579 -5.5942,1.7309 -7.146,1.0167 z"
       id="path14085-657-9" /><path
       style="fill:#ffffff;fill-opacity:1;stroke-width:0.264583"
       d="m 2335.34,967.36521 c -1.0427,-0.4799 -1.8225,-1.356 -1.5703,-1.7641 0.1167,-0.1889 0.089,-0.2539 -0.068,-0.1573 -1.8404,1.1374 -0.7662,-6.2321 1.1253,-7.7199 0.8387,-0.6597 0.5883,-0.8298 -1.2211,-0.8298 -3.2481,0 -4.7006,0.7519 -12.6838,6.5667 -4.8886,3.5609 -8.5852,4.1189 -10.6927,1.6143 -1.185,-1.4083 -0.8221,-2.4542 0.394,-1.1355 2.18,2.364 5.1921,1.825 9.9019,-1.772 7.2355,-5.5258 9.065,-6.4364 12.9645,-6.453 3.9141,-0.017 6.5646,1.5032 3.8816,2.2256 -3.1363,0.8446 -4.5159,5.7959 -2.1659,7.7733 1.6454,1.3845 2.7929,1.2197 8.7657,-1.259 3.5007,-1.4529 7.6468,-2.006 8.0067,-1.0681 0.1898,0.4945 -0.017,0.5649 -2.2469,0.7658 -2.31,0.2081 -4.0435,0.7335 -7.2453,2.1963 -2.9724,1.3578 -5.5942,1.7309 -7.146,1.0167 z"
       id="path14085-54-8" /><path
       style="fill:#ffffff;fill-opacity:1;stroke-width:0.264583"
       d="m 1994.6506,616.94178 c -1.0428,-0.47991 -1.8226,-1.35597 -1.5703,-1.76411 0.1167,-0.18887 0.089,-0.25393 -0.068,-0.15726 -1.8404,1.1374 -0.7662,-6.23214 1.1252,-7.71994 0.8387,-0.65972 0.5884,-0.82984 -1.221,-0.82984 -3.2482,0 -4.7007,0.75198 -12.6838,6.56678 -4.8887,3.56082 -8.5852,4.11888 -10.6927,1.61426 -1.1851,-1.40832 -0.8221,-2.45422 0.394,-1.13549 2.18,2.36397 5.192,1.82496 9.9018,-1.77196 7.2355,-5.52582 9.0651,-6.43647 12.9646,-6.453 3.914,-0.0166 6.5645,1.50314 3.8815,2.2256 -3.1362,0.84451 -4.5159,5.79584 -2.1659,7.77322 1.6455,1.38457 2.793,1.21976 8.7658,-1.25901 3.5007,-1.45283 7.6468,-2.00593 8.0067,-1.0681 0.1897,0.49455 -0.017,0.56491 -2.2469,0.76581 -2.3101,0.2081 -4.0436,0.73357 -7.2454,2.19629 -2.9723,1.35788 -5.5942,1.73093 -7.1459,1.01675 z"
       id="path14085-24-3" /><path
       style="fill:#ffffff;fill-opacity:1;stroke-width:0.264583"
       d="m 2331.4464,624.72897 c -1.0427,-0.47991 -1.8225,-1.35597 -1.5703,-1.76411 0.1167,-0.18887 0.089,-0.25393 -0.068,-0.15726 -1.8403,1.1374 -0.7662,-6.23214 1.1253,-7.71994 0.8387,-0.65972 0.5883,-0.82984 -1.2211,-0.82984 -3.2481,0 -4.7006,0.75198 -12.6838,6.56678 -4.8886,3.56082 -8.5852,4.11888 -10.6927,1.61426 -1.185,-1.40832 -0.8221,-2.45422 0.394,-1.13549 2.18,2.36397 5.1921,1.82496 9.9019,-1.77196 7.2355,-5.52582 9.065,-6.43647 12.9645,-6.453 3.9141,-0.0166 6.5646,1.50314 3.8816,2.2256 -3.1363,0.84451 -4.5159,5.79584 -2.166,7.77322 1.6455,1.38457 2.793,1.21976 8.7658,-1.25901 3.5007,-1.45283 7.6468,-2.00593 8.0067,-1.0681 0.1898,0.49455 -0.017,0.56491 -2.2469,0.76581 -2.31,0.2081 -4.0435,0.73357 -7.2453,2.19629 -2.9723,1.35788 -5.5942,1.73093 -7.146,1.01675 z"
       id="path14085-86-4" /><path
       style="fill:#ffffff;fill-opacity:1;stroke-width:0.264583"
       d="m 2461.8818,611.10139 c -1.0427,-0.47991 -1.8226,-1.35597 -1.5703,-1.76411 0.1167,-0.18887 0.089,-0.25393 -0.068,-0.15726 -1.8404,1.1374 -0.7662,-6.23214 1.1253,-7.71994 0.8387,-0.65972 0.5883,-0.82984 -1.2211,-0.82984 -3.2482,0 -4.7006,0.75198 -12.6838,6.56678 -4.8886,3.56082 -8.5852,4.11888 -10.6927,1.61426 -1.185,-1.40832 -0.8221,-2.45422 0.394,-1.13549 2.18,2.36397 5.1921,1.82496 9.9019,-1.77196 7.2355,-5.52582 9.065,-6.43647 12.9645,-6.453 3.9141,-0.0166 6.5646,1.50314 3.8816,2.2256 -3.1363,0.84451 -4.516,5.79584 -2.166,7.77322 1.6455,1.38457 2.793,1.21976 8.7658,-1.25901 3.5007,-1.45283 7.6468,-2.00593 8.0067,-1.0681 0.1898,0.49455 -0.017,0.56491 -2.2469,0.76581 -2.31,0.2081 -4.0435,0.73357 -7.2453,2.19629 -2.9724,1.35788 -5.5942,1.73093 -7.146,1.01675 z"
       id="path14085-83-3" /><path
       style="fill:#ffffff;fill-opacity:1;stroke-width:0.264583"
       d="m 2779.2098,657.82451 c -1.0428,-0.47991 -1.8226,-1.35597 -1.5704,-1.76411 0.1168,-0.18887 0.089,-0.25393 -0.068,-0.15726 -1.8403,1.1374 -0.7661,-6.23214 1.1253,-7.71994 0.8387,-0.65972 0.5884,-0.82984 -1.2211,-0.82984 -3.2481,0 -4.7006,0.75198 -12.6837,6.56678 -4.8887,3.56082 -8.5853,4.11888 -10.6928,1.61426 -1.185,-1.40832 -0.8221,-2.45422 0.394,-1.13549 2.1801,2.36397 5.1921,1.82496 9.9019,-1.77196 7.2355,-5.52582 9.0651,-6.43647 12.9646,-6.453 3.914,-0.0166 6.5645,1.50314 3.8815,2.2256 -3.1363,0.84451 -4.5159,5.79584 -2.1659,7.77322 1.6454,1.38457 2.793,1.21976 8.7657,-1.25901 3.5007,-1.45283 7.6469,-2.00593 8.0067,-1.0681 0.1898,0.49455 -0.017,0.56491 -2.2469,0.76581 -2.31,0.2081 -4.0435,0.73357 -7.2453,2.19629 -2.9723,1.35788 -5.5942,1.73093 -7.146,1.01675 z"
       id="path14085-99-0" /><path
       style="fill:#ffffff;fill-opacity:1;stroke-width:0.264583"
       d="m 2853.188,517.65514 c -1.0428,-0.47991 -1.8226,-1.35597 -1.5704,-1.76411 0.1168,-0.18887 0.089,-0.25393 -0.068,-0.15726 -1.8403,1.1374 -0.7661,-6.23214 1.1253,-7.71994 0.8387,-0.65972 0.5884,-0.82984 -1.2211,-0.82984 -3.2481,0 -4.7006,0.75198 -12.6837,6.56678 -4.8887,3.56082 -8.5853,4.11888 -10.6928,1.61426 -1.185,-1.40832 -0.8221,-2.45422 0.394,-1.13549 2.1801,2.36397 5.1921,1.82496 9.9019,-1.77196 7.2355,-5.52582 9.0651,-6.43647 12.9646,-6.453 3.914,-0.0166 6.5645,1.50314 3.8815,2.2256 -3.1363,0.84451 -4.5159,5.79584 -2.1659,7.77322 1.6454,1.38457 2.793,1.21976 8.7657,-1.25901 3.5007,-1.45283 7.6469,-2.00593 8.0067,-1.0681 0.1898,0.49455 -0.017,0.56491 -2.2469,0.76581 -2.31,0.2081 -4.0435,0.73357 -7.2453,2.19629 -2.9723,1.35788 -5.5942,1.73093 -7.146,1.01675 z"
       id="path14085-552-4" /><path
       style="fill:#ffffff;fill-opacity:1;stroke-width:0.264583"
       d="m 2500.8178,504.02756 c -1.0428,-0.47991 -1.8226,-1.35597 -1.5704,-1.76411 0.1168,-0.18887 0.089,-0.25393 -0.068,-0.15726 -1.8403,1.1374 -0.7661,-6.23214 1.1253,-7.71994 0.8387,-0.65972 0.5884,-0.82984 -1.2211,-0.82984 -3.2481,0 -4.7006,0.75198 -12.6837,6.56678 -4.8887,3.56082 -8.5853,4.11888 -10.6928,1.61426 -1.185,-1.40832 -0.8221,-2.45422 0.394,-1.13549 2.1801,2.36397 5.1921,1.82496 9.9019,-1.77196 7.2355,-5.52582 9.0651,-6.43647 12.9646,-6.453 3.914,-0.0166 6.5645,1.50314 3.8815,2.2256 -3.1363,0.84451 -4.5159,5.79584 -2.1659,7.77322 1.6455,1.38457 2.793,1.21976 8.7657,-1.25901 3.5007,-1.45283 7.6469,-2.00593 8.0067,-1.0681 0.1898,0.49455 -0.017,0.56491 -2.2469,0.76581 -2.31,0.2081 -4.0435,0.73357 -7.2453,2.19629 -2.9723,1.35788 -5.5942,1.73093 -7.146,1.01675 z"
       id="path14085-45-4" /><path
       style="fill:#ffffff;fill-opacity:1;stroke-width:0.264583"
       d="m 2679.9231,433.94287 c -1.0428,-0.47991 -1.8226,-1.35597 -1.5703,-1.76411 0.1167,-0.18887 0.089,-0.25393 -0.068,-0.15726 -1.8404,1.1374 -0.7662,-6.23214 1.1252,-7.71994 0.8387,-0.65972 0.5884,-0.82984 -1.221,-0.82984 -3.2482,0 -4.7007,0.75198 -12.6838,6.56678 -4.8887,3.56082 -8.5852,4.11888 -10.6927,1.61426 -1.1851,-1.40832 -0.8222,-2.45422 0.394,-1.13549 2.18,2.36397 5.192,1.82496 9.9018,-1.77196 7.2355,-5.52582 9.0651,-6.43647 12.9646,-6.453 3.914,-0.0166 6.5645,1.50314 3.8815,2.2256 -3.1362,0.84451 -4.5159,5.79584 -2.1659,7.77322 1.6455,1.38457 2.793,1.21976 8.7658,-1.25901 3.5007,-1.45283 7.6468,-2.00593 8.0067,-1.0681 0.1897,0.49455 -0.017,0.56491 -2.2469,0.76581 -2.3101,0.2081 -4.0436,0.73357 -7.2454,2.19629 -2.9723,1.35788 -5.5942,1.73093 -7.1459,1.01675 z"
       id="path14085-59-1" /><path
       style="fill:#ffffff;fill-opacity:1;stroke-width:0.264583"
       d="m 2368.4356,381.37936 c -1.0428,-0.47991 -1.8226,-1.35597 -1.5704,-1.76411 0.1168,-0.18887 0.089,-0.25393 -0.068,-0.15726 -1.8403,1.1374 -0.7661,-6.23214 1.1253,-7.71994 0.8387,-0.65972 0.5884,-0.82984 -1.221,-0.82984 -3.2482,0 -4.7007,0.75198 -12.6838,6.56678 -4.8887,3.56082 -8.5852,4.11888 -10.6928,1.61426 -1.185,-1.40832 -0.8221,-2.45422 0.3941,-1.13549 2.18,2.36397 5.192,1.82496 9.9018,-1.77196 7.2355,-5.52582 9.0651,-6.43647 12.9646,-6.453 3.914,-0.0166 6.5645,1.50314 3.8815,2.2256 -3.1363,0.84451 -4.5159,5.79584 -2.1659,7.77322 1.6455,1.38457 2.793,1.21976 8.7657,-1.25901 3.5008,-1.45283 7.6469,-2.00593 8.0068,-1.0681 0.1897,0.49455 -0.017,0.56491 -2.2469,0.76581 -2.3101,0.2081 -4.0436,0.73357 -7.2454,2.19629 -2.9723,1.35788 -5.5942,1.73093 -7.1459,1.01675 z"
       id="path14085-997-5" /><path
       style="fill:#ffffff;fill-opacity:1;stroke-width:0.264583"
       d="m 2119.2456,317.13506 c -1.0428,-0.47991 -1.8226,-1.35597 -1.5703,-1.76411 0.1167,-0.18887 0.089,-0.25393 -0.068,-0.15726 -1.8404,1.1374 -0.7662,-6.23214 1.1252,-7.71994 0.8387,-0.65972 0.5884,-0.82984 -1.221,-0.82984 -3.2482,0 -4.7007,0.75198 -12.6838,6.56678 -4.8887,3.56082 -8.5852,4.11888 -10.6927,1.61426 -1.1851,-1.40832 -0.8221,-2.45422 0.394,-1.13549 2.18,2.36397 5.192,1.82496 9.9018,-1.77196 7.2355,-5.52582 9.0651,-6.43647 12.9646,-6.453 3.914,-0.0166 6.5645,1.50314 3.8815,2.2256 -3.1362,0.84451 -4.5159,5.79584 -2.1659,7.77322 1.6455,1.38457 2.793,1.21976 8.7658,-1.25901 3.5007,-1.45283 7.6468,-2.00593 8.0067,-1.0681 0.1897,0.49455 -0.017,0.56491 -2.2469,0.76581 -2.3101,0.2081 -4.0436,0.73357 -7.2454,2.19629 -2.9723,1.35788 -5.5942,1.73093 -7.1459,1.01675 z"
       id="path14085-898-3" /><path
       style="fill:#ffffff;fill-opacity:1;stroke-width:0.264583"
       d="m 2035.5333,468.98522 c -1.0427,-0.47991 -1.8226,-1.35597 -1.5703,-1.76411 0.1167,-0.18887 0.089,-0.25393 -0.068,-0.15726 -1.8404,1.1374 -0.7662,-6.23214 1.1253,-7.71994 0.8387,-0.65972 0.5883,-0.82984 -1.2211,-0.82984 -3.2482,0 -4.7006,0.75198 -12.6838,6.56678 -4.8886,3.56082 -8.5852,4.11888 -10.6927,1.61426 -1.185,-1.40832 -0.8221,-2.45422 0.394,-1.13549 2.18,2.36397 5.192,1.82496 9.9018,-1.77196 7.2356,-5.52582 9.0651,-6.43647 12.9646,-6.453 3.9141,-0.0166 6.5646,1.50314 3.8816,2.2256 -3.1363,0.84451 -4.516,5.79584 -2.166,7.77322 1.6455,1.38457 2.793,1.21976 8.7658,-1.25901 3.5007,-1.45283 7.6468,-2.00593 8.0067,-1.0681 0.1898,0.49455 -0.017,0.56491 -2.2469,0.76581 -2.31,0.2081 -4.0435,0.73357 -7.2453,2.19629 -2.9724,1.35788 -5.5942,1.73093 -7.146,1.01675 z"
       id="path14085-14-9" /><path
       style="fill:#ffffff;fill-opacity:1;stroke-width:0.264583"
       d="m 2286.6701,348.28381 c -1.0427,-0.47991 -1.8226,-1.35597 -1.5703,-1.76411 0.1167,-0.18887 0.089,-0.25393 -0.068,-0.15726 -1.8404,1.1374 -0.7662,-6.23214 1.1253,-7.71994 0.8386,-0.65972 0.5883,-0.82984 -1.2211,-0.82984 -3.2482,0 -4.7006,0.75198 -12.6838,6.56678 -4.8886,3.56082 -8.5852,4.11888 -10.6927,1.61426 -1.185,-1.40832 -0.8221,-2.45422 0.394,-1.13549 2.18,2.36397 5.192,1.82496 9.9018,-1.77196 7.2356,-5.52582 9.0651,-6.43647 12.9646,-6.453 3.9141,-0.0166 6.5646,1.50314 3.8816,2.2256 -3.1363,0.84451 -4.516,5.79584 -2.166,7.77322 1.6455,1.38457 2.793,1.21976 8.7658,-1.25901 3.5007,-1.45283 7.6468,-2.00593 8.0067,-1.0681 0.1898,0.49455 -0.017,0.56491 -2.2469,0.76581 -2.31,0.2081 -4.0435,0.73357 -7.2453,2.19629 -2.9724,1.35788 -5.5942,1.73093 -7.146,1.01675 z"
       id="path14085-07-1" /><path
       style="fill:#ffffff;fill-opacity:1;stroke-width:0.264583"
       d="m 1887.5768,603.3142 c -1.0428,-0.47991 -1.8226,-1.35597 -1.5704,-1.76411 0.1167,-0.18887 0.089,-0.25393 -0.068,-0.15726 -1.8403,1.1374 -0.7661,-6.23214 1.1253,-7.71994 0.8387,-0.65972 0.5884,-0.82984 -1.2211,-0.82984 -3.2481,0 -4.7006,0.75198 -12.6837,6.56678 -4.8887,3.56082 -8.5853,4.11888 -10.6928,1.61426 -1.185,-1.40832 -0.8221,-2.45422 0.394,-1.13549 2.1801,2.36397 5.1921,1.82496 9.9019,-1.77196 7.2355,-5.52582 9.0651,-6.43647 12.9646,-6.453 3.914,-0.0166 6.5645,1.50314 3.8815,2.2256 -3.1363,0.84451 -4.5159,5.79584 -2.1659,7.77322 1.6454,1.38457 2.793,1.21976 8.7657,-1.25901 3.5007,-1.45283 7.6469,-2.00593 8.0067,-1.0681 0.1898,0.49455 -0.017,0.56491 -2.2469,0.76581 -2.31,0.2081 -4.0435,0.73357 -7.2453,2.19629 -2.9723,1.35788 -5.5942,1.73093 -7.146,1.01675 z"
       id="path14085-191-0" /><path
       style="fill:#ffffff;fill-opacity:1;stroke-width:0.264583"
       d="m 1731.833,823.30225 c -1.0427,-0.47991 -1.8226,-1.35597 -1.5703,-1.76411 0.1167,-0.18887 0.089,-0.25393 -0.068,-0.15726 -1.8404,1.1374 -0.7662,-6.23214 1.1252,-7.71994 0.8387,-0.65972 0.5884,-0.82984 -1.221,-0.82984 -3.2482,0 -4.7006,0.75198 -12.6838,6.56678 -4.8886,3.56082 -8.5852,4.11888 -10.6927,1.61426 -1.185,-1.40832 -0.8221,-2.45422 0.394,-1.13549 2.18,2.36397 5.192,1.82496 9.9018,-1.77196 7.2356,-5.52582 9.0651,-6.43647 12.9646,-6.453 3.9141,-0.0166 6.5646,1.50314 3.8816,2.2256 -3.1363,0.84451 -4.516,5.79584 -2.166,7.77322 1.6455,1.38457 2.793,1.21976 8.7658,-1.25901 3.5007,-1.45283 7.6468,-2.00593 8.0067,-1.0681 0.1898,0.49455 -0.017,0.56491 -2.2469,0.76581 -2.3101,0.2081 -4.0435,0.73357 -7.2453,2.19629 -2.9724,1.35788 -5.5943,1.73093 -7.146,1.01675 z"
       id="path14085-77-1" /><path
       style="fill:#ffffff;fill-opacity:1;stroke-width:0.264583"
       d="m 1712.365,932.32291 c -1.0427,-0.4799 -1.8225,-1.356 -1.5703,-1.7641 0.1167,-0.1889 0.089,-0.254 -0.068,-0.1573 -1.8403,1.1374 -0.7662,-6.2321 1.1253,-7.7199 0.8387,-0.6598 0.5883,-0.8299 -1.2211,-0.8299 -3.2481,0 -4.7006,0.752 -12.6838,6.5668 -4.8886,3.5608 -8.5852,4.1189 -10.6927,1.6143 -1.185,-1.4084 -0.8221,-2.4543 0.394,-1.1355 2.18,2.3639 5.1921,1.8249 9.9019,-1.772 7.2355,-5.5258 9.065,-6.4365 12.9645,-6.453 3.9141,-0.017 6.5646,1.5031 3.8816,2.2256 -3.1363,0.8445 -4.5159,5.7958 -2.1659,7.7732 1.6454,1.3846 2.7929,1.2198 8.7657,-1.259 3.5007,-1.4528 7.6468,-2.0059 8.0067,-1.0681 0.1898,0.4946 -0.017,0.5649 -2.2469,0.7658 -2.31,0.2081 -4.0435,0.7336 -7.2453,2.1963 -2.9723,1.3579 -5.5942,1.7309 -7.146,1.0168 z"
       id="path14085-16-2" /><path
       style="fill:#ffffff;fill-opacity:1;stroke-width:0.264583"
       d="m 1634.4932,1140.6301 c -1.0428,-0.4799 -1.8226,-1.356 -1.5704,-1.7641 0.1168,-0.1889 0.089,-0.2539 -0.068,-0.1573 -1.8403,1.1374 -0.7661,-6.2321 1.1253,-7.7199 0.8387,-0.6597 0.5884,-0.8298 -1.2211,-0.8298 -3.2481,0 -4.7006,0.7519 -12.6837,6.5667 -4.8887,3.5609 -8.5853,4.1189 -10.6928,1.6143 -1.185,-1.4083 -0.8221,-2.4542 0.394,-1.1355 2.1801,2.364 5.1921,1.825 9.9019,-1.7719 7.2355,-5.5259 9.0651,-6.4365 12.9646,-6.453 3.914,-0.017 6.5645,1.5031 3.8815,2.2256 -3.1363,0.8445 -4.5159,5.7958 -2.1659,7.7732 1.6454,1.3845 2.793,1.2197 8.7657,-1.259 3.5007,-1.4529 7.6469,-2.006 8.0067,-1.0681 0.1898,0.4945 -0.017,0.5649 -2.2469,0.7658 -2.31,0.2081 -4.0435,0.7335 -7.2453,2.1963 -2.9723,1.3578 -5.5942,1.7309 -7.146,1.0167 z"
       id="path14085-932-6" /><path
       style="fill:#ffffff;fill-opacity:1;stroke-width:0.264583"
       d="m 1761.035,1008.248 c -1.0428,-0.48 -1.8226,-1.356 -1.5704,-1.7642 0.1168,-0.1888 0.089,-0.2539 -0.068,-0.1572 -1.8403,1.1374 -0.7661,-6.2322 1.1253,-7.71999 0.8387,-0.6597 0.5884,-0.8298 -1.2211,-0.8298 -3.2481,0 -4.7006,0.752 -12.6837,6.56679 -4.8887,3.5608 -8.5853,4.1189 -10.6928,1.6142 -1.185,-1.4083 -0.8221,-2.4542 0.394,-1.1354 2.1801,2.3639 5.1921,1.8249 9.9019,-1.772 7.2355,-5.52579 9.0651,-6.43649 12.9646,-6.45299 3.914,-0.017 6.5645,1.5031 3.8815,2.2256 -3.1363,0.8445 -4.5159,5.79579 -2.1659,7.77319 1.6454,1.3846 2.793,1.2198 8.7657,-1.259 3.5007,-1.4528 7.6469,-2.0059 8.0067,-1.0681 0.1898,0.4945 -0.017,0.5649 -2.2469,0.7658 -2.31,0.2081 -4.0435,0.7336 -7.2453,2.1963 -2.9723,1.3579 -5.5942,1.7309 -7.146,1.0168 z"
       id="path14085-44-1" /><path
       style="fill:#ffffff;fill-opacity:1;stroke-width:0.264583"
       d="m 1803.8645,1132.8429 c -1.0428,-0.4799 -1.8226,-1.356 -1.5703,-1.7641 0.1167,-0.1889 0.089,-0.2539 -0.068,-0.1573 -1.8404,1.1374 -0.7662,-6.2321 1.1252,-7.7199 0.8387,-0.6597 0.5884,-0.8298 -1.221,-0.8298 -3.2482,0 -4.7006,0.7519 -12.6838,6.5667 -4.8887,3.5609 -8.5852,4.1189 -10.6927,1.6143 -1.1851,-1.4083 -0.8221,-2.4542 0.394,-1.1355 2.18,2.364 5.192,1.825 9.9018,-1.7719 7.2355,-5.5259 9.0651,-6.4365 12.9646,-6.453 3.914,-0.017 6.5645,1.5031 3.8816,2.2256 -3.1363,0.8445 -4.516,5.7958 -2.166,7.7732 1.6455,1.3845 2.793,1.2197 8.7658,-1.259 3.5007,-1.4529 7.6468,-2.006 8.0067,-1.0681 0.1898,0.4945 -0.017,0.5649 -2.2469,0.7658 -2.3101,0.2081 -4.0436,0.7335 -7.2454,2.1963 -2.9723,1.3578 -5.5942,1.7309 -7.1459,1.0167 z"
       id="path14085-943-5" /><path
       style="fill:#ffffff;fill-opacity:1;stroke-width:0.264583"
       d="m 1872.0024,1031.6095 c -1.0428,-0.4799 -1.8226,-1.356 -1.5703,-1.7641 0.1167,-0.1889 0.089,-0.2539 -0.068,-0.1573 -1.8404,1.1374 -0.7662,-6.2321 1.1252,-7.7199 0.8387,-0.6597 0.5884,-0.8298 -1.221,-0.8298 -3.2482,0 -4.7007,0.7519 -12.6838,6.5667 -4.8887,3.5609 -8.5852,4.1189 -10.6927,1.6143 -1.1851,-1.4083 -0.8221,-2.4542 0.394,-1.1355 2.18,2.364 5.192,1.825 9.9018,-1.7719 7.2355,-5.5259 9.0651,-6.4365 12.9646,-6.4531 3.914,-0.017 6.5645,1.5032 3.8815,2.2256 -3.1362,0.8446 -4.5159,5.7959 -2.1659,7.7733 1.6455,1.3845 2.793,1.2197 8.7658,-1.259 3.5007,-1.4529 7.6468,-2.006 8.0067,-1.0681 0.1897,0.4945 -0.017,0.5649 -2.2469,0.7658 -2.3101,0.2081 -4.0436,0.7335 -7.2454,2.1963 -2.9723,1.3578 -5.5942,1.7309 -7.1459,1.0167 z"
       id="path14085-48-5" /><path
       style="fill:#ffffff;fill-opacity:1;stroke-width:0.264583"
       d="m 2101.7244,1090.0134 c -1.0427,-0.4799 -1.8226,-1.3559 -1.5703,-1.7641 0.1167,-0.1889 0.089,-0.2539 -0.068,-0.1572 -1.8404,1.1374 -0.7662,-6.2322 1.1253,-7.72 0.8387,-0.6597 0.5883,-0.8298 -1.2211,-0.8298 -3.2482,0 -4.7006,0.752 -12.6838,6.5668 -4.8886,3.5608 -8.5852,4.1188 -10.6927,1.6142 -1.185,-1.4083 -0.8221,-2.4542 0.394,-1.1355 2.18,2.364 5.192,1.825 9.9018,-1.7719 7.2356,-5.5259 9.0651,-6.4365 12.9646,-6.453 3.9141,-0.017 6.5646,1.5031 3.8816,2.2256 -3.1363,0.8445 -4.516,5.7958 -2.166,7.7732 1.6455,1.3846 2.793,1.2197 8.7658,-1.259 3.5007,-1.4529 7.6468,-2.006 8.0067,-1.0681 0.1898,0.4945 -0.017,0.5649 -2.2469,0.7658 -2.31,0.2081 -4.0435,0.7336 -7.2453,2.1963 -2.9724,1.3579 -5.5942,1.7309 -7.146,1.0167 z"
       id="path14085-895-6" /><path
       style="fill:#ffffff;fill-opacity:1;stroke-width:0.264583"
       d="m 2276.9361,1142.5769 c -1.0427,-0.4799 -1.8225,-1.356 -1.5703,-1.7641 0.1167,-0.1889 0.089,-0.2539 -0.068,-0.1573 -1.8404,1.1374 -0.7662,-6.2321 1.1253,-7.7199 0.8387,-0.6597 0.5883,-0.8298 -1.2211,-0.8298 -3.2481,0 -4.7006,0.7519 -12.6838,6.5667 -4.8886,3.5609 -8.5852,4.1189 -10.6927,1.6143 -1.185,-1.4083 -0.8221,-2.4542 0.394,-1.1355 2.18,2.364 5.1921,1.825 9.9019,-1.7719 7.2355,-5.5259 9.065,-6.4365 12.9645,-6.453 3.9141,-0.017 6.5646,1.5031 3.8816,2.2256 -3.1363,0.8445 -4.5159,5.7958 -2.166,7.7732 1.6455,1.3845 2.793,1.2197 8.7658,-1.259 3.5007,-1.4529 7.6468,-2.006 8.0067,-1.0681 0.1898,0.4945 -0.017,0.5649 -2.2469,0.7658 -2.31,0.2081 -4.0435,0.7335 -7.2453,2.1963 -2.9724,1.3578 -5.5942,1.7309 -7.146,1.0167 z"
       id="path14085-80-7" /><path
       style="fill:#ffffff;fill-opacity:1;stroke-width:0.264583"
       d="m 2234.1066,1045.2371 c -1.0427,-0.4799 -1.8226,-1.356 -1.5703,-1.7641 0.1167,-0.1889 0.089,-0.2539 -0.068,-0.1573 -1.8404,1.1374 -0.7662,-6.2321 1.1252,-7.7199 0.8387,-0.6597 0.5884,-0.8299 -1.221,-0.8299 -3.2482,0 -4.7007,0.752 -12.6838,6.5668 -4.8887,3.5608 -8.5852,4.1189 -10.6927,1.6143 -1.1851,-1.4083 -0.8221,-2.4542 0.394,-1.1355 2.18,2.364 5.192,1.825 9.9018,-1.772 7.2356,-5.5258 9.0651,-6.4364 12.9646,-6.453 3.914,-0.017 6.5645,1.5032 3.8816,2.2256 -3.1363,0.8445 -4.516,5.7959 -2.166,7.7733 1.6455,1.3845 2.793,1.2197 8.7658,-1.2591 3.5007,-1.4528 7.6468,-2.0059 8.0067,-1.0681 0.1898,0.4946 -0.017,0.565 -2.2469,0.7659 -2.3101,0.2081 -4.0435,0.7335 -7.2454,2.1962 -2.9723,1.3579 -5.5942,1.731 -7.1459,1.0168 z"
       id="path14085-60-3" /><path
       style="fill:#ffffff;fill-opacity:1;stroke-width:0.264583"
       d="m 2204.9046,811.62147 c -1.0427,-0.47991 -1.8225,-1.35597 -1.5703,-1.76411 0.1167,-0.18887 0.089,-0.25393 -0.068,-0.15726 -1.8403,1.1374 -0.7661,-6.23214 1.1253,-7.71994 0.8387,-0.65972 0.5884,-0.82984 -1.2211,-0.82984 -3.2481,0 -4.7006,0.75198 -12.6837,6.56678 -4.8887,3.56082 -8.5853,4.11888 -10.6928,1.61426 -1.185,-1.40832 -0.8221,-2.45422 0.394,-1.13549 2.18,2.36397 5.1921,1.82496 9.9019,-1.77196 7.2355,-5.52582 9.065,-6.43647 12.9646,-6.453 3.914,-0.0166 6.5645,1.50314 3.8815,2.2256 -3.1363,0.84451 -4.5159,5.79584 -2.1659,7.77322 1.6454,1.38457 2.793,1.21976 8.7657,-1.25901 3.5007,-1.45283 7.6468,-2.00593 8.0067,-1.0681 0.1898,0.49455 -0.017,0.56491 -2.2469,0.76581 -2.31,0.2081 -4.0435,0.73357 -7.2453,2.19629 -2.9723,1.35788 -5.5942,1.73093 -7.146,1.01675 z"
       id="path14085-13-1" /><path
       style="fill:#ffffff;fill-opacity:1;stroke-width:0.264583"
       d="m 2290.5637,871.97221 c -1.0427,-0.48 -1.8226,-1.356 -1.5703,-1.7641 0.1167,-0.1889 0.089,-0.254 -0.068,-0.1573 -1.8404,1.1374 -0.7662,-6.2321 1.1252,-7.7199 0.8387,-0.6598 0.5884,-0.8299 -1.221,-0.8299 -3.2482,0 -4.7006,0.752 -12.6838,6.5668 -4.8886,3.5608 -8.5852,4.1189 -10.6927,1.6143 -1.185,-1.4084 -0.8221,-2.4543 0.394,-1.1355 2.18,2.3639 5.192,1.8249 9.9018,-1.772 7.2356,-5.5258 9.0651,-6.4365 12.9646,-6.453 3.9141,-0.017 6.5646,1.5031 3.8816,2.2256 -3.1363,0.8445 -4.516,5.7958 -2.166,7.7732 1.6455,1.3846 2.793,1.2198 8.7658,-1.259 3.5007,-1.4528 7.6468,-2.0059 8.0067,-1.0681 0.1898,0.4946 -0.017,0.5649 -2.2469,0.7658 -2.3101,0.2081 -4.0435,0.7336 -7.2454,2.1963 -2.9723,1.3579 -5.5942,1.7309 -7.1459,1.0168 z"
       id="path14085-78-2" /><path
       style="fill:#ffffff;fill-opacity:1;stroke-width:0.264583"
       d="m 2528.0729,1000.4608 c -1.0427,-0.47999 -1.8226,-1.35599 -1.5703,-1.76419 0.1167,-0.1888 0.089,-0.2539 -0.068,-0.1572 -1.8404,1.1374 -0.7662,-6.2322 1.1253,-7.72 0.8387,-0.6597 0.5883,-0.8298 -1.2211,-0.8298 -3.2482,0 -4.7006,0.752 -12.6838,6.5668 -4.8886,3.56079 -8.5852,4.11889 -10.6927,1.6142 -1.185,-1.4083 -0.8221,-2.4542 0.394,-1.1354 2.18,2.3639 5.1921,1.8249 9.9019,-1.772 7.2355,-5.5258 9.065,-6.4365 12.9645,-6.453 3.9141,-0.017 6.5646,1.5031 3.8816,2.2256 -3.1363,0.8445 -4.516,5.7958 -2.166,7.7732 1.6455,1.38459 2.793,1.21979 8.7658,-1.259 3.5007,-1.4528 7.6468,-2.0059 8.0067,-1.0681 0.1898,0.4946 -0.017,0.5649 -2.2469,0.7658 -2.31,0.2081 -4.0435,0.7336 -7.2453,2.1963 -2.9724,1.35789 -5.5942,1.73089 -7.146,1.01679 z"
       id="path14085-941-1" /><path
       style="fill:#ffffff;fill-opacity:1;stroke-width:0.264583"
       d="m 2592.3172,1084.173 c -1.0427,-0.4799 -1.8226,-1.3559 -1.5703,-1.7641 0.1167,-0.1888 0.089,-0.2539 -0.068,-0.1572 -1.8404,1.1374 -0.7662,-6.2322 1.1253,-7.72 0.8387,-0.6597 0.5883,-0.8298 -1.2211,-0.8298 -3.2482,0 -4.7006,0.752 -12.6838,6.5668 -4.8886,3.5608 -8.5852,4.1188 -10.6927,1.6142 -1.185,-1.4083 -0.8221,-2.4542 0.394,-1.1355 2.18,2.364 5.192,1.825 9.9018,-1.7719 7.2356,-5.5258 9.0651,-6.4365 12.9646,-6.453 3.9141,-0.017 6.5646,1.5031 3.8816,2.2256 -3.1363,0.8445 -4.516,5.7958 -2.166,7.7732 1.6455,1.3846 2.793,1.2198 8.7658,-1.259 3.5007,-1.4528 7.6468,-2.006 8.0067,-1.0681 0.1898,0.4945 -0.017,0.5649 -2.2469,0.7658 -2.31,0.2081 -4.0435,0.7336 -7.2453,2.1963 -2.9724,1.3579 -5.5943,1.7309 -7.146,1.0167 z"
       id="path14085-915-3" /><path
       style="fill:#ffffff;fill-opacity:1;stroke-width:0.264583"
       d="m 2705.2314,957.63121 c -1.0427,-0.4799 -1.8225,-1.3559 -1.5703,-1.7641 0.1167,-0.1889 0.089,-0.2539 -0.068,-0.1572 -1.8403,1.1374 -0.7662,-6.2322 1.1253,-7.72 0.8387,-0.6597 0.5883,-0.8298 -1.2211,-0.8298 -3.2481,0 -4.7006,0.752 -12.6838,6.5668 -4.8886,3.5608 -8.5852,4.1188 -10.6927,1.6142 -1.185,-1.4083 -0.8221,-2.4542 0.394,-1.1355 2.18,2.364 5.1921,1.825 9.9019,-1.7719 7.2355,-5.5259 9.065,-6.4365 12.9645,-6.453 3.9141,-0.017 6.5646,1.5031 3.8816,2.2256 -3.1363,0.8445 -4.5159,5.7958 -2.1659,7.7732 1.6454,1.3846 2.793,1.2197 8.7657,-1.259 3.5007,-1.4529 7.6468,-2.006 8.0067,-1.0681 0.1898,0.4945 -0.017,0.5649 -2.2469,0.7658 -2.31,0.2081 -4.0435,0.7336 -7.2453,2.1963 -2.9723,1.3579 -5.5942,1.7309 -7.146,1.0167 z"
       id="path14085-62-6" /><path
       style="fill:#ffffff;fill-opacity:1;stroke-width:0.264583"
       d="m 2580.6364,973.20561 c -1.0427,-0.4799 -1.8225,-1.356 -1.5703,-1.7641 0.1167,-0.1889 0.089,-0.2539 -0.068,-0.1573 -1.8404,1.1374 -0.7662,-6.2321 1.1253,-7.7199 0.8387,-0.6597 0.5883,-0.8299 -1.2211,-0.8299 -3.2481,0 -4.7006,0.752 -12.6838,6.5668 -4.8886,3.5608 -8.5852,4.1189 -10.6927,1.6143 -1.185,-1.4083 -0.8221,-2.4542 0.394,-1.1355 2.18,2.364 5.1921,1.825 9.9019,-1.772 7.2355,-5.5258 9.065,-6.4364 12.9645,-6.453 3.9141,-0.017 6.5646,1.5032 3.8816,2.2256 -3.1363,0.8445 -4.5159,5.7959 -2.166,7.7733 1.6455,1.3845 2.793,1.2197 8.7658,-1.2591 3.5007,-1.4528 7.6468,-2.0059 8.0067,-1.0681 0.1898,0.4946 -0.017,0.565 -2.2469,0.7659 -2.31,0.2081 -4.0435,0.7335 -7.2453,2.1962 -2.9724,1.3579 -5.5942,1.731 -7.146,1.0168 z"
       id="path14085-34-0" /><path
       style="fill:#ffffff;fill-opacity:1;stroke-width:0.264583"
       d="m 2623.466,1060.8115 c -1.0428,-0.48 -1.8226,-1.356 -1.5704,-1.7641 0.1168,-0.1889 0.089,-0.254 -0.068,-0.1573 -1.8403,1.1374 -0.7661,-6.2321 1.1253,-7.7199 0.8387,-0.6598 0.5884,-0.8299 -1.2211,-0.8299 -3.2481,0 -4.7006,0.752 -12.6837,6.5668 -4.8887,3.5608 -8.5853,4.1189 -10.6928,1.6143 -1.185,-1.4084 -0.8221,-2.4543 0.394,-1.1355 2.1801,2.3639 5.1921,1.8249 9.9019,-1.772 7.2355,-5.5258 9.0651,-6.4365 12.9646,-6.453 3.914,-0.017 6.5645,1.5031 3.8815,2.2256 -3.1363,0.8445 -4.5159,5.7958 -2.1659,7.7732 1.6455,1.3846 2.793,1.2198 8.7657,-1.259 3.5007,-1.4528 7.6469,-2.0059 8.0067,-1.0681 0.1898,0.4946 -0.017,0.5649 -2.2469,0.7658 -2.31,0.2081 -4.0435,0.7336 -7.2453,2.1963 -2.9723,1.3579 -5.5942,1.7309 -7.146,1.0168 z"
       id="path14085-95-0" /><path
       style="fill:#ffffff;fill-opacity:1;stroke-width:0.264583"
       d="m 2701.3378,1136.7365 c -1.0427,-0.4799 -1.8225,-1.356 -1.5703,-1.7641 0.1167,-0.1889 0.089,-0.2539 -0.068,-0.1573 -1.8403,1.1374 -0.7661,-6.2321 1.1253,-7.7199 0.8387,-0.6597 0.5884,-0.8298 -1.2211,-0.8298 -3.2481,0 -4.7006,0.7519 -12.6837,6.5667 -4.8887,3.5609 -8.5853,4.1189 -10.6928,1.6143 -1.185,-1.4083 -0.8221,-2.4542 0.394,-1.1355 2.18,2.364 5.1921,1.825 9.9019,-1.7719 7.2355,-5.5259 9.0651,-6.4365 12.9646,-6.453 3.914,-0.017 6.5645,1.5031 3.8815,2.2256 -3.1363,0.8445 -4.5159,5.7958 -2.1659,7.7732 1.6454,1.3845 2.793,1.2197 8.7657,-1.259 3.5007,-1.4529 7.6468,-2.006 8.0067,-1.0681 0.1898,0.4945 -0.017,0.5649 -2.2469,0.7658 -2.31,0.2081 -4.0435,0.7335 -7.2453,2.1963 -2.9723,1.3578 -5.5942,1.7309 -7.146,1.0167 z"
       id="path14085-36-7" /><path
       style="fill:#ffffff;fill-opacity:1;stroke-width:0.264583"
       d="m 2553.3813,1185.4065 c -1.0428,-0.4799 -1.8226,-1.356 -1.5703,-1.7641 0.1167,-0.1889 0.089,-0.2539 -0.068,-0.1573 -1.8404,1.1374 -0.7662,-6.2321 1.1252,-7.7199 0.8387,-0.6597 0.5884,-0.8298 -1.221,-0.8298 -3.2482,0 -4.7007,0.7519 -12.6838,6.5667 -4.8887,3.5609 -8.5852,4.1189 -10.6927,1.6143 -1.1851,-1.4083 -0.8221,-2.4542 0.394,-1.1355 2.18,2.364 5.192,1.825 9.9018,-1.7719 7.2355,-5.5259 9.0651,-6.4365 12.9646,-6.453 3.914,-0.017 6.5645,1.5031 3.8815,2.2256 -3.1362,0.8445 -4.5159,5.7958 -2.1659,7.7732 1.6455,1.3845 2.793,1.2197 8.7658,-1.259 3.5007,-1.4529 7.6468,-2.006 8.0067,-1.0681 0.1897,0.4945 -0.017,0.5649 -2.2469,0.7658 -2.3101,0.2081 -4.0436,0.7335 -7.2454,2.1963 -2.9723,1.3578 -5.5942,1.7309 -7.1459,1.0167 z"
       id="path14085-142-1" /><path
       style="fill:#ffffff;fill-opacity:1;stroke-width:0.264583"
       d="m 2510.5518,1267.1719 c -1.0428,-0.4799 -1.8226,-1.356 -1.5704,-1.7641 0.1167,-0.1889 0.089,-0.2539 -0.068,-0.1573 -1.8403,1.1374 -0.7661,-6.2321 1.1253,-7.7199 0.8387,-0.6597 0.5884,-0.8298 -1.2211,-0.8298 -3.2481,0 -4.7006,0.7519 -12.6837,6.5667 -4.8887,3.5609 -8.5853,4.1189 -10.6928,1.6143 -1.185,-1.4083 -0.8221,-2.4542 0.394,-1.1355 2.18,2.364 5.1921,1.825 9.9019,-1.7719 7.2355,-5.5259 9.0651,-6.4365 12.9646,-6.453 3.914,-0.017 6.5645,1.5031 3.8815,2.2256 -3.1363,0.8445 -4.5159,5.7958 -2.1659,7.7732 1.6454,1.3845 2.793,1.2197 8.7657,-1.259 3.5007,-1.4529 7.6469,-2.006 8.0067,-1.0681 0.1898,0.4945 -0.017,0.5649 -2.2469,0.7658 -2.31,0.2081 -4.0435,0.7335 -7.2453,2.1963 -2.9723,1.3578 -5.5942,1.7309 -7.146,1.0167 z"
       id="path14085-18-3" /><path
       style="fill:#ffffff;fill-opacity:1;stroke-width:0.264583"
       d="m 2448.2543,1286.6399 c -1.0428,-0.4799 -1.8226,-1.356 -1.5704,-1.7641 0.1168,-0.1889 0.089,-0.2539 -0.068,-0.1573 -1.8403,1.1374 -0.7661,-6.2321 1.1253,-7.7199 0.8387,-0.6597 0.5884,-0.8298 -1.2211,-0.8298 -3.2481,0 -4.7006,0.7519 -12.6837,6.5667 -4.8887,3.5609 -8.5853,4.1189 -10.6928,1.6143 -1.185,-1.4083 -0.8221,-2.4542 0.394,-1.1355 2.1801,2.364 5.1921,1.825 9.9019,-1.7719 7.2355,-5.5259 9.0651,-6.4365 12.9646,-6.453 3.914,-0.017 6.5645,1.5031 3.8815,2.2256 -3.1363,0.8445 -4.5159,5.7958 -2.1659,7.7732 1.6454,1.3845 2.793,1.2197 8.7657,-1.259 3.5007,-1.4529 7.6469,-2.006 8.0067,-1.0681 0.1898,0.4945 -0.017,0.5649 -2.2469,0.7658 -2.31,0.2081 -4.0435,0.7335 -7.2453,2.1963 -2.9723,1.3578 -5.5942,1.7309 -7.146,1.0167 z"
       id="path14085-671-4" /><path
       style="fill:#ffffff;fill-opacity:1;stroke-width:0.264583"
       d="m 2419.0523,735.69639 c -1.0428,-0.47991 -1.8226,-1.35597 -1.5703,-1.76411 0.1167,-0.18887 0.089,-0.25393 -0.068,-0.15726 -1.8404,1.1374 -0.7662,-6.23214 1.1252,-7.71994 0.8387,-0.65972 0.5884,-0.82984 -1.221,-0.82984 -3.2482,0 -4.7006,0.75198 -12.6838,6.56678 -4.8887,3.56082 -8.5852,4.11888 -10.6927,1.61426 -1.185,-1.40832 -0.8221,-2.45422 0.394,-1.13549 2.18,2.36397 5.192,1.82496 9.9018,-1.77196 7.2356,-5.52582 9.0651,-6.43647 12.9646,-6.453 3.9141,-0.0166 6.5645,1.50314 3.8816,2.2256 -3.1363,0.84451 -4.516,5.79584 -2.166,7.77322 1.6455,1.38457 2.793,1.21976 8.7658,-1.25901 3.5007,-1.45283 7.6468,-2.00593 8.0067,-1.0681 0.1898,0.49455 -0.017,0.56491 -2.2469,0.76581 -2.3101,0.2081 -4.0435,0.73357 -7.2454,2.19629 -2.9723,1.35788 -5.5942,1.73093 -7.1459,1.01675 z"
       id="path14085-211-6" /><path
       style="fill:#ffffff;fill-opacity:1;stroke-width:0.264583"
       d="m 2216.5854,646.14373 c -1.0427,-0.47991 -1.8225,-1.35597 -1.5703,-1.76411 0.1167,-0.18887 0.089,-0.25393 -0.068,-0.15726 -1.8404,1.1374 -0.7662,-6.23214 1.1253,-7.71994 0.8387,-0.65972 0.5883,-0.82984 -1.2211,-0.82984 -3.2481,0 -4.7006,0.75198 -12.6838,6.56678 -4.8886,3.56082 -8.5852,4.11888 -10.6927,1.61426 -1.185,-1.40832 -0.8221,-2.45422 0.394,-1.13549 2.18,2.36397 5.1921,1.82496 9.9019,-1.77196 7.2355,-5.52582 9.065,-6.43647 12.9645,-6.453 3.9141,-0.0166 6.5646,1.50314 3.8816,2.2256 -3.1363,0.84451 -4.5159,5.79584 -2.166,7.77322 1.6455,1.38457 2.793,1.21976 8.7658,-1.25901 3.5007,-1.45283 7.6468,-2.00593 8.0067,-1.0681 0.1898,0.49455 -0.017,0.56491 -2.2469,0.76581 -2.31,0.2081 -4.0435,0.73357 -7.2453,2.19629 -2.9724,1.35788 -5.5942,1.73093 -7.146,1.01675 z"
       id="path14085-091-9" /><path
       style="fill:#ffffff;fill-opacity:1;stroke-width:0.264583"
       d="m 1702.6311,268.46514 c -1.0428,-0.47991 -1.8226,-1.35597 -1.5704,-1.76411 0.1168,-0.18887 0.089,-0.25393 -0.068,-0.15726 -1.8403,1.1374 -0.7661,-6.23214 1.1253,-7.71994 0.8387,-0.65972 0.5884,-0.82984 -1.2211,-0.82984 -3.2481,0 -4.7006,0.75198 -12.6837,6.56678 -4.8887,3.56082 -8.5853,4.11888 -10.6928,1.61426 -1.185,-1.40832 -0.8221,-2.45422 0.394,-1.13549 2.1801,2.36397 5.1921,1.82496 9.9019,-1.77196 7.2355,-5.52582 9.0651,-6.43647 12.9646,-6.453 3.914,-0.0166 6.5645,1.50314 3.8815,2.2256 -3.1363,0.84451 -4.5159,5.79584 -2.1659,7.77322 1.6454,1.38457 2.793,1.21976 8.7657,-1.25901 3.5007,-1.45283 7.6469,-2.00593 8.0067,-1.0681 0.1898,0.49455 -0.017,0.56491 -2.2469,0.76581 -2.31,0.2081 -4.0435,0.73357 -7.2453,2.19629 -2.9723,1.35788 -5.5942,1.73093 -7.146,1.01675 z"
       id="path14085-558-8" /><path
       style="fill:#ffffff;fill-opacity:1;stroke-width:0.264583"
       d="m 1850.5876,176.96569 c -1.0427,-0.47991 -1.8226,-1.35597 -1.5703,-1.76411 0.1167,-0.18887 0.089,-0.25393 -0.068,-0.15726 -1.8404,1.1374 -0.7662,-6.23214 1.1253,-7.71994 0.8387,-0.65972 0.5883,-0.82984 -1.2211,-0.82984 -3.2482,0 -4.7006,0.75198 -12.6838,6.56678 -4.8886,3.56082 -8.5852,4.11888 -10.6927,1.61426 -1.185,-1.40832 -0.8221,-2.45422 0.394,-1.13549 2.18,2.36397 5.192,1.82496 9.9018,-1.77196 7.2356,-5.52582 9.0651,-6.43647 12.9646,-6.453 3.9141,-0.0166 6.5646,1.50314 3.8816,2.2256 -3.1363,0.84451 -4.516,5.79584 -2.166,7.77322 1.6455,1.38457 2.793,1.21976 8.7658,-1.25901 3.5007,-1.45283 7.6468,-2.00593 8.0067,-1.0681 0.1898,0.49455 -0.017,0.56491 -2.2469,0.76581 -2.31,0.2081 -4.0435,0.73357 -7.2453,2.19629 -2.9724,1.35788 -5.5942,1.73093 -7.146,1.01675 z"
       id="path14085-965-0" /></g></svg>
