<?xml version="1.0" encoding="UTF-8" standalone="no"?>
<!-- Created with Inkscape (http://www.inkscape.org/) -->

<svg
   width="1920"
   height="1020"
   viewBox="0 0 507.99999 269.875"
   version="1.1"
   id="svg5"
   inkscape:version="1.2.2 (732a01da63, 2022-12-09)"
   sodipodi:docname="Shop_Option.svg"
   xmlns:inkscape="http://www.inkscape.org/namespaces/inkscape"
   xmlns:sodipodi="http://sodipodi.sourceforge.net/DTD/sodipodi-0.dtd"
   xmlns="http://www.w3.org/2000/svg"
   xmlns:svg="http://www.w3.org/2000/svg">
  <sodipodi:namedview
     id="namedview7"
     pagecolor="#ffffff"
     bordercolor="#000000"
     borderopacity="0.25"
     inkscape:showpageshadow="2"
     inkscape:pageopacity="0.0"
     inkscape:pagecheckerboard="0"
     inkscape:deskcolor="#d1d1d1"
     inkscape:document-units="px"
     showgrid="false"
     inkscape:zoom="0.52221046"
     inkscape:cx="854.06179"
     inkscape:cy="672.1428"
     inkscape:window-width="1920"
     inkscape:window-height="1009"
     inkscape:window-x="-8"
     inkscape:window-y="-8"
     inkscape:window-maximized="1"
     inkscape:current-layer="layer4" />
  <defs
     id="defs2">
    <mask
       maskUnits="userSpaceOnUse"
       id="mask-powermask-path-effect2440">
      <path
         id="mask-powermask-path-effect2440_box"
         style="fill:#ffffff;fill-opacity:1"
         d="m 307.7309,-165.78568 h 22.31389 v 14.3318 H 307.7309 Z" />
      <path
         style="fill:#000000;fill-opacity:1;stroke:#000000;stroke-width:0.264583"
         d="m 311.32518,-159.42671 c 0,0 0.25085,2.13867 0.88188,2.94677 0.63116,0.80826 1.641,1.36432 2.64562,1.57018 1.60827,0.32956 3.45557,0.16631 4.88262,-0.64528 0.86532,-0.49212 1.78525,-2.19394 1.84978,-2.34451 0.0645,-0.15056 0.51377,-2.06458 0.38717,-3.09733 -0.0533,-0.4348 -0.47318,-1.22603 -0.47318,-1.22603 z"
         id="path2438"
         sodipodi:nodetypes="cssssscc" />
    </mask>
    <inkscape:path-effect
       effect="powermask"
       id="path-effect2440"
       is_visible="true"
       lpeversion="1"
       uri="#mask-powermask-path-effect2440"
       invert="false"
       hide_mask="false"
       background="true"
       background_color="#ffffffff" />
    <filter
       id="mask-powermask-path-effect2440_inverse"
       inkscape:label="filtermask-powermask-path-effect2440"
       style="color-interpolation-filters:sRGB"
       height="100"
       width="100"
       x="-50"
       y="-50">
      <feColorMatrix
         id="mask-powermask-path-effect2440_primitive1"
         values="1"
         type="saturate"
         result="fbSourceGraphic" />
      <feColorMatrix
         id="mask-powermask-path-effect2440_primitive2"
         values="-1 0 0 0 1 0 -1 0 0 1 0 0 -1 0 1 0 0 0 1 0 "
         in="fbSourceGraphic" />
    </filter>
  </defs>
  <g
     inkscape:groupmode="layer"
     id="layer4"
     inkscape:label="Ambiance">
    <rect
       style="fill:#87ceeb;fill-opacity:1;stroke:none;stroke-width:0.191996"
       id="rect49711"
       width="631.98413"
       height="184.32043"
       x="-15.289164"
       y="-56.44067" />
    <path
       style="fill:#8e8a3c;fill-opacity:1;stroke:#000000;stroke-width:0.264583;stroke-dasharray:none;stroke-opacity:1;stop-color:#000000"
       d="M 425.75956,270.90879 523.50252,56.235491 0.1648747,127.52392 4.7247968,268.88215 Z"
       id="path5277-1"
       sodipodi:nodetypes="ccccc"
       sodipodi:insensitive="true" />
    <path
       style="fill:#8e8a3c;fill-opacity:1;stroke:#000000;stroke-width:0.264583;stroke-dasharray:none;stroke-opacity:1;stop-color:#000000"
       d="M 310.07612,270.55662 509.19363,64.345863 507.67367,270.55662 Z"
       id="path5277"
       sodipodi:nodetypes="cccc"
       sodipodi:insensitive="true" />
    <g
       id="g28307-9-0"
       transform="matrix(0.27917363,0,0,0.27917363,45.336062,70.29128)">
      <path
         style="fill:#633813;fill-opacity:1;stroke:#000000;stroke-width:0.264583;stroke-dasharray:none;stroke-opacity:1"
         d="m 972.57447,-31.429631 c 0,0 -39.83518,64.519254 -49.5687,100.259294 -8.4027,30.853472 -13.87499,62.488207 -19.2723,94.296637 -4.4987,26.5126 -4.81806,80.53071 -4.81806,80.53071 l 33.60125,0.40319 c 0,0 -2.60831,-51.23533 -1.25131,-76.80412 1.49463,-28.16187 5.20919,-56.23847 10.32444,-83.972188 3.98679,-21.615446 10.15304,-42.777536 15.83081,-64.011586 4.50186,-16.8363049 15.15387,-50.701937 15.15387,-50.701937 z"
         id="path18976-2-3"
         sodipodi:nodetypes="cssccsssc" />
      <path
         style="fill:#4e4b0c;fill-opacity:1;stroke:#000000;stroke-width:0.264583;stroke-dasharray:none;stroke-opacity:1"
         d="m 972.42504,-31.3921 c 0,0 -7.62378,2.440254 -14.71509,8.435935 -7.15542,6.049881 -13.78637,15.6556767 -15.46026,15.6556767 -2.0149,0 -1.87871,-4.6236427 -3.89361,-4.6236427 -3.24824,0 -6.25884,18.4890748 -9.00393,19.2246193 -1.84918,0.4954874 -1.51809,-4.9358484 -3.40688,-4.6236427 -2.25062,0.3720143 -2.38047,14.7251644 -4.86701,15.3310254 -1.56037,0.380194 -1.85558,-3.822563 -3.40688,-3.406894 -2.66698,0.714615 -8.13907,20.32359 -10.46404,18.98127 -2.99104,-1.72688 0.68876,-21.671099 -0.73006,-22.388165 -1.40567,-0.71042 -2.68054,3.681404 -3.89358,2.676846 -3.12151,-2.585021 13.70749,-24.498383 11.68077,-26.525108 -1.36339,-1.363385 -4.13358,3.6831217 -5.35369,2.190147 -3.0098,-3.682912 17.25453,-17.489935 16.18277,-19.346293 -1.09808,-1.901922 -5.10735,2.510294 -6.20543,0.608372 -1.10786,-1.918865 6.47759,-5.712442 10.46403,-7.057138 9.39253,-3.168268 19.9728,-3.668063 29.68866,-1.703446 4.87141,0.985035 13.38423,6.570438 13.38423,6.570438 z"
         id="path20046-5-9"
         sodipodi:nodetypes="cssssssssssssssssc" />
      <path
         style="fill:#4e4b0c;fill-opacity:1;stroke:#000000;stroke-width:0.264583;stroke-dasharray:none;stroke-opacity:1"
         d="m 972.39107,-31.575607 c 0,0 -9.8993,-8.970678 -13.24972,-9.808229 -8.21911,-2.054646 -29.15657,0.511452 -29.15657,0.511452 -1.73639,-1.2955 3.88408,-2.611297 3.08733,-4.038972 -4.22626,-7.572914 -21.01361,10.000515 -25.86477,2.811875 -1.44133,-2.135813 5.11946,-4.697065 3.65025,-6.813791 -6.20773,-8.943588 -29.77916,7.30547 -32.3655,4.380294 -1.05563,-1.19393 2.32485,-3.478249 1.21674,-4.623644 -2.53143,-2.616609 -25.0596,9.00935 -27.74186,6.327092 -1.80017,-1.800166 5.69378,-4.770271 3.89361,-6.57044 -1.82692,-1.826924 -23.63129,17.482984 -27.01181,12.410829 -2.17548,-3.264108 6.94734,-14.163347 15.90005,-20.477186 5.70691,-4.024753 12.64489,-4.380435 12.3285,-5.561222 -0.41354,-1.54337 -4.38031,-0.348981 -4.38031,-1.946796 0,-2.283619 6.44537,-7.540806 13.63039,-9.112837 5.74008,-1.255889 12.43644,1.160749 13.13809,-0.377799 1.01255,-2.22026 -3.89696,-4.700473 -2.67684,-6.813788 0.94947,-1.644529 11.63628,-1.213813 21.02784,0.04718 10.05476,1.350043 16.90572,8.012313 17.90808,7.009955 0,0 -8.2371,-5.390473 -5.84039,-7.787189 2.67616,-2.676161 13.47329,4.552174 22.71919,7.981972 8.83105,3.275906 9.34091,11.224297 11.34976,10.025899 2.37262,-1.415406 -3.15529,-7.55884 -0.4867,-8.273886 6.37556,-1.708327 23.5307,18.095309 29.20195,31.14875 1.45778,3.355351 -0.12168,9.64273 -0.12168,9.64273 z"
         id="path23309-0-4"
         sodipodi:nodetypes="cssssssssssssssssssssssscc" />
      <path
         style="fill:#4e4b0c;fill-opacity:1;stroke:#000000;stroke-width:0.264583;stroke-dasharray:none;stroke-opacity:1"
         d="m 972.73522,-31.661646 c 0,0 9.4846,-27.165089 9.89425,-36.135573 0.36829,-8.064849 0.39589,-23.963141 -3.634,-23.945582 -2.2943,0.01 1.24274,6.219974 -0.9734,6.813788 -0.52089,0.139572 -1.11619,-5.628164 -4.18604,-10.765027 -3.66937,-6.14008 -9.98891,-11.78456 -11.87502,-10.89309 -2.41902,1.14336 3.8882,5.94605 1.94678,7.78719 -0.75627,0.717206 -5.28427,-6.73987 -9.45389,-10.44218 -6.58309,-5.84528 -15.23925,-8.1451 -17.25805,-6.04655 -2.01354,2.09311 7.16174,3.61489 5.54054,6.02469 -1.11885,1.66308 -23.11753,-9.68551 -24.82168,-6.08373 -1.57545,3.32978 20.08736,11.92328 19.46799,14.60097 -0.58952,2.548639 -7.47037,-1.62327 -7.78719,0.973401 -0.36211,2.967899 19.76834,4.363049 18.98126,7.300489 -0.54505,2.034154 -5.5387,-0.330708 -6.08375,1.703446 -0.56104,2.093821 18.23451,12.480456 17.27782,15.087676 -0.75653,2.061723 -5.47235,-1.415215 -6.57042,0.486698 -0.45317,0.784907 11.44249,10.977344 16.98071,22.78047 4.32313,9.213498 2.55409,20.752914 2.55409,20.752914 z"
         id="path24037-5-8"
         sodipodi:nodetypes="csssssssssssssssssc" />
      <path
         style="fill:#4e4b0c;fill-opacity:1;stroke:#000000;stroke-width:0.264583;stroke-dasharray:none;stroke-opacity:1"
         d="m 972.85089,-31.696286 c 0,0 20.41163,-50.848167 25.8559,-49.582483 2.21231,0.514308 -1.70344,7.787188 0,6.813788 1.70341,-0.973396 15.44951,-13.68224 18.49461,-11.92413 1.9187,1.107772 -3.7847,4.165025 -2.6769,6.083742 0.8254,1.429621 13.8267,-3.818798 20.6847,-2.676848 7.2284,1.203631 20.5815,6.760137 19.7113,9.733986 -0.5173,1.767848 -9.1144,-4.397399 -10.9507,-1.21675 -1.0874,1.883364 11.2331,6.476861 14.0553,9.490636 2.978,3.180286 6.9679,10.309942 5.3537,11.924131 -1.2593,1.259279 -2.332,-3.936125 -3.5913,-2.676846 -1.5406,1.540611 3.322,9.275144 3.4069,14.114278 0.064,3.642463 -0.4784,10.707383 -2.1901,10.707383 -3.8398,0 -5.5836,-8.810038 -8.8196,-13.010559 -2.2056,-2.862972 -5.41,-9.063756 -6.7548,-8.404208 -1.9785,0.970326 2.7504,5.69046 0.7301,6.570441 -3.14,1.36769 -6.9076,-6.342347 -10.039,-8.588513 -2.9865,-2.142229 -6.5708,-5.751796 -7.7255,-4.309017 -1.6028,2.002719 5.6627,4.105661 4.3802,6.327089 -0.8685,1.504288 -8.8118,-2.76491 -13.2564,-3.175774 -3.267,-0.302006 -8.6064,-1.467862 -9.3898,1.718209 -0.6237,2.536606 7.1001,0.600106 6.5852,3.161014 -0.5918,2.943199 -14.4306,2.857028 -21.41481,5.11034 -6.09279,1.965714 -22.449,13.810091 -22.449,13.810091 z"
         id="path24041-6-9"
         sodipodi:nodetypes="cssssssssssssssssssssssc" />
      <path
         style="fill:#4e4b0c;fill-opacity:1;stroke:#000000;stroke-width:0.264583;stroke-dasharray:none;stroke-opacity:1"
         d="m 972.56463,-32.42306 c 0,0 23.65921,-8.827379 30.64417,-9.676423 7.4524,-0.905858 21.4352,-4.333277 22.5098,0.730048 0.5799,2.732648 -8.6389,3.650245 -7.5438,3.650245 1.095,0 19.5896,1.338424 20.198,1.460098 0.6083,0.121676 19.1389,4.717662 18.2512,8.030538 -0.7592,2.833512 -13.2722,-2.355971 -13.8709,-0.121674 -1.0047,3.749516 13.8148,5.670691 19.833,9.977333 5.0379,3.605111 15.1501,9.7497209 13.2625,13.0192037 -0.8324,1.4417076 -6.8539,-3.6100603 -9.0039,-1.4600978 -1.4676,1.4675526 9.0119,4.8264137 12.4108,8.5172363 3.3226,3.6080249 9.0074,11.0735798 7.3005,12.7758548 -1.3251,1.321504 -2.9684,-5.6085634 -4.3508,-4.347188 -2.7648,2.522758 6.0332,11.930876 6.8138,14.844328 1.5029,5.608914 0.9377,18.330372 -1.3679,18.948161 -2.9693,0.795619 -11.122,-21.143026 -11.9242,-20.928065 -2.3509,0.629923 -0.5693,6.062191 -2.9202,6.692114 -3.3079,0.886336 -10.8704,-16.08548 -14.7226,-15.087675 -2.2383,0.57977 0.4083,6.093679 -1.8251,6.692114 -5.9157,1.585095 -15.4029,-27.4950016 -21.2931,-25.9167336 -2.9434,0.7886927 1.3605,8.2109381 -1.5818,9.0039355 -4.4227,1.1919855 -13.9018,-21.9304669 -17.6428,-20.9280659 -2.4013,0.643422 2.8829,6.179167 0.73,7.4221627 -3.5825,2.0683513 -11.7242,-12.9978267 -18.61326,-18.3202177 -4.59842,-3.552674 -25.29341,-4.977232 -25.29341,-4.977232 z"
         id="path24769-6-5"
         sodipodi:nodetypes="csssssssssssssssssssssssc" />
      <path
         style="fill:#4e4b0c;fill-opacity:1;stroke:#000000;stroke-width:0.264583;stroke-dasharray:none;stroke-opacity:1"
         d="m 972.83753,-31.505752 c 0,0 15.13373,4.158551 21.84493,7.787266 5.89364,3.186656 15.77674,11.117013 14.46454,13.9565147 -1.0902,2.3591547 -8.0308,-2.3239927 -7.4249,-2.3791027 0.6059,-0.05511 12.0343,17.8842336 8.8136,20.3349923 -1.438,1.0942418 -4.2632,-3.8884345 -4.2191,-3.4037361 0.044,0.4846985 2.034,10.6112648 1.8183,15.9619868 -0.2094,5.19373 0.2691,14.096214 -3.0067,15.301249 -3.1808,1.170156 -7.66352,-4.852293 -10.6417,-8.195362 -3.59577,-4.036309 -7.69269,-13.96156 -8.35069,-13.901711 -3.1112,0.282978 -0.77898,9.015746 -3.8662,8.537512 -4.25335,-0.658876 -0.79338,-25.6184995 -3.16277,-26.7134615 -2.29007,-1.0583038 -3.71283,6.6494885 -5.65095,5.03453221 -2.71904,-2.26565811 4.32799,-22.30292171 2.41143,-23.18861771 -1.52557,-0.705009 -3.99127,3.703535 -4.5715,2.126278 -0.9415,-2.559341 1.54171,-11.25834 1.54171,-11.25834 z"
         id="path24771-7-4"
         sodipodi:nodetypes="cssssssssssssssc" />
    </g>
    <g
       id="g28307-9-0-2"
       transform="matrix(0.25386766,0,0,0.25386766,125.34189,53.164476)">
      <path
         style="fill:#633813;fill-opacity:1;stroke:#000000;stroke-width:0.264583;stroke-dasharray:none;stroke-opacity:1"
         d="m 972.57447,-31.429631 c 0,0 -39.83518,64.519254 -49.5687,100.259294 -8.4027,30.853472 -13.87499,62.488207 -19.2723,94.296637 -4.4987,26.5126 -4.81806,80.53071 -4.81806,80.53071 l 33.60125,0.40319 c 0,0 -2.60831,-51.23533 -1.25131,-76.80412 1.49463,-28.16187 5.20919,-56.23847 10.32444,-83.972188 3.98679,-21.615446 10.15304,-42.777536 15.83081,-64.011586 4.50186,-16.8363049 15.15387,-50.701937 15.15387,-50.701937 z"
         id="path18976-2-3-3"
         sodipodi:nodetypes="cssccsssc" />
      <path
         style="fill:#4e4b0c;fill-opacity:1;stroke:#000000;stroke-width:0.264583;stroke-dasharray:none;stroke-opacity:1"
         d="m 972.42504,-31.3921 c 0,0 -7.62378,2.440254 -14.71509,8.435935 -7.15542,6.049881 -13.78637,15.6556767 -15.46026,15.6556767 -2.0149,0 -1.87871,-4.6236427 -3.89361,-4.6236427 -3.24824,0 -6.25884,18.4890748 -9.00393,19.2246193 -1.84918,0.4954874 -1.51809,-4.9358484 -3.40688,-4.6236427 -2.25062,0.3720143 -2.38047,14.7251644 -4.86701,15.3310254 -1.56037,0.380194 -1.85558,-3.822563 -3.40688,-3.406894 -2.66698,0.714615 -8.13907,20.32359 -10.46404,18.98127 -2.99104,-1.72688 0.68876,-21.671099 -0.73006,-22.388165 -1.40567,-0.71042 -2.68054,3.681404 -3.89358,2.676846 -3.12151,-2.585021 13.70749,-24.498383 11.68077,-26.525108 -1.36339,-1.363385 -4.13358,3.6831217 -5.35369,2.190147 -3.0098,-3.682912 17.25453,-17.489935 16.18277,-19.346293 -1.09808,-1.901922 -5.10735,2.510294 -6.20543,0.608372 -1.10786,-1.918865 6.47759,-5.712442 10.46403,-7.057138 9.39253,-3.168268 19.9728,-3.668063 29.68866,-1.703446 4.87141,0.985035 13.38423,6.570438 13.38423,6.570438 z"
         id="path20046-5-9-7"
         sodipodi:nodetypes="cssssssssssssssssc" />
      <path
         style="fill:#4e4b0c;fill-opacity:1;stroke:#000000;stroke-width:0.264583;stroke-dasharray:none;stroke-opacity:1"
         d="m 972.39107,-31.575607 c 0,0 -9.8993,-8.970678 -13.24972,-9.808229 -8.21911,-2.054646 -29.15657,0.511452 -29.15657,0.511452 -1.73639,-1.2955 3.88408,-2.611297 3.08733,-4.038972 -4.22626,-7.572914 -21.01361,10.000515 -25.86477,2.811875 -1.44133,-2.135813 5.11946,-4.697065 3.65025,-6.813791 -6.20773,-8.943588 -29.77916,7.30547 -32.3655,4.380294 -1.05563,-1.19393 2.32485,-3.478249 1.21674,-4.623644 -2.53143,-2.616609 -25.0596,9.00935 -27.74186,6.327092 -1.80017,-1.800166 5.69378,-4.770271 3.89361,-6.57044 -1.82692,-1.826924 -23.63129,17.482984 -27.01181,12.410829 -2.17548,-3.264108 6.94734,-14.163347 15.90005,-20.477186 5.70691,-4.024753 12.64489,-4.380435 12.3285,-5.561222 -0.41354,-1.54337 -4.38031,-0.348981 -4.38031,-1.946796 0,-2.283619 6.44537,-7.540806 13.63039,-9.112837 5.74008,-1.255889 12.43644,1.160749 13.13809,-0.377799 1.01255,-2.22026 -3.89696,-4.700473 -2.67684,-6.813788 0.94947,-1.644529 11.63628,-1.213813 21.02784,0.04718 10.05476,1.350043 16.90572,8.012313 17.90808,7.009955 0,0 -8.2371,-5.390473 -5.84039,-7.787189 2.67616,-2.676161 13.47329,4.552174 22.71919,7.981972 8.83105,3.275906 9.34091,11.224297 11.34976,10.025899 2.37262,-1.415406 -3.15529,-7.55884 -0.4867,-8.273886 6.37556,-1.708327 23.5307,18.095309 29.20195,31.14875 1.45778,3.355351 -0.12168,9.64273 -0.12168,9.64273 z"
         id="path23309-0-4-9"
         sodipodi:nodetypes="cssssssssssssssssssssssscc" />
      <path
         style="fill:#4e4b0c;fill-opacity:1;stroke:#000000;stroke-width:0.264583;stroke-dasharray:none;stroke-opacity:1"
         d="m 972.73522,-31.661646 c 0,0 9.4846,-27.165089 9.89425,-36.135573 0.36829,-8.064849 0.39589,-23.963141 -3.634,-23.945582 -2.2943,0.01 1.24274,6.219974 -0.9734,6.813788 -0.52089,0.139572 -1.11619,-5.628164 -4.18604,-10.765027 -3.66937,-6.14008 -9.98891,-11.78456 -11.87502,-10.89309 -2.41902,1.14336 3.8882,5.94605 1.94678,7.78719 -0.75627,0.717206 -5.28427,-6.73987 -9.45389,-10.44218 -6.58309,-5.84528 -15.23925,-8.1451 -17.25805,-6.04655 -2.01354,2.09311 7.16174,3.61489 5.54054,6.02469 -1.11885,1.66308 -23.11753,-9.68551 -24.82168,-6.08373 -1.57545,3.32978 20.08736,11.92328 19.46799,14.60097 -0.58952,2.548639 -7.47037,-1.62327 -7.78719,0.973401 -0.36211,2.967899 19.76834,4.363049 18.98126,7.300489 -0.54505,2.034154 -5.5387,-0.330708 -6.08375,1.703446 -0.56104,2.093821 18.23451,12.480456 17.27782,15.087676 -0.75653,2.061723 -5.47235,-1.415215 -6.57042,0.486698 -0.45317,0.784907 11.44249,10.977344 16.98071,22.78047 4.32313,9.213498 2.55409,20.752914 2.55409,20.752914 z"
         id="path24037-5-8-3"
         sodipodi:nodetypes="csssssssssssssssssc" />
      <path
         style="fill:#4e4b0c;fill-opacity:1;stroke:#000000;stroke-width:0.264583;stroke-dasharray:none;stroke-opacity:1"
         d="m 972.85089,-31.696286 c 0,0 20.41163,-50.848167 25.8559,-49.582483 2.21231,0.514308 -1.70344,7.787188 0,6.813788 1.70341,-0.973396 15.44951,-13.68224 18.49461,-11.92413 1.9187,1.107772 -3.7847,4.165025 -2.6769,6.083742 0.8254,1.429621 13.8267,-3.818798 20.6847,-2.676848 7.2284,1.203631 20.5815,6.760137 19.7113,9.733986 -0.5173,1.767848 -9.1144,-4.397399 -10.9507,-1.21675 -1.0874,1.883364 11.2331,6.476861 14.0553,9.490636 2.978,3.180286 6.9679,10.309942 5.3537,11.924131 -1.2593,1.259279 -2.332,-3.936125 -3.5913,-2.676846 -1.5406,1.540611 3.322,9.275144 3.4069,14.114278 0.064,3.642463 -0.4784,10.707383 -2.1901,10.707383 -3.8398,0 -5.5836,-8.810038 -8.8196,-13.010559 -2.2056,-2.862972 -5.41,-9.063756 -6.7548,-8.404208 -1.9785,0.970326 2.7504,5.69046 0.7301,6.570441 -3.14,1.36769 -6.9076,-6.342347 -10.039,-8.588513 -2.9865,-2.142229 -6.5708,-5.751796 -7.7255,-4.309017 -1.6028,2.002719 5.6627,4.105661 4.3802,6.327089 -0.8685,1.504288 -8.8118,-2.76491 -13.2564,-3.175774 -3.267,-0.302006 -8.6064,-1.467862 -9.3898,1.718209 -0.6237,2.536606 7.1001,0.600106 6.5852,3.161014 -0.5918,2.943199 -14.4306,2.857028 -21.41481,5.11034 -6.09279,1.965714 -22.449,13.810091 -22.449,13.810091 z"
         id="path24041-6-9-6"
         sodipodi:nodetypes="cssssssssssssssssssssssc" />
      <path
         style="fill:#4e4b0c;fill-opacity:1;stroke:#000000;stroke-width:0.264583;stroke-dasharray:none;stroke-opacity:1"
         d="m 972.56463,-32.42306 c 0,0 23.65921,-8.827379 30.64417,-9.676423 7.4524,-0.905858 21.4352,-4.333277 22.5098,0.730048 0.5799,2.732648 -8.6389,3.650245 -7.5438,3.650245 1.095,0 19.5896,1.338424 20.198,1.460098 0.6083,0.121676 19.1389,4.717662 18.2512,8.030538 -0.7592,2.833512 -13.2722,-2.355971 -13.8709,-0.121674 -1.0047,3.749516 13.8148,5.670691 19.833,9.977333 5.0379,3.605111 15.1501,9.7497209 13.2625,13.0192037 -0.8324,1.4417076 -6.8539,-3.6100603 -9.0039,-1.4600978 -1.4676,1.4675526 9.0119,4.8264137 12.4108,8.5172363 3.3226,3.6080249 9.0074,11.0735798 7.3005,12.7758548 -1.3251,1.321504 -2.9684,-5.6085634 -4.3508,-4.347188 -2.7648,2.522758 6.0332,11.930876 6.8138,14.844328 1.5029,5.608914 0.9377,18.330372 -1.3679,18.948161 -2.9693,0.795619 -11.122,-21.143026 -11.9242,-20.928065 -2.3509,0.629923 -0.5693,6.062191 -2.9202,6.692114 -3.3079,0.886336 -10.8704,-16.08548 -14.7226,-15.087675 -2.2383,0.57977 0.4083,6.093679 -1.8251,6.692114 -5.9157,1.585095 -15.4029,-27.4950016 -21.2931,-25.9167336 -2.9434,0.7886927 1.3605,8.2109381 -1.5818,9.0039355 -4.4227,1.1919855 -13.9018,-21.9304669 -17.6428,-20.9280659 -2.4013,0.643422 2.8829,6.179167 0.73,7.4221627 -3.5825,2.0683513 -11.7242,-12.9978267 -18.61326,-18.3202177 -4.59842,-3.552674 -25.29341,-4.977232 -25.29341,-4.977232 z"
         id="path24769-6-5-8"
         sodipodi:nodetypes="csssssssssssssssssssssssc" />
      <path
         style="fill:#4e4b0c;fill-opacity:1;stroke:#000000;stroke-width:0.264583;stroke-dasharray:none;stroke-opacity:1"
         d="m 972.83753,-31.505752 c 0,0 15.13373,4.158551 21.84493,7.787266 5.89364,3.186656 15.77674,11.117013 14.46454,13.9565147 -1.0902,2.3591547 -8.0308,-2.3239927 -7.4249,-2.3791027 0.6059,-0.05511 12.0343,17.8842336 8.8136,20.3349923 -1.438,1.0942418 -4.2632,-3.8884345 -4.2191,-3.4037361 0.044,0.4846985 2.034,10.6112648 1.8183,15.9619868 -0.2094,5.19373 0.2691,14.096214 -3.0067,15.301249 -3.1808,1.170156 -7.66352,-4.852293 -10.6417,-8.195362 -3.59577,-4.036309 -7.69269,-13.96156 -8.35069,-13.901711 -3.1112,0.282978 -0.77898,9.015746 -3.8662,8.537512 -4.25335,-0.658876 -0.79338,-25.6184995 -3.16277,-26.7134615 -2.29007,-1.0583038 -3.71283,6.6494885 -5.65095,5.03453221 -2.71904,-2.26565811 4.32799,-22.30292171 2.41143,-23.18861771 -1.52557,-0.705009 -3.99127,3.703535 -4.5715,2.126278 -0.9415,-2.559341 1.54171,-11.25834 1.54171,-11.25834 z"
         id="path24771-7-4-8"
         sodipodi:nodetypes="cssssssssssssssc" />
    </g>
    <g
       id="g28307-9-0-7"
       transform="matrix(-0.27917363,0,0,0.27917363,762.28052,69.78462)">
      <path
         style="fill:#633813;fill-opacity:1;stroke:#000000;stroke-width:0.264583;stroke-dasharray:none;stroke-opacity:1"
         d="m 972.57447,-31.429631 c 0,0 -39.83518,64.519254 -49.5687,100.259294 -8.4027,30.853472 -13.87499,62.488207 -19.2723,94.296637 -4.4987,26.5126 -4.81806,80.53071 -4.81806,80.53071 l 33.60125,0.40319 c 0,0 -2.60831,-51.23533 -1.25131,-76.80412 1.49463,-28.16187 5.20919,-56.23847 10.32444,-83.972188 3.98679,-21.615446 10.15304,-42.777536 15.83081,-64.011586 4.50186,-16.8363049 15.15387,-50.701937 15.15387,-50.701937 z"
         id="path18976-2-3-7"
         sodipodi:nodetypes="cssccsssc" />
      <path
         style="fill:#4e4b0c;fill-opacity:1;stroke:#000000;stroke-width:0.264583;stroke-dasharray:none;stroke-opacity:1"
         d="m 972.42504,-31.3921 c 0,0 -7.62378,2.440254 -14.71509,8.435935 -7.15542,6.049881 -13.78637,15.6556767 -15.46026,15.6556767 -2.0149,0 -1.87871,-4.6236427 -3.89361,-4.6236427 -3.24824,0 -6.25884,18.4890748 -9.00393,19.2246193 -1.84918,0.4954874 -1.51809,-4.9358484 -3.40688,-4.6236427 -2.25062,0.3720143 -2.38047,14.7251644 -4.86701,15.3310254 -1.56037,0.380194 -1.85558,-3.822563 -3.40688,-3.406894 -2.66698,0.714615 -8.13907,20.32359 -10.46404,18.98127 -2.99104,-1.72688 0.68876,-21.671099 -0.73006,-22.388165 -1.40567,-0.71042 -2.68054,3.681404 -3.89358,2.676846 -3.12151,-2.585021 13.70749,-24.498383 11.68077,-26.525108 -1.36339,-1.363385 -4.13358,3.6831217 -5.35369,2.190147 -3.0098,-3.682912 17.25453,-17.489935 16.18277,-19.346293 -1.09808,-1.901922 -5.10735,2.510294 -6.20543,0.608372 -1.10786,-1.918865 6.47759,-5.712442 10.46403,-7.057138 9.39253,-3.168268 19.9728,-3.668063 29.68866,-1.703446 4.87141,0.985035 13.38423,6.570438 13.38423,6.570438 z"
         id="path20046-5-9-73"
         sodipodi:nodetypes="cssssssssssssssssc" />
      <path
         style="fill:#4e4b0c;fill-opacity:1;stroke:#000000;stroke-width:0.264583;stroke-dasharray:none;stroke-opacity:1"
         d="m 972.39107,-31.575607 c 0,0 -9.8993,-8.970678 -13.24972,-9.808229 -8.21911,-2.054646 -29.15657,0.511452 -29.15657,0.511452 -1.73639,-1.2955 3.88408,-2.611297 3.08733,-4.038972 -4.22626,-7.572914 -21.01361,10.000515 -25.86477,2.811875 -1.44133,-2.135813 5.11946,-4.697065 3.65025,-6.813791 -6.20773,-8.943588 -29.77916,7.30547 -32.3655,4.380294 -1.05563,-1.19393 2.32485,-3.478249 1.21674,-4.623644 -2.53143,-2.616609 -25.0596,9.00935 -27.74186,6.327092 -1.80017,-1.800166 5.69378,-4.770271 3.89361,-6.57044 -1.82692,-1.826924 -23.63129,17.482984 -27.01181,12.410829 -2.17548,-3.264108 6.94734,-14.163347 15.90005,-20.477186 5.70691,-4.024753 12.64489,-4.380435 12.3285,-5.561222 -0.41354,-1.54337 -4.38031,-0.348981 -4.38031,-1.946796 0,-2.283619 6.44537,-7.540806 13.63039,-9.112837 5.74008,-1.255889 12.43644,1.160749 13.13809,-0.377799 1.01255,-2.22026 -3.89696,-4.700473 -2.67684,-6.813788 0.94947,-1.644529 11.63628,-1.213813 21.02784,0.04718 10.05476,1.350043 16.90572,8.012313 17.90808,7.009955 0,0 -8.2371,-5.390473 -5.84039,-7.787189 2.67616,-2.676161 13.47329,4.552174 22.71919,7.981972 8.83105,3.275906 9.34091,11.224297 11.34976,10.025899 2.37262,-1.415406 -3.15529,-7.55884 -0.4867,-8.273886 6.37556,-1.708327 23.5307,18.095309 29.20195,31.14875 1.45778,3.355351 -0.12168,9.64273 -0.12168,9.64273 z"
         id="path23309-0-4-0"
         sodipodi:nodetypes="cssssssssssssssssssssssscc" />
      <path
         style="fill:#4e4b0c;fill-opacity:1;stroke:#000000;stroke-width:0.264583;stroke-dasharray:none;stroke-opacity:1"
         d="m 972.73522,-31.661646 c 0,0 9.4846,-27.165089 9.89425,-36.135573 0.36829,-8.064849 0.39589,-23.963141 -3.634,-23.945582 -2.2943,0.01 1.24274,6.219974 -0.9734,6.813788 -0.52089,0.139572 -1.11619,-5.628164 -4.18604,-10.765027 -3.66937,-6.14008 -9.98891,-11.78456 -11.87502,-10.89309 -2.41902,1.14336 3.8882,5.94605 1.94678,7.78719 -0.75627,0.717206 -5.28427,-6.73987 -9.45389,-10.44218 -6.58309,-5.84528 -15.23925,-8.1451 -17.25805,-6.04655 -2.01354,2.09311 7.16174,3.61489 5.54054,6.02469 -1.11885,1.66308 -23.11753,-9.68551 -24.82168,-6.08373 -1.57545,3.32978 20.08736,11.92328 19.46799,14.60097 -0.58952,2.548639 -7.47037,-1.62327 -7.78719,0.973401 -0.36211,2.967899 19.76834,4.363049 18.98126,7.300489 -0.54505,2.034154 -5.5387,-0.330708 -6.08375,1.703446 -0.56104,2.093821 18.23451,12.480456 17.27782,15.087676 -0.75653,2.061723 -5.47235,-1.415215 -6.57042,0.486698 -0.45317,0.784907 11.44249,10.977344 16.98071,22.78047 4.32313,9.213498 2.55409,20.752914 2.55409,20.752914 z"
         id="path24037-5-8-9"
         sodipodi:nodetypes="csssssssssssssssssc" />
      <path
         style="fill:#4e4b0c;fill-opacity:1;stroke:#000000;stroke-width:0.264583;stroke-dasharray:none;stroke-opacity:1"
         d="m 972.85089,-31.696286 c 0,0 20.41163,-50.848167 25.8559,-49.582483 2.21231,0.514308 -1.70344,7.787188 0,6.813788 1.70341,-0.973396 15.44951,-13.68224 18.49461,-11.92413 1.9187,1.107772 -3.7847,4.165025 -2.6769,6.083742 0.8254,1.429621 13.8267,-3.818798 20.6847,-2.676848 7.2284,1.203631 20.5815,6.760137 19.7113,9.733986 -0.5173,1.767848 -9.1144,-4.397399 -10.9507,-1.21675 -1.0874,1.883364 11.2331,6.476861 14.0553,9.490636 2.978,3.180286 6.9679,10.309942 5.3537,11.924131 -1.2593,1.259279 -2.332,-3.936125 -3.5913,-2.676846 -1.5406,1.540611 3.322,9.275144 3.4069,14.114278 0.064,3.642463 -0.4784,10.707383 -2.1901,10.707383 -3.8398,0 -5.5836,-8.810038 -8.8196,-13.010559 -2.2056,-2.862972 -5.41,-9.063756 -6.7548,-8.404208 -1.9785,0.970326 2.7504,5.69046 0.7301,6.570441 -3.14,1.36769 -6.9076,-6.342347 -10.039,-8.588513 -2.9865,-2.142229 -6.5708,-5.751796 -7.7255,-4.309017 -1.6028,2.002719 5.6627,4.105661 4.3802,6.327089 -0.8685,1.504288 -8.8118,-2.76491 -13.2564,-3.175774 -3.267,-0.302006 -8.6064,-1.467862 -9.3898,1.718209 -0.6237,2.536606 7.1001,0.600106 6.5852,3.161014 -0.5918,2.943199 -14.4306,2.857028 -21.41481,5.11034 -6.09279,1.965714 -22.449,13.810091 -22.449,13.810091 z"
         id="path24041-6-9-5"
         sodipodi:nodetypes="cssssssssssssssssssssssc" />
      <path
         style="fill:#4e4b0c;fill-opacity:1;stroke:#000000;stroke-width:0.264583;stroke-dasharray:none;stroke-opacity:1"
         d="m 972.56463,-32.42306 c 0,0 23.65921,-8.827379 30.64417,-9.676423 7.4524,-0.905858 21.4352,-4.333277 22.5098,0.730048 0.5799,2.732648 -8.6389,3.650245 -7.5438,3.650245 1.095,0 19.5896,1.338424 20.198,1.460098 0.6083,0.121676 19.1389,4.717662 18.2512,8.030538 -0.7592,2.833512 -13.2722,-2.355971 -13.8709,-0.121674 -1.0047,3.749516 13.8148,5.670691 19.833,9.977333 5.0379,3.605111 15.1501,9.7497209 13.2625,13.0192037 -0.8324,1.4417076 -6.8539,-3.6100603 -9.0039,-1.4600978 -1.4676,1.4675526 9.0119,4.8264137 12.4108,8.5172363 3.3226,3.6080249 9.0074,11.0735798 7.3005,12.7758548 -1.3251,1.321504 -2.9684,-5.6085634 -4.3508,-4.347188 -2.7648,2.522758 6.0332,11.930876 6.8138,14.844328 1.5029,5.608914 0.9377,18.330372 -1.3679,18.948161 -2.9693,0.795619 -11.122,-21.143026 -11.9242,-20.928065 -2.3509,0.629923 -0.5693,6.062191 -2.9202,6.692114 -3.3079,0.886336 -10.8704,-16.08548 -14.7226,-15.087675 -2.2383,0.57977 0.4083,6.093679 -1.8251,6.692114 -5.9157,1.585095 -15.4029,-27.4950016 -21.2931,-25.9167336 -2.9434,0.7886927 1.3605,8.2109381 -1.5818,9.0039355 -4.4227,1.1919855 -13.9018,-21.9304669 -17.6428,-20.9280659 -2.4013,0.643422 2.8829,6.179167 0.73,7.4221627 -3.5825,2.0683513 -11.7242,-12.9978267 -18.61326,-18.3202177 -4.59842,-3.552674 -25.29341,-4.977232 -25.29341,-4.977232 z"
         id="path24769-6-5-2"
         sodipodi:nodetypes="csssssssssssssssssssssssc" />
      <path
         style="fill:#4e4b0c;fill-opacity:1;stroke:#000000;stroke-width:0.264583;stroke-dasharray:none;stroke-opacity:1"
         d="m 972.83753,-31.505752 c 0,0 15.13373,4.158551 21.84493,7.787266 5.89364,3.186656 15.77674,11.117013 14.46454,13.9565147 -1.0902,2.3591547 -8.0308,-2.3239927 -7.4249,-2.3791027 0.6059,-0.05511 12.0343,17.8842336 8.8136,20.3349923 -1.438,1.0942418 -4.2632,-3.8884345 -4.2191,-3.4037361 0.044,0.4846985 2.034,10.6112648 1.8183,15.9619868 -0.2094,5.19373 0.2691,14.096214 -3.0067,15.301249 -3.1808,1.170156 -7.66352,-4.852293 -10.6417,-8.195362 -3.59577,-4.036309 -7.69269,-13.96156 -8.35069,-13.901711 -3.1112,0.282978 -0.77898,9.015746 -3.8662,8.537512 -4.25335,-0.658876 -0.79338,-25.6184995 -3.16277,-26.7134615 -2.29007,-1.0583038 -3.71283,6.6494885 -5.65095,5.03453221 -2.71904,-2.26565811 4.32799,-22.30292171 2.41143,-23.18861771 -1.52557,-0.705009 -3.99127,3.703535 -4.5715,2.126278 -0.9415,-2.559341 1.54171,-11.25834 1.54171,-11.25834 z"
         id="path24771-7-4-0"
         sodipodi:nodetypes="cssssssssssssssc" />
    </g>
    <g
       id="g28307-9-0-6"
       transform="matrix(-0.27917363,0,0,0.27917363,341.75244,120.45065)">
      <path
         style="fill:#633813;fill-opacity:1;stroke:#000000;stroke-width:0.264583;stroke-dasharray:none;stroke-opacity:1"
         d="m 972.57447,-31.429631 c 0,0 -39.83518,64.519254 -49.5687,100.259294 -8.4027,30.853472 -13.87499,62.488207 -19.2723,94.296637 -4.4987,26.5126 -4.81806,80.53071 -4.81806,80.53071 l 33.60125,0.40319 c 0,0 -2.60831,-51.23533 -1.25131,-76.80412 1.49463,-28.16187 5.20919,-56.23847 10.32444,-83.972188 3.98679,-21.615446 10.15304,-42.777536 15.83081,-64.011586 4.50186,-16.8363049 15.15387,-50.701937 15.15387,-50.701937 z"
         id="path18976-2-3-37"
         sodipodi:nodetypes="cssccsssc" />
      <path
         style="fill:#4e4b0c;fill-opacity:1;stroke:#000000;stroke-width:0.264583;stroke-dasharray:none;stroke-opacity:1"
         d="m 972.42504,-31.3921 c 0,0 -7.62378,2.440254 -14.71509,8.435935 -7.15542,6.049881 -13.78637,15.6556767 -15.46026,15.6556767 -2.0149,0 -1.87871,-4.6236427 -3.89361,-4.6236427 -3.24824,0 -6.25884,18.4890748 -9.00393,19.2246193 -1.84918,0.4954874 -1.51809,-4.9358484 -3.40688,-4.6236427 -2.25062,0.3720143 -2.38047,14.7251644 -4.86701,15.3310254 -1.56037,0.380194 -1.85558,-3.822563 -3.40688,-3.406894 -2.66698,0.714615 -8.13907,20.32359 -10.46404,18.98127 -2.99104,-1.72688 0.68876,-21.671099 -0.73006,-22.388165 -1.40567,-0.71042 -2.68054,3.681404 -3.89358,2.676846 -3.12151,-2.585021 13.70749,-24.498383 11.68077,-26.525108 -1.36339,-1.363385 -4.13358,3.6831217 -5.35369,2.190147 -3.0098,-3.682912 17.25453,-17.489935 16.18277,-19.346293 -1.09808,-1.901922 -5.10735,2.510294 -6.20543,0.608372 -1.10786,-1.918865 6.47759,-5.712442 10.46403,-7.057138 9.39253,-3.168268 19.9728,-3.668063 29.68866,-1.703446 4.87141,0.985035 13.38423,6.570438 13.38423,6.570438 z"
         id="path20046-5-9-75"
         sodipodi:nodetypes="cssssssssssssssssc" />
      <path
         style="fill:#4e4b0c;fill-opacity:1;stroke:#000000;stroke-width:0.264583;stroke-dasharray:none;stroke-opacity:1"
         d="m 972.39107,-31.575607 c 0,0 -9.8993,-8.970678 -13.24972,-9.808229 -8.21911,-2.054646 -29.15657,0.511452 -29.15657,0.511452 -1.73639,-1.2955 3.88408,-2.611297 3.08733,-4.038972 -4.22626,-7.572914 -21.01361,10.000515 -25.86477,2.811875 -1.44133,-2.135813 5.11946,-4.697065 3.65025,-6.813791 -6.20773,-8.943588 -29.77916,7.30547 -32.3655,4.380294 -1.05563,-1.19393 2.32485,-3.478249 1.21674,-4.623644 -2.53143,-2.616609 -25.0596,9.00935 -27.74186,6.327092 -1.80017,-1.800166 5.69378,-4.770271 3.89361,-6.57044 -1.82692,-1.826924 -23.63129,17.482984 -27.01181,12.410829 -2.17548,-3.264108 6.94734,-14.163347 15.90005,-20.477186 5.70691,-4.024753 12.64489,-4.380435 12.3285,-5.561222 -0.41354,-1.54337 -4.38031,-0.348981 -4.38031,-1.946796 0,-2.283619 6.44537,-7.540806 13.63039,-9.112837 5.74008,-1.255889 12.43644,1.160749 13.13809,-0.377799 1.01255,-2.22026 -3.89696,-4.700473 -2.67684,-6.813788 0.94947,-1.644529 11.63628,-1.213813 21.02784,0.04718 10.05476,1.350043 16.90572,8.012313 17.90808,7.009955 0,0 -8.2371,-5.390473 -5.84039,-7.787189 2.67616,-2.676161 13.47329,4.552174 22.71919,7.981972 8.83105,3.275906 9.34091,11.224297 11.34976,10.025899 2.37262,-1.415406 -3.15529,-7.55884 -0.4867,-8.273886 6.37556,-1.708327 23.5307,18.095309 29.20195,31.14875 1.45778,3.355351 -0.12168,9.64273 -0.12168,9.64273 z"
         id="path23309-0-4-6"
         sodipodi:nodetypes="cssssssssssssssssssssssscc" />
      <path
         style="fill:#4e4b0c;fill-opacity:1;stroke:#000000;stroke-width:0.264583;stroke-dasharray:none;stroke-opacity:1"
         d="m 972.73522,-31.661646 c 0,0 9.4846,-27.165089 9.89425,-36.135573 0.36829,-8.064849 0.39589,-23.963141 -3.634,-23.945582 -2.2943,0.01 1.24274,6.219974 -0.9734,6.813788 -0.52089,0.139572 -1.11619,-5.628164 -4.18604,-10.765027 -3.66937,-6.14008 -9.98891,-11.78456 -11.87502,-10.89309 -2.41902,1.14336 3.8882,5.94605 1.94678,7.78719 -0.75627,0.717206 -5.28427,-6.73987 -9.45389,-10.44218 -6.58309,-5.84528 -15.23925,-8.1451 -17.25805,-6.04655 -2.01354,2.09311 7.16174,3.61489 5.54054,6.02469 -1.11885,1.66308 -23.11753,-9.68551 -24.82168,-6.08373 -1.57545,3.32978 20.08736,11.92328 19.46799,14.60097 -0.58952,2.548639 -7.47037,-1.62327 -7.78719,0.973401 -0.36211,2.967899 19.76834,4.363049 18.98126,7.300489 -0.54505,2.034154 -5.5387,-0.330708 -6.08375,1.703446 -0.56104,2.093821 18.23451,12.480456 17.27782,15.087676 -0.75653,2.061723 -5.47235,-1.415215 -6.57042,0.486698 -0.45317,0.784907 11.44249,10.977344 16.98071,22.78047 4.32313,9.213498 2.55409,20.752914 2.55409,20.752914 z"
         id="path24037-5-8-0"
         sodipodi:nodetypes="csssssssssssssssssc" />
      <path
         style="fill:#4e4b0c;fill-opacity:1;stroke:#000000;stroke-width:0.264583;stroke-dasharray:none;stroke-opacity:1"
         d="m 972.85089,-31.696286 c 0,0 20.41163,-50.848167 25.8559,-49.582483 2.21231,0.514308 -1.70344,7.787188 0,6.813788 1.70341,-0.973396 15.44951,-13.68224 18.49461,-11.92413 1.9187,1.107772 -3.7847,4.165025 -2.6769,6.083742 0.8254,1.429621 13.8267,-3.818798 20.6847,-2.676848 7.2284,1.203631 20.5815,6.760137 19.7113,9.733986 -0.5173,1.767848 -9.1144,-4.397399 -10.9507,-1.21675 -1.0874,1.883364 11.2331,6.476861 14.0553,9.490636 2.978,3.180286 6.9679,10.309942 5.3537,11.924131 -1.2593,1.259279 -2.332,-3.936125 -3.5913,-2.676846 -1.5406,1.540611 3.322,9.275144 3.4069,14.114278 0.064,3.642463 -0.4784,10.707383 -2.1901,10.707383 -3.8398,0 -5.5836,-8.810038 -8.8196,-13.010559 -2.2056,-2.862972 -5.41,-9.063756 -6.7548,-8.404208 -1.9785,0.970326 2.7504,5.69046 0.7301,6.570441 -3.14,1.36769 -6.9076,-6.342347 -10.039,-8.588513 -2.9865,-2.142229 -6.5708,-5.751796 -7.7255,-4.309017 -1.6028,2.002719 5.6627,4.105661 4.3802,6.327089 -0.8685,1.504288 -8.8118,-2.76491 -13.2564,-3.175774 -3.267,-0.302006 -8.6064,-1.467862 -9.3898,1.718209 -0.6237,2.536606 7.1001,0.600106 6.5852,3.161014 -0.5918,2.943199 -14.4306,2.857028 -21.41481,5.11034 -6.09279,1.965714 -22.449,13.810091 -22.449,13.810091 z"
         id="path24041-6-9-8"
         sodipodi:nodetypes="cssssssssssssssssssssssc" />
      <path
         style="fill:#4e4b0c;fill-opacity:1;stroke:#000000;stroke-width:0.264583;stroke-dasharray:none;stroke-opacity:1"
         d="m 972.56463,-32.42306 c 0,0 23.65921,-8.827379 30.64417,-9.676423 7.4524,-0.905858 21.4352,-4.333277 22.5098,0.730048 0.5799,2.732648 -8.6389,3.650245 -7.5438,3.650245 1.095,0 19.5896,1.338424 20.198,1.460098 0.6083,0.121676 19.1389,4.717662 18.2512,8.030538 -0.7592,2.833512 -13.2722,-2.355971 -13.8709,-0.121674 -1.0047,3.749516 13.8148,5.670691 19.833,9.977333 5.0379,3.605111 15.1501,9.7497209 13.2625,13.0192037 -0.8324,1.4417076 -6.8539,-3.6100603 -9.0039,-1.4600978 -1.4676,1.4675526 9.0119,4.8264137 12.4108,8.5172363 3.3226,3.6080249 9.0074,11.0735798 7.3005,12.7758548 -1.3251,1.321504 -2.9684,-5.6085634 -4.3508,-4.347188 -2.7648,2.522758 6.0332,11.930876 6.8138,14.844328 1.5029,5.608914 0.9377,18.330372 -1.3679,18.948161 -2.9693,0.795619 -11.122,-21.143026 -11.9242,-20.928065 -2.3509,0.629923 -0.5693,6.062191 -2.9202,6.692114 -3.3079,0.886336 -10.8704,-16.08548 -14.7226,-15.087675 -2.2383,0.57977 0.4083,6.093679 -1.8251,6.692114 -5.9157,1.585095 -15.4029,-27.4950016 -21.2931,-25.9167336 -2.9434,0.7886927 1.3605,8.2109381 -1.5818,9.0039355 -4.4227,1.1919855 -13.9018,-21.9304669 -17.6428,-20.9280659 -2.4013,0.643422 2.8829,6.179167 0.73,7.4221627 -3.5825,2.0683513 -11.7242,-12.9978267 -18.61326,-18.3202177 -4.59842,-3.552674 -25.29341,-4.977232 -25.29341,-4.977232 z"
         id="path24769-6-5-0"
         sodipodi:nodetypes="csssssssssssssssssssssssc" />
      <path
         style="fill:#4e4b0c;fill-opacity:1;stroke:#000000;stroke-width:0.264583;stroke-dasharray:none;stroke-opacity:1"
         d="m 972.83753,-31.505752 c 0,0 15.13373,4.158551 21.84493,7.787266 5.89364,3.186656 15.77674,11.117013 14.46454,13.9565147 -1.0902,2.3591547 -8.0308,-2.3239927 -7.4249,-2.3791027 0.6059,-0.05511 12.0343,17.8842336 8.8136,20.3349923 -1.438,1.0942418 -4.2632,-3.8884345 -4.2191,-3.4037361 0.044,0.4846985 2.034,10.6112648 1.8183,15.9619868 -0.2094,5.19373 0.2691,14.096214 -3.0067,15.301249 -3.1808,1.170156 -7.66352,-4.852293 -10.6417,-8.195362 -3.59577,-4.036309 -7.69269,-13.96156 -8.35069,-13.901711 -3.1112,0.282978 -0.77898,9.015746 -3.8662,8.537512 -4.25335,-0.658876 -0.79338,-25.6184995 -3.16277,-26.7134615 -2.29007,-1.0583038 -3.71283,6.6494885 -5.65095,5.03453221 -2.71904,-2.26565811 4.32799,-22.30292171 2.41143,-23.18861771 -1.52557,-0.705009 -3.99127,3.703535 -4.5715,2.126278 -0.9415,-2.559341 1.54171,-11.25834 1.54171,-11.25834 z"
         id="path24771-7-4-6"
         sodipodi:nodetypes="cssssssssssssssc" />
    </g>
    <g
       id="g28307-9-0-5"
       transform="matrix(0.27917363,0,0,0.27917363,-108.18202,62.184715)">
      <path
         style="fill:#633813;fill-opacity:1;stroke:#000000;stroke-width:0.264583;stroke-dasharray:none;stroke-opacity:1"
         d="m 972.57447,-31.429631 c 0,0 -39.83518,64.519254 -49.5687,100.259294 -8.4027,30.853472 -13.87499,62.488207 -19.2723,94.296637 -4.4987,26.5126 -4.81806,80.53071 -4.81806,80.53071 l 33.60125,0.40319 c 0,0 -2.60831,-51.23533 -1.25131,-76.80412 1.49463,-28.16187 5.20919,-56.23847 10.32444,-83.972188 3.98679,-21.615446 10.15304,-42.777536 15.83081,-64.011586 4.50186,-16.8363049 15.15387,-50.701937 15.15387,-50.701937 z"
         id="path18976-2-3-2"
         sodipodi:nodetypes="cssccsssc" />
      <path
         style="fill:#4e4b0c;fill-opacity:1;stroke:#000000;stroke-width:0.264583;stroke-dasharray:none;stroke-opacity:1"
         d="m 972.42504,-31.3921 c 0,0 -7.62378,2.440254 -14.71509,8.435935 -7.15542,6.049881 -13.78637,15.6556767 -15.46026,15.6556767 -2.0149,0 -1.87871,-4.6236427 -3.89361,-4.6236427 -3.24824,0 -6.25884,18.4890748 -9.00393,19.2246193 -1.84918,0.4954874 -1.51809,-4.9358484 -3.40688,-4.6236427 -2.25062,0.3720143 -2.38047,14.7251644 -4.86701,15.3310254 -1.56037,0.380194 -1.85558,-3.822563 -3.40688,-3.406894 -2.66698,0.714615 -8.13907,20.32359 -10.46404,18.98127 -2.99104,-1.72688 0.68876,-21.671099 -0.73006,-22.388165 -1.40567,-0.71042 -2.68054,3.681404 -3.89358,2.676846 -3.12151,-2.585021 13.70749,-24.498383 11.68077,-26.525108 -1.36339,-1.363385 -4.13358,3.6831217 -5.35369,2.190147 -3.0098,-3.682912 17.25453,-17.489935 16.18277,-19.346293 -1.09808,-1.901922 -5.10735,2.510294 -6.20543,0.608372 -1.10786,-1.918865 6.47759,-5.712442 10.46403,-7.057138 9.39253,-3.168268 19.9728,-3.668063 29.68866,-1.703446 4.87141,0.985035 13.38423,6.570438 13.38423,6.570438 z"
         id="path20046-5-9-1"
         sodipodi:nodetypes="cssssssssssssssssc" />
      <path
         style="fill:#4e4b0c;fill-opacity:1;stroke:#000000;stroke-width:0.264583;stroke-dasharray:none;stroke-opacity:1"
         d="m 972.39107,-31.575607 c 0,0 -9.8993,-8.970678 -13.24972,-9.808229 -8.21911,-2.054646 -29.15657,0.511452 -29.15657,0.511452 -1.73639,-1.2955 3.88408,-2.611297 3.08733,-4.038972 -4.22626,-7.572914 -21.01361,10.000515 -25.86477,2.811875 -1.44133,-2.135813 5.11946,-4.697065 3.65025,-6.813791 -6.20773,-8.943588 -29.77916,7.30547 -32.3655,4.380294 -1.05563,-1.19393 2.32485,-3.478249 1.21674,-4.623644 -2.53143,-2.616609 -25.0596,9.00935 -27.74186,6.327092 -1.80017,-1.800166 5.69378,-4.770271 3.89361,-6.57044 -1.82692,-1.826924 -23.63129,17.482984 -27.01181,12.410829 -2.17548,-3.264108 6.94734,-14.163347 15.90005,-20.477186 5.70691,-4.024753 12.64489,-4.380435 12.3285,-5.561222 -0.41354,-1.54337 -4.38031,-0.348981 -4.38031,-1.946796 0,-2.283619 6.44537,-7.540806 13.63039,-9.112837 5.74008,-1.255889 12.43644,1.160749 13.13809,-0.377799 1.01255,-2.22026 -3.89696,-4.700473 -2.67684,-6.813788 0.94947,-1.644529 11.63628,-1.213813 21.02784,0.04718 10.05476,1.350043 16.90572,8.012313 17.90808,7.009955 0,0 -8.2371,-5.390473 -5.84039,-7.787189 2.67616,-2.676161 13.47329,4.552174 22.71919,7.981972 8.83105,3.275906 9.34091,11.224297 11.34976,10.025899 2.37262,-1.415406 -3.15529,-7.55884 -0.4867,-8.273886 6.37556,-1.708327 23.5307,18.095309 29.20195,31.14875 1.45778,3.355351 -0.12168,9.64273 -0.12168,9.64273 z"
         id="path23309-0-4-2"
         sodipodi:nodetypes="cssssssssssssssssssssssscc" />
      <path
         style="fill:#4e4b0c;fill-opacity:1;stroke:#000000;stroke-width:0.264583;stroke-dasharray:none;stroke-opacity:1"
         d="m 972.73522,-31.661646 c 0,0 9.4846,-27.165089 9.89425,-36.135573 0.36829,-8.064849 0.39589,-23.963141 -3.634,-23.945582 -2.2943,0.01 1.24274,6.219974 -0.9734,6.813788 -0.52089,0.139572 -1.11619,-5.628164 -4.18604,-10.765027 -3.66937,-6.14008 -9.98891,-11.78456 -11.87502,-10.89309 -2.41902,1.14336 3.8882,5.94605 1.94678,7.78719 -0.75627,0.717206 -5.28427,-6.73987 -9.45389,-10.44218 -6.58309,-5.84528 -15.23925,-8.1451 -17.25805,-6.04655 -2.01354,2.09311 7.16174,3.61489 5.54054,6.02469 -1.11885,1.66308 -23.11753,-9.68551 -24.82168,-6.08373 -1.57545,3.32978 20.08736,11.92328 19.46799,14.60097 -0.58952,2.548639 -7.47037,-1.62327 -7.78719,0.973401 -0.36211,2.967899 19.76834,4.363049 18.98126,7.300489 -0.54505,2.034154 -5.5387,-0.330708 -6.08375,1.703446 -0.56104,2.093821 18.23451,12.480456 17.27782,15.087676 -0.75653,2.061723 -5.47235,-1.415215 -6.57042,0.486698 -0.45317,0.784907 11.44249,10.977344 16.98071,22.78047 4.32313,9.213498 2.55409,20.752914 2.55409,20.752914 z"
         id="path24037-5-8-99"
         sodipodi:nodetypes="csssssssssssssssssc" />
      <path
         style="fill:#4e4b0c;fill-opacity:1;stroke:#000000;stroke-width:0.264583;stroke-dasharray:none;stroke-opacity:1"
         d="m 972.85089,-31.696286 c 0,0 20.41163,-50.848167 25.8559,-49.582483 2.21231,0.514308 -1.70344,7.787188 0,6.813788 1.70341,-0.973396 15.44951,-13.68224 18.49461,-11.92413 1.9187,1.107772 -3.7847,4.165025 -2.6769,6.083742 0.8254,1.429621 13.8267,-3.818798 20.6847,-2.676848 7.2284,1.203631 20.5815,6.760137 19.7113,9.733986 -0.5173,1.767848 -9.1144,-4.397399 -10.9507,-1.21675 -1.0874,1.883364 11.2331,6.476861 14.0553,9.490636 2.978,3.180286 6.9679,10.309942 5.3537,11.924131 -1.2593,1.259279 -2.332,-3.936125 -3.5913,-2.676846 -1.5406,1.540611 3.322,9.275144 3.4069,14.114278 0.064,3.642463 -0.4784,10.707383 -2.1901,10.707383 -3.8398,0 -5.5836,-8.810038 -8.8196,-13.010559 -2.2056,-2.862972 -5.41,-9.063756 -6.7548,-8.404208 -1.9785,0.970326 2.7504,5.69046 0.7301,6.570441 -3.14,1.36769 -6.9076,-6.342347 -10.039,-8.588513 -2.9865,-2.142229 -6.5708,-5.751796 -7.7255,-4.309017 -1.6028,2.002719 5.6627,4.105661 4.3802,6.327089 -0.8685,1.504288 -8.8118,-2.76491 -13.2564,-3.175774 -3.267,-0.302006 -8.6064,-1.467862 -9.3898,1.718209 -0.6237,2.536606 7.1001,0.600106 6.5852,3.161014 -0.5918,2.943199 -14.4306,2.857028 -21.41481,5.11034 -6.09279,1.965714 -22.449,13.810091 -22.449,13.810091 z"
         id="path24041-6-9-55"
         sodipodi:nodetypes="cssssssssssssssssssssssc" />
      <path
         style="fill:#4e4b0c;fill-opacity:1;stroke:#000000;stroke-width:0.264583;stroke-dasharray:none;stroke-opacity:1"
         d="m 972.56463,-32.42306 c 0,0 23.65921,-8.827379 30.64417,-9.676423 7.4524,-0.905858 21.4352,-4.333277 22.5098,0.730048 0.5799,2.732648 -8.6389,3.650245 -7.5438,3.650245 1.095,0 19.5896,1.338424 20.198,1.460098 0.6083,0.121676 19.1389,4.717662 18.2512,8.030538 -0.7592,2.833512 -13.2722,-2.355971 -13.8709,-0.121674 -1.0047,3.749516 13.8148,5.670691 19.833,9.977333 5.0379,3.605111 15.1501,9.7497209 13.2625,13.0192037 -0.8324,1.4417076 -6.8539,-3.6100603 -9.0039,-1.4600978 -1.4676,1.4675526 9.0119,4.8264137 12.4108,8.5172363 3.3226,3.6080249 9.0074,11.0735798 7.3005,12.7758548 -1.3251,1.321504 -2.9684,-5.6085634 -4.3508,-4.347188 -2.7648,2.522758 6.0332,11.930876 6.8138,14.844328 1.5029,5.608914 0.9377,18.330372 -1.3679,18.948161 -2.9693,0.795619 -11.122,-21.143026 -11.9242,-20.928065 -2.3509,0.629923 -0.5693,6.062191 -2.9202,6.692114 -3.3079,0.886336 -10.8704,-16.08548 -14.7226,-15.087675 -2.2383,0.57977 0.4083,6.093679 -1.8251,6.692114 -5.9157,1.585095 -15.4029,-27.4950016 -21.2931,-25.9167336 -2.9434,0.7886927 1.3605,8.2109381 -1.5818,9.0039355 -4.4227,1.1919855 -13.9018,-21.9304669 -17.6428,-20.9280659 -2.4013,0.643422 2.8829,6.179167 0.73,7.4221627 -3.5825,2.0683513 -11.7242,-12.9978267 -18.61326,-18.3202177 -4.59842,-3.552674 -25.29341,-4.977232 -25.29341,-4.977232 z"
         id="path24769-6-5-3"
         sodipodi:nodetypes="csssssssssssssssssssssssc" />
      <path
         style="fill:#4e4b0c;fill-opacity:1;stroke:#000000;stroke-width:0.264583;stroke-dasharray:none;stroke-opacity:1"
         d="m 972.83753,-31.505752 c 0,0 15.13373,4.158551 21.84493,7.787266 5.89364,3.186656 15.77674,11.117013 14.46454,13.9565147 -1.0902,2.3591547 -8.0308,-2.3239927 -7.4249,-2.3791027 0.6059,-0.05511 12.0343,17.8842336 8.8136,20.3349923 -1.438,1.0942418 -4.2632,-3.8884345 -4.2191,-3.4037361 0.044,0.4846985 2.034,10.6112648 1.8183,15.9619868 -0.2094,5.19373 0.2691,14.096214 -3.0067,15.301249 -3.1808,1.170156 -7.66352,-4.852293 -10.6417,-8.195362 -3.59577,-4.036309 -7.69269,-13.96156 -8.35069,-13.901711 -3.1112,0.282978 -0.77898,9.015746 -3.8662,8.537512 -4.25335,-0.658876 -0.79338,-25.6184995 -3.16277,-26.7134615 -2.29007,-1.0583038 -3.71283,6.6494885 -5.65095,5.03453221 -2.71904,-2.26565811 4.32799,-22.30292171 2.41143,-23.18861771 -1.52557,-0.705009 -3.99127,3.703535 -4.5715,2.126278 -0.9415,-2.559341 1.54171,-11.25834 1.54171,-11.25834 z"
         id="path24771-7-4-7"
         sodipodi:nodetypes="cssssssssssssssc" />
    </g>
    <g
       id="g28307-9-0-28"
       transform="matrix(-0.27917363,0,0,0.27917363,520.60354,55.598131)">
      <path
         style="fill:#633813;fill-opacity:1;stroke:#000000;stroke-width:0.264583;stroke-dasharray:none;stroke-opacity:1"
         d="m 972.57447,-31.429631 c 0,0 -39.83518,64.519254 -49.5687,100.259294 -8.4027,30.853472 -13.87499,62.488207 -19.2723,94.296637 -4.4987,26.5126 -4.81806,80.53071 -4.81806,80.53071 l 33.60125,0.40319 c 0,0 -2.60831,-51.23533 -1.25131,-76.80412 1.49463,-28.16187 5.20919,-56.23847 10.32444,-83.972188 3.98679,-21.615446 10.15304,-42.777536 15.83081,-64.011586 4.50186,-16.8363049 15.15387,-50.701937 15.15387,-50.701937 z"
         id="path18976-2-3-30"
         sodipodi:nodetypes="cssccsssc" />
      <path
         style="fill:#4e4b0c;fill-opacity:1;stroke:#000000;stroke-width:0.264583;stroke-dasharray:none;stroke-opacity:1"
         d="m 972.42504,-31.3921 c 0,0 -7.62378,2.440254 -14.71509,8.435935 -7.15542,6.049881 -13.78637,15.6556767 -15.46026,15.6556767 -2.0149,0 -1.87871,-4.6236427 -3.89361,-4.6236427 -3.24824,0 -6.25884,18.4890748 -9.00393,19.2246193 -1.84918,0.4954874 -1.51809,-4.9358484 -3.40688,-4.6236427 -2.25062,0.3720143 -2.38047,14.7251644 -4.86701,15.3310254 -1.56037,0.380194 -1.85558,-3.822563 -3.40688,-3.406894 -2.66698,0.714615 -8.13907,20.32359 -10.46404,18.98127 -2.99104,-1.72688 0.68876,-21.671099 -0.73006,-22.388165 -1.40567,-0.71042 -2.68054,3.681404 -3.89358,2.676846 -3.12151,-2.585021 13.70749,-24.498383 11.68077,-26.525108 -1.36339,-1.363385 -4.13358,3.6831217 -5.35369,2.190147 -3.0098,-3.682912 17.25453,-17.489935 16.18277,-19.346293 -1.09808,-1.901922 -5.10735,2.510294 -6.20543,0.608372 -1.10786,-1.918865 6.47759,-5.712442 10.46403,-7.057138 9.39253,-3.168268 19.9728,-3.668063 29.68866,-1.703446 4.87141,0.985035 13.38423,6.570438 13.38423,6.570438 z"
         id="path20046-5-9-3"
         sodipodi:nodetypes="cssssssssssssssssc" />
      <path
         style="fill:#4e4b0c;fill-opacity:1;stroke:#000000;stroke-width:0.264583;stroke-dasharray:none;stroke-opacity:1"
         d="m 972.39107,-31.575607 c 0,0 -9.8993,-8.970678 -13.24972,-9.808229 -8.21911,-2.054646 -29.15657,0.511452 -29.15657,0.511452 -1.73639,-1.2955 3.88408,-2.611297 3.08733,-4.038972 -4.22626,-7.572914 -21.01361,10.000515 -25.86477,2.811875 -1.44133,-2.135813 5.11946,-4.697065 3.65025,-6.813791 -6.20773,-8.943588 -29.77916,7.30547 -32.3655,4.380294 -1.05563,-1.19393 2.32485,-3.478249 1.21674,-4.623644 -2.53143,-2.616609 -25.0596,9.00935 -27.74186,6.327092 -1.80017,-1.800166 5.69378,-4.770271 3.89361,-6.57044 -1.82692,-1.826924 -23.63129,17.482984 -27.01181,12.410829 -2.17548,-3.264108 6.94734,-14.163347 15.90005,-20.477186 5.70691,-4.024753 12.64489,-4.380435 12.3285,-5.561222 -0.41354,-1.54337 -4.38031,-0.348981 -4.38031,-1.946796 0,-2.283619 6.44537,-7.540806 13.63039,-9.112837 5.74008,-1.255889 12.43644,1.160749 13.13809,-0.377799 1.01255,-2.22026 -3.89696,-4.700473 -2.67684,-6.813788 0.94947,-1.644529 11.63628,-1.213813 21.02784,0.04718 10.05476,1.350043 16.90572,8.012313 17.90808,7.009955 0,0 -8.2371,-5.390473 -5.84039,-7.787189 2.67616,-2.676161 13.47329,4.552174 22.71919,7.981972 8.83105,3.275906 9.34091,11.224297 11.34976,10.025899 2.37262,-1.415406 -3.15529,-7.55884 -0.4867,-8.273886 6.37556,-1.708327 23.5307,18.095309 29.20195,31.14875 1.45778,3.355351 -0.12168,9.64273 -0.12168,9.64273 z"
         id="path23309-0-4-68"
         sodipodi:nodetypes="cssssssssssssssssssssssscc" />
      <path
         style="fill:#4e4b0c;fill-opacity:1;stroke:#000000;stroke-width:0.264583;stroke-dasharray:none;stroke-opacity:1"
         d="m 972.73522,-31.661646 c 0,0 9.4846,-27.165089 9.89425,-36.135573 0.36829,-8.064849 0.39589,-23.963141 -3.634,-23.945582 -2.2943,0.01 1.24274,6.219974 -0.9734,6.813788 -0.52089,0.139572 -1.11619,-5.628164 -4.18604,-10.765027 -3.66937,-6.14008 -9.98891,-11.78456 -11.87502,-10.89309 -2.41902,1.14336 3.8882,5.94605 1.94678,7.78719 -0.75627,0.717206 -5.28427,-6.73987 -9.45389,-10.44218 -6.58309,-5.84528 -15.23925,-8.1451 -17.25805,-6.04655 -2.01354,2.09311 7.16174,3.61489 5.54054,6.02469 -1.11885,1.66308 -23.11753,-9.68551 -24.82168,-6.08373 -1.57545,3.32978 20.08736,11.92328 19.46799,14.60097 -0.58952,2.548639 -7.47037,-1.62327 -7.78719,0.973401 -0.36211,2.967899 19.76834,4.363049 18.98126,7.300489 -0.54505,2.034154 -5.5387,-0.330708 -6.08375,1.703446 -0.56104,2.093821 18.23451,12.480456 17.27782,15.087676 -0.75653,2.061723 -5.47235,-1.415215 -6.57042,0.486698 -0.45317,0.784907 11.44249,10.977344 16.98071,22.78047 4.32313,9.213498 2.55409,20.752914 2.55409,20.752914 z"
         id="path24037-5-8-2"
         sodipodi:nodetypes="csssssssssssssssssc" />
      <path
         style="fill:#4e4b0c;fill-opacity:1;stroke:#000000;stroke-width:0.264583;stroke-dasharray:none;stroke-opacity:1"
         d="m 972.85089,-31.696286 c 0,0 20.41163,-50.848167 25.8559,-49.582483 2.21231,0.514308 -1.70344,7.787188 0,6.813788 1.70341,-0.973396 15.44951,-13.68224 18.49461,-11.92413 1.9187,1.107772 -3.7847,4.165025 -2.6769,6.083742 0.8254,1.429621 13.8267,-3.818798 20.6847,-2.676848 7.2284,1.203631 20.5815,6.760137 19.7113,9.733986 -0.5173,1.767848 -9.1144,-4.397399 -10.9507,-1.21675 -1.0874,1.883364 11.2331,6.476861 14.0553,9.490636 2.978,3.180286 6.9679,10.309942 5.3537,11.924131 -1.2593,1.259279 -2.332,-3.936125 -3.5913,-2.676846 -1.5406,1.540611 3.322,9.275144 3.4069,14.114278 0.064,3.642463 -0.4784,10.707383 -2.1901,10.707383 -3.8398,0 -5.5836,-8.810038 -8.8196,-13.010559 -2.2056,-2.862972 -5.41,-9.063756 -6.7548,-8.404208 -1.9785,0.970326 2.7504,5.69046 0.7301,6.570441 -3.14,1.36769 -6.9076,-6.342347 -10.039,-8.588513 -2.9865,-2.142229 -6.5708,-5.751796 -7.7255,-4.309017 -1.6028,2.002719 5.6627,4.105661 4.3802,6.327089 -0.8685,1.504288 -8.8118,-2.76491 -13.2564,-3.175774 -3.267,-0.302006 -8.6064,-1.467862 -9.3898,1.718209 -0.6237,2.536606 7.1001,0.600106 6.5852,3.161014 -0.5918,2.943199 -14.4306,2.857028 -21.41481,5.11034 -6.09279,1.965714 -22.449,13.810091 -22.449,13.810091 z"
         id="path24041-6-9-3"
         sodipodi:nodetypes="cssssssssssssssssssssssc" />
      <path
         style="fill:#4e4b0c;fill-opacity:1;stroke:#000000;stroke-width:0.264583;stroke-dasharray:none;stroke-opacity:1"
         d="m 972.56463,-32.42306 c 0,0 23.65921,-8.827379 30.64417,-9.676423 7.4524,-0.905858 21.4352,-4.333277 22.5098,0.730048 0.5799,2.732648 -8.6389,3.650245 -7.5438,3.650245 1.095,0 19.5896,1.338424 20.198,1.460098 0.6083,0.121676 19.1389,4.717662 18.2512,8.030538 -0.7592,2.833512 -13.2722,-2.355971 -13.8709,-0.121674 -1.0047,3.749516 13.8148,5.670691 19.833,9.977333 5.0379,3.605111 15.1501,9.7497209 13.2625,13.0192037 -0.8324,1.4417076 -6.8539,-3.6100603 -9.0039,-1.4600978 -1.4676,1.4675526 9.0119,4.8264137 12.4108,8.5172363 3.3226,3.6080249 9.0074,11.0735798 7.3005,12.7758548 -1.3251,1.321504 -2.9684,-5.6085634 -4.3508,-4.347188 -2.7648,2.522758 6.0332,11.930876 6.8138,14.844328 1.5029,5.608914 0.9377,18.330372 -1.3679,18.948161 -2.9693,0.795619 -11.122,-21.143026 -11.9242,-20.928065 -2.3509,0.629923 -0.5693,6.062191 -2.9202,6.692114 -3.3079,0.886336 -10.8704,-16.08548 -14.7226,-15.087675 -2.2383,0.57977 0.4083,6.093679 -1.8251,6.692114 -5.9157,1.585095 -15.4029,-27.4950016 -21.2931,-25.9167336 -2.9434,0.7886927 1.3605,8.2109381 -1.5818,9.0039355 -4.4227,1.1919855 -13.9018,-21.9304669 -17.6428,-20.9280659 -2.4013,0.643422 2.8829,6.179167 0.73,7.4221627 -3.5825,2.0683513 -11.7242,-12.9978267 -18.61326,-18.3202177 -4.59842,-3.552674 -25.29341,-4.977232 -25.29341,-4.977232 z"
         id="path24769-6-5-5"
         sodipodi:nodetypes="csssssssssssssssssssssssc" />
      <path
         style="fill:#4e4b0c;fill-opacity:1;stroke:#000000;stroke-width:0.264583;stroke-dasharray:none;stroke-opacity:1"
         d="m 972.83753,-31.505752 c 0,0 15.13373,4.158551 21.84493,7.787266 5.89364,3.186656 15.77674,11.117013 14.46454,13.9565147 -1.0902,2.3591547 -8.0308,-2.3239927 -7.4249,-2.3791027 0.6059,-0.05511 12.0343,17.8842336 8.8136,20.3349923 -1.438,1.0942418 -4.2632,-3.8884345 -4.2191,-3.4037361 0.044,0.4846985 2.034,10.6112648 1.8183,15.9619868 -0.2094,5.19373 0.2691,14.096214 -3.0067,15.301249 -3.1808,1.170156 -7.66352,-4.852293 -10.6417,-8.195362 -3.59577,-4.036309 -7.69269,-13.96156 -8.35069,-13.901711 -3.1112,0.282978 -0.77898,9.015746 -3.8662,8.537512 -4.25335,-0.658876 -0.79338,-25.6184995 -3.16277,-26.7134615 -2.29007,-1.0583038 -3.71283,6.6494885 -5.65095,5.03453221 -2.71904,-2.26565811 4.32799,-22.30292171 2.41143,-23.18861771 -1.52557,-0.705009 -3.99127,3.703535 -4.5715,2.126278 -0.9415,-2.559341 1.54171,-11.25834 1.54171,-11.25834 z"
         id="path24771-7-4-61"
         sodipodi:nodetypes="cssssssssssssssc" />
    </g>
  </g>
  <g
     inkscape:label="Road"
     inkscape:groupmode="layer"
     id="layer1"
     sodipodi:insensitive="true">
    <path
       id="rect238"
       style="fill:#757878;stroke:#000000;stroke-width:0.264583;stop-color:#000000"
       d="m 463.09547,64.353783 h 46.61275 L 313.63067,269.04456 H 58.780518 Z"
       sodipodi:nodetypes="ccccc" />
    <path
       style="fill:#757878;fill-opacity:1;stroke:#000000;stroke-width:0.264583;stroke-opacity:1;stop-color:#000000"
       d="M 471.11581,64.487334 115.09832,270.03412"
       id="path2042" />
    <path
       style="fill:#757878;fill-opacity:1;stroke:#000000;stroke-width:0.264583;stroke-opacity:1;stop-color:#000000"
       d="M 480.43062,63.770808 188.80458,269.05548"
       id="path2044" />
    <path
       style="fill:#757878;fill-opacity:1;stroke:#000000;stroke-width:0.264583;stroke-opacity:1;stop-color:#000000"
       d="M 486.17288,64.487334 251.15237,268.69723"
       id="path2046" />
    <path
       style="fill:#757878;fill-opacity:1;stroke:#000000;stroke-width:0.264583;stroke-opacity:1;stop-color:#000000"
       d="m 149.03739,222.83956 h 45.4994"
       id="path2048" />
    <path
       style="fill:#757878;fill-opacity:1;stroke:#000000;stroke-width:0.264583;stroke-opacity:1;stop-color:#000000"
       d="m 282.31121,173.04101 h 44.06635"
       id="path2050" />
    <path
       style="fill:#757878;fill-opacity:1;stroke:#000000;stroke-width:0.264583;stroke-opacity:1;stop-color:#000000"
       d="m 281.23642,204.20989 h 44.42462"
       id="path2052" />
    <path
       style="fill:#757878;fill-opacity:1;stroke:#000000;stroke-width:0.264583;stroke-opacity:1;stop-color:#000000"
       d="m 271.20506,252.57539 h 60.18818"
       id="path2054" />
    <path
       style="fill:#757878;fill-opacity:1;stroke:#000000;stroke-width:0.264583;stroke-opacity:1;stop-color:#000000"
       d="m 365.78648,144.73824 h 29.73583"
       id="path2056" />
    <path
       style="fill:#757878;fill-opacity:1;stroke:#000000;stroke-width:0.264583;stroke-opacity:1;stop-color:#000000"
       d="m 347.87334,122.16767 h 23.28709"
       id="path2058" />
    <path
       style="fill:#757878;fill-opacity:1;stroke:#000000;stroke-width:0.264583;stroke-opacity:1;stop-color:#000000"
       d="m 399.4632,105.32931 h 20.42099"
       id="path2060" />
    <path
       style="fill:#757878;fill-opacity:1;stroke:#000000;stroke-width:0.264583;stroke-opacity:1;stop-color:#000000"
       d="m 407.34498,133.99035 h 35.8263"
       id="path2062" />
    <path
       style="fill:#757878;fill-opacity:1;stroke:#000000;stroke-width:0.264583;stroke-opacity:1;stop-color:#000000"
       d="m 458.93487,89.207476 h 27.22798"
       id="path2064" />
    <path
       style="fill:#757878;fill-opacity:1;stroke:#000000;stroke-width:0.264583;stroke-opacity:1;stop-color:#000000"
       d="m 454.09831,74.160435 h 11.28527"
       id="path2066" />
    <path
       style="fill:#757878;fill-opacity:1;stroke:#000000;stroke-width:0.264583;stroke-opacity:1;stop-color:#000000"
       d="m 472.72799,69.144752 h 8.0609"
       id="path2068" />
  </g>
  <g
     inkscape:groupmode="layer"
     id="layer2"
     inkscape:label="FoodNTool">
    <g
       id="g4970">
      <path
         style="fill:#8c653f;fill-opacity:1;stroke:#000000;stroke-width:0.264583;stroke-dasharray:none;stroke-opacity:1;stop-color:#000000"
         d="M 190.95416,17.913148 V 191.31242 h -16.4801 V 18.987937 Z"
         id="path5109" />
      <path
         style="fill:#8c653f;fill-opacity:1;stroke:#000000;stroke-width:0.264583;stroke-dasharray:none;stroke-opacity:1;stop-color:#000000"
         d="M 183.43064,17.913148 V 191.31242"
         id="path5111" />
      <path
         style="fill:#8c653f;fill-opacity:1;stroke:#000000;stroke-width:0.270211;stroke-dasharray:none;stroke-opacity:1;stop-color:#000000"
         d="M 11.103295,90.289873 V 271.20675 H -5.3710814 V 91.411259 Z"
         id="path5109-1" />
      <path
         style="fill:#8c653f;fill-opacity:1;stroke:#000000;stroke-width:0.270211;stroke-dasharray:none;stroke-opacity:1;stop-color:#000000"
         d="M 3.5823882,90.289873 V 271.20675"
         id="path5111-6" />
      <g
         id="g5105">
        <g
           id="g4914">
          <path
             style="fill:#8c653f;fill-opacity:1;stroke:#000000;stroke-width:0.264583;stroke-dasharray:none;stroke-opacity:1;stop-color:#000000"
             d="M 43.572789,139.83825 275.62323,41.546147 179.76695,15.025952 -27.409301,95.505473 Z"
             id="path4506"
             sodipodi:nodetypes="ccccc" />
          <path
             style="fill:#8c5b22;fill-opacity:1;stroke:#000000;stroke-width:0.264583;stroke-dasharray:none;stroke-opacity:1;stop-color:#000000"
             d="m 44.066346,139.00603 -71.652595,-44.424607 0.716526,16.121837 69.861278,42.63329 z"
             id="path4508" />
          <path
             style="fill:#8c653f;fill-opacity:1;stroke:#000000;stroke-width:0.264583;stroke-dasharray:none;stroke-opacity:1;stop-color:#000000"
             d="M 43.34982,139.00603 43.081121,153.96351 274.42943,54.814234 V 40.841977 Z"
             id="path4909"
             sodipodi:nodetypes="ccccc" />
        </g>
        <path
           style="fill:#8c653f;fill-opacity:1;stroke:#000000;stroke-width:0.264583;stroke-dasharray:none;stroke-opacity:1;stop-color:#000000"
           d="M -6.0904704,87.416163 65.500339,128.74914"
           id="path4916" />
        <path
           style="fill:#8c653f;fill-opacity:1;stroke:#000000;stroke-width:0.264583;stroke-dasharray:none;stroke-opacity:1;stop-color:#000000"
           d="m 29.019301,74.160435 70.77358,40.861145"
           id="path4918" />
        <path
           style="fill:#8c653f;fill-opacity:1;stroke:#000000;stroke-width:0.264583;stroke-dasharray:none;stroke-opacity:1;stop-color:#000000"
           d="M 52.664656,63.770808 115.71894,108.19542"
           id="path4920" />
        <path
           style="fill:#8c653f;fill-opacity:1;stroke:#000000;stroke-width:0.264583;stroke-dasharray:none;stroke-opacity:1;stop-color:#000000"
           d="M 84.908323,50.873342 155.86747,91.84162"
           id="path4922" />
        <path
           style="fill:#8c653f;fill-opacity:1;stroke:#000000;stroke-width:0.264583;stroke-dasharray:none;stroke-opacity:1;stop-color:#000000"
           d="m 106.4041,42.275029 70.48261,40.693152"
           id="path4924" />
        <path
           style="fill:#8c653f;fill-opacity:1;stroke:#000000;stroke-width:0.264583;stroke-dasharray:none;stroke-opacity:1;stop-color:#000000"
           d="m 130.40772,33.676719 67.40522,38.916422"
           id="path4926" />
        <path
           style="fill:#8c653f;fill-opacity:1;stroke:#000000;stroke-width:0.264583;stroke-dasharray:none;stroke-opacity:1;stop-color:#000000"
           d="m 150.82871,25.794933 73.31827,35.816758"
           id="path4928"
           sodipodi:nodetypes="cc" />
        <path
           style="fill:#8c653f;fill-opacity:1;stroke:#000000;stroke-width:0.264583;stroke-dasharray:none;stroke-opacity:1;stop-color:#000000"
           d="m 166.77141,20.062726 76.48914,32.960191"
           id="path4930"
           sodipodi:nodetypes="cc" />
        <path
           style="fill:#8c653f;fill-opacity:1;stroke:#000000;stroke-width:0.264583;stroke-dasharray:none;stroke-opacity:1;stop-color:#000000"
           d="m 66.119176,128.69173 1.773309,14.94648"
           id="path4932" />
        <path
           style="fill:#8c653f;fill-opacity:1;stroke:#000000;stroke-width:0.264583;stroke-dasharray:none;stroke-opacity:1;stop-color:#000000"
           d="m 99.558757,115.26523 1.519983,13.93316"
           id="path4934" />
        <path
           style="fill:#8c653f;fill-opacity:1;stroke:#000000;stroke-width:0.264583;stroke-dasharray:none;stroke-opacity:1;stop-color:#000000"
           d="m 115.51856,108.17198 1.51998,13.17317"
           id="path4936" />
        <path
           style="fill:#8c653f;fill-opacity:1;stroke:#000000;stroke-width:0.264583;stroke-dasharray:none;stroke-opacity:1;stop-color:#000000"
           d="m 155.03806,91.958852 0.50666,13.679828"
           id="path4938" />
        <path
           style="fill:#8c653f;fill-opacity:1;stroke:#000000;stroke-width:0.264583;stroke-dasharray:none;stroke-opacity:1;stop-color:#000000"
           d="m 176.3178,83.092297 -0.25333,13.426498"
           id="path4940" />
        <path
           style="fill:#8c653f;fill-opacity:1;stroke:#000000;stroke-width:0.264583;stroke-dasharray:none;stroke-opacity:1;stop-color:#000000"
           d="m 197.59753,72.452428 1.01332,14.946481"
           id="path4942" />
        <path
           style="fill:#8c653f;fill-opacity:1;stroke:#000000;stroke-width:0.264583;stroke-dasharray:none;stroke-opacity:1;stop-color:#000000"
           d="M 224.70386,61.812561 V 75.492392"
           id="path4944" />
        <path
           style="fill:#8c653f;fill-opacity:1;stroke:#000000;stroke-width:0.264583;stroke-dasharray:none;stroke-opacity:1;stop-color:#000000"
           d="m 244.21028,53.199336 1.51998,13.679829"
           id="path4946" />
      </g>
      <g
         id="g5066">
        <g
           id="g15505-1-8"
           transform="matrix(0.23045908,0.14632088,-0.14632088,0.23045908,158.96831,14.991448)">
          <path
             style="fill:#8c653f;fill-opacity:1;stroke:#000000;stroke-width:0.19273;stroke-dasharray:none"
             d="M 454.30599,186.61708 V 359.94892 H 465.2583 V 152.83207 h -10.95231 z"
             id="path13849-6-0" />
          <path
             style="fill:#808382;fill-opacity:1;stroke:#000000;stroke-width:0.132292;stroke-dasharray:none"
             d="m 465.2086,180.21205 c 0,0 20.24688,-23.25081 33.11815,-32.91657 2.39205,-1.79632 8.88743,-3.67912 8.94786,-0.6883 0.64778,32.05932 1.05126,43.68802 0,70.89455 -0.12402,3.20965 -6.60103,1.05133 -9.63615,0 -12.96786,-4.49192 -32.34994,-25.46697 -32.34994,-25.46697 z"
             id="path13851-1-0"
             sodipodi:nodetypes="csssscc" />
          <path
             style="fill:#808382;fill-opacity:1;stroke:#000000;stroke-width:0.132292;stroke-dasharray:none"
             d="m 454.41832,182.3482 c 0,0 -5.86301,-7.58956 -10.12285,-9.2416 -1.06955,-0.41479 -3.46937,-1.14682 -3.44149,0 0.1824,7.50339 -0.31413,15.91898 -0.17206,23.40209 0.0218,1.14696 2.36858,0.40601 3.44149,0 4.29465,-1.62518 10.32444,-9.11993 10.32444,-9.11993 z"
             id="path14774-5-7"
             sodipodi:nodetypes="csssscc" />
        </g>
        <g
           id="g4504"
           transform="matrix(0.87135437,0,0,0.87135437,9.7031053,35.743836)"
           style="display:inline">
          <path
             style="fill:#8c653f;fill-opacity:1;stroke:#000000;stroke-width:0.264583;stroke-dasharray:none;stroke-opacity:1;stop-color:#000000"
             d="M 59.471652,269.754 312.40531,140.43908 V 97.447525 L 59.566037,219.25693 Z"
             id="path2071"
             sodipodi:nodetypes="ccccc" />
          <path
             style="fill:#8c653f;fill-opacity:1;stroke:#000000;stroke-width:0.264583;stroke-opacity:1;stop-color:#000000"
             d="M 58.772599,219.38393 12.666509,182.90438 258.82899,66.058445 312.40531,97.089263 Z"
             id="path4040"
             sodipodi:nodetypes="ccccc" />
          <path
             style="fill:#8c6522;fill-opacity:1;stroke:#000000;stroke-width:0.251838;stroke-opacity:1;stop-color:#000000"
             d="M 62.915284,211.42002 24.062273,182.32736 259.99005,74.462329 298.28139,98.392746 Z"
             id="path4040-2"
             sodipodi:nodetypes="ccccc" />
          <path
             style="fill:#8c5b22;fill-opacity:1;stroke:#000000;stroke-width:0.264583;stroke-dasharray:none;stroke-opacity:1;stop-color:#000000"
             d="m 59.471652,219.79433 v 49.97769 H 13.076598 v -86.87878 z"
             id="path4120" />
        </g>
        <path
           style="fill:#8c653f;fill-opacity:1;stroke:#000000;stroke-width:0.264583;stroke-dasharray:none;stroke-opacity:1;stop-color:#000000"
           d="M 62.065891,238.63702 281.95648,132.23835"
           id="path4972" />
        <path
           style="fill:#8c653f;fill-opacity:1;stroke:#000000;stroke-width:0.264583;stroke-dasharray:none;stroke-opacity:1;stop-color:#000000"
           d="M 281.44983,145.41152 61.55923,254.09016"
           id="path4974" />
        <path
           style="fill:#8c653f;fill-opacity:1;stroke:#000000;stroke-width:0.264583;stroke-dasharray:none;stroke-opacity:1;stop-color:#000000"
           d="M 61.305902,238.13036 21.786395,234.33041"
           id="path4976" />
        <path
           style="fill:#8c653f;fill-opacity:1;stroke:#000000;stroke-width:0.264583;stroke-dasharray:none;stroke-opacity:1;stop-color:#000000"
           d="m 60.799241,253.33017 -39.266176,-2.5333"
           id="path4978" />
        <path
           style="fill:#8c653f;fill-opacity:1;stroke:#000000;stroke-width:0.264583;stroke-dasharray:none;stroke-opacity:1;stop-color:#000000"
           d="m 21.533065,220.65058 40.026165,5.57326"
           id="path4980" />
        <path
           style="fill:#8c653f;fill-opacity:1;stroke:#000000;stroke-width:0.264583;stroke-dasharray:none;stroke-opacity:1;stop-color:#000000"
           d="m 140.34491,189.23764 1.51999,10.1332"
           id="path4982" />
        <path
           style="fill:#8c653f;fill-opacity:1;stroke:#000000;stroke-width:0.264583;stroke-dasharray:none;stroke-opacity:1;stop-color:#000000"
           d="m 194.30424,174.54449 0.50666,13.4265"
           id="path4984" />
        <path
           style="fill:#8c653f;fill-opacity:1;stroke:#000000;stroke-width:0.264583;stroke-dasharray:none;stroke-opacity:1;stop-color:#000000"
           d="m 123.62512,222.93055 1.26665,15.19981"
           id="path4986" />
        <path
           style="fill:#8c653f;fill-opacity:1;stroke:#000000;stroke-width:0.264583;stroke-dasharray:none;stroke-opacity:1;stop-color:#000000"
           d="m 257.63678,144.3982 -1.01332,-11.65319"
           id="path4988" />
        <path
           style="fill:none;fill-opacity:1;stroke:#000000;stroke-width:0.264583;stroke-dasharray:none;stroke-opacity:1;stop-color:#000000"
           d="m 236.60074,101.24205 1.65564,24.22004 17.91752,2.76862"
           id="path4990"
           sodipodi:nodetypes="ccc" />
        <path
           style="fill:#8c653f;fill-opacity:1;stroke:#000000;stroke-width:0.264583;stroke-dasharray:none;stroke-opacity:1;stop-color:#000000"
           d="M 238.04652,125.71542 54.719317,211.53069"
           id="path4992"
           sodipodi:nodetypes="cc" />
      </g>
    </g>
    <g
       id="g15505-1-0"
       transform="matrix(-0.13190959,-0.2390001,0.2390001,-0.13190959,212.12084,283.55753)">
      <path
         style="fill:#8c653f;fill-opacity:1;stroke:#000000;stroke-width:0.19273;stroke-dasharray:none"
         d="M 454.30599,186.61708 V 359.94892 H 465.2583 V 152.83207 h -10.95231 z"
         id="path13849-6-8" />
      <path
         style="fill:#808382;fill-opacity:1;stroke:#000000;stroke-width:0.132292;stroke-dasharray:none"
         d="m 465.2086,180.21205 c 0,0 20.24688,-23.25081 33.11815,-32.91657 2.39205,-1.79632 8.88743,-3.67912 8.94786,-0.6883 0.64778,32.05932 1.05126,43.68802 0,70.89455 -0.12402,3.20965 -6.60103,1.05133 -9.63615,0 -12.96786,-4.49192 -32.34994,-25.46697 -32.34994,-25.46697 z"
         id="path13851-1-3"
         sodipodi:nodetypes="csssscc" />
      <path
         style="fill:#808382;fill-opacity:1;stroke:#000000;stroke-width:0.132292;stroke-dasharray:none"
         d="m 454.41832,182.3482 c 0,0 -5.86301,-7.58956 -10.12285,-9.2416 -1.06955,-0.41479 -3.46937,-1.14682 -3.44149,0 0.1824,7.50339 -0.31413,15.91898 -0.17206,23.40209 0.0218,1.14696 2.36858,0.40601 3.44149,0 4.29465,-1.62518 10.32444,-9.11993 10.32444,-9.11993 z"
         id="path14774-5-78"
         sodipodi:nodetypes="csssscc" />
    </g>
    <g
       id="g15505"
       transform="matrix(0.16428633,0.10430711,-0.10430711,0.16428633,127.7863,226.58271)">
      <path
         style="fill:#8c653f;fill-opacity:1;stroke:#000000;stroke-width:0.19273;stroke-dasharray:none"
         d="M 454.30599,186.61708 V 359.94892 H 465.2583 V 152.83207 h -10.95231 z"
         id="path13849" />
      <path
         style="fill:#808382;fill-opacity:1;stroke:#000000;stroke-width:0.132292;stroke-dasharray:none"
         d="m 465.2086,180.21205 c 0,0 20.24688,-23.25081 33.11815,-32.91657 2.39205,-1.79632 8.88743,-3.67912 8.94786,-0.6883 0.64778,32.05932 1.05126,43.68802 0,70.89455 -0.12402,3.20965 -6.60103,1.05133 -9.63615,0 -12.96786,-4.49192 -32.34994,-25.46697 -32.34994,-25.46697 z"
         id="path13851"
         sodipodi:nodetypes="csssscc" />
      <path
         style="fill:#808382;fill-opacity:1;stroke:#000000;stroke-width:0.132292;stroke-dasharray:none"
         d="m 454.41832,182.3482 c 0,0 -5.86301,-7.58956 -10.12285,-9.2416 -1.06955,-0.41479 -3.46937,-1.14682 -3.44149,0 0.1824,7.50339 -0.31413,15.91898 -0.17206,23.40209 0.0218,1.14696 2.36858,0.40601 3.44149,0 4.29465,-1.62518 10.32444,-9.11993 10.32444,-9.11993 z"
         id="path14774"
         sodipodi:nodetypes="csssscc" />
    </g>
    <g
       id="g15505-1-4"
       transform="matrix(-0.11925589,-0.24555899,0.24555899,-0.11925589,145.1118,313.09767)">
      <path
         style="fill:#8c653f;fill-opacity:1;stroke:#000000;stroke-width:0.19273;stroke-dasharray:none"
         d="M 454.30599,186.61708 V 359.94892 H 465.2583 V 152.83207 h -10.95231 z"
         id="path13849-6-9" />
      <path
         style="fill:#808382;fill-opacity:1;stroke:#000000;stroke-width:0.132292;stroke-dasharray:none"
         d="m 465.2086,180.21205 c 0,0 20.24688,-23.25081 33.11815,-32.91657 2.39205,-1.79632 8.88743,-3.67912 8.94786,-0.6883 0.64778,32.05932 1.05126,43.68802 0,70.89455 -0.12402,3.20965 -6.60103,1.05133 -9.63615,0 -12.96786,-4.49192 -32.34994,-25.46697 -32.34994,-25.46697 z"
         id="path13851-1-4"
         sodipodi:nodetypes="csssscc" />
      <path
         style="fill:#808382;fill-opacity:1;stroke:#000000;stroke-width:0.132292;stroke-dasharray:none"
         d="m 454.41832,182.3482 c 0,0 -5.86301,-7.58956 -10.12285,-9.2416 -1.06955,-0.41479 -3.46937,-1.14682 -3.44149,0 0.1824,7.50339 -0.31413,15.91898 -0.17206,23.40209 0.0218,1.14696 2.36858,0.40601 3.44149,0 4.29465,-1.62518 10.32444,-9.11993 10.32444,-9.11993 z"
         id="path14774-5-2"
         sodipodi:nodetypes="csssscc" />
    </g>
  </g>
  <g
     inkscape:groupmode="layer"
     id="layer3"
     inkscape:label="WeaponSHop">
    <path
       style="fill:#8c653f;fill-opacity:1;stroke:#000000;stroke-width:0.264583;stroke-dasharray:none;stroke-opacity:1;stop-color:#000000"
       d="m 445.32085,188.62545 c 0,0 2.29106,1.28851 3.5593,1.36265 1.11507,0.0652 3.2477,-0.82526 3.2477,-0.82526 l -0.71652,-104.971043 -6.26961,0.179129 z"
       id="path7661"
       sodipodi:nodetypes="cscccc" />
    <path
       style="fill:#8c653f;fill-opacity:1;stroke:#000000;stroke-width:0.29714;stroke-dasharray:none;stroke-opacity:1;stop-color:#000000"
       d="m 405.12125,257.87221 c 0,0 2.28028,1.63279 3.54256,1.72674 1.10982,0.0826 3.23242,-1.04576 3.23242,-1.04576 l -0.71315,-133.01914 -6.24012,0.227 z"
       id="path7661-9"
       sodipodi:nodetypes="cscccc" />
    <g
       id="g5213"
       transform="matrix(0.68958415,0,0,0.68958415,-29.016104,77.424989)">
      <g
         id="g2454"
         transform="matrix(0.94268968,-1.1019389,1.1019389,0.94268968,750.50651,614.94854)">
        <path
           id="path5204"
           style="fill:#7b602d;fill-opacity:1;stroke:#000000;stroke-width:0.264583;stop-color:#000000"
           d="m 624.5419,154.23221 c 0,3.01741 -12.42161,5.91133 -27.85494,5.91134 -15.43333,-1e-5 -27.76538,-2.1774 -27.76538,-5.19482 0,-3.01741 12.51118,-6.0009 27.94451,-6.0009 15.43333,0 27.67581,2.26696 27.67581,5.28438 z"
           sodipodi:nodetypes="sssss"
           transform="matrix(0.44827372,0.52400091,-0.52400091,0.44827372,-14.198751,-668.93137)" />
        <g
           id="g2465"
           transform="matrix(0.45372102,-0.23537887,0.23537887,0.45372102,39.308224,-122.21056)">
          <path
             style="fill:#491b19;fill-opacity:1;stroke:#000000;stroke-width:0.264583"
             d="m 303.94367,-167.18118 2.26407,8.44969 c 0,0 -11.73044,4.09982 -17.59511,6.15129 -16.22431,5.67528 -48.66992,17.03447 -48.66992,17.03447 0,0 1.13603,-8.05011 0.24335,-11.92413 -0.83904,-3.64123 -5.11034,-9.97733 -5.11034,-9.97733 l 46.23642,-6.8138 c 0,0 2.66145,3.70154 4.38031,3.16355 2.1232,-0.66455 18.25122,-6.08374 18.25122,-6.08374 z"
             id="path5466"
             sodipodi:nodetypes="ccscsccsc" />
          <path
             style="fill:#27343d;fill-opacity:1;stroke:#000000;stroke-width:0.264583"
             d="m 304.14108,-167.08401 8.08749,-3.01129 5.76448,-4.38789 28.90845,-0.25812 -0.2581,7.6573 c 0,0 -1.37807,2.2312 -2.49507,2.23697 -5.60114,0.0289 -10.45698,-0.3457 -15.65876,0.086 -4.66112,0.38683 -9.37413,0.88618 -13.85197,2.23697 -2.92452,0.88221 -8.34559,3.78563 -8.34559,3.78563 z"
             id="path6212"
             sodipodi:nodetypes="cccccssscc" />
          <path
             style="fill:#491b19;fill-opacity:1;stroke:#000000;stroke-width:0.264583"
             d="m 346.77318,-172.04817 h 50.61672 l 0.36502,3.40689 -0.36502,2.55517 h -49.39996 l -1.09508,-0.4867 z"
             id="path367" />
          <path
             style="fill:#27343d;fill-opacity:1;stroke:#000000;stroke-width:0.264583"
             d="m 346.83403,-172.23069 h 114.66886 c 0,0 -0.61463,-0.76038 -0.62915,-1.21674 -0.0141,-0.4426 0.53392,-1.21646 0.53392,-1.21646 h -114.5432 z"
             id="path1736"
             sodipodi:nodetypes="ccsccc" />
          <path
             style="fill:#212b2f;fill-opacity:1;stroke:#000000;stroke-width:0.264583"
             d="m 461.57157,-174.57649 c 0,0 0.49819,0.76219 0.51208,1.14725 0.0134,0.37103 -0.36744,1.12128 -0.36744,1.12128 0,0 -0.83014,-0.63258 -0.85503,-1.04534 -0.0262,-0.43486 0.71039,-1.22319 0.71039,-1.22319 z"
             id="path2095"
             sodipodi:nodetypes="cscsc" />
          <path
             style="fill:#27343d;fill-opacity:1;stroke:#000000;stroke-width:0.264583"
             d="m 397.8766,-167.85039 h 42.46451 c 0,0 1.01668,-1.31747 1.03423,-2.31182 0.0149,-0.84224 -0.67566,-2.01331 -0.67566,-2.01331 h -43.00559 z"
             id="path2151"
             sodipodi:nodetypes="ccsccc" />
          <path
             style="fill:#27343d;fill-opacity:1;stroke:#000000;stroke-width:0.264583"
             d="m 308.87311,-160.05047 c 0,0 0.56313,4.6975 2.23696,6.0441 1.94033,1.561 5.00456,1.71598 7.39921,1.03244 2.15387,-0.61481 3.89949,-2.4518 5.1622,-4.30185 0.81802,-1.19851 0.58458,-2.91394 1.3766,-4.12978 0.87265,-1.33963 3.54904,-3.22639 3.54904,-3.22639 0,0 -4.84143,0.23024 -7.16258,0.64528 -3.05577,0.5464 -6.0123,1.14564 -8.92636,2.21545 -1.1809,0.43354 -3.63507,1.72075 -3.63507,1.72075 z"
             id="path2422"
             sodipodi:nodetypes="csssscssc"
             mask="url(#mask-powermask-path-effect2440)"
             inkscape:path-effect="#path-effect2440"
             inkscape:original-d="m 308.87311,-160.05047 c 0,0 0.56313,4.6975 2.23696,6.0441 1.94033,1.561 5.00456,1.71598 7.39921,1.03244 2.15387,-0.61481 3.89949,-2.4518 5.1622,-4.30185 0.81802,-1.19851 0.58458,-2.91394 1.3766,-4.12978 0.87265,-1.33963 3.54904,-3.22639 3.54904,-3.22639 0,0 -4.84143,0.23024 -7.16258,0.64528 -3.05577,0.5464 -6.0123,1.14564 -8.92636,2.21545 -1.1809,0.43354 -3.63507,1.72075 -3.63507,1.72075 z" />
        </g>
      </g>
      <g
         id="g8623"
         transform="translate(-1.6100163e-6)">
        <path
           style="fill:#8c653f;fill-opacity:1;stroke:#000000;stroke-width:0.264583;stroke-dasharray:none;stroke-opacity:1;stop-color:#000000"
           d="m 624.20555,155.03806 c 0,0 17.45588,36.83862 17.7331,55.73264 0.29774,20.29236 -9.11988,56.74596 -9.11988,56.74596 0,0 -20.48535,5.30285 -32.93292,6.58659 -11.79804,1.21675 -32.42626,-4.05328 -32.42626,-4.05328 0,0 -12.04383,-37.99099 -12.4132,-56.74596 -0.44484,-22.58672 13.93318,-57.50596 13.93318,-57.50596 0,0 16.94895,2.02565 27.86632,2.27998 10.42995,0.24297 27.35966,-3.03997 27.35966,-3.03997 z"
           id="path5142"
           sodipodi:nodetypes="cscscscsc" />
        <path
           style="fill:#8c653f;fill-opacity:1;stroke:#000000;stroke-width:0.264583;stroke-dasharray:none;stroke-opacity:1;stop-color:#000000"
           d="m 563.53298,170.61787 c 0,0 21.78904,9.32332 33.31291,9.24655 12.0515,-0.0803 34.70624,-10.13321 34.70624,-10.13321"
           id="path5144"
           sodipodi:nodetypes="csc" />
        <path
           style="fill:#8c653f;fill-opacity:1;stroke:#000000;stroke-width:0.264583;stroke-dasharray:none;stroke-opacity:1;stop-color:#000000"
           d="m 638.64537,192.53093 c 0,0 -27.65825,13.62212 -42.55947,13.67983 -13.71441,0.0531 -39.26617,-12.28652 -39.26617,-12.28652"
           id="path5146"
           sodipodi:nodetypes="csc" />
        <path
           style="fill:#8c653f;fill-opacity:1;stroke:#000000;stroke-width:0.264583;stroke-dasharray:none;stroke-opacity:1;stop-color:#000000"
           d="m 555.29974,221.15724 c 0,0 27.36888,13.56929 42.0528,13.17317 15.67919,-0.42297 44.07945,-16.46646 44.07945,-16.46646"
           id="path5148"
           sodipodi:nodetypes="csc" />
        <path
           style="fill:#8c653f;fill-opacity:1;stroke:#000000;stroke-width:0.264583;stroke-dasharray:none;stroke-opacity:1;stop-color:#000000"
           d="m 637.3787,248.01024 c 0,0 -24.77988,11.05157 -37.99951,11.39985 -13.20561,0.34791 -37.7462,-9.37321 -37.7462,-9.37321"
           id="path5150"
           sodipodi:nodetypes="csc" />
      </g>
    </g>
    <path
       style="fill:#ffeece;fill-opacity:1;stroke:#000000;stroke-width:0.264583;stroke-dasharray:none;stroke-opacity:1;stop-color:#000000"
       d="m 495.5138,270.04997 c 0,0 -13.17821,-111.38099 -14.69313,-139.83826 -0.52778,-9.91405 -115.78603,9.40108 -92.21218,-10.63987 10.09853,-8.58511 62.28517,-44.472033 77.01237,-52.186014 8.57509,-4.491558 43.57279,0.75999 43.57279,0.75999 L 507.927,269.79662 Z"
       id="path5335"
       sodipodi:nodetypes="csssccc" />
    <path
       style="fill:#ff4563;fill-opacity:1;stroke:#000000;stroke-width:0.264583;stroke-dasharray:none;stroke-opacity:1;stop-color:#000000"
       d="m 422.42805,95.252144 c 0,0 68.76231,-2.890392 69.91913,1.393316 3.73168,13.81847 18.23979,115.51855 18.23979,115.51855 l 1.0133,-60.54591 c 0,0 -6.07797,-55.909238 -10.63984,-67.639148 -2.91826,-7.503694 -58.26596,-2.279973 -58.26596,-2.279973 z"
       id="path6903"
       sodipodi:nodetypes="csccscc" />
  </g>
</svg>
